<?xml version="1.0" encoding="UTF-8"?>
<svg id="Layer_1" xmlns="http://www.w3.org/2000/svg" version="1.1" viewBox="0 0 204.4 175">
  <!-- Generator: Adobe Illustrator 29.3.1, SVG Export Plug-In . SVG Version: 2.1.0 Build 151)  -->
  <defs>
    <style>
      .st0 {
        fill: #3d348b;
      }
    </style>
  </defs>
  <path class="st0" d="M138.3,163c-.9-.2-1.8.1-2.7.4-.3.1-.4.4-.5.6,0,.4,0,.8-.6.8s-.6-.3-.9-.6c-.2-.3-.2-.6-.6-1-.2.5-.2.8,0,1.2s.2.9,0,1.4c-.1.4-.6.7-1,.5-.3-.1-.3-.6-.1-.7.7-.5,0-1-.1-1.3-.2-.4-.4.4-.8.2-.1,0-.3.2-.6.3.5,0,.9,0,.8.7,0,.5-.3.6-.7.7-.9.3-1.7.5-2.4,1.3-.4.5-1.3.8-1.9,1.2-.3.2-.6.2-.8.5,0,.1-.3.2-.4.3-.3-.8-1.2,0-1.5-.5-.3-.6-1.3,0-1.4-.8-.6,1-1.7,0-2.6.7.8.1,1.2.6,1.7,1,.2.2.4.2.3.5s-.4.2-.7.1c-.3,0-.4-.5-.9-.3.6.3.4.6.2,1.1-.3.7-1,.6-1.5,1.1s-.8-.1-.8-.7,0-1-.8-1.2c-.3,0-.9-.2-.9-.9s.3-.3,0-.4c-.3,0-.3.2-.4.4,0,.6.6,1,.5,1.6,0,.3.4.8,0,.9-.5.1-.2-.5-.3-.6-.3-.1-.7-.6-1,0s-.6.3-.8.1c-.2-.2-.5-.6,0-.8.8-.3.3-.8.4-1.3-.4.3,0,.8-.5.9,0,0-.3-.2-.3-.4,0-.4-.2-.9.3-1,.8-.2.2-.5.2-.8h.3-.3c0,.3-.3.5-.6.6-.7.2-.9.8-.3,1.4.3.3.3.5,0,.8,0,.2-.3.4-.6.3-.3,0-.4-.3-.4-.6,0-.8-1.2-.3-1.4-1.3-.3,1-1.1,1.3-1.5,1.9,0,.2-.4.2-.6.2s-.2-.7-.6-.2c-.3.3,0,.6.2.8,0,.1.3.2.2.5-.5-.2-1-.2-1.4,0-.3-.2,0-.5,0-.6.8-.9,0-1-.6-1.3h0c.3.3,0,.5,0,.8s-.3.3-.4,0c-.4-.4-.4-.5-.7,0-.2.3-.3,0-.4,0-.3-.3-.7-.2-1,0-.7-.5-1.6,0-2.2-.5-.5-.7-1-.5-1.6,0,0,0,0,.2-.2.3-.2.2-.4,0-.6,0h0c0,0,.3.1.4,0,.2,0,.2-.3.4-.4.5-.3,1-.5,1.5,0,.7.5,1.6,0,2.3.5.3,1-.2,1.2-1.1,1.2s-1.4,0-2.1.4h-.5c-.9-.1-1.7-.8-2.6-.8s-1.2-1.4-1.1-1.7c0-.4.4,0,.6-.2-.6-.4-1.1,0-1.5.2-.5.3-.9.4-1.5.1,0-.2,0-.3.2-.4,0,.1-.2.3-.2.5-1.1,0-1.5-.4-1.4-1.5,0-.8,0-.8-1.3-.4,1.2,0,1.2.7,1.1,1.3,0,.2,0,.4-.3.4-1-.2-1.7,1-2.9.6.2.3,0,.7.2,1h0c-.5.3-1.6.2-.8,1.3,0,.1,0,.4-.2.4h-.8c-.4-.4-.6-1-1.1-1.5v-.6c.3-.3.4,0,.6.2.5.2.6-.3.9-.6.4-.3,0-.7.2-1.1h-.4c.2.6,0,.6-.5.5-.4,0-.7-.3-.7-.7,0-1-.6-.7-1.1-.7s-.4,0-.3.4c0,.5.3,1.2-.7,1.1-.3,0-.3.3-.3.5,0,.5-.3.6-.7.6s-.5-.3-.6-.6c0-.3-.2-.6-.3-1,0,.5,0,.9-.7.8-.4,0-.7,0-.8-.6,0-.5-.6-.3-1-.2.2.5,1,.4.8.7-.3.5-.6,1.1-1.3,1.3-.4.1-.9.2-.3.8.2.2,0,.5,0,.6-.2.2-.4,0-.4-.2s-.2-.2-.3-.3c-.2-.2-.6.2-.6-.3s0-.8.6-.9c.4,0,.9-.2,0-.7s-1.4-1.5-1.8-2.4c-.2-.4-.2-.9.3-1.1.3-.1.3-.3.4-.6-.5-.2-1.3.2-1.7-.6-.2.5,0,.8.2,1.1s.4.6,0,.8c-.2.2-.6.4-.7-.1,0,0,0-.1,0-.2-.4,1.5-1.4-.2-2,.4.2-.5,0-.9.3-1.4v-.5c0,.2,0,.3,0,.5-.3,0-.9-.6-.6.4,0,.4-.4,1.2-1.2.3v2c0,.4,0,.6.5.6s.6,0,.7.3-.2.4-.4.6c-.3.2-.6.3-.9,0-.5-.5-1.1-.8-1.7-1s-.6-.9-.2-1.1c1-.3.9-1,.9-1.7s.3-.3,0-.6c-.3.1-.7,0-.7.5s0,.5-.5.5-.3-.2-.4-.5c-.2-.7-.8-.6-1.3-.6s-.3.2-.3.2c.5.9-.5.8-.8,1.2-.5.6-.9.3-1.3,0s-.2-1.6,0-1.8c.4-.3.6,0,.6.2v1.1c.3-.7.9-1,.3-1.7-.4-.4-1-.4-1.3-.2-1.3.5-1.4,1-1,2.1-.6,0-1.4.3-1.1-.9,0-.6-.5,0-.7-.3.4-.4.9-.8,1.6-1-.6-.4-.9,0-1.2,0-.3.1-.6,0-.9,0s-.5-.6-.7-.1c-.2.3.2.5.4.7s.6.5.4.8c-.2.3-.5.4-.8,0h0c-.4,0-1.1.5-1.2-.2,0-.5.7-.7,1-1.1-.4-.4-1.1-.9.2-1.1.6,0,.4-.7.3-.9,0-.4-.4-.2-.6,0-.3.4-.5-.2-.9-.1,0,.4.6.7.2,1.1-.5.5-.9,0-1.4,0h0c.2-.4-.6-1.2.6-1.1.2,0,0-.5,0-.8-.5,0-.8,1.1-1.3.3-.2-.3-.7-.8-.4-1.2,0-.3.8.5.9-.3-.4-.1-.8-.3-1.3-.5.2.5,0,.9-.6.8h0c-.6.7-1.2,1-1.9,0-.2-.2-.5.1-.7.4,0,0-.3.3-.5.1,0,0,0-.2-.2-.3.7-.3.4-1.4,1.4-1.5-.7-.1-1.2-.6-1.8,0,0,.2-.5,0-.6-.3-.2-.5.2-.3.4-.3.8,0,.8-.6.9-1.2.5-.1.9,0,1,.4-.2-.3-.5-.5-1-.3-.4.1-.8.2-1.1.3-.3.2-.5.2-.6-.2,0,0,0-.5-.3-.2,0,.1-.3.3,0,.5s.4.5.4.8,0,.7-.4.8c-.5,0-.8-.3-.8-.6,0-1.1-.6-.7-1.1-.6,0,.1,0,.2,0,.3.2.2.7-.1.7.4v.3c-.3,0-.7-.1-.8-.4-.2-.2-1.1-.2-.4-.8-1.3-.5,0-1.7-.6-2.3h0c0-1.3,0-1.3,1.1-.9,0,0,.2.3.3,0,0-.2,0-.4-.2-.4-.3,0-.6-.1-.9-.1-.7,0-.9-.4-.8-1q-1,.6-1.4-.6c0-.3-.2-.2-.3-.2q-.4-.2-.6-.8c-.2,0-.2.2-.3.4s-.2.5-.4.8c.3,0,.6,0,.8.1.2,0,.5.3.4.5,0,.2,0,.4-.4.5-.7.3-1.4.5-2.2.5,0-.2,0-.3,0-.4,0-.6,1.1-.4.8-1-.2-.4-1-.2-1.1-.9,0-.3-.4,0-.6,0-1.2-.3-1.3-.6-.5-1.7v-.2c.5-.1.9-.4,1.2-.2-.3-.1-.8,0-1.2.2-.3.1-.8-.1-.8.6s-.6.3-.9.3h0c-.2-.2,0-.6-.4-.8-.2,0-.3,0-.2-.2-.6-.9,0-1,.8-1.2-.6,0-.8-1.1-1.6-.3-.2.2-.4-.1-.5-.2-.2-.2-.3-.4-.2-.7,0-.2.4-.4.5-.7-.4-.6-1.3-.3-1.6-1,0,0,0-.1-.2,0-1.3.9-.7-.5-1-.8,0-.1,0-.6.4-.8s.5.1.7.3.4.3.6.1c.2-.2,0-.4,0-.7,0-.5-.2-.2-.5-.1-.6,0-.7-.4-.5-.8.2-.7-.3-.3-.5-.4-.2,0-.3,0-.2-.2-.3-.5-.7-.4-1-.1-.5.5-.9.4-1.5.3h0c-.2-.6,0-1.5-1.2-1.3-.3,0-.4-.3-.4-.6,0-.5.3-.4.6-.4s.7,0,1,.5c0-.8-.5-.8-.7-1.2.4-.2.9,0,1.3-.1.3.2-.7.6.2.8.2,0,.7.5.4.7-.5.6.2.4.3.6,0,.2.3.3.5,0s0-.4-.2-.7c-.3-.6-.5-1.3-.9-1.9-.2-.4,0-.6.4-.6s.5.4.9.4c0-.4,0-1-.5-1s-1.1-.6-1.4.4c0,.4-.8.3-.9,0-.3-.8-.5-.7-1-.2-.2.2-.5.4-.7.2-.3-.3,0-.6.2-.7.6-.2.1-1.3,1.4-1.1-.6-.2-.9-.3-1.1-.4-.4,0-.3-.4-.3-.7s.1-.4.4-.5.5.2.6.3c.4.5.7,1,1.6.7-1.1-.3-1.3-1.3-2-2.1,0,1.3-1.2.8-1.8,1.1-.3.1-.5-.6-.4-1h0c-.1-.4-.2-.7,0-1h.1c.2,0,.4,0,.4-.2s-.2-.4-.4-.4c-1.2-.2-.7-.6-.1-1,.7,0,.9.8,1.3.8-.4,0-.6-.9-1.3-.8.1-.2.1-.4,0-.7-.5.2-.7,1.1-1.4.6-.2-.1-.5-.3-.4-.5,0-.2.1-.4.4-.6.8-.4.8-.5.1-1.1-.3-.2,0-.5-.3-.7-.2.9-1,.7-1.5,1.1-.2.1-.4-.2-.3-.2.6-.6-.3-1.3.3-1.9.4-.4-.3-.3-.5-.3-.3-.4-.2-.8,0-1.1-.1.3-.3.7.1,1.1.1,1-.4.9-1,.6-.7-.3-.9-1.4-.6-2.1.1-.3.8-.7-.2-1.1-.2,0-.9-1.1,0-1.7.6-.4.4-1,.2-1.5-.1-.4.5-.8,0-1-.4,0-1.1-.2-1.4.5,0,0-.2.3-.4,0-.2-.2-.5-.4-.4-.7.1-.4,0-.8-.2-1.2-.4-.7-.4-1.4,1.1-1.5v.2h0c-.2-.4.4-.5.3-.7-.2-.3-.5,0-.7,0-.8.5-1.9.6-2.6,1.3-.4.4-1,.2-1.7-.2.6,0,.8-.4,1.2-.9-.5,0-.9-.3-1.3.2-.2-.6.1-1.2.4-1.2.5,0,1.1.4,1.5.7.2.2.3.5.7.2.4-.3.4-.5.1-.7-.6-.5.2-.7.2-1.1,0-1-.2-1.9,0-2.9,0,0,0-.7-.4-.6-.3,0-.7.2-.6.7.1.4.3.8.4,1.3-.4-.4-.9,0-1.3-.2-.5-.5-.6-1.8-.1-2.3.3-.3.6-.6.7-1,0-.3.5-.6,0-1-.1,0-.5-1.1.4-1.1s.4-.3.3-.5c-.5-.9-.7-1.5-.6-2.3,0-.3,0-.6.5-.6s.4-.4.4-.8-.2-.4-.4-.4c-.4,0,0,.6-.5.6,0,0-.2,0-.2,0,0-.6.7-1.1,0-1.9-.3-.3.5-1,0-1.6-.1-.2.3-.2.5-.3h0v-.9c.6,0,.7.4,1.1.8,0-.7-.1-1.3-1-1.1-.5,0-.8-.2-.9-.7,0-.4,0-.9.6-.7.5,0-.3-.7.4-.5h0c0-.5-.5-1-.3-1.6,0-.3-.2-.4-.5-.4-.6,0-.3-.5-.4-.8,0-.4.2-.5.5-.4.5,0,.7-.3,1.1-.5-.3-.3-.8-.4-.9-.9-.1-.6.4-.7.7-1,.3-.5.3-1.4,1.3-.9.1,0,.1-.2.1-.3,0-.5-.3-.6-.8-.7-.5,0-1.4,0-1.3-.3.2-.8-.7-1.8.5-2.3-.4-.6-1.3,0-1.7-.8s-.2-1.1.2-1.6c.3.4.4,1,.9,1.3.2-.2,0-.6.1-.8.2.6,1.2.6,1.1,1.5,0,0,.5,0,.7-.3.3-.5.3-1,.2-1.6-.2-.8-.8,0-1.1-.3-.3-.3.9-.4,0-.8v-.4c.6-.7.5-1.8,1.4-2.4.3-.2,1.3-.6.3-1.3h0c0-.3-.8-.2-.6-.7.1-.3.6,0,.9-.2.2,0,.6.3.5-.2,0-.3.4-.7-.3-.9-.4,0-1-.2-1-.8h.5c.6-.6.5-.6,1.2-.5-1.2-2-1.1-3.3.2-3.5-.4-1-1.5-.6-2.1-1.2,0,0-.7,0-.2.5.2.2.1.5,0,.7-1-.4-.7-1.3-.7-2,.4,0,.4,0,.5.2.2,0,.5.3.6.3.3,0,.2-.5.1-.7-.4-.9.5-1.2.9-1.3.5-.2.8-.5,1.2-.8.7-.6,1-.5,1.3.3,0,.2.2.3.6.5-.7-1.5-.7-2.1.2-2.4-.8-1.1-2.3-.9-3.4-1.4-.7-.4-.7-.8-.3-1.3.2-.3.3-.5.1-.7-.2-.3-.4,0-.6.2-.3.3-.8.3-1.1,0-.3-.3,0-.5.2-.8.2-.2.2-.5,0-.8-.3,0-.5.2-.6.4-.3.4-.7.7-1.2.3-.4-.3-.4-1-.2-1.2.3-.3.8-1,1.4-.5.6.6.7,0,1-.3.8-1,1.5-1.1,2.5-.3.2.2.5.4.8.5.7.4,1,1.6.3,2-.8.5-.4,1.1-.5,1.7-.1.4.4.6.6.3.6-.8,1,0,1.4,0,.1.2.3.3.5.3-.2,0-.3-.2-.5-.3,0-.5-.3-.7-.7-.7s-.4,0-.5-.2c0-.3.1-.4.3-.6.5-.4,1.1-.5,1.8-.5,0-.2,0-.3-.2-.3-.2-.2-.6,0-.7-.3,0-.2,0-.4.3-.5.4,0,.4.2.6.4.2.3.7.2.9,0,.2-.2.4-.6.5-.9,0-.3-.3-.4-.5-.6-.7-.5-1.5-.4-2.2-.4s-.7,0-.6-.3c.1-.4,0-1.2.7-1,.6.2,1.1,0,1.7.2-.4-.8-.9-1.2-1.8-1.2,0-.4.5-.4.4-.7-.1-.5.3-1,.6-1,.5,0,.7.7.5,1.4.6-.4,1.2-.5,1.4-1.3,0-.5.5-.7,1-.8,0,0,0,0,0,0h0c-.2-1-1.1,0-1.4-.6h0c0-.6,0-1.2,1-.6.6.4.7-.6,1.2-.6-.3-.3-.9-.4-.8-1,0-.5.2-.8.7-.4.4.3.7.3.8,0,0-.3.3-.8,0-1.1,0,0-.3-.2-.4-.3-.3-.3-.2-.5.2-.7.2,0,.3,0,.4-.3,0-.5.4-.4.5,0,.4.9.9.4,1.4.2.2,0,.5-.2.4-.5s-.4-.2-.6,0c-.2,0-.3,0-.6,0-.2-.9.6-1.3,1-2.1-.7.3-1.2.9-1.8,0,0,0-.3,0-.3-.2q0-.4-.4-.2c-.2-.4,0-.8,0-1.2s0-1-.4-1.5c-.7-.8-.4-1.6.2-2.4.3.6.8.7,1.3.5.4,0,.2-.6.2-.9-.4,0-.3.7-.7.4-.2-.2,0-.6,0-.9.5-.7.5-1.7,1.6-2.1.3,0,0-.3,0-.5-.3-.3-.6-.5-.9-.8.5-.3,1.2-.6,1.1-1.3,0-.5-.4-.3-.6-.3h0c0-.5.3-.4.6-.4.7,0,.3.6.6.8.7,0-.3-1.4.9-1.3,1.9.2,2,.2,2.2.8-.7.2-1.5-.2-2.2.4-.4.3-.3.5,0,.5,1.2,0,1.1,1,1.1,1.8h0c.2,0,.6.1.6-.3,0-.6.8-.7.9-.8.7-1.4,1.9-.3,2.7-.8-.7,0-1.2-.5-1-1.4,0-.3,0-.4-.4-.4h0c0-.4.2-.5.5-.4.4.2.8.6,1.1.3.5-.6,1.5-.9,1.4-2v-.6c.8,1.2,1.5.2,2.2,0,.6,0,.9,0,.9.6s0,.5.3.6c.4,0,.4-.3.3-.5,0-.6.4-.5.7-.6-.5-.3-1.4,0-1.4-1s-.7-.4-1.1-.5c0,0,0,0,0,.2s0,.2.2.2c.5,0,.5.4.3.7-.2.4-.5.3-.7,0-.3-.5-.4.3-.7,0-.3-.2-.9.2-1-.3,0-.4-.4-1,.3-1.3.2,0,.3-.3.4-.5q.4-.7.8,0c.2.4.6,0,.8.3.4.4.3,0,.5-.3.5-.8.7-.8,1.3,0,.2.3.7.3,1,.3s0-.6.3-.9c0-.7.5-.9,1.3-.6-.8-.3-1.2,0-1.3.6-1.1.2-1.7-.2-1.6-.9,0-.3,0-.4.4-.5.5-.3.9-.7,1.2-1.1s.5-1.3,1,0c0,.2.5.2.7,0s.2-.5,0-.7c0-.1-.4-.2,0-.4.2-.1.4-.2.6,0,.4.6,1.2.7,1.6,1.4,0,.1,0,0,0,0h0v-.9c0-.3,0-.6.4-.6s.5,0,.8.2c0,0,0,.6.3.3.3-.2.7-.1.6-.7v-1h0c.2-.6.7-.6,1.1-.5.5.2.9.3,1.4.4-.3-.3-1.2-.2-.9-1.1h0c.9-.4.6-1.3.8-1.9,0-.1,0-.4,0-.5,0,0,.5,0,.5.4s.4.3.3.7c0,.4,0,.5.5.4.2,0,.5.1.5.3,0,.3-.3.4-.6.3-.4-.2-.8.2-1.2,0,.2.5.4.5.6.5.8,0,1.6-.2,1.5,1.2,0,.6.6.3.9.3.5,0,1-.8,1.6,0,0,.2.3-.2.4-.4.2-.4.3-.9,0-1.2-.2-.1-.4-.3-.8-.2,0,.3.5.6.2,1.2-.3-.8-1.3-.7-1.6-1.6s0-.8.6-.7h0v-.4c-.2-.2-1,.2-.7-.4.2-.4.2-1.3,1.1-1.2.2,0,.6,0,.5-.3,0-.5-.4-.2-.6,0-.3.2-.3-.1-.2-.2,0-.5,1.8-1.1,2-.7.2.5.5.4.9.6.5.2.3.5,0,.8-.5.4-.4,1.5.2,2-.5-.9-.4-1.4.5-1.7.6-.2.9-.3.3-1-.5-.6.4-.9.7-1,.5-.2.7-.4.3-.9-.4-.4,0-.8.2-.9.3-.1.4-.3.5-.4.2-.3.5-.6.9-.4s.3.7.3,1.1c0,.5-.5.3-.8.2,0,0-.3,0-.4.2.2.4.7,0,1,.3,0,.2,0,.5-.2.8,0,.2-.6.2-.3.6.3.4.6,0,.9,0,.5.2.2-.2.3-.4.3-.7.2-1.5.7-2.2.2-.3.3-.6.7-.6s.5.5.3.8c-.2.4-.2.7.2,1,.4.3.5-.1.7-.4s.4,0,.5,0c.2.3.3.8,0,1-.3.1-.5.2-.3.6.6-.2.8-.6.8-1.2s-.3-1,.4-1.4c.3-.1,0-.2,0-.3-.2-.3-.5-.5-.6-.8-.2-.3-.2-.6,0-.9.5-.4.3.3.5.3.9,0,.8,1.1,1.4,1.5.2,0,.3.6.6,0,0-.2.7-.1,1,0h0c0-.4-.4-.6-.8-.4-.3.2-.7.2-.9-.2-.2-.4.2-.6.4-.8.4-.6.9-1.1,1.4,0,0,.1.4.3.4.1,0-.9,1.1-.7,1.4-1.4.2-.4.8-.7,1.2,0,.6.7,1.4.9,2.2,1.4,0,0,.6,0,.5,0-.4-1,.7-1,1.1-1.2.8-.5,1.8-.8,2.8-.6.4,0,.3.3.4.5,0,.5-.3.7-.6.7-.6,0-.8.2-.9.8.5,0,.9-.9,1.3-.3.3.5.4,1.2-.3,1.6-.2.1,0,.4-.2.5-.2,0-.5.5-.4.5.2.4.5,0,.8,0,.5,0,.2-.3.3-.5.5-.9,0-2,.7-2.9,0-.1,0-.2,0-.4-.5-.9-.2-1.6.5-2.2.3.5.6,1,1.3.9.3,0,1,1.3.9,1.6,0,.4-.4.3-.6.2-.4-.3-.7,0-.9.2,0,.1-.2.2,0,.3.3.1.2.6.8.5.9-.2,1.9,0,2.7-.6.3-.2.4.2.7,0h0c0-.7.7,0,.8-.5-.2-.3-.8.2-.8-.3s-.3-1,.5-1.1c.3,0,0-.2,0-.3,0-.5.2-.6.5-.8.2,0,.4-.2.6,0,.3.3.3.9,0,1-.7.3-.4,1-.3,1.1.5.2,1.1.2,1.5-.2.3-.3.7-.7.9-.4.4.9,1.1.4,1.6.6.3,0,.4.2.5.5,0-.2,0-.5-.5-.4.3-.5-.7-.7-.3-1.2h0c.2,0,.3.4.5.2-.3-.2.3-.7-.3-.9-.8-.3-1.1-.9-1.2-1.7,0-.2,0-.4,0-.4.3.5,1.2-.2,1.3.8,0,.8.8,1.3,1.5,1.7.2.1.2-.6.6-.1.3.4,0,.7,0,1,.2.5.5.5,1,.3-.7-.4-.9-1-.4-1.4.4-.4,1-1.2,1.7-.3.3.4.9.4,1.2,0,.4-.5.9-.5,1.4-.8.3-.1.7-.2.8.2,0,.3-.6,0-.4.5.4.4.7,0,1.3,0-.7.2-.7.8-1.1,1.1-.4.2,0,.6,0,.8s.4.2.6,0,.5-.3.7-.6c.2-.2.7-.7.8.2v.2c.3.3.2-.9.6-.2.2.4.7.1,1,.2-.2-.6-.6-.7-1.1-.6-.2,0-.5-.1-.4-.3,0-.2.3-.3.5-.3h.4c.6.4,1.2,1.1,1.6-.2.4.2,1.1.2,1.2.5.4,1.1,1.5.8,2.2,1.3.2.1.5.4.8.3.4-.1.7,0,.6.5,0,.3.4.9-.4,1-.3,0-.4.1-.4.4,0,.6.3,0,.5.1.6.2.6.6.5,1.1.5-.6,1.1-.9,1.9-.9h0c-.4-.3-.3-.7-.5-1.1,0,0,0-.5,0-.4.7.6,1-.9,1.6-.2,0,0,.2-.2,0-.3-.3-.7.4-.8.7-.8.6-.2.3.5.5.7,0,0,0,.1.4.4-.5-1,.6-1.3.6-2,.4.1,1.1.3,1.1.3,0,.7.6.3.9.7-.5.1-1,.3-.9,1,0,.3-.3.2-.4.1-.5-.3-.6,0-.9.5h2.9c.3,0,.5-.4.7-.7.4-.7.9-.5,1.2,0,.2.3.3.5.6.8.5.5-.6.2-.4.6.4.3.8,0,1.1-.4-.2,1.2.9,1.5,1.3,1.7.9.2,1.4,1.1,2.3,1.2.2-.7,1.6-1,2.2-.4.1.2.2.4.4.3.2-.2-.2-.2-.2-.4s.2-.2.4-.2c.6.1.9.6.9,1.1s-.5.3-.8.4h-.7c-.2.4.5.8-.1,1-.2,0-.4.1-.4.4h.1c0-.4.6.1.7-.2.2-.8.6-1.1,1.4-.6.1,0,.5-.2.7-.4.8-.7,1.7-.7,2.3,0,.2.2.3.6-.2.6s-.3.4-.4.6c0,.2-.2.4-.5.5.2,0,.4-.3.5-.5.3,0,.4-.4.7-.3.4,0,.8-.2,1.1.2.3.4,0,.6-.2.9-.3.4-.2.5.7.8,0,.3-.3.2-.4.4,0,.1-.2.2,0,.3,0,0,.2.1.3.2.1-.7,1.4-.3,1.3-1.3,0-.3.2-.4.5-.4.5,0,1,0,1.5-.2.3-.1.4.1.4.4s-.2.7-.6.6c-.6-.1-1,.3-1.8.4.7.4,1.3.2,1.4,1,0,.9-.8.4-1,.8q.5.3,1.1,0c.4-.2.7.2.9.4.1.2.3.5.5.3.2-.1.5-.3.5-.5s-.3-.4-.5-.5c-.4-.1-.8,0-.8-.6s.4-.6.8-.7h.2c0-1.2.8-.7,1.4-.7,0,.2,0,.4-.2.4-1.1.6-.2,1.3-.2,2s.8-.4.8.4h0c-.2.4-.6.4-.9.7-.3.9-1.1,1-1.8,1.1h0c.8-.1,1.5-.3,1.9-1.1.4-.3.8-.5,1.2,0h.1c.5-.5.9,0,1.3.2.2-.8.8-.4,1.2-.4.8.1,1.3,1.5.7,2.2.5,0,1-.3,1.3.3.1.1.1.2,0,.4-.1.1-.2.3-.3.4,0,0,.1-.2.2-.3.1-.2.2-.3,0-.5.1-.5-.1-1,.4-1.4.5-.5.9,0,.9,0-.1.7.4.8.9,1,.8.3.9,1,.8,1.7-.5,0-.9.4-1.3.4h0c.5,0,.9-.3,1.3-.4.4-.5.8,0,.9.2.2.5-.5.3-.6.7.2.2.7,0,.7.5s.2.3.3.2c.6-.6,1.4-.2,2-.4.3,0,.5,0,.6,0,.2,0,0,.3-.1.4-.3.3-.5.8-1,.7-.6,0-.7.5-.9.9-.4.8-.3.8-1.2,1,.4.9,1.9.8,2.1,1.9h0s.1-.2.1-.3c-.2-1.2.5-1.3,1.5-.9-.5,0,0-1-.8-.8-.4,0-1.1.2-1.3-.5,0-.3,0-.5.3-.7.6-.3,1.2-.4,1.7,0,.4.5,1.1.8,1,1.8.6-.5.2-1.2.5-1.6.1-.2,0-.5.4-.5s.2.3.3.5c.4.6.1,1.5,1.1,1.9.3,0,.3.8,0,1-.2.2-.7.3-1-.3,0-.2,0-.7-.6-.6-.5,0-.4.5-.4.8-.1.9-.6.6-1.1.3-.2-.2-.5-.2-.7,0-.3,0,0,.3,0,.5,0,.3.1.6-.3.8-.2,0-.3.3-.1.5,0,.2.2.3.4.3s.2-.2.3-.3c.6-1.2.5-1.1,1.5-.3.3.3.9,0,1.5.2.4,0,.8.3,1.1.6.6.6,1.2.5,1.5-.3,0-.2.2-.4.4-.4.4,0,.3.4.2.6-.2.5-.6,1-.9,1.4-.3.4-.6.3-1,0-.1,0-.2-.4-.5-.2,0,0-.2.2-.2.3,0,.3.3.3.5.3.6,0,1.1.3,1,1.1.4-.5-.1-1.3.8-1.2.9.2.8.9.5,1.7.6-.4.2-.9.6-1.3.3.6,1.1.8,1,1.7,0,.7-.7.4-1.2.6.4.2.7.3.8.8,0,.3.3.2.5.2.5,0,0-.3,0-.4.2-.7.4-1.5,1-1.9.5-.3.9-.6.8-1.3-.1-.6.4-.7.7-1.2.3.9,0,1.6-.5,2.2-.1,0-.3.2-.4.3,0,.2-.4.5-.1.7.3.3.6,0,.7-.2.5-.8,1.1-.4,1.7,0-.3.4-.5.8-1.2.4.4.4,0,1.2.9,1.3.2,0,0,.2,0,.2-.3,0-.6.2-1,.3-.1-.5-.5,0-.8-.2-.1,0-.4-.3-.4,0s0,.6.3.5c.8-.2,1.5.8,2.5,0,.5-.4.8.9,1.5.9-.9,0-1.9.2-2.3,1.1-.2.4.1,1.1.4,1.7-.5-1.7,1.1-1.5,1.8-2,.1.2.1.4,0,.6,0,.3-.6.5-.4.8.4.6.5-.5.9-.2h0c1,0,1,1.2,1.7,1.6.3.2.4.4.3.7,0,.7.1,1.2.8,1.5h0c0,.5-.6,1,0,1.5h0v.6h0c0,.8-.1,1.4.8,1.7.6.2.6,1,0,1.2-.7.3-.9.7-1,1.4,0,.7,0,1.4-.3,2,0,0-.4.4,0,.5.2,0,.4,0,.3-.3,0-.5.5-.2.7-.5-.6,0-.8-.4-.7-1,0-.3.1-.3.4-.4.5,0,.7.2.9.6.2.5,1.3.6.7,1.5.3,0,.5.2.9.2s1,0,1,.7-.6.3-.9.3c-.6,0-1,0-1.5-.5s-.8,0-1.1.8c.5-.4,1-.5,1.3,0,.2.2.4.4.7.3,1.1,0,1.2.4.4,1.3.6-.2,1.1.6,1.3-.4,0-.2.3,0,.5,0v.4c-.7.3-.4.6,0,.8.3.2.2.2,0,.5s.5,0,.6.2c.6-.5,1.6,0,2-1.1-.7-.6-1.9.7-2.5-.5.2-.2.5,0,1,0-.7-.2-1-.6-1.2-1,0,0-.3,0-.3-.3,0-.9-.3-1.2-.9-1.7-.9-.7-1.7-1.6-2.4-2.4-.2-.2,0-.5.2-.6.3-.2.3,0,.4.2.2.7.7.8,1.3.7.1-.3-1.1-1.1.4-1,.5,0,1.2-1.1,1.8-1.7.2-.2-.2-.3-.2-.4-.2-.6-.3-1.2.3-1.7.6-.6.9,0,1.2.3.5.3.5.7,0,1.1-.4.3-1.5.5-.4,1.4,0,0-.3.7.2,1.2.2.3.2.9.7,1.1,0,0,.1.4,0,.6,0,.3-.3.2-.5.2-.3,0-.5,0-.7-.4-1-1-1.9-.9-2.6.3.8-.3,1.1.2,1.5.6.3.5.5,1.1,1.3.4.6-.5,1.7,0,2,.8.3-.2.2-.5.2-.7,0-.3,0-.5.5-.5s.4.3.4.6v.6c-.6.6,0,.5.3.7.4-.3,0-.8.5-1.2,0,.9.1,1.6-.6,2.1-.3.2-.3.4-.1.6.7.5-.1.9,0,1.4-.4,0-.8.5-1.3.2-.1,0-.6,0-.6.2.2.7-.3,1.3-.4,1.9-.2.6-.1,1.2.8,1.1,1,0,.5.4.3.8.8.2,1.4,0,1.4-.9s.4-1.4,1.3-1.5c-.8-1-.8-1.3-.3-3.4.4.8,1.3,0,1.7.9,0,0,.3,0,.3-.2,0-.4.4-.7.7-1s.3-.4,0-.7c-.7-.4-.7-1.3,0-1.8.4-.3,1.2-.4.5-1.3-.2-.2.5-.6.9-.7.3,0,.5-.2.4-.5-.2-.8,0-1.2.7-1.2s.6,0,.7-.3c.3-.5.3-.2.6,0,.2.2.6.4.2.7-.2.2-.3.3-.3.5s-.4,0-.3.5c.3.2,1,0,.8.7-.1.3-1.6.8-1.8.5-.5-.6-.5-.4-.8.2-.6.9-1,1.7.2,2.4.2,0,0,.6.3.9.5-.4,0-1.2.6-1.5.3,0,.5-.2.7,0,.2,0,.2.5.1.6-.5.6,0,.7.6.8-.3.3-.5.6-.8.7-1.3.6-1.4.9-.7,2.1.3.5,0,1.1-.6,1.1s-.6,0-.8.2c.7.5,1.6-.2,2.1.5.3-.8,1.3-.7,1.5-1.4.2-.5.5-.5.8-.3s.2.6,0,1c-.3.5-.9.5-1.3.8-.7.5-.3.9,0,1,.7.2.7,1.1,1.4,1.4.2,0,.2.7,0,.8-.6.3-.3.9-.4,1.4-.6-.2-.3-.7-.4-1,0-.5-.1-.7-.6-.5-.9.3-1.2,0-1.3-.9,0-.5,0-1.1-.8-1.1s-.2-.2-.3-.4c-.2-.6-.2-.5-.7-.2-.4.3-1,0-1.5.2,0,.4.4.7.8,1.1-1.4,0-1.4,1-1.9,1.7-.4-.6.4-1.3-.3-1.8.1,0,.3-.3.4-.4,0-.2.6-.3.4-.5-.2-.2-.3-.6-.8-.6-.8,0-1.6.8-1.4,1.6.1.5.3.9-.2,1.5-.5.5-.7,0-1.1,0,0-1.2-.6-.3-1-.3s-.4.4-.6,0c0-.2-.2-.6.2-.6.8-.2.2-.4,0-.6-.4-.5-1-.4-1.4-.2-.4.2,0,.5.3.6.7.3.6,1.5,1.6,1.2-.1.9.4,1.3,1.1,1.8.2.2-.4.3-.5.7,0,0-.6,0-.2.4.2.2.3.7.7.4.3-.3.5-.4.9-.2,0,0,.1.5,0,.5-.4.2-.2.9-.8.9s-1-.3-1.4.4c-.4.7-.9-.3-1.4-.2.6,1.2,1.5.5,2.2.4.4,0,.8-.7,1.2,0s-.2.8-.6,1.1c.3.3.5,0,.7,0,.3,0,.3.3.3.5s-.2.3-.4.3c-.3,0-.9-.3-.9.4s.7,0,1,.4c-.1.5-.5.9-.2,1.5.1.2,0,.5-.3.6-.2,0-.5,0-.6,0-.1-.8-1.1-.7-1.5-1.6,0,.8-1.1,1.6.5,1.5,0,0,.1.5.2.5.2,0,.3.9.8.2.1-.2.5-.2.8,0s.3.5.1.7c-.1.2-.1.3,0,.5h0c.2-.4.6-.2.9-.3.7-.4.7,0,.5.5-.2.4-.2.5.3.8.8.4.7,1.2.8,2,.2,1.3-.5,1.7-1.4,2,.2.5,1.1.7.8,1.3-.3.6-1.1.4-1.7.5-.8,0-.6-.5-.6-.9,0-.6-.2-.5-.5-.3h-1.1c.4,0,.7,0,1.1,0-.3.5-.6.9-.2,1.6.2.2.2.5.6.4.3,0,.6,0,.7.3.1.3-.2.5-.4.7s-.5.2-.9,0c-.2,0-.2-.6-.3-.4-.1.3-.6.7-.5.7.7.5-.3.5-.2.8,1.7,0,2-.4,2.6-1.9.1-.4.6-.7,1.1-.7s.4,0,.4.3,0,.3-.3.4c-.8.6-.8,1.3,0,1.9.2,0,.3.2.5.4.4.3,0,.6,0,.9s-.3,0-.3,0c0-.4-.9.4-.7-.4,0-.3.1-.6-.1-.8-.6.3-.8,1.3-1.6,1.2-.4,0-.5,0-.7.3-.6.6.3.6.3.8,0,.9.7,1.2,1.2,1.8.2.2.3.3.6.2.2,0,.6-.2.6.3s.2.6-.3.8c-.2,0-.9.4,0,.5,0,0,.2.3,0,.4-.4-.6-1.5.2-1.5-1s-.3-.4-.6-.8c-.2,1.4-1.3,2.3-1.7,3.7.6-.5,1-.9,1.3-1.3.2-.2.5-.5.7-.3.3.2.2.6,0,.8-.5.5-.9,1-1.2,1.6-.2.4-.7.4-.9,0-.3-.3-.7-.3-1.1-.5,0,.4-.3,1,.2,1.2.7.3,1.5.5,2.2.4h.2c.3-.4.7-.5,1.2-.3-.3,1.3-1.8,1-2.6,1.6.5.9,1.4.4,2.2.6-.4.5-.9.3-1.2.4-.8.4-.7,1.3-1.1,1.8-.3.4-.8.9-.9,1.4.4.5,1.8,0,1.3,1.6-.5-.5-1.1-1-1.7,0,.3.2.6.6,1.1.5.6,0,.7.3.6.8-.2.7-.7,1.3-1.3,1.3s-1.4-.3-1.5-1.3c0-.2.3-.7-.3-.6h-.3c.6.7-.6,1.4-.4,1.5.6.3,1.1,1.2,2,.8.2,0,.7-.2.8.2,0,.2.1.5-.2.6-.4.2-.6.3-.8-.2h0c-.3,0-.3,1-.8.3-.3-.4-.5-.6-1-.4.4.7,1.4,1,1.2,2-.4.2-.4-.7-.7-.2-.1,0-.3.5,0,.8s.4.5.8.2h.5c.3,0,.4.4.2.7-.5.8-1,.8-1.5,0-.3-.4-.7-.7-1-1.4,0,.8-.1.9-.6,1.1-.1,0-.3,0-.3.5.2,1.3,1,1.1,1.8,1,.2,0,.6-.4.7,0,0,.2,0,.7-.4.7h-.1c-1.3.9-1.3,1.5-.1,2.5.3.2.7.3.5.9-.1.3-.3.2-.5.2-.4,0-.8,0-.7-.6,0-.2-.2-.3-.2-.2-.4.6-1.1-.5-1.4.3-.2.5,0,.5.5.6.3,0,.6-.2.7.2,0,.4,0,.7-.3,1-.4.4-1,.7-1,1.5s-.7.5-.9.4c-1-.6-1,.5-1.1.8-.3.4.2,0,.3,0,.4.6.2,1-.5,1.3-.2,0-.1-.3-.1-.5,0-.3,0-.6-.4-.7-.5,0-.4.5-.8.7-.2,0,.3,0,.4.3,0,0,.1.2.2.3-.9.3.1,1.6-1,1.8-.3,0-.2.9-.7,1.2-.1,0-.2.3-.3.4-.6.7-.5.7.7,1.4-1-1.3.5-1.7.6-2.5,0-.3.7-.5,1-.3.4.2,0,.5-.1.7-.2.2.1.2.2.4.6.7-.2,1.3-.4,1.9-.1.4-.7.2-1,0-.2,0-.4-.2-.6,0-.1.2-.2.5,0,.7.3.2.4.4.1.6-.2.1-.6.1-.8-.2-.4-.8-1.1-1.3-1.7-1.9s0-.6-.1-.8c-.3,0-.3.5-.6.4-.2,0-.4.2-.4.4,0,.3.3.2.5.3.5.1.6.7.7,1,0,.3-.3.7-.6.3-.4-.5-.6.3-1,0-.1.3,0,.5.2.7.3.5.5,1.1,1.2,1.3.4.1.3.5.2.7,0,.2-.5.2-.5.1-.7-.8-.8.1-1,.4-.2-.1-.3-.3-.3-.5,0-.5-.5-.3-.8-.3-.5,0,0,.3,0,.5v.7h0c-.4.3-.6.2-1-.2-.5-.4-.7-1.2-1.6-1.1.4.8,1.5,1,1.6,2,0,.2.4.3.7.2.4-.1.9-.1.9.5s-.2.9-.8.5-.1.2-.2.3c-.4.4-.8.6-1.3.5v-.3.2c-.2.4.4,1.2-.3,1.3-.4.1-.5-.7-1-1l-.6.6c0,.5.9,0,.8.6-.1.6-.8.4-1.2.9,0,.3.8.2.5.6-.4.4.2,1.5-1.1,1.4-.6,0-1.5.2-1.9,1.1.2.4.9-.2.9.4s-.4.6-.5.9c-.2.6-.6.9-1.2,1-.2,0-.3.3-.4.5-.2.3.2.8-.3.8s-1-.2-1-.9l-.2-.2c0,.9-.5,1.1-1.3.8-.2,0-.5.1-.7.2.2.2,0,.5,0,.7.1.2.4,0,.7,0,.7-.2,1.3-.4,1.3.7s.5.2.4.6c-.5,0-1-.3-1.4-.6.1.6,0,.6.8,1.2.3.2.3.5.2.7-.1.3-.3,0-.5,0-.6-.1-.9.1-1.2.7-.2.4-.5.9.1,1.3.3.2.2.5.1.8-.5-.7-2.1-.5-1.6-2,.8.2.6-.6.9-.9h0c-.2.4-.1,1-.8.9-.2.1-.4,0-.4-.2,0-.8-.4-.8-1-.6-.2,0-.6.2-.5-.3,0-.2.2-.4.6-.3.9.4,1.3-.2,1.8-.8.1-.1,0-.2,0-.2-.2-.2-.5-.2-.6,0-.2.3-.5.5-1,.5-.1-.4.3-.3.4-.6-.9-.1-1.3.4-1.3,1.1s-.2.6-.6.6-.5,0-.5.3c0,.7-.7.5-1,.7.4.7.1,1.3-.7,1.4-.4,0-.8,0-1,.6s.4.4.6.7c.4.5.2.8-.3.9-.5.1-1,.1-1.5.2,0,.2.2.2.2.3,1.5,0,1.4,1.2,1.6,2.2,0,.2,0,.3-.1.3-.4.2-.5-.1-.7-.3s-.5-.3-.2-.7c0,0,.6-.2.2-.4-.4-.1,0-.9-.8-.6-1,.4-1.2.2-1.1-1-.9.5-1.8.6-2.5-.7-.2.7.5,1.3-.4,1.6.7-.2,1.1,0,1.3.6.2.7,1.1.8,1.5.9.7.2.2.6.4.8h0c-.6-.2-1.3,0-1.9-.7-.2-.3-1-.2-1.5-.5,0,1.2.2,1.3,1.3,1.1.5,0,.6.5.9.6.3.2,0,.5,0,.6-.1.4-.5.2-.7.1-.6-.3-.9-.2-1.1.4-.1.3-.5.5-.6.4-.6-1.1-1.1.2-1.7-.1,0,.6,1,.2.7,1h0l-.7.2Z"/>
  <path class="st0" d="M17.7,57.7c-1.1.4-1.2.6-.4,2,.2.4.5.6,0,1-.2,0-.2.6-.5.3-.3-.2-.7-.5-.5-1,0-.2.1-.4-.3-.6-.2.3-.1.9-.8.9s-.1.7-.2,1.1v.8c-.8,0-1,.9-1.6,1.1-.2,0-.7-.4-.6-.9,0-.2,0-.5-.3-.5s-.4,0-.5,0c0,.2-.2.5,0,.7.5.3.2.5,0,.8-.3.3-.5.4-.8.3-.2-.2-.5-.5-.2-.9.2-.3.2-.6.3-.9,0-.2.3-.4-.1-.6-.7-.3-.7-.9-.4-1.6.7-1.2,1.4-2.3,3-2.5.3,0,.6-.4.9-.6.5-.4,1-.2,1.1.4,0,.2.1.4.3.2.3-.3.3.6.7,0,.3-.4.4-.3.9.2h0Z"/>
  <path class="st0" d="M190.2,80.3v-1.1h0c.5.2.7-.5,1.3-.4.6,0,1.2,0,1.1.9,0,.2,0,.4.4.5-.2-.7.3-1.2.6-1.7.6-.8.4-1.4-.3-1.9-.3-.2-.2-.4-.2-.6,0-.3.3-.2.5-.2.6-.2,1.1,0,1.6.2.3,0,.3.5,0,.6-.9.4,0,1.4-.7,1.8.3,0,.5.3.7.5s.3.4.2.5c-.2.2-.4.2-.6,0-.6-.4-.7-.3-.8.3-.3,1.2-1.2,2.1-2.5,2.2-.5,0-.8.7-1.4.5.2.6,1.3.3.8,1-.3.4-.6,1.1-1.4.9-.3,0-.5,0-.5-.5,0-.7,0-1.2.9-1.2-.7,0-1.1-.8-1.8-.7-.3,0-.3,0-.4-.4,0-.4.4-.8.5-.8.8,0,1.3-.6,2-.6.2.2.5.2.6.4h.2c0,0-.1,0-.2,0-.2-.2-.5-.2-.7-.4v.2Z"/>
  <path class="st0" d="M187.8,52.8c-.2.6-.5,1.1-.9,1.5-.3-.3-.7-.6-.7-1.2-.2.6-.9,1.1,0,1.8.5.4.2,1.5-.3,1.8-.3.2-.8.2-1,0-.4-.3-.3-1-.1-1.4.6-1.2-.3-1.7-1.1-2.1-.6-.3-1.1-.4-1.4-1.1,0-.2-.7,0-1.1-.2s-.5-.3-.5-.6c.1-.6-.3-1.4.4-1.9.4-.3.8-.6.9.2,0,.4.3.4.6.4,1.3,0,1.7.9,1.3,2.2,0,.2-.6.4,0,.6s.6.2.8-.3c0-.2.3-.4.5-.6.4-.5.6-.5,1,0q.7.9,1.7,1h0Z"/>
  <path class="st0" d="M188.4,74.1c-.4,1.1-1.3,1.2-2.7.4.7-.3,1.3-.7,1.2-1.6,0,0,.3-1.1,1-.3.1.2.4.8.8,0,.1-.2.7-.3.7.4s.6.5.9.4c1-.6,1.4.2,1.8.8.4.6,0,2.2-.4,2.4-1.3.7-3.1-.3-3.1-1.7s0-.3-.1-.8h0Z"/>
  <path class="st0" d="M18.3,105.5c-.2.3-1.2.2-.5,1v.6c-.7.4,0,.7,0,1-1.1.6-1.9-.4-2.9-.3-.3,0-.2-.3-.2-.5,0-.3.1-.7-.3-.9-.5.5-1,1.1-1.8.6-.2,0-.6-.4-.5-.8.2-.7.8,0,1.2-.5-.8-.5.4-1.7-1-2.2,1-.3,1.8,0,2.6-.2.2,0,.3,0,.4.4.1.5-.5.4-.7.8.7,0,.7.5.7,1-.1,0,0,0,0,0h0c.6.8,1.3.7,1.7,0,.3-.5.9-.8,1-1.5,0,0,.6-.3.7.2v1c0,.4,0,.5-.5.5h0Z"/>
  <path class="st0" d="M90.1,172.2c.6,0,1.1.1,1.7.2-.3-.6-.5-1.2.5-1.2s1.3-.6,1.8.4c0,0,.6.3.9,0s.3-.5.6-.3c.3.2.3.5.2.9h0c-.2.1-.5.2-.8,0,0,.4.7.5.3,1-.4.5-.6,0-.9-.1-.5-.2-1.3.2-1.2-.8-.5.2-.2,1.1-.8,1.1h-2.2c-.7,0-.4-.7,0-1.1h0Z"/>
  <path class="st0" d="M11.5,103.4c-.1,0-.2.2-.3.3-.3,0-.7.2-1,0-.1,0-.2-.2-.2-.4-.4-.8-.9-1.1-1.8-.6-.2,0-.8.2-1,0-.2-.3.2-.6.4-.8.3-.3.5-.5,0-1-.6-.6.2-1.1.5-1.3.4-.2.6.3.8.7,0,.2,0,.4.3.5.9,0,1,.7,1,1.4s0,.9.6.8.3.6.7.7v-.2Z"/>
  <path class="st0" d="M5.3,88.3c.6.7,1.2.9,1.6,1.6.3.6.2.8-.3.9-.6,0-1.3.3-1.6-.9,0,1-.4,1.5-1,1.5s-.6-.2-.7-.5c0-.6-.7-1.1,0-1.7.5-.5,1.2-.3,1.4,0,.8.8.6,0,.8-.6l-.2-.2Z"/>
  <path class="st0" d="M185.7,113.7c0,.4-.6,0-.9.3-.5.3-1,1.1-1.6,0-.1-.2-.8-.2-1.2,0-.3.2-.6.4-1,.3-.3,0-.6.4-.8,0-.1-.3-.2-.7.1-1,.1,0,.3-.2.2-.3-.8-.5,0-.8.2-.9.4-.3.6.2.9.5.6.4,1.3,1,2.2.6.6-.2,1.1,0,1.6,0,.2,0,.3,0,.3.5h0Z"/>
  <path class="st0" d="M17.4,91.3c.4,0,.6.3.6.6s0,.7.5.6c.4,0,.3-.5.4-.7.1-.3-.7-.7,0-.9.7-.2,1.4-.2,1.9.4.2.3.3.6,0,.8-.5.4-1,.9-1.4,1.3-.8.9-1.3,0-1.9,0s-.2-.4-.1-.5c.6-.5.1-1,0-1.6h0Z"/>
  <path class="st0" d="M196.3,74.3c-.5,0-1.1.3-1.5-.2-.3-.3,0-2.5.3-2.7.1,0,.2-.4.6-.2.6.3,1.2-.2,1.8-.7-.3,1.3-1.3,2.4-1.3,3.8h0Z"/>
  <path class="st0" d="M168.9,48.3c0-.9.3-1.2,1.2-1.1.5,0,.9-.2,1.2-.6h0c0,.3.2.8.3.7.3-.6,1.4,0,1.4-1s-.2-.7.2-.8c.2,0,.7-.2.8,0,0,.3.3.7-.2.9s-.5.3,0,.4c.3,0,.3.3.2.5-.2.5-.3-.2-.4,0-.3.4-.8.2-1.1.6-.2.3-.5.3-.6.2-.8-.4-1.6-.2-2.4,0h-.6,0Z"/>
  <path class="st0" d="M191.3,67.3c-.4,0-.4-.2-.4-.6v-2c0-.8.4-1.1,1.2-1.1,0,.4-.4.5-.6.8-.3.3-.6.6-.2,1,.4.4.6-.2.8-.3l.4-.2c.1.8,0,1.6.9,2.1.1,0,.2.8-.2.7-.9-.2-1,.8-1.7.9-.3,0-.1-.4-.3-.5-.5-.3.3-.5,0-.8h.1Z"/>
  <path class="st0" d="M178.6,47.2c-.6-.2-.9-.4-.6-1,0-.2.4-.3.4-.3.2.7,1.1.5,1.3,1.1.2.5.6.9.9,1.4.5.7-.5,1.1-.8,1.4-.4.3-.6-.3-.8-.6-.1-.2,0-.5-.4-.5s-.7,0-.7-.5,0-.9.7-1h0Z"/>
  <path class="st0" d="M186.8,77.5v.4c-.4.6-.3.9.4,1.1.3,0,.6.5.5.9s-.4.8-.8.8-.7.4-.9.3c-.5-.2-1-.5-.5-1.2.3-.4.5-.8,0-1-.3,0-.7-.2-.5-.6.1-.3.4-.7.8-.7h1.2-.2Z"/>
  <path class="st0" d="M181.5,59.8c0-1.3,1.4-2.6,2.6-2.5.6,0,.8.5.5.7-.4.3-.1,1.3-1,1.1,0,0-.2,0-.1,0,.6,1.4-1,.6-1.3,1.3-.2.4-.6,0-.6-.6h0Z"/>
  <path class="st0" d="M167.6,45.2c.6-1.2,1-2.3.9-3.4,0-.2-.2-.6.2-.7.3,0,.5,0,.8.4,1,.9.4,2,.5,3,0,0-.1.2-.2.2-.7,0-1.3.4-2.2.6h0Z"/>
  <path class="st0" d="M17.2,71.1c-.1-.8.2-1.3.9-1.5.8-.2,1.1.3,1.4.9s.2.6.5,0c.1-.2.3,0,.4,0,0,.2.1.6-.2.6-.9,0-1.4.7-2.1,1-.5.2-.6-.3-.8-.5-.1,0,0-.5,0-.7h0Z"/>
  <path class="st0" d="M33.8,30.6c-1-.6-.8-1.4-.8-2.1.2-.1.3,0,.4.2.2.2.5.5.7.3s.3-.6,0-.8c-.3-.2,0-.2,0-.4.5-.7,1.2-.4,1.8-.4s.5.7.7,1c.2.4-.2.5-.6.5s-.6-.1-.6,0c-.4.7-.9.9-1.6.4-.2-.1-.5.1-.2.4.4.3,0,.5.2.9h0Z"/>
  <path class="st0" d="M181.4,52.8c.4.6-.2,1-.4,1.1-.6.2-1.2.2-1.6.9,0,.2-.5,0-.5-.3s0-.8.3-1.1c-.2,0-.3-.2-.4,0-.3.3-.8.5-1,0-.2-.6-.2-1.3.6-1.8.6-.4.8,0,1.1.3,0,0,.1.2.1.3-1,.8-.1.8.4,1.1.8.5.7-.6,1.2-.5h.2Z"/>
  <path class="st0" d="M8,97.8c.2.6-.7.6-.5,1.2-.2-.8-.4-1.2-1.4-1.2s-.5-1-.3-1.1c.6-.3.7-.9,1.1-1.2.6-.4,1.2-.7,1.7.2-.3,0-.8,0-.9.2-.3.5,0,1.2-.4,1.8,0,.2.4.3.7.2h0Z"/>
  <path class="st0" d="M157.6,27.6c.6,0,1,0,1.3.4.3.3.4.7.1.9-.6.3-.7.7-.8,1.2,0,.4-.4.3-.6.2-.4-.2-.9,0-1.1-.5v-.2h.3c.2,0,.2.6.5.1.1-.2,0-.5-.2-.7s-.8-.4-.5-1c.2-.4.6-.6,1-.5h0Z"/>
  <path class="st0" d="M199.2,78.3c-.3,0-.6.3-.6.3-.7-.6-1.6-.4-2.5-.6-.4,0-.3-.5-.2-.7.4-.5.8-1,1.3-1.3.3-.2.7.3.7.6s.2.6.6.6c.7,0,0,.9.6,1.1h0Z"/>
  <path class="st0" d="M174.5,52.7c-1.5,0-1.6-.4-1.4-2.8.3.5,1.4.3,1,1.3,0,.3.3.3.5.2.9,0,1.6.7,2.5.6-.6.4-1.4,0-2,.2-.3,0-.6,0-.5.5h-.1Z"/>
  <path class="st0" d="M184,71.8c.3-.7,1.1-.9.5-1.5,0,0,0-.3.2-.4.5,0,1.1-.3,1.6-.3s.3.4.5.6c-.6.4-.5.8,0,1.2.2.2-.1.4-.5.4-.7,0-1.5-.3-2.3,0Z"/>
  <path class="st0" d="M189.8,63.3c0,1.1-.6,2-1.2,2.9-.2.2-.4.2-.7.2s-.2-.4-.3-.6c-.2-1.1.1-2,1.4-2.2.3,0,.3-.5.8-.4h0Z"/>
  <path class="st0" d="M146.6,24.1c0-.5.5-1.1-.5-1.3-.5,0-.3-.7-.2-1,0-.4.6-.3.7-.2.5.5.7,0,1-.2.5-.5,1-.9,1.8-1.3-.4,1.5-1.8,1.5-2.5,2.4.1.6,1.5-.2,1.1.9-.2.5-.7.9-1.3.6h-.1Z"/>
  <path class="st0" d="M54,25.2c-.5-.9-.3-1.3.7-1.3.2-.2,0-.4,0-.5-.3-.3-.4-.7,0-.9.3-.2.6,0,.9.3,1,.6.3,1.5.4,2.2h0c-.5.8-1.1.7-1.8.3h0c0-.1-.1-.1-.1-.1Z"/>
  <path class="st0" d="M10.1,97.4c-.1.5.6.3.6.6s.3,1-.2,1.2c-.6.3-1,0-1.2-.6-.3-.7-.7-.9-1.4-.9h0v-.7c0-.6.2-.7.7-.4.5.3,1,.5,1.4.7h0Z"/>
  <path class="st0" d="M14.7,56.1c-.6,0-1.3.3-.9-.7.1-.3,0-.6-.5-.6s-.2-.3-.3-.5h.6c1,.7,1.2.7,2-.2.1-.2.3,0,.5,0,.3,0,.5.5.3.7-.5.6-.3,2-1.6,1.3h0Z"/>
  <path class="st0" d="M29.2,28.5c-.1-.2-.6,0-.7-.3,0-.3,0-.5.2-.8.7-.8,1.4-1,2.1-.3s.3.3.4,0c.1-.2.4-.3.5-.1v.6c-1-.1-1.5,1-2.5.9Z"/>
  <path class="st0" d="M50.9,16.6c0,.5-.5.9,0,1.2.3.2.6.5.4.9-.2.4-.7.3-1,.3-.9,0-1.5-1.5-1-2.2.2-.2.5-.2.6-.1.4.3.7.3,1.1,0h0Z"/>
  <path class="st0" d="M174.4,52.8h.9v.2c-.6.8-.9,1.7-1.1,2.6,0,.3-.2.6-.5.5-.4,0-.4-.4-.3-.8,0,0,.2-.3.1-.4-.6-1-.6-1.7.8-1.7s0-.4.1-.6h0v.2Z"/>
  <path class="st0" d="M16.1,111.2c0,.6.2,1.2-.8,1.2s-.7-.7-1.1-.9c.6-.3.1-.8.3-1.2.2-.4.5-.2.8-.3,1.1,0,.6.7.7,1.2h.1Z"/>
  <path class="st0" d="M130.8,14.8c.8.1,1.9,1.2,2,1.9,0,.3-.1.4-.4.4s-.9.2-1.1,0c-.6-.5-.9,0-1.5.2.3-.9,1.5-1.3,1.1-2.4h-.1Z"/>
  <path class="st0" d="M182.8,106.4c-.7.9-1,2.3-2.4,2.4-.5,0-.2.4-.3.8-.2-.6-.9-.9-.6-1.4.3-.5.9-.8,1.6-.8s1.1-.7,1.8-.8h0v-.2Z"/>
  <path class="st0" d="M22.7,81.5c-.8.5-1.1,1.1-1,1.9,0,.5-.3.9-.9.9s-.7.2-.8-.3c-.1-.6,0-1.1.6-1.4.3,0,.4,0,.5-.6,0-.6.7-.9,1.6-.6h0Z"/>
  <path class="st0" d="M88,12.5c.5-.8,1-1.1,1.9-.3.4.4.4.5,0,.9-.6.5-1.4.5-2,1,0,0-.3,0-.3-.2,0-.1-.2-.3,0-.4.3-.2.2-.6.4-1h0Z"/>
  <path class="st0" d="M176.8,116.4c0-.2-.2-.5-.2-.7,0-.7.2-1.3,1.1-1.2.9,0,.9.7.9,1.4s0,.6-.4.5c-.3,0-.4,0-.4.4h0c-.4.2-.4-.6-.9-.4h-.1Z"/>
  <path class="st0" d="M59.5,165.1c.3.5,0,1.1.6,1.6.2.2,0,.4-.2.5s-.5.2-.8-.1c-.2-.3-.5-.5-.6-.8,0-.6-.9-1.1-.4-1.6s.9.4,1.4.5h0Z"/>
  <path class="st0" d="M8,87.1c0,.4.6.7,0,1.1-.5.3-.9.4-1.4,0-.2-.2-.7,0-1.1,0-.3,0-.7,0-.7-.5s.7-.5.7-.5c.8.6,1.7,0,2.5,0h0Z"/>
  <path class="st0" d="M183.8,54.8c.1.9-.6,1.2-1,1.6-.3.3-.6-.3-.8-.5-.5-.7.5-1.1.5-1.7s.7,0,1.1,0c.5,0,.1.5.3.7h-.1Z"/>
  <path class="st0" d="M150.2,8.8c-.3.3-.8,0-.9.5.2.3,1-.2.9.5s-.9.8-1.4.9c-.5.1-.8-.3-.9-.7,0-.2,0-.4.3-.6.4-.2.8-.3,1-.8s.6.2.9.2h0Z"/>
  <path class="st0" d="M113.8,13.9c-.2.6-.6.7-1.1.5-.3-.1-.2-.5,0-.8.2-.7.8-.5,1.3-.3.4.2.7.7,1.3.8,0,0,.4.5.3.8,0,.2-.3.5-.6.6-.3,0-.4-.3-.5-.6-.2-.3,0-.7-.5-1h-.1Z"/>
  <path class="st0" d="M154.4,28.4c-.6,0-1,1.1-1.4.5s-2-.5-1.2-2c.2-.2.5.8.9,0,.1-.2.7-.2.8.3,0,.6,0,1.2,1,1.1h-.1Z"/>
  <path class="st0" d="M145.1,17c.2,0,.2.5,0,.8-.3.8-1.1,1.1-1.5,1.8h-.4v-.5c0-.3.3-.6.3-1,0-1.1.1-1.2,1.6-1.2h0Z"/>
  <path class="st0" d="M9.7,87.6v-.6c0-.2-.2-.6.3-.7.4,0,.4.3.5.5.1.3.2.6.7.6s.5.6.2.9c-.2.2-.5.5-.8.5-1.3.3-.7-.8-.9-1.2Z"/>
  <path class="st0" d="M188,84.4c-.3.4-.4.7-.3,1.1,0,.5-.4.7-.6.9-.2-.2-.6-.4-.6-.7h0c0-.6-1.1-.6-.6-1.2.4-.5,1.1,0,1.7-.2h.5,0Z"/>
  <path class="st0" d="M185.5,72.3c-.6.4-.7.8-1,1.2-.2.4-.5.7-1,.8-.2,0-.4,0-.4-.3,0-.5-.2-1,.2-1.5.5-.4.5-.5,2-.3h.2Z"/>
  <path class="st0" d="M49.1,157.5c0,.4,0,.9-.4,1-.6.2-.8-.7-1.4-.7s-.2-.6,0-.8c.4-.3.2-.7,0-1.1,1.3.2,1.4.5.7,1.5.4.1.9-.3,1.1.2h0Z"/>
  <path class="st0" d="M114.2.6c.4,0,.3.5.7.6.3,0,0-.8.7-.6.6.2.3.7.3.9,0,.5-.4.9-.8,1.1-.4.2-.7-.3-1-.4.2-.6,0-1.2.3-1.7h-.2Z"/>
  <path class="st0" d="M141.2,17c-.6-.4-1.2-.7-1.8-.1-.3.2-.5.2-.7,0-.1,0,0-.4,0-.6.4,0,.2-.8.7-.6.2.1.4,0,.6,0,1-.3,1.5,0,1.4,1.2h-.2Z"/>
  <path class="st0" d="M136.6,16.4c.1-.3-.3-.8.4-.8s.7.2.7.7c0,0,0,.2.2.3.3.3.4.7,0,1-.2.2-.4.7-.7.4-.3-.2-.7-.5-.6-1v-.5h0Z"/>
  <path class="st0" d="M18.3,105.5c.2-.2.3-.3.5-.5.5,0,.8.3,1,.6.3.4,0,.7-.5.8,0,0,0,.5-.1.8,0,.3,0,.6-.5.6s-.5-.4-.4-.6c.4-.6,0-1.2,0-1.7Z"/>
  <path class="st0" d="M180.4,115.2c.3.5.8.5,1.2.4.2,0,.4-.2.4,0,.1.3-.2.3-.3.4-.4.2-.7.4-1,.7-.1,0-.8.3-.1.7.1,0,.2.3,0,.5s-.3,0-.5,0c-.5-.4-.8-.8-.1-1.3.6-.3.5-.8.5-1.4h0Z"/>
  <path class="st0" d="M188.1,87.9c0,.5.2,1.1-.7,1-.7,0-1-.7-1-1,0-.6.7-.8,1.2-.9.7,0,.2.6.4.9h.1Z"/>
  <path class="st0" d="M193.8,50.7c-1.2-.2-1.9.2-2.7.6-.3.2-.7.2-1,.2s-.5,0-.5-.3,0-.5.3-.6c.1,0,.2-.2.4-.2.9,0,1.8,0,2.6-.2.3,0,.4.2.9.4h0Z"/>
  <path class="st0" d="M15.6,99.7c.5,1.2-.7,1.2-1.1,1.6-.3.3-.6,0-.9-.3-.3-.2-.2-.4-.2-.6,0-.3.3-.2.5-.2.6,0,1.1-.2,1.7-.5Z"/>
  <path class="st0" d="M191.3,59.4c-.6,0-1.3,0-1.3-.7s.5-.8,1-.9c.8,0,.8.7.9,1.2.2.6-.4.2-.6.3h0Z"/>
  <path class="st0" d="M165.3,138.4c.7.1.9.7,1,1.2,0,.2,0,.9-.5.9s-1.1-.4-1-.9c0-.4-.3-1,.5-1.2Z"/>
  <path class="st0" d="M141.2,10.8c0,1-.7,1.1-1.2,1.2-.5.1-.7-.4-.6-.7.1-.5.6-1,1.1-1s.9.2.7.6h0Z"/>
  <path class="st0" d="M33,38.6v1.3c0,.5-.3.6-.5.8s-.4-.2-.5-.4c-.1-.2-.2-.3-.5-.3-.4,0-.3-.7-.1-.7.6,0,.9-.7,1.6-.6h0Z"/>
  <path class="st0" d="M114.7,11.9c-.4-1.2.5-1,.9-1.2.3-.1.7.3.6.6-.2.6-.7,1.1-1.2,1.2-.8.1-.3-.6-.3-.7h0Z"/>
  <path class="st0" d="M89.6,14.8c0,.7-.6.9-1.2,1-.4,0-.6-.1-.5-.5,0-.7.5-1.1,1.2-1.2.6,0,.5.3.5.7Z"/>
  <path class="st0" d="M129.7,168.6c-.1-1.2.3-1.9,1.3-2,.9-.1.6.6.6,1h0c-.4,0-1-.5-1,.5s-.6.3-1,.4h0Z"/>
  <path class="st0" d="M14.5,90.4c-.4,0-.7-.2-.7-.6,0-.8,1-.3,1.2-.8,0,.6,1-.6.9.5-.1.9-.9.8-1.5.9h.1Z"/>
  <path class="st0" d="M100.7,173.2c.5,1,.4,1.2-.7,1.1-.4,0-1.2.6-1.2-.5s.2-.7.6-.5c.5.2.9,0,1.3,0h0Z"/>
  <path class="st0" d="M120.7,7.7c.3.2.8.2.8.7s-.6.9-1.1.9-.8-.2-.7-.6c0-.6.5-.9,1.1-1h-.1Z"/>
  <path class="st0" d="M16.1,67.7c1.1-.3.9-1.1,1.3-1.6,0,0,0-.3-.2-.3-.4,0-.7,0-.6-.6,0-.3.2-.7.6-.3.1,0,0,.5.1.6,1.2.8.4,1.4,0,2.1-.3.4-.5.2-1.1,0h0Z"/>
  <path class="st0" d="M127.7,9.4c-.6,0-.7-.3-.7-.8s.6-.6.9-.7c.3,0,1,0,.9.6,0,.5-.7.7-1.1.8h0Z"/>
  <path class="st0" d="M19.1,115.7c0,.5.1,1.1-.5.9-.5,0-.6-.8-.7-1.3,0-.4.5-.8.6-.7.4.2.8.6.6,1.1Z"/>
  <path class="st0" d="M121.8,172.2c-.2-.1-.6-.2-.7-.4,0-.1,0-.4.2-.6,0-.2.4-.4.6,0,.3.3.4,0,.7,0,.3-.2.5,0,.7.2,0,.1.2.2,0,.4,0,.5-.4.2-.6.2-.4,0-.7.3-1.1.5v-.3Z"/>
  <path class="st0" d="M189.4,86.9c.4.2.8.4.9.9,0,.5-.6.6-.5,1-.3-.4-1.1-.3-1.1-.9s.4-.7.8-1h0Z"/>
  <path class="st0" d="M191.5,84.4s.2,0,.3,0c.3.6-.5.8-.5,1.4s-.5.2-.7,0c-.3-.2-.7-.3-.7-.8s0-.4.3-.4,1,.3,1.3-.4h0Z"/>
  <path class="st0" d="M158.4,23c-.2.5-.7.6-1.2.7-.3,0-.9-.1-.7-.5.2-.5.6-.9,1.2-.9s.6.2.6.8h0Z"/>
  <path class="st0" d="M178.9,121.1c-.7-.2-1.2-.7-1.9-.2,0,0-.6-.5-.8-.8,0,0,0-.4.2-.5.4,0,.9,0,.8.6,0,.2.1.3.4.2q.8-.3,1.3.8h0Z"/>
  <path class="st0" d="M182.9,61.8c-.2.3.2.4.1.7,0,.3.2.6-.2.7-.3,0-.5,0-.7-.2-.3-.2-.3-.6-.1-.7.2-.2.3-.3,0-.5-.2-.2-.2-.5,0-.8.1-.2.3,0,.5,0s.4.4.4.8Z"/>
  <path class="st0" d="M190.5,55.3v.8c0,.3.2.7-.3.7s-.3-.4-.2-.7c0-.2,0-.4-.2-.3-.4,0-.3,0-.2-.4.2-.5-.1-1.3.7-1.2.5,0,0,.9.2,1.2h0Z"/>
  <path class="st0" d="M30.2,137.5c0,.4-.2.6-.5.7-.4,0-.7-.3-.5-.6.3-.6-1.2-.9-.3-1.5.3-.2.6,0,.7.4,0,.4.7.5.6,1h0Z"/>
  <path class="st0" d="M16.5,62.9c.2-.2.6-.4.6-.6.2-.9.8,0,1.1-.2.4.4.3.7,0,1.1,0,.2-.3.4-.4.3-.4-.5-1.1,0-1.4-.5h0Z"/>
  <path class="st0" d="M105.6,4.3c-.3.3-.5.8-1.2.8s-.4-.3-.4-.6c0-.8.7-.7,1.1-.8.2,0,.6,0,.6.6h0Z"/>
  <path class="st0" d="M163.8,40c.3,0,.5.3.4.3-.7.2-.2.9-.6,1.2-.2,0-.3.5-.6.2-.3-.2-.6-.4-.4-.9.2-.6.8-.7,1.2-.9h0Z"/>
  <path class="st0" d="M62.7,19.3c-.6.3-1,.4-1.5.7-.7.4-.7-.4-.9-.7-.3-.3.2-.4.3-.6,0,0,.3-.1.3,0,.4.5,1.2.3,1.8.7h0Z"/>
  <path class="st0" d="M149.1,155.8c-.2.5-.6.8-1,1h-.3c.6-.6-.3-.9-.3-1.4s.3-.4.6-.4c.7,0,.6.6,1,.9h0Z"/>
  <path class="st0" d="M19.6,74.5c-.6,0-1.2.5-1.8,0-.1,0-.4,0-.4-.3s.2-.3.3-.4c.5-.4,1.1-.2,1.7,0,.4,0,.2.5.2.8h0Z"/>
  <path class="st0" d="M180.4,110.7h.6c.2,0,.4,0,.4.4s0,.4-.3.5c-.5,0-1-.2-1.4.4-.1.2-.2-.2-.3-.4-.2-.4-.1-.7.3-.8h.7Z"/>
  <path class="st0" d="M183.8,88.2c.7.2.5.8.6,1.2.1.3-.3.7-.7.7-.7,0-.4-.5-.5-.8-.1-.5.2-.8.6-1.1h0Z"/>
  <path class="st0" d="M14.6,74.1c0-.4,0-.9.5-.8s.9.5.8,1.1c0,.3,0,.7-.4.5-.5,0-1.1-.2-.9-.9h0Z"/>
  <path class="st0" d="M117.2,7.5c0-.4-.9,0-.8-.7,0-.6.7-.7,1.1-.8.7-.2.4.5.5.8,0,.4-.3.6-.7.7h0Z"/>
  <path class="st0" d="M182.5,96.3c-.2-.7-1.4.5-1.4-.7s0-.8.5-.7c.5,0,1.2.2,1.2,1s0,.5-.3.4Z"/>
  <path class="st0" d="M170.2,135.7c0,.2.1.6-.4.6-.9,0-.6-.8-.8-1.2-.1-.3.5-.7.5-.6.3.3.8.6.7,1.3h0Z"/>
  <path class="st0" d="M95.8,10.2c0-.9-.4-1.7.8-1.8,0,0,.2-.5.4-.2,0,.1.2.3.2.6,0,.7-.7.8-1.4,1.4Z"/>
  <path class="st0" d="M19.3,100.2c.7-.2.9,0,.9.7s-.2.6-.6.6-.8-.3-.9-.9c0-.6.5-.3.6-.4Z"/>
  <path class="st0" d="M10.2,117.3c0-.5-.8-.8-.3-1.5.4.7.9.2,1.4,0,0,1.1-.2,1.3-1.1,1.5h0Z"/>
  <path class="st0" d="M70.3,169.2c-.2-.2-.4,0-.6,0-.3,0-.7,0-.7-.3s0-.6.3-.8c.3-.3.5,0,.6.2,0,.2.2.2.4.3.3,0,.8-.1.8.4s-.5.2-.8.2h0Z"/>
  <path class="st0" d="M176.2,128.7c-.5-.6-.6-1.2-.5-1.9,0-.2,0-.5.3-.5s.5,0,.7,0c.1.2.2.7,0,.8-.8.2-.5.9-.5,1.5Z"/>
  <path class="st0" d="M14.8,64.7c-.3-.8-.1-1.4.6-1.7.2,0,.6,0,.6.2s.4.9-.3,1c-.3,0-.5.3-.8.4h0Z"/>
  <path class="st0" d="M30.9,31h-1.5c-.3,0-.4,0-.4-.4s.2-.5.4-.4c.6.2,1.7-.6,1.5.9h0Z"/>
  <path class="st0" d="M57,22c0,.3,0,.5-.4.4-.5,0-1-.2-1.1-.8,0-.6.5-.6.7-.5.4,0,.8.4.8.9Z"/>
  <path class="st0" d="M186.9,77.6c.2-.4-.5-.4-.4-.9h1.5c.3,0,.6,0,.6.4s-.3.4-.6.4h-1.2,0Z"/>
  <path class="st0" d="M119.2,11.1c.2.4.4.8.7,1.2.2.2.5.4.3.6-.2.2-.5,0-.8.1-.4,0-.4-.2-.4-.5v-1.4h.3,0Z"/>
  <path class="st0" d="M132.8,18.8c.4,0,.8,0,.8.6s-.5.5-.9.5-.8-.3-.8-.6c0-.5.5-.4.8-.4h0Z"/>
  <path class="st0" d="M30.3,135.4c-.5,0-1,.2-1.3-.4-.1-.3.1-.8.3-.8.4,0,.9-.5,1.1.1h0c-.3.3,0,.8-.2,1.1h.1Z"/>
  <path class="st0" d="M149,22.8c-.4,0-.7,0-.7-.5s.5-.7.9-.8c.4,0,.7.3.7.7,0,.6-.4.6-.9.6Z"/>
  <path class="st0" d="M88,12.5c-.4.4-.9.6-1.4.7-.2,0-.6.2-.7-.3,0-.3,0-.7.4-.7s1.1-.1,1.6.3h0Z"/>
  <path class="st0" d="M158.7,145.9c-.5,0-.8-.2-.7-.6.1-.6.7-.7,1.1-.9.3-.1.4.2.3.4,0,.5-.3,1-.8,1.1h0Z"/>
  <path class="st0" d="M188.8,61.9c-.2,0-.3-.2-.2-.3.4-.5.4-1.2,1-1.5.4-.2.5,0,.6.3,0,.2-1.2,1.6-1.4,1.5h0Z"/>
  <path class="st0" d="M177.7,37.3c.2.6-.2,1.4,1.1,1.1-.7.5-1.3,1-1.8.2-.4-.6.2-1,.7-1.3Z"/>
  <path class="st0" d="M13.4,93.1c.5-.3.9-.5,1.3-.9.3-.3.5-.3.7,0,.2,0,.3.5.3.6,0,.2-.4.4-.7.4h-1.6Z"/>
  <path class="st0" d="M18.1,97.8c-.8.2-.7-.6-.9-1,0-.2,0-.5.4-.4.4.3.9.5,1.2.9.2.3-.3.5-.7.4h0Z"/>
  <path class="st0" d="M40.5,34.6c.2,0,.6,0,.6.4s-.9.3-1.1.8c-.2-.3-.7-.4-.6-.7,0-.5.6-.5,1.1-.5Z"/>
  <path class="st0" d="M194.3,61.2c-.4,0-.2.6-.6.6s-.8-.3-.9-.7c0-.3.1-.8.6-.8s.6.5.9.9Z"/>
  <path class="st0" d="M27.9,131.7c0,.4-.4.8-1,.9-.3,0-.6-.2-.5-.5.2-.5.6-.8,1.1-.9.3,0,.3.1.3.5h.1Z"/>
  <path class="st0" d="M145.4,157.3c.4-.3.8,0,1.1.2s.5.7.6,1.2v.2c-.5-.1-.8-.3-1-.6s-.7-.5-.6-.9h-.1Z"/>
  <path class="st0" d="M80.2,14.1c0,.5-.3.8-.5.8-.6,0-.7-.7-.9-1.1,0-.3.3-.4.4-.4.4.1.9.3,1.1.7h0Z"/>
  <path class="st0" d="M4.3,99.4c.8,0,1.4,0,2,.6-1.1.7-1.5.5-2-.6Z"/>
  <path class="st0" d="M137,165.1c-.6.2-1-.2-1.3-.6-.2-.3-.1-.6.2-.8.3,0,.7-.2.7.3s.5.6.4,1.1h0Z"/>
  <path class="st0" d="M43.8,27.7c0-.6-.4-1.1,0-1.6,0,0,.5-.4.7-.1.4.5.3.7-.8,1.7h0Z"/>
  <path class="st0" d="M177,51.1c-.4,0-.9.2-.9-.6s.2-.7.5-.5c.4.3,1.1.2,1.2.7,0,.6-.5.2-.8.3h0Z"/>
  <path class="st0" d="M101.2,173.3h.7c.5,0,.6.3.6.7s-.4.5-.7.5-.6-.2-.6-.5v-.7h0Z"/>
  <path class="st0" d="M74.9,169.8c0,.4-.2.8-.5.7-.4-.1-.8-.4-.8-.9s.2-.6.5-.5c.5,0,.7.4.7.8h.1Z"/>
  <path class="st0" d="M192.2,70.9v-1.3c0-.2.4-.4.6-.6.2.2.4.4.6.7.2.4-.3.4-.4.4-.5,0-.3.6-.8.8h0Z"/>
  <path class="st0" d="M184.3,48.6c-.4.2-.9,0-.9.6s-.4.3-.6.3-.4,0-.4-.3.1-.4.4-.6c.5-.3.9-.6,1.5,0Z"/>
  <path class="st0" d="M185.2,49c.3-.6.7-1.1,1.3-1.4.1,0,.3-.3.4,0,.2.2.1.4,0,.6-.5.5-1,.9-1.7.9Z"/>
  <path class="st0" d="M50.8,162.1c0,.2.2.7-.4.6-.4,0-.7-.3-.7-.8s0-.6.5-.7c.5,0,.6.4.6.8h0Z"/>
  <path class="st0" d="M47.5,159.6c-.2.2-.2.7-.6.6-.3-.1-.9-.2-.8-.7,0-.4.5-.5.9-.6.4,0,.4.4.5.7Z"/>
  <path class="st0" d="M136.2,10.4c-.2.3-.4.6-.8.7-.4,0-.5-.1-.5-.5s0-.8.6-.8.6.1.7.6Z"/>
  <path class="st0" d="M52.3,25.6c-.3,0-.7.1-1,0,0-.7.7-1,1.3-1.2,0,0,.2,0,.3.2,0,.5-.3.7-.6,1h0Z"/>
  <path class="st0" d="M195.2,62.8c.8,0,.2-1.4,1.3-1,.3,0,.4.4.3.6-.3.5-.8.9-1.6.4Z"/>
  <path class="st0" d="M63.5,17.8c-.5-.1-.7.4-1,.6s-.7.3-.8,0c-.3-.3.2-.6.4-.7.4-.2.8-.4,1.2-.4s.3.2.3.5h-.1Z"/>
  <path class="st0" d="M29.7,20.6c-1.1,0-1.2.6-1.1,1.3-.6-.2-1-.8-.8-1.1.3-.4.9-.9,1.9-.2Z"/>
  <path class="st0" d="M15.4,117.8c.3.9-.3,1.5-.4,2.1,0,0-.2.2-.3.2-.2,0-.4-.3-.3-.5.2-.6.3-1.3.9-1.8h.1Z"/>
  <path class="st0" d="M114.5,9.2c.7-.5,1-1.2,1.8-.9.3,0,.5.2.5.5,0,.5-.3.3-.6.2-.5-.2-.9.1-1.7.2Z"/>
  <path class="st0" d="M146.3,14.5c1.5.2,1.7.5,1,1.5,0,.1-.2.2-.3.2-.2,0-.2-.2-.3-.3,0-.4.2-.9-.4-1.3h0Z"/>
  <path class="st0" d="M175.4,46.4c.6-.2,1.2-.5,1.8-.7,0,0,.2-.3.3,0v.3c-.3.6-1.5.9-2.2.5h0Z"/>
  <path class="st0" d="M85.6,173.5c0,.4-.3.6-.7.6s-.6,0-.4-.5c0-.4,0-.8.6-.8s.5.3.5.7Z"/>
  <path class="st0" d="M19.8,89c-.3.3-.5.7-.9.9-.2,0-.4-.3-.4-.6,0-.6.5-.7.9-.8.3,0,.3.2.3.5h.1Z"/>
  <path class="st0" d="M181,40.6c-.3,0-.4-.2-.4-.4,0-.5.5-.7.9-.9.3,0,.6,0,.6.3,0,.6-.7.7-1.1,1Z"/>
  <path class="st0" d="M190.4,62.8c.6-.8,1.5-.6,2.2-1.2,0,.9-.7,1.3-2.2,1.2Z"/>
  <path class="st0" d="M190.3,79.2c-.3,0-.7.5-.8,0-.2-.5-.2-1.1,0-1.7,0-.2.5-.2.6,0,.2.2.2.5,0,.7-.1,0-.3,0-.4,0,0,.5.8.2.6.8h0Z"/>
  <path class="st0" d="M175.2,122.8c.4.5.1,1.1,0,1.7-.4,0-.9,0-.9-.4,0-.5.2-1,.8-1.3h0Z"/>
  <path class="st0" d="M19.2,67.4c.8.4,1,.9.8,1.6,0,.3-.4.3-.5.2-.6-.5-.2-1.1-.3-1.7h0Z"/>
  <path class="st0" d="M3.1,93.5c0-.5.4-.6.6-.9.2.2.6.4.6.6,0,.5-.7.6-.9,1.1-.3-.2-.4-.4-.3-.7h0Z"/>
  <path class="st0" d="M186.4,82.5c-.1.3.2.8-.4.8s0-.9-.7-1c.2-.3.3-.7.7-.7s.2.6.3.9h0Z"/>
  <path class="st0" d="M194,87.3c.3.7.8,1.1.7,1.8-1.1-.2-1.2-.6-.7-1.8Z"/>
  <path class="st0" d="M19.5,74.6c.5,0,.7-.7,1.3-.4h0v.7c-.3.2-.4.7-.9.6-.6,0-.2-.6-.3-.9h-.1Z"/>
  <path class="st0" d="M192.6,93.9c-.7-.5-1.2-.9-.8-1.7,0-.2.1-.3.3-.3s.3,0,.3.3c0,.5.1,1,.2,1.7Z"/>
  <path class="st0" d="M191,89c.4.3-.2,1.2.9.9-.4.3-.5.9-1,.6-.3,0-.5-.5-.6-.8-.2-.6.7-.2.7-.7h0Z"/>
  <path class="st0" d="M63.5,17.8c.4-.3.8-.5,1.2-.2.2.2.2.6,0,.8-.9.6-.9-.2-1.1-.7h0Z"/>
  <path class="st0" d="M169,31.9c.4.6.3,1.1,0,1.6-.1.2-.5,0-.6-.2-.3-.7.2-1,.7-1.4h0Z"/>
  <path class="st0" d="M30.9,31c.5,0,.8-.7,1.3-.4h0v.7c-.3.2-.4.7-.9.6-.6-.1-.2-.6-.3-.9h-.1Z"/>
  <path class="st0" d="M12.4,65c-.4-1.5.6-1.1,1.6-1.2-.6.4-.9,1-1.6,1.2Z"/>
  <path class="st0" d="M137.5,22.2c-.1-.8-1.3-.5-1-1.4,0-.3.4-.4.6-.3.5.3.7.8.4,1.7Z"/>
  <path class="st0" d="M8,87.2c0-.3.2-.5.3-.7.2-.4.5-.6.8-.5.3,0,.1.5.1.8,0,.5-.4.4-.7.4h-.6,0Z"/>
  <path class="st0" d="M133.9,19.2c0-.5-.4-1,.3-1.3.2,0,.6-.2.7.3.1.8-.5.7-1,.9h0Z"/>
  <path class="st0" d="M195.8,50.2c-.3.3-.7,0-1,.2-.3,0-.6,0-.7-.4,0-.4.3-.4.5-.5.4-.4.4,0,.5.3.1.4.6,0,.8.4h-.1Z"/>
  <path class="st0" d="M171.7,53.6c.3-.2.7-.4,1,0,.2.2.2.6,0,.8-.3.4-.7.2-1,0h0c-.2-.3-.2-.6,0-.9h0Z"/>
  <path class="st0" d="M36.6,144.2l.2.2v.4c0,.4,0,.6-.5.6s-.5-.2-.5-.4c0-.3,0-.6.3-.8h.5Z"/>
  <path class="st0" d="M135.2,165.2c.3.2.6.4,1,.7-.2.2-.1.6-.5.5-.5,0-.7-.6-.9-1,0-.2,0-.3.4-.3h0Z"/>
  <path class="st0" d="M193.2,56.1c-.4.3-.6,1-1.2,1,.2-.3-.4-.2-.2-.6.3-.8.8-.6,1.4-.4Z"/>
  <path class="st0" d="M183.6,43c.6.2.9-1,1.5-.3.1.2.2.6,0,.8-.6.3-1-.2-1.4-.4h-.1Z"/>
  <path class="st0" d="M16.6,84.6c-.1.4-.4.7-.8.8-.4,0-.4-.4-.5-.6-.1-.4.3-.5.6-.6s.5,0,.7.4Z"/>
  <path class="st0" d="M23.1,66.9c.1.5.9.8.3,1.4-.1,0-.4.3-.5,0-.4-.5-.3-1,.2-1.4Z"/>
  <path class="st0" d="M182.8,106.4c0-.9,1-.9,1.4-1.6.3,1.4-.7,1.4-1.4,1.6h0Z"/>
  <path class="st0" d="M186.1,49.5c.2-.5.6-.7,1-.7s.5.3.7.6c0,0,0,.4-.1.3-.4,0-.9-.4-1.2.2-.1,0-.2-.2-.3-.4h0Z"/>
  <path class="st0" d="M18.3,95.3c0,0,0-.5.4-.5s.4.4.4.7,0,.6-.4.6-.5-.3-.5-.8h.1Z"/>
  <path class="st0" d="M17,113.5c0,.6-.4.8-.7.9,0,0-.4-.4-.6-.6.3-.2.4-.6.8-.6s.4.2.4.3h.1Z"/>
  <path class="st0" d="M172.3,130.8c-.6,0-.3-.7-.8-.8-.3,0-.4-.4-.2-.7,0,0,.3-.3.3-.1,0,.4.8.1.7.6v1Z"/>
  <path class="st0" d="M114.2,16.7c-.3-.3-1.2.3-1-.6,0-.3.2-.7.6-.6.7.2.2.7.3,1.1h0Z"/>
  <path class="st0" d="M102.9,11.2c0,.4-.4.6-.7.7-.3.1-.5-.4-.4-.4,0-.4.4-.7.9-.8.3,0,.3.2.3.5h-.1Z"/>
  <path class="st0" d="M20.8,77c0,.4,0,.7-.5.7s-.4-.3-.4-.6-.1-.7.4-.7.4.3.4.6h.1Z"/>
  <path class="st0" d="M182.5,123.2c-.5-.7-1.1.4-1.6,0,.1-.4.3-.9.8-1,.5,0,.5.6.7,1h.1Z"/>
  <path class="st0" d="M31.3,24.9c0,.2.2.6-.3.7-.5,0-.5-.5-.6-.8,0-.3.1-.5.3-.7.2.3.7.4.5.9h.1Z"/>
  <path class="st0" d="M189.6,33.8c.3,0,.5.3.5.6s0,.6-.5.7c-.3,0-.5,0-.6-.5,0-.4.3-.6.6-.8Z"/>
  <path class="st0" d="M144.8,21.8c0,.3,0,.7-.4.7s-.4-.4-.4-.7,0-.6.4-.6.5.3.5.6h-.1Z"/>
  <path class="st0" d="M96.9,173.2c.4.2,1.2-.2,1.2.7s0,.4-.3.5c-.8,0-.7-.7-1-1.1h.1Z"/>
  <path class="st0" d="M83.9,172.9c-.3.1,0,.8-.5.7-.4,0-.4-.4-.5-.7,0-.3.2-.5.5-.6.3,0,.5.2.6.5h0Z"/>
  <path class="st0" d="M105.6,172.9c.6,0,.9,0,.9.4s0,.7-.5.7-.6-.3-.7-.6c0-.3.2-.4.3-.5h0Z"/>
  <path class="st0" d="M187.5,36.9c-.2,0-.6.2-.7-.4,0-.4.1-.4.5-.5.5,0,.8.3.9.6,0,.3-.4.3-.7.3Z"/>
  <path class="st0" d="M29.4,44c.4-.6.8-1.1,1.5-.7,0,0,.3,0,.2.2-.4.7-1,.4-1.7.5Z"/>
  <path class="st0" d="M128.5,169.4c.2,0,.7-.1.6.3,0,.7-.8.1-1.1.4,0,0-.5,0-.4-.3,0-.6.6-.4.9-.4Z"/>
  <path class="st0" d="M80.4,13.7c0-.2-.2-.7.4-.7s.2.6.4,1c.2.2-.2.5-.5.5-.5,0-.2-.5-.3-.8Z"/>
  <path class="st0" d="M16.6,80.6c0,.5-.3.7-.7.7s-.4-.2-.6-.3c.6,0,.4-.9,1.1-.8.4,0,.1.3.2.4Z"/>
  <path class="st0" d="M192.8,83.4c0,.2,0,.4-.2.3-.3-.2-.8-.3-.8-.8s.1-.4.4-.4c.7,0,.2.7.6.9Z"/>
  <path class="st0" d="M204.3,80.2c.3.7-.4.4-.5.7v.2c.3,0,.7,0,.5.6-.2.4-.4,0-.6,0-.4,0-.6-.5-.3-.8s.6-.4.8-.6h.1Z"/>
  <path class="st0" d="M54.2,26.2c-.4.2-.7.4-.8-.2,0-.5,0-1,.6-.8h0c.6.2.7.6.2,1.1h0Z"/>
  <path class="st0" d="M52.3,25.6c.6.2.4.7.3,1,0,.2-.5.3-.8,0-.3-.2-.2-.5,0-.7s.4-.3.5-.4h0Z"/>
  <path class="st0" d="M121.3,13.6c.3,0,.5.3.5.5s0,.7-.5.5c-.3-.1-.7-.4-.7-.7s.3-.3.7-.3Z"/>
  <path class="st0" d="M122.8,170h.2c.4-.2.7-.4,1,.1,0,.3-.2.7-.3.7-.4,0-1-.1-.9-.9h0Z"/>
  <path class="st0" d="M129.6,168.6c0,.3-.2.5-.4.6-.4.1-.6-.2-.8-.4-.1-.2-.2-.3,0-.4.2,0,.5-.4.7,0,.1.1.3.2.4.3h.1Z"/>
  <path class="st0" d="M41.1,152.9c0,.1.2.3.3.4,0,.3.2.7,0,.9-.4.2-.4-.2-.6-.4-.5-.4,0-.6.2-.8h.3-.1Z"/>
  <path class="st0" d="M144.8,19.5c.4-.5.9-.9,1.1-1.5,0-.1.2-.3.4-.1,0,0,.2.3.1.3-.5.5-.9,1-1.4,1.5,0,0-.1-.1-.2-.2h0Z"/>
  <path class="st0" d="M21.4,128.8c.3-.8.6-1.1,1.2-1,.4,0,.3.4.2.6-.3.5-.8,0-1.4.4Z"/>
  <path class="st0" d="M177.2,118.1c-.2.2-.4.6-.7.6s-.3-.3-.3-.5c0-.4.1-.6.5-.5.2,0,.5,0,.5.4Z"/>
  <path class="st0" d="M129,15.6c0,.4-.2.6-.5.6s-.5-.2-.5-.5.2-.5.5-.5.5.2.5.5h0Z"/>
  <path class="st0" d="M199.2,73.9c0,.2.4.4.2.6s-.8.2-.9,0c-.2-.3-.8-.5-.4-1,0,0,.1-.2.3-.4-.2,1,.4.9.8.9h0Z"/>
  <path class="st0" d="M161,37.1c0,.4-.2.6-.5.6s-.5-.2-.6-.5c0-.3.2-.5.5-.6.3,0,.5.2.6.4h0Z"/>
  <path class="st0" d="M171.7,52.1v-.3c0-.3-.2-.8.4-.8s.4,0,.4.4c0,.5-.2.7-.7.6h-.2.1Z"/>
  <path class="st0" d="M162.5,39.2c0,.3,0,.6-.4.5-.4,0-.5-.3-.5-.7s0-.5.4-.5.5.3.5.7Z"/>
  <path class="st0" d="M8.1,121.7c-.2-.7.1-1.1.6-1.4.1,0,.4,0,.3,0,0,.6-.4.9-.9,1.3Z"/>
  <path class="st0" d="M27.2,53.9c.3,0,.7,0,.7.3s-.4.5-.7.5-.5,0-.5-.4.2-.5.5-.4Z"/>
  <path class="st0" d="M146.5,155.9c.1.4.6.6.7,1,0,.2-.2.3-.3.2-.4-.1-.7-.4-.9-.8,0-.2.2-.3.5-.5h0Z"/>
  <path class="st0" d="M130.8,14.8c-.6-1.3-.6-1.4.7-1.3.1.6-.6.8-.7,1.3h0Z"/>
  <path class="st0" d="M131.6,167.7c.2,0,.8,0,.5.4-.2.3-.2.8-.7.9-.4,0-.4-.2-.3-.5.1-.3.3-.6.5-.8h0Z"/>
  <path class="st0" d="M136.3,14.4c-.3,0-.5-.3-.5-.5,0-.3.3-.6.5-.6s.5,0,.5.5-.2.5-.5.6Z"/>
  <path class="st0" d="M171.3,46.6v-.3c0-.3-.2-.8.4-.8s.4,0,.4.4c0,.5-.2.7-.7.6h-.2.1Z"/>
  <path class="st0" d="M14.3,97.7c.5.4,1,.4,1,1s-.5.3-.7.2c-.7-.2-.2-.6-.3-1.2Z"/>
  <path class="st0" d="M93.4,12.3c-.4.2,0,1-.6,1s-.5-.3-.4-.6c0-.4.4-.7,1-.4Z"/>
  <path class="st0" d="M126.5,16.9c-.4.2-.9.2-1.2.5,0,0-.2-.3,0-.4,0-.5.5-.5.8-.6.2,0,.3.2.5.5Z"/>
  <path class="st0" d="M182.2,72.8s-.3-.2-.2-.5c0-.3.2-.6.5-.4.2,0,.6.2.5.3-.3.2,0,.8-.8.7h0Z"/>
  <path class="st0" d="M200,74.3c-.2.7.2,1.2-.3,1.5-.2,0-.7,0-.6,0,0-.5.5-.9,1-1.5h0Z"/>
  <path class="st0" d="M93.4,11.2c0,.3-.2.5-.6.5s-.4-.3-.4-.6,0-.6.3-.5c.2,0,.6.1.7.5h0Z"/>
  <path class="st0" d="M138.3,163.1c.4-.2.8-.4,1.4-.6,0,.7-.4,1-.8,1.1-.3.1-.4-.3-.5-.5h0Z"/>
  <path class="st0" d="M46.9,156.7c0,.3-.2.5-.6.5s-.5-.2-.5-.5.3-.5.6-.5.5,0,.5.5Z"/>
  <path class="st0" d="M29.4,56.9c-.1.3.2.8-.4.8s-.4,0-.5-.2v-.7c.3-.4.5,0,.8,0h.1Z"/>
  <path class="st0" d="M76,170.9c.3,0,.8-.5,1,0,.2.6-.5.5-.8.8-.2-.3,0-.6,0-.9h0Z"/>
  <path class="st0" d="M173.2,37.8c-.2,0-.6.5-.6,0s.3,0,.5,0h.2c.2,0,.1-.8.6-.4.2,0,.1.3,0,.4-.1.5-.5.4-.7.2Z"/>
  <path class="st0" d="M190.7,117.2c0,.3-.4.4-.7.4s-.3,0-.4-.4c0-.4.2-.5.5-.5s.5,0,.5.4h0Z"/>
  <path class="st0" d="M57.4,165.6c0,.4-.3.4-.5.5s-.5-.1-.5-.4.3-.5.5-.6c.3,0,.4.2.5.4h0Z"/>
  <path class="st0" d="M94.3,7.5c-.2.2,0,.6-.5.6s-.3-.3-.3-.6,0-.5.5-.5.4,0,.3.4h0Z"/>
  <path class="st0" d="M57.8,23.2c0-.5.5-.7.7-1,.2-.2.4-.1.5,0,0,.2,0,.5,0,.5-.4,0-.6.5-1.1.4h0Z"/>
  <path class="st0" d="M194.8,67.2c.4-.5.7-1,1.5-.7-.4.4-.8.8-1.5.7Z"/>
  <path class="st0" d="M82.1,173.7c0,.4-.2.4-.4.4-.3,0-.6,0-.6-.4s.2-.4.5-.4.5.2.5.4Z"/>
  <path class="st0" d="M181.7,127.2c1.2.5.7,1,.3,1.5-.5-.4-.2-.9-.3-1.5Z"/>
  <path class="st0" d="M31.4,48.6c.4.3.7.5.9.8,0,0,.3,0,.2.3s-.3.3-.4.4c0,0-.3-.2-.3-.3,0-.4-.5-.6-.4-1.2Z"/>
  <path class="st0" d="M95.8,172.1c.6-.4,1.2-.8,1.5.3-.4-.7-1.1.6-1.4-.4h0Z"/>
  <path class="st0" d="M24.4,58.1c.4,0,.4,0,.5.4,0,.3,0,.6-.4.6s-.4-.2-.4-.5.2-.5.4-.5h-.1Z"/>
  <path class="st0" d="M157.6,148.5c0-.4-.3-1,.2-1.2.3-.2.7.3.4.6s-.5.3-.6.6h0Z"/>
  <path class="st0" d="M40.9,30.3c-.2.5-.4.9-.9,1,0,0-.3-.3-.4-.4.3-.3.7-.5,1.3-.6Z"/>
  <path class="st0" d="M176.2,41.2c0-.8.1-1.2.6-1.4.1,0,.3,0,.5.2-.3.3-.6.7-1.1,1.2Z"/>
  <path class="st0" d="M40.5,151.9l.2.2c0,.3,0,.8-.5.8s-.5-.3-.5-.4c0-.4.3-.6.7-.6h0Z"/>
  <path class="st0" d="M168.8,40.6c.3-.6.6-1,1.1-.8,0,0,.2.4,0,.6-.2.5-.6,0-1.1.2Z"/>
  <path class="st0" d="M16.1,79.1c0,.3-.3.3-.5.3-.3,0-.5,0-.5-.4s0-.4.4-.5c.4,0,.4.2.6.5h0Z"/>
  <path class="st0" d="M28.6,134.8c-.3-.2-.5-.3-.4-.5.1-.3.2-.7.5-.7s.4.2.3.5c0,.3-.2.5-.4.8h0Z"/>
  <path class="st0" d="M163.1,137.2h.4c.3-.1.5,0,.7.3.1.2,0,.4-.2.5-.3.1-.4,0-.6-.2-.2-.1-.2-.3-.2-.5h0Z"/>
  <path class="st0" d="M76,170.9c-.5-.2-.8.4-1.3.4,0-.6.5-.9.9-1,.3,0,.4.3.4.6h0Z"/>
  <path class="st0" d="M112.3,171.1c0,.3,0,.5-.4.5s-.5,0-.5-.4,0-.5.4-.5.5,0,.5.4Z"/>
  <path class="st0" d="M39.8,36.7c0,.4,0,.7-.5.8-.2,0-.5,0-.6-.3,0-.3,0-.4.4-.4h.7Z"/>
  <path class="st0" d="M158.3,38.2c-.3,0-.5,0-.5-.3s.2-.5.5-.5.4.3.4.5c0,.3-.3.4-.5.3h.1Z"/>
  <path class="st0" d="M181.7,46.5c-.4-.7,0-1.1.5-1.4.4.7-.5.9-.5,1.4Z"/>
  <path class="st0" d="M12.3,52.1c.3,0,.4,0,.4.4s-.1.4-.4.4-.4,0-.4-.4.1-.4.4-.4Z"/>
  <path class="st0" d="M192.9,72.2c.1.4.4.9,0,1.2-.3.2-.5-.3-.5-.4-.2-.5.4-.4.5-.7h0Z"/>
  <path class="st0" d="M181.9,80.1c0,.4-.3.5-.5.5s-.3-.2-.3-.4c0-.3.2-.5.5-.5s.3.2.3.5h0Z"/>
  <path class="st0" d="M35.4,35.4c-.3,0-.5,0-.5-.4s0-.5.4-.5.5,0,.5.4,0,.5-.4.5Z"/>
  <path class="st0" d="M142.9,160.2c.8.2.1.6,0,.8,0,.1-.6.2-.6.1-.2-.4,0-.6.3-.7.1,0,.2-.2.3-.3h0Z"/>
  <path class="st0" d="M14.6,66.9c.3,0,.5,0,.5.4s-.3.2-.6.3c-.3,0-.5,0-.5-.4s.4-.2.5-.3h.1Z"/>
  <path class="st0" d="M109.2,172.4c.2,0,.2-.2.3-.2.4,0,.8-.2,1.1.2,0,.2,0,.2-.2.3-.4.1-.8.1-1.2-.3Z"/>
  <path class="st0" d="M122.8,170c-.3.1-.6.6-.9.1,0-.2-.2-.6.2-.7.5-.1.6.2.6.6h.1Z"/>
  <path class="st0" d="M87.2,171.5c-.5,0-.5-.2-.5-.4,0-.3,0-.5.4-.4.2,0,.4,0,.4.3s-.2.5-.3.5h0Z"/>
  <path class="st0" d="M7.6,119.2c.4-.2.8-.4,1.1,0,0,0-.2.3-.3.4-.6.4-.4-.5-.8-.5h0Z"/>
  <path class="st0" d="M37.8,34.1c-.6.4-1-.2-1-.4,0-.6.5-.5.7,0,0,.2.2.3.3.5h0Z"/>
  <path class="st0" d="M23,78.2c-.2,0-.7.5-.8-.2,0,0,0-.6.3-.6.7,0,.3.5.4.8h.1Z"/>
  <path class="st0" d="M182.5,80.8c.3,0,.3.2.3.4,0,.4-.2.4-.5.4s-.4,0-.3-.3c0-.2.1-.6.5-.6h0Z"/>
  <path class="st0" d="M185.9,76.9c-.6.3-1,.2-1-.4,0,0-.3-.2,0-.2.6-.2.7.4,1.1.7h-.1Z"/>
  <path class="st0" d="M18.1,87.4c.4,0,.5-.7,1-.6-.2.2.1.4,0,.6-.3.4-.6,0-1,0Z"/>
  <path class="st0" d="M155.8,150.7c-.2,0-.3-.1-.4-.3,0-.3,0-.4.4-.4s.5,0,.5.3-.3.3-.6.4h.1Z"/>
  <path class="st0" d="M196.2,74.3h.9c-.3.4-.5.7-.8,1.1-.2-.4-.1-.8-.2-1.2h.1Z"/>
  <path class="st0" d="M175.3,42.8c.3,0,.3-.8.8-.5.1,0,.3.4.2.5-.3.3-.6.2-1,0Z"/>
  <path class="st0" d="M141.6,20.7c-.3,0-.2-.4-.5-.4.1-.2.2-.6.5-.6s.3.2.5.3c-.4,0-.2.6-.5.7Z"/>
  <path class="st0" d="M18.6,108.1c0,.7-.2,1.2.6,1.2-.3.4-.7.4-.8.2-.2-.4-.2-.8.2-1.4Z"/>
  <path class="st0" d="M43,155.8c0,.2-.2.3-.4.3-.4,0-.3-.3-.3-.5s0-.5.3-.4c.3,0,.3.4.5.6h0Z"/>
  <path class="st0" d="M44.9,158c-.2,0,0,.5-.3.4-.2,0-.6,0-.5-.3,0-.2,0-.6.3-.6s.4.3.6.5h0Z"/>
  <path class="st0" d="M4.3,103.8c.3.8-.3.9-.6,1.3-.4-.7.2-.9.6-1.3Z"/>
  <path class="st0" d="M150.5,25.3c-.3.4-.5,1.1-1.5.4.8.1.8-.7,1.5-.4Z"/>
  <path class="st0" d="M150.5,154.7c0,.3-.3.4-.5.4s-.4-.1-.5-.3c0-.3.2-.3.4-.3s.5-.1.6.2h0Z"/>
  <path class="st0" d="M172.1,53.2c-.2,0-.4,0-.4-.2s.1-.5.4-.6c.3,0,.4.2.4.5s-.2.3-.4.3Z"/>
  <path class="st0" d="M174.7,55.8c.4,0,.4.4.5.6,0,0,0,.3-.2.3-.3,0-.5,0-.6-.5,0-.2,0-.3.3-.4Z"/>
  <path class="st0" d="M126.9,12.5c.3-.3.5-.7,1-.4,0,0,.2.3,0,.3-.3.3-.7,0-1.1,0h0Z"/>
  <path class="st0" d="M33.9,37.8c-.2.4,0,1-.9.8h0c0-.7.2-1,.9-.8h0Z"/>
  <path class="st0" d="M38.7,29.9c.3-.3.8-.2.9-.7,0,.9,0,1-.9.7Z"/>
  <path class="st0" d="M17.9,58.3c.7-.2,1.2,0,1.4.4-.3-.4-.8,0-1.4-.4Z"/>
  <path class="st0" d="M91.9,174c-.5.1-.8,0-1.2-.2,0,0,0-.3,0-.3.5-.2.7.2,1,.5h0Z"/>
  <path class="st0" d="M93.5,4.1c.5.2.7.5.6,1,0,.2,0,0-.3,0-.6-.2-.3-.6-.3-1.1h0Z"/>
  <path class="st0" d="M52.4,161.5c.2.4.7.4.7.9,0,0-.2.2-.3.1-.4-.2-.7-.4-.5-1h0Z"/>
  <path class="st0" d="M55.4,165.2c.2.2.6,0,.6.4s0,.4-.4.3c-.3,0-.5-.3-.6-.5,0-.1,0-.3.3-.2h.1Z"/>
  <path class="st0" d="M114.2.6h-1c.2-.4.3-.7.7-.6.4,0,.2.4.3.6h0Z"/>
  <path class="st0" d="M94.3,173.8c0,.3-.2.3-.4.3s-.4,0-.4-.3.2-.3.4-.3.4,0,.4.3Z"/>
  <path class="st0" d="M32.4,42.5c-.5,0-.6.7-1.1.6-.2,0,0-.2,0-.3.1-.4.4-.7,1.1-.3Z"/>
  <path class="st0" d="M10.8,101.8c.2-.3.5-.4.6-.9.3.7,0,1-.6.9Z"/>
  <path class="st0" d="M95,13.8c-.3.2-.6.5-.9,0,0-.2,0-.4,0-.5.4,0,.7,0,.8.5h0Z"/>
  <path class="st0" d="M110.7,13.2c.2,0,.4,0,.5.3,0,.3,0,.4-.4.4s-.4,0-.5-.3c0-.3,0-.4.4-.4Z"/>
  <path class="st0" d="M27.9,133.9c0,.3-.3.3-.5.3s-.4,0-.4-.4.3-.3.5-.3.4,0,.4.4Z"/>
  <path class="st0" d="M86.1,172.8c-.3,0-.3-.2-.3-.4s0-.4.3-.4.3.2.3.4,0,.4-.3.4Z"/>
  <path class="st0" d="M25.8,129.7c.2,0,.4,0,.4.3s-.2.3-.4.3-.4,0-.4-.3.2-.3.4-.3Z"/>
  <path class="st0" d="M13.4,109.1c-.5,0-.5-.3-.4-.6.1-.4.5-.2.8,0,.1.4-.6.4-.4.8h0Z"/>
  <path class="st0" d="M39.3,152c0-.5-.6-.5-.3-1,0-.2.3-.2.4,0,.3.3.3.6,0,1h-.1Z"/>
  <path class="st0" d="M24.5,55.4c0,.3-.1.3-.4.3s-.4,0-.4-.3.2-.3.4-.3.4,0,.4.3Z"/>
  <path class="st0" d="M196.8,87.5c0-.6.2-.9.8-.8-.2.3-.4.5-.8.8Z"/>
  <path class="st0" d="M181.7,75.7c.7-.4,1.1-.3,1.5,0-.4.4-.8.3-1.5,0Z"/>
  <path class="st0" d="M34.2,144.3c.2.3.5.6,0,.9-.2.1-.4,0-.4-.2-.3-.5,0-.6.5-.7h0Z"/>
  <path class="st0" d="M16,93.4c0,.3.5.6.1,1-.1,0-.3,0-.4,0-.2-.3-.1-.6.2-.9h0Z"/>
  <path class="st0" d="M135.4,16.3c.5.4.4.8.5,1.1h-.3c-.5-.3-.2-.7-.2-1.2h0Z"/>
  <path class="st0" d="M124.9,13.9c.2,0,.4.2.4.4s-.2.4-.4.4-.4-.2-.3-.3c0-.2,0-.5.4-.5h0Z"/>
  <path class="st0" d="M143,159.1c-.2,0-.3-.2-.3-.3,0-.2.2-.4.4-.4s.4.2.4.4c0,.3-.3.2-.5.4h0Z"/>
  <path class="st0" d="M166.2,135.6c0-.4-.2-.7.2-.8q.3,0,.3.2c.2.6-.6.2-.6.6h.1Z"/>
  <path class="st0" d="M142.9,24.1c.3,0,.4.1.4.4s0,.4-.2.4c-.3,0-.4-.2-.5-.4,0-.2,0-.3.3-.3h0Z"/>
  <path class="st0" d="M.8,88.4c.4.4.5.7.2,1h-.3v-1h.1Z"/>
  <path class="st0" d="M147.7,153.4c.2-.5.2-.9.6-.9h.2c0,.5-.3.7-.9.8h0Z"/>
  <path class="st0" d="M202.8,80.9c-.3-.3-.5-.5-.8-.7.6-.3.7-.3.8.7Z"/>
  <path class="st0" d="M110.8,171.6c0,.3,0,.4-.4.4s-.3-.2-.3-.4c0-.3.3-.3.4-.4.3,0,0,.2.2.3h.1Z"/>
  <path class="st0" d="M105.1,174.7c-.4,0-.7.2-1-.2v-.3c.2-.2.3-.2.5,0,0,.1.3.2.5.4h0Z"/>
  <path class="st0" d="M129.6,10.2c0,.2-.2.4-.4.4-.3,0-.2-.2-.2-.4s0-.4.2-.4.4.2.4.4Z"/>
  <path class="st0" d="M10.1,117.3c0,.3.2.7-.4.6-.3,0-.4-.3-.3-.4.1-.4.5,0,.7-.2h0Z"/>
  <path class="st0" d="M10.2,97.4c.2-.8.6-.3,1-.3-.3.3-.7.2-1,.2h0Z"/>
  <path class="st0" d="M43.9,29.3c.4,0,.7-.2.8,0,0,0,0,.4-.2.4-.3,0-.5-.2-.7-.5h.1Z"/>
  <path class="st0" d="M199.2,73.9c.2-.8.6-.3,1-.3-.3.3-.7.2-1,.2h0Z"/>
  <path class="st0" d="M188.7,51.5c.2.8-.3.8-.8,1.1.1-.6.5-.8.8-1.1Z"/>
  <path class="st0" d="M4.5,102.3c.2.2.4.3.4.5,0,.3,0,.4-.4.4s-.4-.2-.4-.3c0-.2.4-.2.4-.5h0Z"/>
  <path class="st0" d="M149.7,156.1c-.2,0-.4-.2-.4-.4s.2-.2.4-.2.4,0,.4.2-.2.4-.3.4h0Z"/>
  <path class="st0" d="M5,106.8q.2,0,.3.2c0,.3,0,.5-.4.6,0,0-.2,0-.3-.2,0-.3,0-.4.4-.6Z"/>
  <path class="st0" d="M48.8,21.9c-.4,0-.4.6-.8.5-.2,0,0-.2,0-.3,0-.2,0-.5.4-.5s.2.1.5.3h-.1Z"/>
  <path class="st0" d="M11.4,109.2c.4.3.3.6.2,1.1-.5-.4-.3-.8-.2-1.1Z"/>
  <path class="st0" d="M13.4,109.2c.7,0,.2.7,1,.7-1.2.3-1-.3-1-.7h0Z"/>
  <path class="st0" d="M192.5,95.3c0-.4-.3-.8.2-1,.2,0,.5,0,.3.3-.3.2-.3.5-.5.7Z"/>
  <path class="st0" d="M68.4,169.9c0,.2-.2.3-.3.3-.3,0-.2-.3-.3-.4,0-.1,0-.3.2-.3.3,0,.4.2.5.4h0Z"/>
  <path class="st0" d="M178,123.7h-1.5c.4-.6.8-.2,1.5,0Z"/>
  <path class="st0" d="M31.3,33c.3,0,.6.2.6.6s-.2.2-.3,0c-.5,0-.1-.5-.2-.7h-.1Z"/>
  <path class="st0" d="M92.7,4.5c-.3.3-.6.3-.9,0v-.4c.3-.2.5,0,.8.2h0Z"/>
  <path class="st0" d="M15.9,75.8c.2,1-.7.5-.9.8,0-.5.6-.5.9-.8Z"/>
  <path class="st0" d="M170.9,135.9c-.4-.3-.3-.5-.2-.8h.4c.3.3-.2.4-.2.7h0Z"/>
  <path class="st0" d="M111.7,172.4c-.2,0-.6.2-.6-.3s0-.3.3-.3c.5,0,.3.4.3.6h0Z"/>
  <path class="st0" d="M30.3,37.8c.7,0,.9.3,1,.9-.5,0-.7-.4-1-.9Z"/>
  <path class="st0" d="M150,156.6c-.2.3-.4.5-.6.8-.3-.6-.1-.9.6-.8Z"/>
  <path class="st0" d="M159.4,34.3c.1-.3.2-.6.6-.6s.2.2.1.3c-.1.5-.5,0-.7.2h0Z"/>
  <path class="st0" d="M17,89.7c0-.4-.2-.7.2-.8.1,0,.3,0,.3,0,0,.3-.2.5-.6.7h.1Z"/>
  <path class="st0" d="M188.8,104.9h1.3c-.4.5-.8.5-1.2,0h-.1Z"/>
  <path class="st0" d="M132.2,18.4c-.4-.3-.3-.6-.1-.9.4.2.3.5.1.9Z"/>
  <path class="st0" d="M137.3,18.8c0,.2,0,.4-.3.4s-.2-.3-.2-.4c0-.2,0-.4.3-.3.2,0,.1.3.2.4h0Z"/>
  <path class="st0" d="M139.2,19.1c.2.4.3.6,0,.9h-.2c-.1-.2-.1-.5.2-.8h0Z"/>
  <path class="st0" d="M200,77.6c.3,0,.6-.2.7,0,0,0,0,.3-.1.4-.4,0-.2-.5-.6-.5h0Z"/>
  <path class="st0" d="M184.1,83.9c-.5-.5-.5-.7-.3-1.1.5.2.2.5.3,1.1Z"/>
  <path class="st0" d="M17.9,77.9c-.3-.4-.3-.7-.1-1,.4.3.3.5.1,1Z"/>
  <path class="st0" d="M182.3,77.1c-.2,0-.4,0-.3-.3,0,0,.1-.3.3-.3s.2.2.4.3c-.1,0-.2.3-.4.3Z"/>
  <path class="st0" d="M18.1,75.5c0,.2,0,.4-.3.3-.2,0-.2-.3-.2-.4,0-.2,0-.4.3-.3.2,0,.1.3.2.4Z"/>
  <path class="st0" d="M20.9,74.1c0-.3-.2-.6.4-1-.1.5.3.9-.5,1h.1Z"/>
  <path class="st0" d="M194.4,72.5c-.3.2-.6.2-.8,0v-.2c.2,0,.5-.2.8.2Z"/>
  <path class="st0" d="M191.3,71.2c-.3-.3-.5-.5-.4-.8,0,0,.2,0,.3,0,.3.3,0,.6.1.9h0Z"/>
  <path class="st0" d="M6.5,91.3c.2,0,.3,0,.3.2s0,.4-.2.5c0,0-.2,0-.2-.2s0-.4,0-.5Z"/>
  <path class="st0" d="M186.7,92.7c-.5-.2-.5-.5-.7-.9.5,0,.6.4.7.9Z"/>
  <path class="st0" d="M12.1,95.2c0,.2,0,.4-.2.4s-.3-.2-.3-.3,0-.4.2-.4.2.2.3.3Z"/>
  <path class="st0" d="M17,69.7c-.3-.4-.2-.7,0-1.1.3.4.3.6,0,1.1Z"/>
  <path class="st0" d="M14,96c.2.5.3.7,0,1-.3-.3-.2-.6,0-1Z"/>
  <path class="st0" d="M19.8,67c-.2-.4-.3-.7,0-1,.2.3.3.6,0,1Z"/>
  <path class="st0" d="M199.8,60.4c-.1,0-.2.2-.4.3-.2,0-.2-.2-.2-.4s.2-.2.4-.2.2,0,.2.3Z"/>
  <path class="st0" d="M10.2,104.8c-.3.4-.6.3-.9,0,.2-.4.5-.3.9,0Z"/>
  <path class="st0" d="M5.8,107.9c-.2-.4,0-.7,0-1,.5.3.4.6,0,1Z"/>
  <path class="st0" d="M179.1,55.9c.3.4.3.7.2,1-.4-.2-.3-.5-.2-1Z"/>
  <path class="st0" d="M181.5,48.5c-.5-.5-.5-.7-.3-1.1.5.2.2.5.3,1.1Z"/>
  <path class="st0" d="M28.3,136.3c0,.2,0,.4-.2.4s-.4-.2-.4-.4.2-.2.3-.2c.2,0,.3.1.3.2Z"/>
  <path class="st0" d="M156.8,37.6c0-.2.1-.3.3-.4.2,0,.3,0,.3.3s0,.3-.3.3-.3,0-.3-.2Z"/>
  <path class="st0" d="M29.4,31.9c0,.2,0,.4-.3.3-.2,0-.2-.3-.2-.4,0-.2,0-.4.3-.3.2,0,.1.3.2.4Z"/>
  <path class="st0" d="M32.2,30.6c0-.3,0-.6.2-.8,0,.3.5.7-.3.8h0Z"/>
  <path class="st0" d="M119.8,10.9c-.3,0-.3-.2-.3-.4,0-.2,0-.2.2-.2s.3,0,.3.3,0,.3,0,.3h0Z"/>
  <path class="st0" d="M161.5,40.1c.1.2.3.3.3.5s-.2.2-.3.2-.3,0-.3-.2.2-.3.3-.5Z"/>
  <path class="st0" d="M107.1,173.5c0,.2.3.3.3.5s-.2.2-.3.2-.3,0-.3-.2.2-.3.3-.5Z"/>
  <path class="st0" d="M9.4,59.9c-.1.4-.4.4-.6.3,0,0-.1-.2,0-.3.2-.2.4,0,.7,0h0Z"/>
  <path class="st0" d="M31.2,138c-.1-.2-.3-.3-.3-.5s.2-.2.3-.2.3,0,.3.2-.2.3-.3.5Z"/>
  <path class="st0" d="M24.7,69.3c0,0,0,.4-.2.3-.1,0-.3-.2-.4-.3.1,0,.2-.3.4-.3s.1.2.2.3Z"/>
  <path class="st0" d="M192.1,91.4c-.5-.2-.4-.5-.2-1,0,.5.1.8.2,1Z"/>
  <path class="st0" d="M5.7,103.9c.2-.2.6,0,.9,0-.3,0-.5.2-.8.3v-.3h0Z"/>
  <path class="st0" d="M188.1,76.2c-.3,0-.5,0-.9,0,.4-.4.7-.3.9,0v.3h0Z"/>
  <path class="st0" d="M188.8,104.9c-.9,0-.2-.5-.3-.7h.3v.8h0Z"/>
  <path class="st0" d="M132,166.9c.5,0,.6,0,.5.3,0,.1,0,.3-.2.3s-.2-.2-.3-.4,0-.2,0-.2h0Z"/>
  <path class="st0" d="M21.7,81.2c-.4,0-.6-.2-.5-.6l.2-.2c0,.2.2.5.3.8Z"/>
  <path class="st0" d="M21.1,115.9c.3,0,.4.4.3.7h-.2c-.3-.2-.2-.5,0-.7Z"/>
  <path class="st0" d="M183.1,77c.3,0,.5,0,.7,0v.3c-.3,0-.5,0-.6-.3h0Z"/>
  <path class="st0" d="M186.9,56.3c.1-.3.4-.4.7-.3v.2c-.2.3-.5.2-.7,0Z"/>
  <path class="st0" d="M51.7,163.2c.3,0,.4.2.5.3,0,0-.2.2-.3.3,0,0-.3,0-.3-.2v-.4h0Z"/>
  <path class="st0" d="M15.4,83.9c-.4,0-.4-.4-.3-.6,0,0,.2,0,.3,0,.2.2.1.4,0,.7h0Z"/>
  <path class="st0" d="M12.2,113.1c-.2-.2-.2-.5,0-.7,0,0,.2,0,.2,0,0,.3,0,.5-.3.6h.1Z"/>
  <path class="st0" d="M103,174.9c-.3,0-.5.2-.7-.1v-.2c.3-.2.5,0,.7.3Z"/>
  <path class="st0" d="M111.6,172.4c.2,0,.5-.2.6.2,0,.2,0,.4-.3.4-.3,0-.4-.3-.3-.6h0Z"/>
  <path class="st0" d="M33,145.1c0-.1,0-.2,0-.4,0-.2,0-.3,0-.3s.3.1.3.2c0,.2,0,.2-.3.4h0Z"/>
  <path class="st0" d="M49.1,161.5c.2,0,.2.2.2.3,0,.2,0,.3-.2.2-.2,0-.2-.2-.2-.3,0-.2,0-.3.2-.2Z"/>
  <path class="st0" d="M38.2,149.2c0-.1,0-.3.2-.2.2,0,.2.2.2.3s0,.3-.2.3-.2-.2-.2-.3h0Z"/>
  <path class="st0" d="M157.2,149.6c-.2.2-.3.4-.6.3,0,0-.1-.2,0-.3.2-.2.4-.1.7,0h0Z"/>
  <path class="st0" d="M.9,93.5c-.6,0-.8,0-.9-.3,0,0,0-.2.1-.2.3,0,.3.4.8.5Z"/>
  <path class="st0" d="M172.3,43.3c-.1,0-.2,0-.2-.2s0-.3.2-.3.2,0,.2.2,0,.3-.2.3Z"/>
  <path class="st0" d="M177.6,116.9c.8,0,0,.6.4.7-.5,0-.4-.4-.4-.7h0Z"/>
  <path class="st0" d="M179.4,45c0-.3-.2-.6,0-.7.3,0,.3.2.1.4,0,0-.1.2-.2.3h0Z"/>
  <path class="st0" d="M195.8,80.6c0,0,0,.2-.2.2s-.3,0-.3-.2,0-.2.2-.2.3,0,.3.2Z"/>
  <path class="st0" d="M181.9,56.8c-.4,0-.6,0-.8-.2.2,0,.5-.3.8.2Z"/>
  <path class="st0" d="M166.8,134.1c0,.1,0,.3-.2.2-.2,0-.2-.2-.2-.3s0-.3.2-.3.2.2.2.3h0Z"/>
  <path class="st0" d="M181.7,110.7c0,0,0-.3.2-.2.2,0,.2.2.2.3s0,.3-.2.3-.2-.2-.2-.3h0Z"/>
  <path class="st0" d="M9.3,58.3c.2,0,.2,0,.2.3s0,.3-.2.3-.2,0-.2-.3,0-.3.2-.3Z"/>
  <path class="st0" d="M25.5,32.8h-.8c.3-.5.5-.5.8,0Z"/>
  <path class="st0" d="M45.4,157.2c0,.2,0,.4-.2.4s-.2,0-.2-.2,0-.3.2-.3.2.1.2.2h0Z"/>
  <path class="st0" d="M142.6,26.1c.7-.2.5.3.4.6h0c-.5,0-.7-.2-.4-.7h0Z"/>
  <path class="st0" d="M1.9,89.3c-.1-.5-.2-.8,0-1.1.2.3.1.6,0,1.1Z"/>
  <path class="st0" d="M58.2,163.8c0,.3,0,.4,0,.4q-.2,0-.2-.2c0-.1,0-.3.2-.3s.2,0,.2.1h-.1Z"/>
  <path class="st0" d="M193.1,85.8c.1.3.2.6.3.9-.5-.2-.5-.6-.3-.9Z"/>
  <path class="st0" d="M23.6,80.9c0,.3,0,.5-.4.4l-.2-.2c.1-.3.4-.2.6-.2h0Z"/>
  <path class="st0" d="M146.6,24h0c0,.2.4.5,0,.7h-.2c-.2-.3-.2-.6.1-.8h0Z"/>
  <path class="st0" d="M78.1,13.9c0,.2-.2.2-.3.2s-.3,0-.3-.2.2-.2.3-.2.3,0,.3.2Z"/>
  <path class="st0" d="M42.4,30.3s-.2.2-.3.2l-.3-.3c0,0,.2-.2.3-.3q.2,0,.2.4h0Z"/>
  <path class="st0" d="M117.8,12.3c0,.3,0,.5,0,.7h-.2c0-.3,0-.4.3-.6h-.1Z"/>
  <path class="st0" d="M97.6,12.1c.3-.2.4-.4.7-.3v.2c0,.3-.4.1-.7.1Z"/>
  <path class="st0" d="M123,11.9q-.2,0-.2-.2c0-.1,0-.3.2-.3s.2,0,.2.2,0,.3-.2.3Z"/>
  <path class="st0" d="M151.8,6.7s.2.2.3.3c0,.2-.1.2-.2.2-.2,0-.3,0-.3-.3,0,0,0-.2.2-.2Z"/>
  <path class="st0" d="M97.5,174.6c-.3.2-.5.5-.7.3s0-.3.2-.4h.5Z"/>
  <path class="st0" d="M57.3,166.4c.3,0,.3.2.3.4,0,0,0,.2-.2,0,0-.1-.2-.2-.3-.4h.2Z"/>
  <path class="st0" d="M185.5,105.3h.2c0,.3-.2.4-.4.4,0,0-.1,0-.1-.2,0-.2.2-.2.4-.2h0Z"/>
  <path class="st0" d="M29,34.1c0-.3-.2-.6,0-.7.2,0,.3.2.1.4,0,0-.1.2-.2.3h.1Z"/>
  <path class="st0" d="M180.6,103.9c0,.2,0,.3-.2.3,0,0-.2,0-.2-.2,0-.2.2-.3.3-.3v.3h0Z"/>
  <path class="st0" d="M6.1,102.5c0,0-.2.2-.2.2-.2,0-.2,0-.2-.3,0,0,0-.3.2-.2,0,0,.2.2.3.3h-.1Z"/>
  <path class="st0" d="M36.8,32.3c0,.2.2.2.3.4,0,0,0,.3-.2.2-.2,0-.2-.2-.2-.3,0,0,0,0,.1-.3Z"/>
  <path class="st0" d="M143.9,25.6c.2,0,.3,0,.3.2,0,0,0,.2-.1.2-.2,0-.3-.1-.4-.3,0,0,.1,0,.2-.1Z"/>
  <path class="st0" d="M15.1,54.2c0,.2-.2.2-.3.2s-.3,0-.2-.2c0,0,.2,0,.3-.2,0,0,.1,0,.1.2h0Z"/>
  <path class="st0" d="M171.2,128.2c-.3,0-.2-.4-.5-.4.5-.2.6,0,.5.4Z"/>
  <path class="st0" d="M129.3,17.7c.2,0,.3,0,.3.2,0,0-.1.2-.2.2-.2,0-.3-.2-.4-.3h.3,0Z"/>
  <path class="st0" d="M70.5,17.5h.3c0,.1-.2.3-.4.3,0,0-.2,0-.2-.2s0-.2.3-.2h0Z"/>
  <path class="st0" d="M5.3,120c0,0,0,.2-.2.2s-.3,0-.3-.2,0-.3,0-.3c0,0,.2,0,.3.2h0Z"/>
  <path class="st0" d="M72.3,15.8v.2c-.2,0-.4,0-.4-.2,0-.2,0-.2.2-.2s.3,0,.3.2h0Z"/>
  <path class="st0" d="M200.5,68.8s.2,0,.1,0c0,0,0,.3-.2.3-.2,0-.2,0-.2-.2s0-.3.2-.3h0Z"/>
  <path class="st0" d="M11.4,92.6c-.3,0-.4-.3-.5-.5.4,0,.5.2.5.5Z"/>
  <path class="st0" d="M53.5,22.5v.8c-.2,0-.4,0-.2-.3,0,0,0-.2.3-.5h0Z"/>
  <path class="st0" d="M182.8,57.1s-.1,0-.2,0c-.2,0-.3-.2-.4-.3h.3c.1,0,.3,0,.3.3h0Z"/>
  <path class="st0" d="M113.1,6.1c0,0-.2.2-.3.3,0,0-.3,0-.2-.2,0-.2.2-.2.3-.2,0,0,0,0,.3,0h-.1Z"/>
  <path class="st0" d="M186.2,37c.2,0,.2.2.2.3s0,.3-.2.2c0,0-.1-.2-.2-.3,0,0,.1,0,.2,0h0Z"/>
</svg>