<?xml version="1.0" encoding="UTF-8"?>
<svg id="Layer_1" xmlns="http://www.w3.org/2000/svg" version="1.1" viewBox="0 0 121.9 93.9">
  <!-- Generator: Adobe Illustrator 29.5.1, SVG Export Plug-In . SVG Version: 2.1.0 Build 141)  -->
  <defs>
    <style>
      .st0 {
        fill: #fffef6;
        fill-rule: evenodd;
      }
    </style>
  </defs>
  <path class="st0" d="M106.8,39c-.2.3-.3.5-.4.7-.7.2-1.3.3-1.9.5.2-.9.5-1.7.7-2.6-.9,0-1.2.6-1.2,1.2s-.5,1.3.5,1.4v4.7h-.2c-.2-.3-.4-.7-.6-1.2-.4.4-.7.7-1.1,1-.2-.3-.4-.6-.7-.8h-1.3c.7.7,1.3,1.2,1.8,1.8.6.7,1.2-.8,1.9,0-.8.7-1.6,1.3-2.3,2h-.2c0-.2,0-.5.2-.8-1,0-1.9,0-2.7.4h0c-.2,0-.3-.2-.4-.2-.5.6-1,1.1-1.5,1.6.5.2.9.5,1.4.7,0,.3.4.7.4,1,0,1,.4,1.6,1.3,2-.5.9-1.3,0-1.9.4v.6c0,.2-.4.2-.6.3.2,0,.4.3.6.5-.4.3-.8.5-1.2.7-.2-.3-.4-.9-1.1-.4s-.9,1.1-.5,2.2c-.4,0-.8.2-1.4.4.4-1.1,0-2.1,1-2.7.3-.2.3-.8.6-1.4-.8.2-1.3.4-1.7.5,0,0-.2.3-.2.4.3,1.7-.5,3.2-.7,4.8-.2,1.5-1.3,1.8-2.4.8h0c-.4-.4-1.1-.7-1.2-1.1,0-.5.3-1,.5-1.6v-.6c-.6.3-1.1.5-1.7.8-.4-1,0-1.4.6-1.9.2-.2.3-.5.4-.8h-.8c-.3,0-.7-.2-1-.3,0,0-.2.4-.4.8-.3,0-.5-.3-.8-.4v.4c.2.2.4.5.7.6.5,0,.6.4.4.7-.3.6,0,.8.6,1.1-.2.2-.4.4-.6.7-.4-.4-.8-.7-1.1-1-.7.3-1.4.7-2.1,1v.3h.7v.8h0c-.8-.2-1.5-.3-1.7-1.4-.5.6-1,.6-1.4.3-.4.5-.7.9-1,1.4.3.2.6.4,1.1.8v-1.1c.5,0,1.2-.3,1.5,0,.5.3.6,1.1.6,1.8.3.3,1.3,0,1,1.1h-1.8v-1.3c-1.3,0-.4,1.3-1,1.7-.9,0-1-1.2-1.8-1.2-.3,1-.5,1.1-1.7,1.1,1.3.6,2.2,1.5,3.6.9.2.8.6,1.4,1.5,1.8.7.3,1.2,1,1.9,1.6-.5.3-.8.4-1,.6.3,1.3.9,2.1,1.8,2.6-.4.2-.7.4-1,.5-.2.2-.5.3-.7.5v2.7c.5,0,.9,0,1.7-.2-.5.5-.8.9-1.1,1.1-.3.2,0,1.1-.8.8,0,0-.3.4-.3.5,0,.4.3.7.4,1-.6.5-.9.9-1,1.3.7.4.8-.8,1.4-.6.5.2,1.1,0,1.6.2v1.9c-.6-.4-1.1-.7-1.6-1.1.3.8,1.1,1.4.8,2.4,0,.2,0,.6.3.6.8.3.5.8.3,1.3h-.8c.5,1.4.7,1.1-.4,2.2.8.7.8,1.6.8,2.5,0,1.6,0,3.3-.7,4.9-.9,2.4-3.1,2.8-5,1.2-1.9-1.6-2.7-3.7-2.8-6.2,0-1.3-.2-2.6-.2-4s.3-1.9.4-2.9c0-.4-.2-.8-.4-1.4.5-.6.7-1.5.5-2.5v-1.3c0-1.3,0-2.6-.2-3.8,0-.2-.3-.4-.6-.8v1.2c-.4-.6-.8-1.1-1.3-1.6-.3.2-.5.4-.9.6-.4-.4-.8-.8-1.2-1.3.7-.6,1-1.5,2.1-1.7-.2-.6-.6-1.3,0-2,.5.2.6.4.3,1,0,.2.2.6.3,1,.4-.9.4-1,0-2.7-1-.3-1.8.3-2.8.5-.6-1.1.4-2.8-.9-3.8-.4.5-.4,1.5,0,3-1.1-.7-1.2-1.7-1.7-2.8h-.7c0-.2.2-.4.4-.7-1.1,0-.7-1.4-1.7-1.5,0-.6.2-1.1.3-2-.7.2-1.1.3-1.5.5h0c-.5-.5-1-.2-1.5,0h0c0-.2-.2-.5-.4-.6-1.1-.5-2.3-.9-3.6-1.4.4-.4,1.2-.4,1-1.2,0-.2.4-.7.7-.8.4-.2,1-.2,1-.8v-2.1c-.7,0-1.3,0-1.5.6-.2.4,0,.9-.2,1.6-.4-.6-.7-.9-.9-1.3.5-.5.6-1.1.2-1.8,0,0-.3.2-.4.3,0,0-.2.2-.3.4,0-.4-.2-.7-.2-1h-.3c-.3.4-.7.8-.9,1.2s-.4.7-.9.6c-.2,0-.5.4-.8.7-.4-.9.7-1.1.6-1.9-.2-.3-.5-.6-1-.3-.4.2-.6.5-.4.9v.5c-1.2,0-1.3,1.7-2.7,1.7v-1c.5,0,1.1.2,1.2-.8h-1c-.6,0-.4.5-.2.8-1,.7-2.2.3-3.3.5l-.4-.3c0-.2.3-.4.4-.6h0v.2c1.1.2.9-.8,1.3-1.3-.7,0-1.4,0-1.4,1-.3-.4-.6-.7-1.1-1.3-.2.5-.4.8-.4,1.1,0,1.5-.8,2.4-2.1,3-.7.3-1.1.9-1.2,1.6,0,.8-.3,1.7-.3,2.5s0,1.7-.6,2.5c0,.2-.2.5-.2.7.2,1.6-.3,3.2.6,4.7,0,0,.2.3.2.4,0,2.4.9,4.7.7,7,0,1.2-.8,2-1.9,2.2-1,.2-2.1-.4-2.5-1.5-.7-1.8-.5-3.7,0-5.6,0-.6.3-1.3.3-1.9v-5.7c0-1.3,0-2.6-.8-3.6.2-.6,1.1-.8.7-1.7-.4.3-.7.5-1.1.8-.2-.5-.4-.8-.5-1-.7-.3-1.3-.4-1.6-.7-.5-.7.7-.7.7-1-.3-1-.6-1.7-.8-2.4,0,0,.2,0,.3-.2.5.6,1,1.1,1.5,1.8.3-.3.6-.6,1.1-1,0-1-.6-2.2.3-3.3h1.6c-.7-.9-.8-1-1.6-.3l-.9-.9c-.2,0-.5.2-.8.3-.6-.4,0-.8,0-1.2.3,0,.5.2.8.3,0-.2.3-.5.4-.7.7.6,1.4,1.1,2.2,1.7.6-.7.6-1.2,0-1.7-.5-.3-1-.5-1.3-1-.2-.3-1.1-.2-1.9-.3-.2-.2-.5-.6-.9-1.1h1.1c-.3-.7-.8-.4-1.3-.5,0,.9-1,1.6,0,2.4,0,.3-.2.6-.4.8s-.6.4-.9.3c-.2,0-.6-.2-.4-.8.2-.7.3-1.4.8-2.1.4-.5.4-1.2.6-1.8-.8-.6-1.4-.3-2,.3,0-.3-.6-.2-.2-.8.4-.7.4-1.6.6-2.3,0,0-.2,0-.2-.2-.4.2-.7.5-1.1.7.2.2.3.4.4.6-.6.3-1.2.6-2,.9-.2-.6-.4-1.1-.6-1.6h0c.6-.7.3-1.4,0-2.1-1.1-.3-1.3,1.8-2.6.9.2,0,.4-.3.8-.6h-1.3c-.2.4-.4.7-.6,1.1.1,0,.4.3.6.4-.5,1-1.4,1-2.2.9-.6,0-1.3-.3-1.9-.6-.4-.3-.7,0-1,0s-.5.4-.7.3c-.6-.3-1,0-1.3.4-.3-.3-.7-.9-.7-.8-.5.3-.7,0-1-.2-.3,0-.7.2-1.2.4-.2-1-.6-2.1-1.5-2.9-.2.3-.4.6-.6,1-.7-.5-1.4-.9-2.1-1.4v-.2h1.2c.2-.8-.6-.8-.9-1.2-.6.7-.7-.5-1.2-.3-.2-.5-.4-1-.7-1.6-.3.5-.5.8,0,1.1.2,0,.4.3.6.4-.1.4-.2.8-.3,1.2-.6.2-1.2.2-1.5-.5-.2-.5-.4-.6-1-.6s-.7-.5-.3-1.1c.4,0,.7.2,1,.3.4-.7-.2-.6-.4-.8s-.2-.6-.4-1c-.8.3-1.7.6-2.6,0-.5-.7-.8-1.8-2.1-2v1.6c-.6-.6-1-1-1.6-1.5h1.1c.1-.5-.1-1.1-.8-1.8v.9c-.7-.2-1.6.4-2.1-.7.6-.5,1.2-1,1.9-1.5.2.2.4.5.7.8.1-.4.2-.6.2-.9-.4-.3-.8-.6-1.3-1-.2.4-.4.8-.6,1.1-1.2-.6-1.4-1-1.3-2.1-.4-.3-.8-.5-1.3-.9.6-.2,1-.4,1.3-.6.9.2,1.3,1.6,2.4,1,.2-1.8.4-2.1,1.5-2,0-.4,0-.8.1-1.2-.3-.2-.7-.4-1.1-.5-.3-.2-.7-.3-1-.5v-.3c.6-.1,1.2-.2,1.9-.3.5,1.6,1.9.8,3,1-.7-1-.9-1.9-.4-3h0c.4.2.7.4,1.2.6.3-.5.7-1,1.1-1.6.2,0,.5.2.9.3,0-.4,0-.8.1-1.1.1,0,.3-.1.3,0,.4.4.9.4,1.4.3.3,0,.7-.4.9.2-.4.2-.8.4-1.2.7.8.6.9,1.1.2,1.7-.1,0,0,.3-.1.5-.3.3-.6.6-.9.8.7,0,1-.3.9-.8.6-.6,1.3-1.1,1.9-1.7-.3-.4-.5-.8-.8-1.2.2,0,.5-.2.5-.3,0-.5-.2-1.1-.4-1.8.6,0,1.3-.2,2.1-.3-.5,1.3.5,1.8,1.3,2.5,0-.6-.1-1.2-.2-1.8,0-.1-.3-.2-.6-.4.4-.3.7-.6,1.2-1,.3.1.7.3,1.1.5.7-.1.7.5.8,1,.4-.5.6-.9,1-1.5-.8.2-1.3.4-1.8.5,0-.4-.2-.7-.3-1.1,1-.1,1.9-.2,2.9-.4-.2-.3-.4-.5-.5-.7h0c.4-.3.9-.6,1.4-1.1.5.3,1.1.6,1.7.9h.1c-.3-1.6.7-2.8,2.3-2.8s1.5-.3,2-1.1c.7.4,1.6.5,1.4,1.7,0,.2.3.4.5.6.5-.4.5-.8,0-1.2.2-.3.4-.7.6-1.1.5.5.9.8,1.4,1.3.8-1.1,1.7-1.7,3.3-.9-.5,0-.7.1-1.1.2v.8c1.2-.4,1.6-2.1,3.2-1.6v-1.5c1.1.4.5,1.8,1.8,2,1-.2,2.2,0,3.2,1.1.2.2.8.2,1.1.4-.2.3-.5.8-1,1.4,1.1.2,1.5,1.4,3,1.2-.7-.7-1.1-1.1-1.6-1.6.4-.3.7-.5,1.1-.8-.2-.4-.4-.8-.6-1.2.2-.4.9-.7.6-1.5-.2-.4,0-1.2.6-1.5.2.6.4,1.2.6,1.9-.5.8-.5,1,0,1.8-.2,0-.5.1-.9.2.7.3,1.1.6.2,1.4.6,0,1.1,0,1.2-.2.2-.4.2-.9.3-1.3,0-.3,1,0,.9-.8,0-.2.4-.6.6-.9v-.6h0c.5.3,1.1.5,1.4.9.4.6,0,1.1-.5,1.5,0-.6-.2-1-.5-1.6-.3.9.5,1.1.5,1.6.3.3.6.7.9,1.3.7,0,1.4,0,2.1.5.6-1-.7-1-.9-1.6,0-.3.3-.6.5-1,.4.1.7.2,1.1.4,0,.3-.3.6-.3.8.2.7,1.6,1.1,2.3.7.3-.2.6-.3.8-.5.2-.1.5-.2.7-.3.3.5.6.9,1,1.4.2-.4.3-.7.5-.9.9-.2.8,1.2,1.8.9-.4.1-.8.3-1.3.5,0,.3.3.7.5,1.1.4-.3.7-.5.9-.7v-.9c0-.3-.2-.9,0-1.2,0-.2.8-.2,1.2-.1.3,0,.6.2,1,.3.3-.7-.3-1.8,1-2.2v1.5c.7-.3.8-1.3,1.7-.8,0,.2,0,.5-.2.9,1.5,0,0-1.5,1.1-1.7.2.2.4.4.6.7.2-.4.5-.8.8-1.4.3.5.6.9.9,1.4.5-.4,1.1-.9,1.7-1.4.4.6.6,1,.9,1.4.5-.8,1-1.5,1.5-2.3h0v1.1c.4-.3.8-.5,1.1-.8.2-.3.5-.9.4-1-.8-.8.2-1.2,0-2,.8.3,1.6,0,1.9,1,.2.6-.3.9-.8,1.2.3.2.6.3.9.5.4-.4.7-.8,1.1-1.2-.2-.2-.5-.5-.7-.8v-.2c.3,0,.7.3,1.2.5v-.6c-.2-.4-.8-.9.2-1.2,0,.2.4.5.4.7-.4,1.1.4,1.6,1,2.4.2-.4.4-.8.4-.8-1-.8.2-1.8-.6-2.7.7,0,1,.2,1.4.2v.4c-.3.4-.5.8.3,1.1.6-.6,1.3-1.1,2.3-.4-.4-1.5,1-1,1.5-1.7,0,.3.2.5.3.8,0,.4.3.5.6.3h0c.4.6.6,1.2.2,2.1.4-.2.6-.3.7-.5.4-.8,1.2-1.1,1.9-1.5.3,0,.7-.2.9,0,.8.4,1.5,0,2-.3.6-.4.8-.3,1,.3,0,.4.2.8.4,1.2,0,.2-.3.5-.3.7,0,.4.2.9.3,1.3.2.7.8.6,1.4.6h2.8c0,.2,0,.4.2.7-1,.2-1.9.4-3,.6.3.2.5.5.6.4.3,0,.6-.3.9-.3,1.2,0,2.2-.2,2.9-1.3.3-.4,1.1-.3,1.9-.5,0,1,0,1.8.2,2.6-1.1.9-1.4.8-1.7-.5-.7.8-1.6.9-2.6.5v2.7c.9.6,2-.5,3.1-.2-.3.7-.6,1.2-.9,1.8.4.3.7.6,1.1.9,0-.9,0-1.8.6-2.4.6-.4,1.3-.7,1.9-1v-1c-.3-.1-.5-.2-1.1-.4.9-.2,1.4-.4,1.9-.5.6.7,0,.9-.2,1.3.2.4.4.8.6,1.2h-1.3c.5.4.8.7,1.3,1.1v-1.2c.4-.4.8-.8,1.2-1.2h.5c0,.1.2.5,0,.5-.9.5-.7,1.6-1.5,2.2.4.4.4,1.3,1.6,1.1-.4-.4-.6-.6-1-.9.2-.2.4-.3.7-.5.2.3.4.5.6.8.6-.5,1.3-.9,2.1-1.5-.3.9-.5,1.6-.7,2.3,1.4.2,1.4.1,2-1,.2-.4.6-.7,1.1-1.2,0,1.1-.2,2-.4,2.8,0,.2-.6.4-.6.3-.5-.5-.9-.2-1.3.1-.4.2-.9.2-1.5.3.2.3.5.5.6.8v1c.4-.2.5-.6.4-1.1s.4,0,1.7,1.5c-.3,0-.6-.1-1.1-.3.3.5.5.8.7,1.1-.3.2-.6.4-.9.5.6.1.9.9,1.6.4-.2-.3-.4-.6-.5-1v-.7c.5,0,.9.1,1.5.2,0,.4-.4,1.1.5,1.3h0c-.5.6-1.1,1.4-1.6,2,0,.1-.5,0-.9,0,.2.7.5,1.5.8,2.5h-2c.6.4.9.7,1.2,1-.3.6-.6,1-1.3.5,0,0-.4.1-.8.3.6.3,1,.6,1.2.7.5-.2.8-.3,1.2-.4,0,.3,0,.7.2,1.1-.5-.2-.7-.3-1-.4-.3.2-.6.5-1,.8-.2-.3-.4-.5-.7-1v.7c-.8,0-.4.9-1,1v.6s-.2.2-.3.2c-.5.7-1.1,1.4-1.6,2.1,0,.2.2.6.2.7-.5.4-1,.8-1.6,1.2-.2,0-.6-.4-1-.6-.5.5-.5,1.1,0,1.7h-.9c1,.7,1.8,1.3,2.5,1.8,0,.7,0,1.3-.2,1.9,0,.2-.3.4-.4.5v.4l.8.3.3-.4h0ZM61.6,49.2c0-.2.3-.4.4-.6,0,0-.3-.3-.5-.3h-.7c.2-.3.5-.5.8-1-.9,0-1.2-.5-1.2-1.2-.5,0-.9.2-1.3.2.6.7,1.1,1.3,1.6,1.9h0c.3.3.5.6.8,1,0,0-.3-.2-.4-.2-.2,0-.3,0-.4.2v.2h.4l.3-.3h.2ZM98.7,51.6h0c.4-.8-.7-.7-.8-1.3,0,0-.4-.4-.5-.3-.2,0-.4.3-.5.5-.3.7-.2,1.5.2,2.4.4-.6,1.5-.2,1.4-1.3,0,0,.2,0,.2,0ZM15.4,30.1c-.4.2-.7.5-1.2.8,1,.5,1.5.3,2.1-.3-.5.1-.9.1-.9-.5s.1-.5.2-.7c-.2,0-.5-.2-.6-.1-.4.1-.8.3-1.2.5-.5-.6-.9-1.2-1.3-1.9-.4.3-.9.6-1.4.8.1.3.2.5.4.7.3.4.7.9,1.1.9,1,0,2-.2,3-.2,0,0-.2,0-.2,0ZM57.8,49.2c.5.3.9.3,1.2-.2-.4,0-.8,0-1.2.2.2-.4.4-.7.6-1.1,0-.5,0-.7-.6-.6l-.3-.3c0-.3.3-.7.4-1.1-.7,0-1.1,0-1.6-.2v-1.1c-.4.4-.4.8,0,1.1-.2,1.1-1,1.6-2.2,1.7.4,1,1.1.3,1.8.5.2.4.4.9.6,1.4,0,0-.2.2-.2.3,0,.2-.3.4-.4.6,0,0,.3.3.4.3.2,0,.5-.2.7-.4.3-.3.6-.7.8-1.1ZM41,38.3c-.2.5-.3.8-.5,1.1-.3.7-.2,1.1.4,1.5,0,0,.3.2.4.3.6.5,1.2,1.1,1.8,1.6l.2-.2c-.3-.5,0-1.2-1-1.5-.3,0-.5-.5,0-.9,0,0,0-.3.2-.5-.5-.5-.9-1-1.4-1.6v.2s0,0-.1,0ZM97.3,4.9v-.9c-.9,0-1.7-.2-2.6-.3,0,0,0,.2-.2.3.4.6.8,1.1,1.1,1.7.6-.3,1.1-.5,1.7-.7h0ZM77.3,58.4c.5.9.9,1.6,1.3,2.3.5-.2,1.1-.5,1.8-.8-1.1-.5-2-.9-3.1-1.5ZM59.1,11.7c.9.7,1.7.8,2.5.8s.3-.3.3-.5-.2-.4-.3-.4h-2.5ZM100.6,10.1c-.5-.3-.9-.5-1.3-.8-.3,1.1-.3,1.2.7,1.8.2.1.4,0,.7,0v-1.1h0ZM95.3,49.9c.4-.7.6-1,.9-1.4-.4-.2-.8-.5-1.5-.9.2.8.4,1.5.6,2.2h0ZM21.2,16.5v.9c.2.2.5.4.8.4s.4-.3.4-.5-.2-.5-.4-.6c-.2-.1-.5-.1-.9-.2,0,0,.1,0,.1,0ZM82.5,56.3c.9.8,1.6,0,2.3.3v-.7c-.7,0-1.4.3-2.3.4ZM103.6,32.7c-.7.5-.8,1-.3,1.7.3-.3.6-.5.9-.8-.2-.3-.4-.6-.6-.9ZM109.1,15.1c.9.3,1.4.8,1.5,1.8,0,0,.2-.1.3-.2-.2-.5-.3-1-.5-1.6-.5,0-.9,0-1.3,0ZM80.4,52.4c0,.8,0,1.2.7,1.3.2,0,.5-.2.8-.4-.6-.3-.9-.5-1.5-.9ZM94.4,4.6s-.2,0-.3-.2c-.2.3-.5.6-.8.9.5.2.8.3,1.2.5v-1.3h0ZM74.5,59.7c-.7-.3-1.2-.5-1.8-.7,0,.4,0,.8.2,1.1.5,0,.9-.3,1.6-.4ZM101.9,37.7c.5-.9.2-1.5-.8-1.6.8.2.7,1,.8,1.6ZM31.4,10c.3.2.4.2.5.3,0,.2,0,.3.2.5,0,.2.2.3.3.5,0-.2.3-.4.3-.6,0-.8,0-.9-1.2-.7h0ZM63.7,12.5c.4-1.1-.5-1.2-.8-1.8-.3.5,0,1.1.8,1.8ZM40.6,36.6v.7c.7-.2,1.1-.5,1.1-1-.4,0-.8.2-1.2.3h.1ZM43.2,53.3v.5c.2.2.4.4.7.5l.4-.3c-.2-.3-.3-.5-.6-.7h-.5ZM45.9,44.6c-.6-.3-1.2-.5-2-.8.7,1,1.4,1.3,2,.8ZM82.5,7.9c-.9.4-.9.8,0,1.4v-1.4ZM38,38.7c-1,.4-1.1.5-.3,1.6,0-.6.2-1,.3-1.6ZM47,9.5c-.2-.3-.3-.6-.5-.7-.4,0-.9-.3-1,.4.4,0,.9.2,1.4.3h0ZM68.5,11.4c.5-.3.8-.5,1.1-.7-.6-.5-1-.2-1.1.7ZM54.4,13.9c.4-.2.8-.4,1.2-.6-.6-.2-.9-.4-1.4-.5v1.2h.2ZM51.6,47.2c-.3.5-.7.7-.7,1s.2.7.8.5c0-.4,0-.8-.2-1.5h.1ZM97.4,6.9c-.4.5-.6.8-.9,1.2.9,0,1.3-.2.9-1.2ZM105.9,37c-.2-.5-.4-.9-.6-1.3-.3.5-.5.7-.8,1.1.4,0,.7,0,1.4.3h0ZM60.1,44.6c-.6-.4-1-.2-1.3.6.5-.2.9-.4,1.3-.6ZM84.2,65.5v-.3c-.4.2-.7.4-1.1.6,0,0,0,.3.2.3.6.2.8-.2,1-.6h0ZM108.7,26.3c0,.6.2,1,.3,1.4.5-.5.4-.9-.3-1.4ZM100.6,45.7c-.7-.3-1.2-.3-1.4.2.4,0,.8,0,1.4-.2ZM12.7,25.8c.2.6.3,1.1,1.1.8,0-.7-.5-.7-1.1-.8ZM64,13.4c.2,0,.3,0,.5.1v-.9h-.3c0,.3-.2.6-.3.9h.1ZM45.7,10.6c.7.3,1,0,1-.6-.3.2-.5.3-1,.6ZM67.3,9.6c-.7.3-.9.8-.5,1.5.2-.5.3-.8.5-1.5ZM81,6.8h-1.1c.3.5.7.5,1.1,0ZM94.4,7.4c.3-.3.5-.5.7-.7v-.2h-1c0,.3.2.5.4.9h0ZM84.7,68.1h-.4c-.2.4-.2.8.3,1,0,0,.4,0,.3,0,0-.3-.2-.6-.3-.9h0ZM71,59.2c.5-.2.8-.4.6-1-.5.2-1,.3-.6,1ZM98.5,44.1c-.6,0-.9.3-.5,1,.2-.4.4-.7.5-1ZM38,38.6c.3,0,.7-.2,1.2-.4-.7-.5-1.1-.5-1.2.4ZM11.3,23c-.2.7.2.9.6,1.2.1-.3.2-.5.3-.8-.3-.1-.5-.3-.9-.4ZM107.4,12.7c-.3.6-.3,1,.2,1.2,0-.4,0-.7-.2-1.2ZM57.6,13.1c.4,0,.8-.1.8-.2,0-.3,0-.6-.2-.9h-.3c0,.3-.2.6-.4,1h.1ZM66.6,49.5c0-.4,0-.7-.2-1h-.3c-.2.3-.3.6-.5.9h1ZM82.9,79.2c-.8.5-.3.9,0,1.3v-1.3ZM107.6,17.1v-.4h-.8v.5h.8ZM34.1,9.6c-.8,0-.7.4-.6.7,0,0,.3.1.4,0,0-.3.2-.5.3-.8h-.1ZM110.3,18.3c-.5.6-.3.9,0,1.1,0,0,.3-.1.4-.2,0-.3-.3-.5-.5-.9h0ZM103.8,43.2s0-.3-.2-.4c-.3,0-.5.2-.8.3v.3c.3,0,.6-.2.9-.2h0ZM82.1,53c.5.5.8.6,1.3,0h-1.3ZM78.4,53.1c0,.5-.2.9-.3,1.2.9-.2.6-.7.3-1.2ZM91.3,55.3h-.3c-.2.4-.4.8.4,1v-1h0ZM78.8,52.2c.2-.7,0-1-.7-1.2.2.5.4.8.7,1.2ZM101.7,40.4v-1c-.4.3-.4.7,0,1ZM71.3,9.7c-.3.5-.4.6-.4.8,0,0,.2.2.4.2s.3-.2.3-.3c0-.2,0-.3-.3-.7ZM77,8.2c0,.6.2.9.7,1-.3-.4-.4-.6-.7-1ZM83,7h.3c0-.3-.2-.6-.3-.9h-.3c0,.3.2.6.3.9h0ZM89.7,4.5c-.2-.2-.3-.3-.4-.3s-.3.2-.4.3c0,0,.2.3.2.2.2,0,.3,0,.5-.2h.1ZM83.9,73.4v.4h.8v-.2c-.3,0-.6,0-.9-.2h0ZM63.9,48.9c-.2,0-.3-.2-.5-.3,0,0-.2.3-.2.4.2,0,.3.2.5.2,0,0,0-.2.3-.3h0ZM68,48.2c-.2,0-.4-.2-.5,0,0,0,0,.2-.2.3,0,0,.3.2.4.2,0,0,0-.2.3-.4h0ZM54.1,45.1c-.2,0-.4-.3-.5-.3s-.3.2-.4.3c0,0,.2.3.4.3s.3-.2.5-.4h0ZM99.7,39.3l-.2.2c.2,0,.3.3.5.4,0,0,.2-.2.2-.3-.2,0-.4-.2-.5-.3ZM80.9,51v.2c.2,0,.3.2.5.3,0,0,0-.2.2-.3-.2,0-.4,0-.5-.2h-.2ZM38.8,34.9c0,.2-.3.3-.3.4l.2.3s.3-.2.4-.3c0,0,0-.2-.3-.4ZM108.8,29.8v-.3c-.2,0-.5.1-.7.2v.2c.2,0,.5,0,.7-.1ZM110.8,22.6v.2c.2,0,.4-.2.6-.2,0-.1,0-.2-.2-.3-.2.1-.4.2-.5.4h0ZM105.9,13.8c.2-.3.3-.3.3-.4,0,0-.2-.1-.3-.2v.6h0ZM28.6,12.2c-.3-.3-.4-.4-.5-.4-.1.2-.2.3-.3.5,0,0,.2.2.3.2.2,0,.3-.1.5-.2h0ZM78.5,11.4c-.2,0-.3-.2-.5-.2,0,0-.2.2-.2.3.2.1.3.2.5.3,0-.1,0-.2.3-.4h-.1ZM43.9,11v.2c.2,0,.3.2.5.2s.3-.1.8-.4h-1.3ZM42.9,9.4c-.4.4-.5.7,0,1.1v-1.1ZM83.2,67.9c0,.2-.2.3-.2.4s0,.2.3.3l.3-.2c0-.2-.2-.3-.3-.5h-.1ZM78,67.8h-.2v.6h.3v-.6h-.1ZM82.2,64.6h-.3c0,.2,0,.4-.2.6h.3v-.6h.2ZM85.6,54.6h0v.9c.2-.2.3-.4.3-.6s0-.3-.2-.4h-.1Z"/>
  <path class="st0" d="M109.9,29s.2-.2.3-.2c.5,0,1,.2,1.5.2.2-.4.5-.8.9-1.4.2.4.3.7.4,1h0c-.8.3-.2,1-.6,1.5.5,0,.8-.1,1.4-.2-.6.9-1.5.7-2.2,1v-.5c-1.1,0-1.4.2-1.2.9.3,1-.4,1.2-1,1.5h0s.2-.4,0-.5c-.8-1.2.3-2.1.4-3.2h0Z"/>
  <path class="st0" d="M106.3,45.1c.3.2.6.4.8.5-.8,1-1.5,2-2.3,3,0,0-.4-.2-.7-.3-.8.2-1.3,1.5-2.4.7.6-.5,1-.9,1.5-1.2h.8c.2,0,.5-.3.5-.5.2-1.1.5-1.4,1.3-1.8,0,0,.3,0,.5-.2h0s0-.2,0-.2Z"/>
  <path class="st0" d="M7.7,20.8c-.2-.4-.3-.7-.4-1,0,.3-.3.5-.3.7,0,.5.3,1,.7,1.4,0,.3,0,.6-.2.9h-.2c-.4-.5-.9-.8-1-1.5,0-.5-.5-.8-1.4-.3l.5-1c1.1.4,1.1-.6,1.3-1.2.5.2.9.4,1.3.5.8.3.8.6,0,1.5h-.3Z"/>
  <path class="st0" d="M114.9,25.7c.2-.3.3-.6.5-.9.3-.3.6-.4.3-.9,0,0,.4-.5.8-.7-.5.7-.5,1.5-.2,2.1s.9,1,1.5,1.6c-.2.2-.4.4-.6.7-.9-.6-1.2-1.7-2.4-1.9h0Z"/>
  <path class="st0" d="M3.6,19.9c.3.5.6.9.9,1.4-.5.3-.8.5-1.1.7,0,0,0-.2-.2-.3-.2-.4-.5-.8-.6-1.2-.2-.8.2-1.4,1-1.3,0,0,.3.2.4.3,0,.1-.3.2-.5.4h0Z"/>
  <path class="st0" d="M109.3,32.7c0,.3,0,.6.2.8.5,1.2.3,1.5-1,1.7h0c0-.3.3-.4.6-.7-.4-.3-.8-.5-1.2-.8h0c0-.4,0-.8.2-1.3.5,0,.9.2,1.3.3h0Z"/>
  <path class="st0" d="M99.5,47h0c.4.5.9.9,1.2,1.3v2.1c-.3.2-.6.2-.6-.3s0-.6.2-1.1h-1.2c0-.6.4-1.1,0-1.7,0,0,.3-.3.4-.4h0Z"/>
  <path class="st0" d="M30.8,7.6c-.8.2-1.6.6-2.4.7-.3,0-.8-.2-1.3-.4.4-.5.7-.8.8-1,1.1.2,1.9.4,2.7.5v.2s.2,0,.2,0Z"/>
  <path class="st0" d="M117.2,20.8c.4-.1.5-.8,1.1-.4.5.4.2.7,0,1.1,0,.3-.3.5-.4.7-1.1-.4-1.5-.9-1.6-2,.3.2.6.3.9.5h0Z"/>
  <path class="st0" d="M26.8,11.7h-1.4c-.2-1.5.8-1.8,1.9-2,0,.7-1,1.3-.5,2.1h0Z"/>
  <path class="st0" d="M118.8,18.9c0-.3.3-.7.4-1.1.6.3,1,.5,1.3.7.3-.2.6-.4.9-.6,0,0,.2,0,.3.1,0,.3,0,.7-.2.9-.2.2-.7.4-1,.4-.5,0-1-.2-1.7-.3h0Z"/>
  <path class="st0" d="M118.2,17.1c-.5.2-.9.3-1.5.5-.2-1.3.8-1.7,1.6-2.5,0,.8,0,1.4-.2,2h0Z"/>
  <path class="st0" d="M68.6,57.6c0,.8-.5,1.3-.8,1.9h-.6v-1.3s-.4-.5-.7-.8h0c.2,0,.4,0,.5.2h0c.5.7,1-.2,1.5,0h0Z"/>
  <path class="st0" d="M67.1,59.5c.4.5.8.9.4,1.8-.6-.5-1.2-.9-2-1.5.7,0,1.2-.2,1.6-.3h0Z"/>
  <path class="st0" d="M5.7,27.9c.2-.1.3-.2.5-.4,0-.2-.2-.4-.3-.7.3,0,.6-.3.8-.2.3,0,.6.3.9.5v.3c-.6.2-1.2.4-1.7.6,0,0,0-.2-.2-.2h0Z"/>
  <path class="st0" d="M116,19.4c0-.4.3-.8.5-1.5.7.7,1.9.2,2.1,1.6-.9-.6-1.8-.5-2.6-.2h0Z"/>
  <path class="st0" d="M41.8,50.4c.5,0,1.2-.3.7-1.1,0,0,.3-.3.5-.4.4,1.4.3,1.8-.4,2.1-.5.3-.7,0-.8-.6Z"/>
  <path class="st0" d="M111.4,31.4c.5.2,1,.5,1.5.7-.2.9-.9,1-1.4.9-.9-.2.5-1-.5-1.3,0,0,.2-.1.4-.2h0Z"/>
  <path class="st0" d="M107.2,4.8v.7c-.8-.7-1.5-1.2-2.2-2,.8-.3,1.2,0,1.5.4.2.3.5.6.8.9h-.1Z"/>
  <path class="st0" d="M12.6,16.3c-.8.3-1.6.7-2.5.4.1-.9,1.1-.5,1.6-1,0,0,.5.4.9.6Z"/>
  <path class="st0" d="M106.8,39v-.4c.6-.5.7,0,.9.4,0,.4.2.8.3,1.3-.3,0-.6,0-.8.2-.2-.5-.3-1-.5-1.4h0Z"/>
  <path class="st0" d="M103.4,10.5c.8-.2,1.6-.3,2.5-.5,0,.3-.2.7-.3.7-.7.1-1.4.1-2.1.2v-.4h0Z"/>
  <path class="st0" d="M119,22.7c.2.4.4.8.7,1.2-.5.1-.9.3-1.3.4-.4-.4-.2-.9.6-1.6Z"/>
  <path class="st0" d="M107.5,42.6c.3.6.5,1.1.7,1.6,0,0-.4.3-.7.4-1.2-.6-.3-1.3,0-2Z"/>
  <path class="st0" d="M100.3,2.7c-.3-.8.2-1.1.9-1.6v1.8c-.4,0-.7-.2-1-.2h0Z"/>
  <path class="st0" d="M100.6,6.1c-.5-.2-1-.4-.8-1.1,0-.4.5-.5.8-.3.4.4.8.9,0,1.4Z"/>
  <path class="st0" d="M7.4,32.7c.5-.9,1-1.3,1.7-1.1-.3.7-.8,1.1-1.7,1.1Z"/>
  <path class="st0" d="M86.5,66.4c.9-.2,1.4,0,1.6.8s-.3.5-1.6-.8Z"/>
  <path class="st0" d="M55.4,56.5c0-.2-.3-.5-.4-.7v-.7h.7c.2,0,.3.3.5.6-.3.3-.6.5-.8.7h0Z"/>
  <path class="st0" d="M36.5,39.7c-.6.4-1.1.7-1.8,1.1v-1.1h1.8Z"/>
  <path class="st0" d="M88.1,85.7c-.4-1.1.3-1.4,1-2,0,.9-.3,1.5-1,2Z"/>
  <path class="st0" d="M109.5,37.4c-.5-.2-.9-.4-1.4-.6v-.3c.7,0,1.5.3,2.3.4-.2.7-.5.8-.9.4h0Z"/>
  <path class="st0" d="M47.6,6.5c-.4,0-.8,0-1.4-.2.2-.5.4-.8.6-1.4.4.6.6.9.9,1.3v.3h0Z"/>
  <path class="st0" d="M60.7,9.6v-2c.6.6.7,1.2.4,1.8,0,.1-.4.1-.6.2,0,0,.2,0,.2,0Z"/>
  <path class="st0" d="M116,21.5c-.4.5-.7.9-1,1.4-.9-.8.2-1.2.4-2,.3.3.5.4.7.6h0Z"/>
  <path class="st0" d="M56.9,54.1c.4.3.6.5.9.7,0,.3-.2.6-.3,1-.2,0-.4,0-.5-.2-.8-.4-.2-.9-.1-1.5Z"/>
  <path class="st0" d="M104,49.9c-.3.4-.6.7-1.1,1.2-.2-.5-.3-.9-.5-1.3.6,0,1,0,1.4-.2v.3h.2Z"/>
  <path class="st0" d="M86.9.8C87.3.5,87.6.3,88,0c.4.6.2,1.1-.3,1.3-.2,0-.5-.1-.8-.2v-.4h0Z"/>
  <path class="st0" d="M114.5,36.2c-.4,0-.8,0-1.4.2v-.8c.5-.3,1,0,1.4.5h0Z"/>
  <path class="st0" d="M90.6,92.4h-1.5c.3-.5.5-1,.7-1,.6,0,.7.4.7,1.1h.1Z"/>
  <path class="st0" d="M5,21.7c.3.4.5.7.8,1.1-.2.2-.5.4-.8.7-.7-.7,0-1.2,0-1.8Z"/>
  <path class="st0" d="M3.6,23.6c-.5-.1-1-.2-1.5-.4-.1-.5,0-.7.5-.6.4,0,.8.2,1.3.4,0,.2-.2.4-.3.6h0Z"/>
  <path class="st0" d="M12.5,14.4c.4.1.9,0,1.4-.2.2.8-.4.7-.8.8-.6.2-.5-.3-.6-.6Z"/>
  <path class="st0" d="M26,41.6c0-.3-.1-.6-.2-.8.6-.2,1.1-.4,1.6.3-.5.2-.9.3-1.4.5Z"/>
  <path class="st0" d="M102.5,6.8c0-.6.5-1,1.1-1.1,0,1-.5,1.1-1.2,1.1h0Z"/>
  <path class="st0" d="M13.9,17.8c-.5.2-1,.3-1.6.5,0-.1-.2-.3-.4-.8.8,0,1.4.2,2,.2h0Z"/>
  <path class="st0" d="M3.6,23.6c.6.1,1.2.3,1.3,1.2-.5-.2-1-.4-1.6-.7,0-.2.2-.4.3-.5h0Z"/>
  <path class="st0" d="M109.6,37.4c.2.3.3.6.5,1.1-.4,0-.9.2-1.6.4.4-.6.8-1,1.1-1.5h0Z"/>
  <path class="st0" d="M50,4.6c.4-.2.8-.4,1.2-.6,0,.2.2.3.4.7h-1.6v-.2h0Z"/>
  <path class="st0" d="M42.7,5.9c-.2-.4-.4-.8-.8-1.4.6.3,1,.5,1.5.8-.3.2-.5.4-.7.6Z"/>
  <path class="st0" d="M50,6.4c0,.6,0,1.2-.2,1.8-.5-.7-.5-1.3.2-1.7h0Z"/>
  <path class="st0" d="M111.6,10.7c0-.2-.2-.5,0-.6.4-.4.8-.2,1.5.1-.6.2-1,.3-1.4.5h0Z"/>
  <path class="st0" d="M85.6,58.3h0c.3,0,.5-.2.9-.3,0,.6-.2,1.1-.8.9-.3,0-.4-.3,0-.6h0Z"/>
  <path class="st0" d="M59.7,54.4c-.3.6-.2,1.3,0,2-.5-.5-.5-1.1-.5-1.7,0,0,.4,0,.5-.2h0Z"/>
  <path class="st0" d="M101.6,3.5c.5.6.6.9,0,1.1,0,0-.4,0-.4-.2,0-.3.2-.5.3-1h0Z"/>
  <path class="st0" d="M10.2,32.5c-.2.5-.5.6-.9.3,0,0-.1-.4,0-.5.4-.3.7-.2.9.2Z"/>
  <path class="st0" d="M34.5,6.6c-.3-.9-.3-1.4.7-1.1-.2.4-.4.6-.7,1.1Z"/>
  <path class="st0" d="M89.1,75.6h-1.1c.3-.5.6-.5,1.1,0Z"/>
  <path class="st0" d="M83.9,1.1c.3,0,.5-.1.8-.2v1.7c-.3-.7-.4-1-.7-1.5,0,0,0,0-.1,0Z"/>
  <path class="st0" d="M69.7,61.5v-.9h.2v.9h-.4.2Z"/>
  <path class="st0" d="M107.8,33.7c-.2.3-.4.5-.6.9,0-.2-.2-.4-.3-.6.3,0,.6-.2,1-.3h0Z"/>
  <path class="st0" d="M5.1,29.9c.5-.4.8-.6,1.2-.8,0,.5-.4.7-1.2.8Z"/>
  <path class="st0" d="M111.6,10.7c0,.7-.3,1.1-.8,1.1,0-.7.5-.8.9-1.1h0Z"/>
  <path class="st0" d="M21.4,11.3c-.3,0-.6-.1-1-.2,0-.2,0-.3.1-.4.5-.4.7-.1,1,.2,0,.1,0,.2-.1.3h0Z"/>
  <path class="st0" d="M.5,19.8c.1.6.2.8.3,1.3-.8-.2-1-.4-.3-1.3Z"/>
  <path class="st0" d="M14,10.9c.8-.5,1-.2.9.6-.4-.3-.7-.4-.9-.6Z"/>
  <path class="st0" d="M109.4,8.9c0-.3-.3-.5-.2-.6,0-.2.3-.3.4-.4,0,0,.3.3.3.4,0,.2-.2.3-.5.6Z"/>
  <path class="st0" d="M112.3,6.5c.3.2.7.4,1,.7-.5,0-.9-.2-1-.7Z"/>
  <path class="st0" d="M74.4,4.6c.2.3.4.7.6,1-.6,0-1,0-1-.7,0,0,.2-.2.4-.3Z"/>
  <path class="st0" d="M96,2.3c-.2-.2-.4-.4-.4-.5,0-.2.3-.3.5-.5,0,.1.3.3.3.4,0,.2-.2.3-.4.6Z"/>
  <path class="st0" d="M97.5.7c0,.5.2.8.3,1.3-.3,0-.5,0-.5-.1-.2-.3-.2-.7.2-1.1h0Z"/>
  <path class="st0" d="M90.3,82.8c0,.2-.3.5-.4.7l-.3-.2c0-.3.3-.5.4-.8,0,0,.2,0,.4.2h0Z"/>
  <path class="st0" d="M88.6,79.1c0,.2.3.4.2.5,0,0-.2.3-.3.4,0-.2-.3-.3-.4-.5l.4-.4h.1Z"/>
  <path class="st0" d="M92.4,1.6c-.4.1-.8.2-1.3.4.4-.9.9-.4,1.3-.4Z"/>
  <path class="st0" d="M107.2,4.8h0v-.8c.3.3.3.6,0,.7h0Z"/>
  <path class="st0" d="M50,6.5c0-.2,0-.5-.2-1,.5.4.7.6,1.1.9h-1,.1Z"/>
  <path class="st0" d="M38.5,6.8c.5.5.5.8-.3.9,0-.3.2-.6.3-.9Z"/>
  <path class="st0" d="M28.9,10c.1-.5.2-.8.2-1.2.4.3.3.7-.2,1.2Z"/>
  <path class="st0" d="M116.2,12.3c-.3-.5-.5-.7-.4-.8,0-.1.2-.3.3-.4,0,.2.3.3.4.5,0,.1,0,.3-.2.7h-.1Z"/>
  <path class="st0" d="M18.9,14.1c.1.3.3.4.3.6s-.2.3-.3.4c0,0-.3-.2-.3-.3,0-.2.2-.3.4-.7h-.1Z"/>
  <path class="st0" d="M7.7,18.1c.2-.1.5-.3.8-.4,0,.5-.3.6-.8.4Z"/>
  <path class="st0" d="M111.7,35.6c.2.3.4.6.8,1.1-.8-.2-1-.5-.8-1.1Z"/>
  <path class="st0" d="M17.8,38.6c-.2,0-.4-.3-.6-.4.1,0,.2-.3.3-.4.2.2.4.4.6.6,0,0-.2.2-.2.3h0Z"/>
  <path class="st0" d="M21.6,41c.2.2.3.3.3.5s-.2.3-.3.4c-.2,0-.4-.2-.4-.4,0,0,.2-.3.3-.5h.1Z"/>
  <path class="st0" d="M39.9,49.7h.7v.2h-.7v-.3h0Z"/>
  <path class="st0" d="M54.9,53.7h.9c-.3.7-.6.2-.9,0Z"/>
  <path class="st0" d="M53.6,54.8c-.9-.5-.6-.8-.2-1.4,0,.5,0,.8.2,1.4Z"/>
  <path class="st0" d="M85.9,62.5c-.3,0-.6.2-.9.2v-.2c.3,0,.6-.2.9-.3v.3Z"/>
  <path class="st0" d="M56.8,56.8c0,.2.2.4.3.8-.3,0-.5,0-.8-.2,0-.2,0-.4.2-.6h.3Z"/>
  <path class="st0" d="M100.5,57.1c-.2,0-.4.2-.5.2,0,0-.2-.2-.2-.3,0-.2.3-.4.4-.4s.3,0,.5.2v.3h-.2Z"/>
  <path class="st0" d="M55.4,56.4c0,.3.2.6.4,1.1-.5-.4-.7-.8-.4-1.1h0Z"/>
  <path class="st0" d="M113.7,33.5c.2.2.4.4.4.5,0,.2-.2.3-.4.5,0,0-.3-.2-.3-.3,0-.2.2-.4.3-.6h0Z"/>
  <path class="st0" d="M112.9,28.7h0c.2-.1.5-.1,1,.1-.6.4-1,.9-1.1,0h0Z"/>
  <path class="st0" d="M8.8,22.9l.3-.6s.2.1.3.2c-.1.2-.3.3-.4.5,0,0-.1,0-.2-.1Z"/>
  <path class="st0" d="M14.2,16.2c.2.2.5.4.8.6-.8.4-.8,0-1-.4,0,0,.2-.2.2-.3h0Z"/>
  <path class="st0" d="M8.3,17.3c-.2-.4-.3-.6-.4-.9.2,0,.3-.1.3-.1.5.2.7.4,0,1h.1Z"/>
  <path class="st0" d="M115.6,16.3c0,.2,0,.5-.2.7h-.3v-.8h.5Z"/>
  <path class="st0" d="M35.7,6.5c0,.3.2.5.2.6s-.3.2-.4.2l-.3-.2c0-.2.2-.3.5-.6Z"/>
  <path class="st0" d="M78.3,5.9c0-.5,0-1,.8-.9-.2.5-.3.9-.9.9h0Z"/>
  <path class="st0" d="M116.4,3.7h-.6s0-.3-.2-.4c0,0,.3-.2.4-.2s.2.2.3.5h0Z"/>
  <path class="st0" d="M91.3,2.7c.2-.6.5-.7,1.1-.4-.3.6-.7.4-1.2.4h0Z"/>
  <path class="st0" d="M88.1,73.9c.2.2.3.4.3.5s-.2.2-.3.3c0,0-.3-.2-.3-.4s.2-.3.3-.5h0Z"/>
  <path class="st0" d="M76.9,75c.2-.4.3-.6.4-.9.3.3.2.6-.4.9Z"/>
  <path class="st0" d="M39.6,44.2c0-.5,0-.9.8-.9-.4.4-.6.7-.8.9Z"/>
  <path class="st0" d="M26.3,42.2h.6v.3h-.5v-.2h-.1Z"/>
  <path class="st0" d="M10.1,36.2c0,.2-.2.4-.2.6h-.2c0-.3.2-.5.2-.7h.2Z"/>
  <path class="st0" d="M8.5,30.3c-.1.1-.2.3-.3.3l-.2-.2c0-.1.2-.2.3-.3,0,0,.2.2.3.3h-.1Z"/>
  <path class="st0" d="M.1,26.3h.7c0,.2,0,.3-.1.5-.2,0-.4-.2-.6-.3,0,0,0-.2,0-.2Z"/>
  <path class="st0" d="M117.8,24.1c-.2,0-.3.2-.4.2s-.2-.2-.3-.4c0,0,.2-.2.3-.2s.3.2.4.4Z"/>
  <path class="st0" d="M121.2,15.5c.2-.2.3-.3.4-.3l.3.2c0,.1-.2.3-.3.4,0,0-.2-.1-.4-.2h0Z"/>
  <path class="st0" d="M55.1,6.8c-.2-.2-.5-.3-.7-.5.4-.2.6,0,.7.5,0,.8,0,0,0,0Z"/>
  <path class="st0" d="M40.1,5.8c0,.2-.2.5-.3.7h-.2c0-.2.2-.5.3-.7h.2Z"/>
  <path class="st0" d="M33.3,5.9v.7h-.2v-.7h.2Z"/>
  <path class="st0" d="M111.7,5.6c.2,0,.5,0,.7-.2v.2c-.2,0-.4.2-.7.3v-.3h0Z"/>
  <path class="st0" d="M48.4,6.1c.2-.3.3-.6.5-.8h.3c0,.3-.2.6-.4.9,0,0-.3,0-.4-.2h0Z"/>
  <path class="st0" d="M59.7,54.5c0-.3.4-.4,1-.3-.5,0-.7.2-1,.3h0Z"/>
  <path class="st0" d="M62,53.5c0,.2-.2.4-.3.6h-.3c0-.2.3-.4.4-.6,0,0,.2,0,.2,0Z"/>
  <path class="st0" d="M75.8,73.6v-1c.3.3.4.4.5.6v.4h-.5Z"/>
  <path class="st0" d="M57.7,47.6c-.5.9-.7.9-1.4-.2.4,0,.7,0,1.1-.2l.3.3h0Z"/>
  <path class="st0" d="M98.6,51.6c-.2.2-.5.4-.9.8,0-.7.4-.9.9-.8.7.2,0,0,0,0Z"/>
</svg>