<?xml version="1.0" encoding="UTF-8"?>
<svg id="Layer_1" xmlns="http://www.w3.org/2000/svg" version="1.1" viewBox="0 0 139.4 133.6">
  <!-- Generator: Adobe Illustrator 29.5.1, SVG Export Plug-In . SVG Version: 2.1.0 Build 141)  -->
  <defs>
    <style>
      .st0 {
        fill: #fffef6;
        fill-rule: evenodd;
      }
    </style>
  </defs>
  <path class="st0" d="M106.7,80c-.2.3-.4.5-.7.8.6.8,1,0,1.3-.3.5.2.6.9,1.3.5.3-.2.7-.2.8.3,0,.4-.2.8-.7.9h-1.2c.2.6.4,1,.6,1.4.5-.2,1-.4,1.4-.6l.2.2c-.2.5-.4.9-.6,1.4h.5c-.5.9-.7,1-1.5.7-.2,0-.3-.3-.5-.3-1,0-1.4-.7-1.5-1.6.2-.3.4-.7.7-.9.5-.3.4-.7.3-1.1-.6,0-.9.8-1.4.3,0,0-.3,0-.4.2,0,.2,0,.5.2.5.6.2.5.7.6,1.1-.5.4-1,.7-1.6,1.2.6,0,1,.3,1.4.3.6,0,.8.3.6,1v.4c-.2,0-.4-.2-.5-.3-.8.4.2,1.2-.3,1.6-.5,0-.7-.5-.8-1.2-.3-.2-.7-.5-1.1-.7-.3,0-.7.2-.9.3.4.3.8.6,1.2,1-.6.6-1,0-1.5,0s-1,.3-1.5.4v.8c.4.4,1.2.2,1,1,0,0,.4.2.7.5.2-.7.4-1.2.5-1.8.6-.4,1.1-.2,1.5.3,0,.2.2.5,0,.8,0,0-.4.3-.6.3-.5-.2-.8,0-1.1.3,0,.4.2.9.2.9-.5.2-1,.3-1.5.4,0,0-.3,0-.3-.2-.4-.9-1.2-.8-1.9-1-.3,0-.6-.3-.8-.4,0,.8-.9.4-1.3.8-.4-.3-.7-.5-1.1-.8-.4.8.7,1.2.3,1.9-.2,0-.8.3-.8.5,0,.7-.5.9-1.4,1,.8.5.9.9.7,1.6-.3-.2-.5-.3-.8-.5-.2.2-.3.4-.5.6h-.2c-.2.4-.4.7-.6,1.1-.3,0-.6-.3-1-.4,0,0-.2,0-.3.2h0c-.5-.2-1-.4-1.5-.6v-.2h1.5v-1.7c-1,.7-1.9,1.3-2.7,1.9.7.4.8.9.3,1.5.3.3.8.7.2,1.2,0-.2-.3-.4-.5-.6,0,.8-.2,1.5-.3,2.2-.3,0-.6,0-.8-.2-.7-.6-1.2-.5-2,0-.5.3-.9,0-1-.7-.6,0-1.2.2-1.9.3.3.5.6.8.8,1.1.3,0,.5-.3.7-.4,0,0,0,.2.2.4h0c-.2.3-.7.8-.6.9.3.6,0,.7-.6.9l.2.2c.4-.2.8-.3,1.3-.5.4,1,1.4,1.2,2.3,1.6h-.5c-.4.2-.8.5-1.2.4-.3,0-.4-.7-.6-1-.3.4-.5.9-.4,1.5-.4.2-.8.3-1.3.5-.2-.5-.8-.7-.4-1.3,0,0-.2-.3-.3-.4-.3-.4-.2-.7.2-.9,0-.4.2-.8.4-1.3-.3.2-.7.2-.8.4-.2.4,0,.7.4.9-.4,0-.6,0-.7.4-.2,1.1-.4,2.1-.5,3.2,0,.4.4.8.4,1.2s-.5.7-.5,1.1-.2,1.1.3,1.3c0,.5-.3.9-.3,1.2,0,2.4.2,4.8.5,7.1.2,1.8.3,3.6.2,5.4v5.2c0,.9,0,1.9-.3,2.8-.2.8-.5,1.7-.9,2.4-1,1.4-2.7,1.5-3.9.2-.8-.8-1.2-1.8-1.1-2.9,0-2.2.3-4.3.4-6.5v-1.3c0-2.3-.2-4.7-.3-7v-4.4c0-1.8-.3-3.5-.5-5.4h-1.9c.5-.6.8-.9,1.1-1.3h.2c0-.6,0-1.2-.2-1.8-.5,0-.8.2-1.4.4.4-.6.7-.9,1-1.3-.3-.7-.6-1.4-.9-2.2-.3,0-.6.2-.9.3,0-.3,0-.6-.2-.9-.9,0-1.8-.2-2.7-.3v.5h-1.4c-.3-.4-.7-.8-1.1-1.3-1.2.3-1.8-.9-2.6-1.5-.5.7.9,1.3,0,1.8-.5.3-.3,1.1-1.1,1.2-.4-.5-1-.9-1.1-1.5-.2-1.3-1.4-1.2-2.1-1.9,0,.6-.2,1,0,1.2.3.6,0,.9-.4,1.2,1,.3,1.7.9,2.7.7,0,0,.3.3.3.4,0,.2-.2.4-.3.4-.7,0-1.3.3-1.9.7h-.9v-.9c-.5-.2-1-.3-1.3-.6-.4-.3-1-.5-.2-1.4,0,.3.2.5.4,1,.2-.5.3-.8.5-1-.5-.3-1-.6-1.6-1v.9c-1.3.6-1.5-.5-2.1-1.3-.3.2-.5.4-.9.7.3.4.7.8,1,1.3-.3.5-.7.9-1.1,1.5h1.7c0,1.2-.7,1.4-2.3.6,0,.8,0,1.5-.2,2.5.6-.4,1-.7,1.4-1,.6-.4,1.3-.3,1.6.5.3.6.6.9,1.3.8h0c.2.2.4.5.5.8.2.5.2.9-.4,1.2-.4-.3-.8-.6-1.2-1,.2-.2.3-.4.6-.6h-.8v-1.1h-.9c-.2.6-.3,1.1-.4,1.5-.6,0-1,0-1.5-.2v5.3c0,2.5-.3,5.1-.5,7.6,0,.7-.3,1.4-.6,2-.3.8-.9,1.3-1.9,1.4-1,0-1.6-.5-2-1.4-.2-.6-.4-1.3-.5-2-.2-2-.4-4.1-.5-6.1,0-.5-.7-.9,0-1.6.3-.4,0-1.2,0-1.8s0-1-.7-1.2h.7c0-1.1.3-2.4,0-3.5,0-1.2.3-2.3,0-3.5-.2,0-.4.2-.5.3-.2-.2-.3-.5-.6-.9-.4.3-.8.5-1.3.9-.3,0-.9-.3-1.5-.5,0-.3.2-.7.3-1h0c.9.5,1.7.5,2.5-.3-.3-.3-.5-.6-.8-1-.2.4-.3.6-.4.9-1-.4,0-.8-.2-1.1,1.5,0,1.7.3,1.9,1.4.8-.2.9-.2.5-1.8-.5-.2-1-.4-1.8-.8.6-.3,1-.4,1.5-.7-.3-.2-.5-.3-.7-.4-.2.4-1.1.3-1,1,0,0-.4.4-.6.3-.2,0-.6-.3-.6-.5,0-.6-.3-1.3.6-1.7,0-.4-.3-.8-.4-1.1-.3,0-.6,0-.8-.3-.2-.2-.3-.5-.4-.7,0-.2.2-.4.3-.6.2,0,.4.3.7.5.3,0,.7-.9,1.3-.2,0,0,.5-.4.8-.7-.5-.3-.8-.5-1.1-.7-.7.3-1.3.7-1.9,1-.5-.9-.5-1.2,0-1.7s.7-.7,1-1.2c.2-.3,0-.7,0-1.1-1,0-1,.6-1.1,1.1,0,.4,0,.5-.6.7-.2-.5-.3-1-.6-1.6.2-.2.5-.4.9-.8-.9-.7-1.9-1.5-2.8-2.2,0,0,.2,0,.4-.3-.6-.2-1.2-.4-1.7-.6s-1-.5-1.4-.8c-1,.8-1.2.8-1.6,0,0,.3-.3.5-.5.9-.2-.6-.3-1.1-.4-1.5.2,0,.4-.2.6-.2-.6-.7-.8,0-1.3,0-.2-.3-.5-.6-.9-1-.3.5-.5.8-.8,1.2-.7-.4-.8-.7-.3-1.3.3-.4.7-.7,1-1.1.6,0,1.2,0,1.3.9.6-.8.6-.9,0-1.2-.5-.2-1-.3-1.2-.9,0-.2-.4-.5-.6-.6-.6,0-.6-.5-.7-.9.5-.2.9-.5,1.6-.8-.5,0-.8-.2-1.1-.3.7-.3.9-.9,1.2-1.6-.4,0-.8,0-1.1-.2,0-.3-.3-.6-.5-1-.3.9-.5,1.7-.8,2.7-.5-1.5-1-2.8-1.4-4,0-.2.1-.4.2-.6,0-.2.2-.4.1-.7-.8.5-1,1.2-.8,2.1-.6.2-.9,0-.7-.6,0-.4.3-.8.5-1.1-.2-.2-.4-.5-.6-.8-.3,0-.6.3-.9.4h0c0-.7-.6-.4-1.1-.5.3.2.4.4.6.5h-.7c0,.6,1.1.7.6,1.5h0c-1.3,0-1.4,0-1.7-1.3,0-.3-.1-.6-.2-.9.4-.3.8-.6,1.2-.8.1,0,.4-.2.4,0,.5.5,1,0,1.5,0,.8,0,1.4.4,1.8,1.1.1,0,.4-.2.4-.2.6.8,1.5.2,2.1.5-.2.4-.3.9-.5,1.3-.4-.2-.7-.4-1-.5-.2.9.7,1,1,1.4h.3c.2-.2.4-.5.6-.7h.8c0,.4.2.7.4,1.2.4-.4.7-.7,1-1-.5-.5-1,.6-1.4-.2.2-.5,0-.8-.5-.9-.4,0-.6-.4-.6-.7s-.2-.4-.2-.5c-1.5,0-1.7-.3-1.5-1.3.5-.2,1,.7,1.6,0-.7,0-1-.5-1.1-1.1-.1-.7-.4-.8-1.1-.6-.3,0-.7,0-1.1.2-.1.3-.2.7-.3,1.1h0c-.5-.9-.8.2-1.3,0,0-.6-.4-1.3.3-1.7.3-.2.9-.2,1.3-.2,0,0,.2.2.4.4.2-.3.3-.6.4-.9-.5-.5-1-.9-1.5-1.4-.7,0-.1-.9-.6-1.2-.5.2-.4.6-.3.9.2.4.5.4.9.3-.2.5-.2,1,.1,1.5-1,.6-.5-1-1.2-.8v1.8h-.3c-.3-.3-.6-.6-1-1,.3-.5.7-.8.2-1.4-.1,0,.2-.6.3-1-.2,0-.5-.2-.8-.4.2-.7.8-1.3.3-2.2-.3,0-.7.2-1,.3-.4,0-.7.4-1.1,0s-.2-.8,0-1.3c.1-.3.3-.5.5-.7-.2-.2-.4-.3-.9-.7h1.7c-.4-1-.8-2.1-1.2-3.1.5-.3.9-.5,1.4-.7h0c.3.2.6.5,1,1-.1-.6-.2-.9-.3-1.2h.3c0,.2.1.4.2.5.4-.2.5-.4.2-.8-.1,0-.3.2-.4.3.1-.2.2-.5.3-.7.3-.5.3-.8-.1-1.2-.2-.2-.2-.5-.2-.8-.2-.3-.9-.2-.9-.9,0,0-.8-.2-1.2-.3v-.3h.6c.6-.2.9-.8.7-1.5,0-.3.2-.8.5-1.5v1.1c.5,0,1,.2,1.4.2,0,.3.2.5.7.5v.8c.2,0,.3,0,.4-.2-.2.3-.5.5-.7.8.2.2.4.3.5.4.8-.3,0-.8.2-1.2-.3-.2-.2-.5,0-.8v-.8c-.5.2-.8.3-1.2.5,0-.6,0-1.2-.1-1.9-.4-.4-.8-.8-1.3-1.3h0c.3,0,.7-.3,1.1-.5,0-.4-.4-1,.2-1.5.2,0,.5.3.8.5.3-.6.5-1.1.8-1.7.7,0,1.2.2,1.9.3-.5-.6-.8-1-1.1-1.4-.2,0-.4.3-.6.3s-.3-.3-.4-.5c-.3-1,.3-1.8.5-2.6,0-.4.5-.5.8-.2s.4.3.6.4c-.5.6-.5,1.5-1.4,1.8.3,0,.6.2.7.2.4-.6.7-1.1,1-1.6-.1-.2-.3-.3-.4-.5-.2-.3-.4-.5-.4-.8s-.8,0-.6-.7c0,0-.4-.3-.7-.6.1-.2.3-.5.5-.7s.4-.2.1-.5c.2-.3.4-.5.8-1-.1-.3-.4-.8-.6-1.3-1.2.2,0,1.6-1.2,2-.1-.8-.4-1.4.5-1.9-.5-.2-.8-.3-1.2-.4h0c0-.6-.1-1.2.8-1.1.3.4.5.8.8,1.3,1.5-.4,2.6.1,3.5,1.2.3-.4.6-.8.9-1.2h.2c-.3.7.6,1.7-.7,2,0,.4.3.8.4,1.2h.2v-.7h.7c.6-.7-.4-.6-.6-1.1h1.1c-.2-.5-.4-.9-.7-1.5.5.2.7.2.9.3.3-.2.6-.5,1.1-.8v-1c-.6.2-1,.3-1.6.4-.2-.5-.3-.9-.4-1.3.2,0,.4-.2.6-.2s.5,0,.5.2c.3.8,1.7.3,1.8,1.4,0,.5.4.7.9.8.5.1.9.4,1.4.5h0c0,.6.8,1.1.4,2.1.5-.2.9-.2,1-.4s0-.5-.2-.8c0-.2-.3-.4-.5-.7h0c.4,0,.7,0,1.2.2,0,0,0-.2.3-.5-.5-.2-.9-.4-1.4-.6.2-.1.3-.3.5-.4.3,0,.6-.2.5-.6,0-.2-.2-.4-.4-.5l-1.2-.6c-.3.6-.7,1.2-1,1.8-.2-.1-.4-.3-.7-.5,0-.7.2-1.3.4-2.1,0,.5.2.8.3,1.2.6-.7,1.3-1.1,2.2-.6.3-.8,0-1.3-.5-2,1.1.4,1.2,1.1.8,2.2l1.4-.7c.6.5.6,1.1.2,1.9.6.3,1.1.6,1.9,1,0-.3.2-.7.3-1.1,0,0,.2.2.3.2,0,0,0-.3-.2-.3h-.5c-.4,0-.8,0-.8-.5s.5-.4.8-.4.4,0,.7-.2c-.2-.5-.4-1-.6-1.6-.5,0-1.4.5-1.4-.7.6-.1,1.1-.3,1.7-.4-.2-.8-.4-1-1.8-1.2.3,0,.5-.1.9-.2-.3-.5-.9-.9-.5-1.6.2,0,.5,0,.8-.2.3-.1.5-.1.7.2,0,.1.3.2.5.2.7-.2,1.3-.4,2.1-.6-.3-.3-.4-.5-.6-.8h2.1c0,.6-.3,1-.5,1.7.5-.5,1-.7.7-1.4.5-.2,1-.5,1.4-.7.4.3.4.7,0,.8-.8.2-.7.6-.5,1.1-.3.4-.7.8-1,1.1.3.6.5,1.1.9,1.8-.4,0-.6,0-.7-.2-.2-.7-1.3-1-1-2,0-.3-.3-.7-.4-1.2-.2.3-.4.8-.5.8-.9,0,.2.5,0,.7-.2.1-.2.5-.3.8h-.6c1,1.2,2.9,2.1,4.2,1.7,0,.4,0,.7.2,1.1.7-.1,1.3-.5,1.7.3h0c.7,0,1-.5,1-1.1,0-.9.6-1.6,1.4-2-.5-.7-.6-1.4-.2-2.1-.3-.2-.6-.3-1-.6,0,.2,0,.5-.2.8-.5.2-.8-.7-1.3-.2,0,0-.4-.2-.4-.3v-2.1c-.3-.5-.5-.9-.8-1.5.2-.3.5-.5.8,0,0,.2.3.5.5.7.7.7.7.8,0,1.6.4.5.8.6,1.3.2.8-.6,1.7,0,2.6-.6-.4.7-.7,1.3-1.1,1.8,0,.4,1,.1.7.9,0,.2.3.5.8.2-.2-.4-.3-.7-.6-1.2.9,0,1.4.6,2.1.9-1,0-1.3.9-2.2,1.1-.6.1,0,.7,0,1.2-.3,0-.5,0-.8-.1,0,.2,0,.5-.2.7.2.1.4.2.6.4v-.3c.3-.4.6-.9,1-1.2.3-.3.8-.2,1,.2.3.4.3.9,0,1.5.7.1,1.4.3,2.2.5.3-.6-.6-.5-.6-.9.7-1,.9-1.1,1.7-.3.5.6,1.2.9,1.9,1,.5,0,.8-.1.5-.7h.2c.9-.2.9-.1.7.9h2.1s.3,0,.4-.2c.4-.3.8-.6,1-.9.5.4.9.7,1.4,1,.2-.7-.9-1.1,0-1.7-.5-.2-.9-.3-1.4-.5,0,.3-.3.6-.4,1.1-.2-.3-.4-.5-.4-.6.2-.8.9-.7,1.6-.9,0-.4-.2-.7-.2-.9h0c.4,0,.7,0,1.1-.1,0,.6,0,1.3,1,1.3,0-.6,0-1.3.2-2,.4.1.6.2.9.3v.2s-.3,0-.4.1c0,1.1,1,.9,1.7,1-.2.1-.3.3-.5.5.3.2.5.4.7.4s.5,0,.6-.3c0-.1,0-.5-.2-.6,0-.1-.4,0-.6,0,0-.6.2-1,.8-1s1,0,1.2.7c0-.4,0-.8-.2-1.1-.3-.6,0-.8.5-1,.2.7.3,1.2.5,1.9-.4.4-.5.5-.3,1.1.5-.6.9-1.2,1.4-1.8.8.2,1.7.3,2.3.8.6.5,1,1.4.4,2.3.6.2.6.1.9-.3.6-.7.6-1.6,1.1-2.3,1,.3,0,.9.2,1.3s.2,1,.2,1.7c0,0,.2.2.4.3,0,.1.3.2.7.5-.2-.4-.2-.6-.3-.8,0-.7-.4-1.4.3-2v-1.3c0-.1-.4-.2-.7-.2s-.3.2-.6.2c.3-.8.6-1.5.9-2.3.9,0,.9.7.8,1.4.3-.4.5-.8.8-1.2.6,1.1.6,1.3,0,2.2.4.1.8.4,1.1.3,1-.1,1.3.4,1.6,1.1,0,.3.3.6.6.8.2-.6.7-1.2-.4-1.5-.3,0-.4-.6,0-.9.3-.2.6-.4.8-.6,1,.9.6,2.1.6,3.2.7.2.8-.5,1.3-.7.6.2,1.2.5,1.9.7-.8,0-1.3.3-1.6,1,0,.3-.9,0-.7.8-.4,0-.8-.1-1.2-.2v.2c.2.2.4.4.5.5.3-.2.5-.4.8-.5.5-.2,1-.4,1.5-.7.9-.5,1.1-.5,1.7.4.2,0,.4-.3.5-.3,1.4.7,1.7-.6,2.3-1.3-.6.2-1.1.4-1.7.6-.2,0-.7-.1-.7-.2,0-.7-.5-.9-1.1-1.2.8,0,1.5-1,2.3-.1.2-.3.4-.6.5-.9h.4c.3-.4.7-.6,1-.2.4.4,1.1-.1,1.2.7,0,.5.3.9.4,1.4-.3.1-.5.3-.8.3-.7,0-1.1.3-1.2,1v.5c0-.2,0-.4.3-.5.4-.4.8-.7,1.3-.2,0,0,.2.2.3.2.5.2,1.4.1.6,1.1-.2.2,0,.8.3,1.3,0-.6.3-1.2.4-1.9.4,0,.8.1,1.2.2v.4c0,.2-.4.3-.5.5v.8c.2-.1.4-.2.6-.3.2-.1.3-.3.4-.4.5-.7,0-1.5-.8-1.6-.2,0-.4,0-.6-.1.3-.8,1.2-.7,1.7-1.1,0,0,.3,0,.3.1,0,.8,1,1.2.7,2.1,0,.3,0,.5-.2.8-.6-.5-.6.2-.9.2v.3c.3,0,.7,0,1-.1v-1.2c.4.1.8.2,1.5.4-.9-1,0-1.6.2-2.3.4,0,.9.2,1.3.3.5-.5-.2-1-.2-1.5-.3.2-.5.4-.7.7,0,.2-.3.4-.4.6,0-.8-.3-1.5-.7-2.2h2.9c.6,1,0,2.2.5,3.5-.5-.1-.9-.2-1.3-.3,0,.2,0,.4.2.5.8.6.8.5,1,1.3-.8.7-1.3.6-1.9-.5v.6c.2.3.5.6.8.9-.8,0-1.4.3-1.8,1.1.4-.2.6-.4.9-.5,0,.3.3.6.5,1.1.2-.7-.2-1.4.4-1.7.2,0,.5,0,.8-.1v.7c.4,0,.8.2,1.3.3.3-.9,1.2-1,2-1.5.7.9.7,1.7,0,2.6.3.3.5.6.8.9-.3.2-.7.4-1.2.7,0-.5-.2-.9-.4-1.5-.5.4-1.1-.6-1.6,0,.3.5.5.9.8,1.4-.5.3-1.1,0-1.6-1.1-1.1.2,0,1.3-.8,1.7-.2-.4-.3-.7-.5-1.2-.4.4-1,.8-1.5,1.2,0-.9.3-1.8.4-2.7h-.3c-.2.9-.4,1.8-.6,2.7h.5c.2,0,.4.3.5.2.8-.4,1.3,0,1.8.6.2.3.6.6.9.9,0-.2.3-.4.3-.6.2-.7.5-1.1,1.3-.8.3,0,.6-.2,1-.3.2,0,.4.3.8.8-.4.2-.7.4-1,.5.5.8.7-.2,1.1,0,0,.6-.3,1-1,1.1-.3,0-.6-.3-.8-.4.2-.4.6-.7,0-1.1,0,.4-.6.7,0,1,0,.2-.3.4-.4.6v.2c.4,0,.8-.3,1.1-.4,0,.2,0,.5-.2.7.7.7,1.6,1.2,1.4,2.5.5-.4,0-1.3.8-1.4h.6c1.1.9,1.4,1.1,3.2,1.2v-.8h0c.3,0,.6-.2.9-.4.3.7,0,1.3-.4,1.8.6.5.5.8-.3,1.3v1.8c.9-.2.9-1.3,1.7-1.6-.2-.3-.4-.5-.6-.8.3-.5.6-.4,1-.3.4.2.8.3,1.2.5h0c-.2.3.5.9-.8.8.9.4,1.2.7.7,1.2-.5.6-.4,1.3,0,1.8.3.3,0,1,.9.7-.3.8-.8.6-1.3.8.2.2.4.4.6.6-.3.2-.7.4-1.1.7.7.4,1.2.7,1.8,1h0c.3.8.8,1.4,1.7,1.8-.2-.3-.3-.5-.5-.8.3-.2.5-.5.8-.7,0-.2-.2-.4-.3-.7.5,0,1-.2,1.6-.4v.7c-.3.5,0,1,.2,1.2.4.3.2,1,.8,1.1v.5c-.3,0-.7-.2-1-.4-.4-.2-.7,0-.9.5-.4-.2-.8-.4-1.3-.6-.2,0-.4.2-.7.4.2.2.4.6.6.6.5,0,1,0,1.6.2,0-.3-.2-.5-.2-.6h.9c0,.3.2.5.4.8.2-.5.4-.9.7-1h.4c0,.5.6.6.9.6.5,0,.4-.5.4-.9v-.2c.8.5.8.8.2,1.3,0,0-.2.3-.3.4,0,.2-.2.4-.3.5h-.3c-.3-.2,0-1.1-.8-.9-.4,0-.9.3-1.3.5,0,.4-.2.8-.3,1.4.3.3.4.7.6,2,0,.2.2.4.4.5.9.3,1.2,1,1,1.9,0,.2,0,.4.2.6.2.4,0,.8-.3,1.1-.8-.6-1.7-.6-2.6,0,0,0,0-.3.2-.5-.4,0-.7,0-.8.5h.7c.2.4.3.8.5,1.1.3.4-.6.7,0,1h0c-.5.4-.9.8-1.4,1.1h-.2c-.4-.2-.8-.5-1.2-.9.2,0,.4-.2.7-.4-.3-.3,0-1-.8-1v.8c-.8-.3-1.5-.5-2.4-.8v.7c1.2-.4,1.5,0,2,1.6h-.9c0,.3,0,.6-.2.8-.6.3-1.9-.5-2.4-1.4-.9.9-1,1.7-.4,2.8-.5.8-1.1,0-1.6,0h0c0-.4.3-.8.4-1.3,0-.2-.2-.7-.8-.8,0,.4.3.8,0,1.1,0,.3-.6.4-.9.5-.2-.3-.4-.6-.6-.8-.3,0-.7.2-1.3.5.2-.5.3-.7.4-1.1,0,0-.4-.2-.7-.4-.2.9.3,1.7-.6,2.4h-.6c0-.4-.2-.9-.3-1.4-.8.3-.6.8-.7,1.3h1v.9c.7-.3,1.2,0,1.7.5h.6c.4.3,1.1.2,1.2,1h-.9c-.7.2-.8,0-1.2-.7-.5.8-.8,0-1.1-.2,0,.7,0,.8,1.2,1.2-.2.2,0,.8-.7.5-.2,0-.9.6-.9.9v.7c.3.3.5.7.9,1.2-1.2.2-.9,1.2-1.3,1.9-.4,0-.7-.3-1.1-.4-.3.2-.6.4-1,.7.6.6,0,1.3.2,2-.3-.3-.6-.6-.9-1v1.1c-.4,0-.8-.2-1.1-.2v.2c.7.4.7.9,0,1.4-.4.3-.9.6-.4,1.1h1.4c-.3-.4-.7-.7-1-1.1h1.4c.4,0,.6.2.5.7,0,.2,0,.5.2.7h0c-.5.2-.9.8-1.5.4h-.4c-.3.6-.9.4-1.5.8.5.3.6,1,1.2.9.2,0,.4-.6.6-.9.2,0,.5,0,.7.2l.2.2v-1.2l.6.4h0ZM94.2,27.7c-.7,0-1,.2-.9.7.3-.2.6-.5.8-.7.3-.1.7-.1.7-.7-.5.1-.8.3-.6.8h0ZM74.5,26.4c0,.5,0,.9-.2,1.4.5.2,1,.4,1.5.2-.8-.3-1.5-.6-1.3-1.6.5-.5,1.1-.9.9-1.8-.5.3-.9.5-1.3.7.2.4.3.7.4,1.1ZM33.5,38.7c.2,0,.4,0,.6.2v-.3c-.2,0-.3,0-.5.2-.3,0-.7-.2-1-.2v1.8c.3,0,.7.2,1,.3h0c-.2-.3-.5-.5-.7-.7.2-.5.4-.9.5-1.2h.1ZM85.7,95.9c.2.3.4.7.6,1,.3.4.6.4.9,0-.2-.4-.3-.8-.5-1.3h1.6c0-.3,0-.6-.2-.6h-1.9c-.4,0-.6.3-.5.7-1.2,0-1.3,0-1,1.3,0-.6.3-1.2,1-1.3h0v.2ZM120.6,56.3c.2,0,.4-.2.5-.3,0,.9.8-.4.9.3.5,0,.8-.5.7-1-.3-.2-.9.7-1-.3.3,0,.5,0,.9-.2-.2-.3-.4-.6-.5-.9-.3,0-.6.3-.8.3-.5,0-.8.3-1,.7.6.4,0,.9.2,1.3-.3-.2-.6-.5-1,0,.4,0,.7.5,1,0h.1ZM107.7,68v1c.3-.4.4-.7,0-.9,0,0-.2-.2-.2-.3-.2-.4-.7-.7-1.1-.6-.5.2-.9.6-.8,1.2v.2h-.3c0,.8,0,1.5.2,2.2h.3s.2,0,.3-.2c.3-.3.6-.3.8,0h.2c0-.3.2-.5.3-.8-.5-.4-1.6-.4-1.3-1.5.4,0,.8.3,1.1.3.2-.3.4-.5.6-.7h0ZM31.7,32c.3.5.6,1,1,1.5h-.7c-.1.5-.2.9-.4,1.4.1,0,.2-.2.3-.3.4.6.8,1.1,1.2,1.8,0-.9-1-1.3-.7-2.4.7.6,1.3,1,2,1.5.2-.8-.3-1.3-.7-1.8,0-.2-.3-.4-.3-.6,0-1-.6-1.4-1.7-1.2h0ZM86.7,25.2v-.3c-.6.1-1.1-.5-1.7,0-.3-.5-.5-.8-.8-1.4-.3.6-.6,1-.8,1.4.3.3.6.5.8.7.9-.1,1.7-.3,2.5-.4ZM37.4,36.5c-.5-.7-.6-1.4-.8-2.2h1.8v-.9c-1,.2-1.8.4-2.7.6.3.4.9.8.8,1-.4.9.3,1.2,1,1.6h0ZM106.4,72.5c.2-.6.4-.9.6-1.4-.6.3-1,.6-1.4.8h0c0-.2.2-.4.4-.8-.3,0-.5,0-.6.2-.4.8.4,2.2,1.3,2.1,0-.6.7,0,.8-.4v-.6c-.3,0-.6,0-1,.2h-.1ZM112.1,40c0,.7.8.2.6.8,0,.5.2.6.5.5.7,0,1.5-.2,2.2-.3v-1.9c-.4.6-.7,1-1,1.4-.5.5-1.1.7-1.4.2.2-.2.4-.4.6-.6-.5-.6-1,0-1.5-.1ZM103.9,84.6c.3-.6.5-1.2.8-1.9-.7,0-1.5-.4-2.1.2.5.5.2,1.6,1.3,1.7ZM104.1,65.6c-.2.2-.3.4-.4.5.2,0,.4.2.5,0,.2,0,.3-.2.4-.4.6-.6.4-1.3.2-2.1-.5.6-.9,1-1.4,1.6.2,0,.4.2.6.3h.1ZM29.1,41.9c.2.4.3.7.5,1.1h.2v-.6c.7-.4,1.7,0,2-1.3-.9.3-1.7.6-2.6.8h-.1ZM77,25.9c0,.2,0,.5-.2.8,0,.5,0,.7.6.6.7-.2,1.3-.3,2-.5-.5-.9-1.2-.3-1.9-.2-.2-.3.2-.9-.6-.8h0ZM33.2,38c1.7.2,1.8,0,1.7-1.5-1.1,0-1,1-1.7,1.5ZM103,31.3c.9-.1.5-.8.6-1.2,0-.2-.2-.6-.6-.5-.4,0-.9-.5-1,0,.4.7.7,1.2,1,1.8h0ZM32.3,45.8c-1-1.5-1.5-1.6-2.2-.2.8,0,1.4.6,2.2.2ZM44.5,34.3c-.2,0-.4-.4-.7-.5-.4,0-.9.2-.9.6s.2.7.6.8c.4,0,1-.3,1-.9ZM124.8,57.5c-.6-.5-1.1-.7-1.4-.6-.2,0-.4.2-.4.4s0,.4.2.5c.3,0,.6.2.9.2s.4-.3.6-.5h.1ZM108.3,67.2v.8c0,.3.6.3.8,0,.3-.4,0-1.4-.4-2v1.3h-.6.2ZM35.6,68.9c.8-1.4.8-1.5.2-2-.4.6-.6,1.2-.2,2ZM27.3,59.4c.4,0,.7.3.7.2.3-.5,1-.9,1-1.8-.6.6-1.1,1-1.7,1.6ZM96.2,27.5s-.3-.1-.4-.1c-.2.5-.3,1-.5,1.4s-.2.7.3.8c.2-.7.5-1.3.7-2h0ZM67.7,95.7c.5-.4.8-.6,1.2-1-.6-.2-1.1-.4-1.7-.6,0,.5.3.9.4,1.5h0ZM47.2,27c-.2.2-.3.4-.4.6.5.2.7.4,1,1.1.3-.3,0-.9-.7-1.7h.1ZM100.1,85.5c-1.1,0-.9,1-1.4,1.6.2,0,.4.2.5.3.3-.6.6-1.2.9-1.8h0ZM29.5,43.7c-.1.3-.2.6-.3.8v.5h.6c.5-.3.4-1-.2-1.3h-.1ZM118.4,42.6c-.5-.4-.8,0-1,.3,0,.2.2.5.3.7.2,0,.4-.2.5-.4s0-.4,0-.7h.2ZM44.7,32.4c.3.6.6,1,.9,1.5.7-.5,0-.9,0-1.4-.2-.4-.5-.3-.8,0h-.1ZM99,66.5c.3.3.6.5.9.8.6-.4.5-.9.4-1.6-.4.3-.8.5-1.2.8h-.1ZM47.5,28.9s-.2,0-.2-.1c-.3.3-.6.5-.9.8.2.3.3.5.4.7.8-.3.2-1,.7-1.4ZM78,24.2c-.5,0-1.1-.1-1.7.5.8.1,1.4.4,1.7-.5ZM27.7,48.3c-.3.4-.6.8-.1,1,.6.3.7-.3,1-.7-.3,0-.6-.2-.8-.3h-.1ZM72,96.1c-.4.9-.3,1.1.8,1.3-.3-.4-.5-.8-.8-1.3ZM94.6,92.4c-.4-.6-.6-.9-.9-1.4,0,.6-.2.9-.2,1.3h1.2,0ZM80.1,28.8c.4-.3.6-.7.2-1h-.6c-.2.4-.2.7.4,1ZM86.4,27.3c0-.1,0-.3-.2-.4h-1.2c.3.4.4.8.5.8.3,0,.6-.3.8-.4h0ZM70.7,97c0-.4-.2-.7-.3-1-.3.2-.5.3-.7.4.2.3.3.5.4.8.2,0,.3,0,.6-.2ZM36,31.5c1.2.2,1.5,0,1.4-1.2-.4.6-.7,1.1-1.4,1.2ZM97.2,30.6s-.2,0-.3-.1c-.2.2-.4.5-.7.9.5,0,.8.1,1.2.2,0-.4,0-.7-.2-1ZM106.2,36c-.4,0-.9-.2-1.4-.4.9,1,1.1,1,1.4.4ZM89.5,28.1s.2.2.3.2c.4-.3.8-.6.9-1.1l-.2-.2c-.3.3-.6.7-1,1h0ZM65.1,89.6c0,.4-.2.6-.3.9h.6c.3-.3.2-.5-.3-.9ZM97.8,29.7c.3-.5.7-1,0-1.6v1.6ZM100.5,34.1h.2c0-.2.2-.4,0-.5-.2-.3-.5-.5-.7-.8h-.2c.2.4.4.8.6,1.1h0v.2h0ZM121.5,60.1c0,.5.2.8,1,.9-.4-.3-.7-.6-1-.9ZM99.2,31.5c-.6-.2-1-.3-1.5-.5.3.8.6.9,1.5.5ZM100.5,85.4c.3.3.6.7,1.1,0-.3-.5-.6-.8-1.1,0ZM94.2,67c.3-.2.6-.4.9-.6l-.2-.3c-.5,0-.7.2-.7.9ZM54.2,29v.3c.3,0,.6.1.9.2.2-.5,0-.8-.3-.8s-.4.2-.6.3ZM52.5,30.9c.4,0,.7,0,1,.1,0-.5-.5-.6-1-.1ZM111.5,39.7l.2.2c.3-.2.6-.4.9-.6,0-.2-.2-.4-.3-.6-.3.4-.5.7-.8,1ZM31.7,52.8c.7,0,1.1,0,1.1-.6-.4.2-.8.4-1.1.6ZM47,25.7c-.4-.2-.6-.4-1.1-.7,0,.5,0,.8.2,1.1.3-.1.5-.2.9-.4ZM114.7,60c-.6-.4-1.1-.3-1.2.4.4,0,.8-.2,1.2-.4ZM39.7,34.4c-.3.3-.3.6.2,1,0-.4-.2-.7-.2-1ZM118.3,61.9c0,.3-.2.4-.3.6,0,0,.2.2.3.2s.3-.2.3-.3c0-.2-.2-.3-.4-.5h0ZM114.3,42.4c0,.4.2.6.3.9.5-.4.5-.7-.3-.9ZM106.9,65.8c0,.5-.2.9.4,1,0,0,.3-.2.6-.3-.4-.2-.6-.4-1-.6h0ZM63.4,94.2c.5.3.8.4,1.2,0-.4-.7-.7,0-1.2,0ZM117.1,58.1l-.2.2c.2.2.3.3.5.5,0,0,.3-.3.5-.5-.4,0-.6,0-.8-.2ZM101.3,84.1v-.3h-.7v.2c.2,0,.4,0,.7.2h0ZM100.7,68.5l.2.2c.4,0,.5-.4.4-1-.3.4-.5.6-.6.8ZM117.7,59.6c-.3,0-.5-.3-.6-.3s-.2.3-.3.4c0,0,.3.2.4.2s.3-.2.5-.4h0ZM104.2,34.4c-.6.2-.6.5,0,.8v-.8ZM41.5,37.9c-.2,0-.3-.3-.5-.3s-.3,0-.6.2c.2.2.4.3.5.3.2,0,.3,0,.6-.3h0ZM32.4,50.1h-.2v.4c0,.2.2.3.3.5h0v-.8h0ZM100.8,31.5s.2-.1.2-.2c-.2-.2-.4-.3-.5-.5l-.2.2c0,.2.3.4.4.5h0ZM119.3,52.3c.7.4.9.3,1-.3-.3,0-.6.2-1,.3ZM120.5,49.7c-.5.2-.7.5-.4.8,0-.2.2-.4.4-.8ZM119,49.8h.3v-.7h-.2v.7h-.1ZM37.1,79.8s0,.2-.2.3c.2,0,.4.2.6.3v-.2s-.3-.2-.4-.4ZM112.1,47.1c0-.5-.3-.7-.7-.6.3.2.5.4.7.6ZM117.8,45.9c.2-.2.3-.3.3-.4,0-.2-.2-.3-.3-.4,0,0-.2.2-.2.3s0,.3.2.5ZM100.9,66.8c.5.5.7.4,1.1,0h-1.1ZM32.1,38.2s-.1,0-.2-.2c-.1.2-.3.3-.4.5h.1c.2,0,.3-.2.5-.3ZM32.4,65.3h.4v-.4h-.2c0,.2-.3.4-.4.6h0v-.2h.2ZM97.4,85.9h-.3c0,.2-.2.4-.4.7h.3c0-.2.2-.4.4-.7ZM58.9,88.6c0,.5.3.6.8.5-.3-.2-.5-.3-.8-.5ZM120.2,58.7c0,.4.3.8.8.3-.3,0-.6-.2-.8-.3ZM122.2,58.1v-.2h-.6v.3c.2,0,.4,0,.5-.2h0ZM53.5,88.8c-.2.4-.2.6-.4,1,.4-.2.5-.3.7-.4,0-.2-.2-.3-.3-.6ZM73.1,66.4v-.2c-.2,0-.4,0-.6-.2v.3h.6ZM43.8,31.3h.2c0-.2.2-.4.3-.6h-.2c0,.1-.2.3-.3.5h0ZM94.7,30.1c.2.2.5.2.8,0h-.8ZM89.7,30.8v-.2c0-.1-.3-.3-.4-.4,0,.1,0,.2-.2.4.2,0,.3.1.5.2h0ZM84.5,29.2c.2.1.3.2.4.2s.2-.2.3-.3l-.2-.2s-.3.2-.5.3ZM48.5,28c.2-.2.3-.3.3-.4v-.3h-.3v.6h0ZM45.7,86.5c0-.2.2-.3.3-.4v-.3s-.3,0-.4.2c0,0,0,.2.2.5h0ZM73,27.3l-.2-.2c0,.2-.2.4-.3.6,0,0,.2.1.2,0s.2-.3.3-.5h0ZM108.9,62.5c-.7-.4-.9,0-1.1.3.3,0,.6-.2,1.1-.3ZM37.1,74.6v.2c.2,0,.4-.2.6-.3v-.2c-.2,0-.4.2-.6.3ZM47.5,89.2s-.2.3,0,.3c0,0,.2,0,.3.2v-.3l-.3-.2h0ZM32.4,41.7h-.4v.7h.3v-.7h.1ZM108.1,37.2c-.3-.7-.6-.5-.9,0h.9ZM51.8,35.6c-.3-.3-.4-.3-.5-.4,0,0-.2.2-.2.3,0,0,0,.2.2.2s.3,0,.5-.2h0ZM102.2,34.4h0c0-.2-.2-.4-.3-.5,0,0-.2,0-.2.2,0,0,.3.2.4.3h0ZM117.9,53.3s.2,0,.2-.2-.3-.4-.4-.6h-.2c0,.2.2.4.4.7h0Z"/>
  <path class="st0" d="M125.9,44.9c-.4.3-.8.6-1.2.9v-1c-.4,0-.9.2-1.5.3-.2-.4-.4-.8-.6-1.4.3,0,.7-.3,1.2-.6v-.5h.2c1.2.2,2.3-.2,3-1.2,0-.2.3-.3.4-.4h.2c0,.8,0,1.6-.2,2.5-.3-.3-.5-.4-.7-.6h-.2c.4.5.8,1.1,1.2,1.6.5,0,1-.6,1.5,0-.5,1.1-1.5,1.6-2.5,1.1s-.4-.2-.2-.5v-.7c-.2-1.4-.6-1.6-2.2-1.3,0,.2.3.5.3.5.7-.2,1,.4,1.4,1v.2h-.1Z"/>
  <path class="st0" d="M133.6,53.5c0,.5-.1.9-.3,1.6-.6-.5-1-.9-1.4-1.4v-.2c.1,0-1.1,0-1.1,0-.1.7-.5.9-1.1.5s-1.2-.2-1.7.2h0c0-.7.6-1,1.3-1.2-.3-.8-.3-1,.2-1.2.6-.2.9,0,1.1,1.3.3-.4.6-.8,1-1.3-.6-.2-.9-.4-1.4-.5,0-.3.2-.6.3-1,.4,0,.8.2,1.1.2.2-.2.5-.6.8-.6s.6.4,1,.7c0,.8-.7.9-1.7.8.5.8.9,1.4,1.3,2.2h.7-.1Z"/>
  <path class="st0" d="M90.6,23.3s-.2.2-.4.4c-.3-.2.3-.7-.4-.7,0,0-.2-.3-.3-.5,0-.4-.3-.9-.5-1.5,0-.4.3-1,.5-1.7,1,.1.8,1.3,1.3,1.8-.4,0-.7.1-1,.1,0,1.2.8,1.7,2,1.6-.2-.3-.3-.6-.5-1,.5-.7,1.5-1,1.7-2,.4.3.7.6.9.7v1.9c-.6.3-1.1.7-1.7.9-.4.1-1,0-1.6,0Z"/>
  <path class="st0" d="M27.5,71.3c-.1.4-.3.8-.4,1.2,0,0,.2,0,.2.2.2-.2.5-.4.7-.6.2.5.4.9.6,1.4-.5.7-1,0-1.7-.2v1.2c-2.5-.5-3.4-2.2-2.7-4,.5,0,1,0,1.7-.2,0,.4.2,1,.3,1.5.4-.2.8-.4,1.3-.5h0ZM26.8,72.6c-.3,0-.6,0-1-.2.3.7.6.6,1,.2Z"/>
  <path class="st0" d="M19,51.5c.6.3,1.2,0,1.9-.2.3.3.5.6.9.8.3.2.7.2,1.1.3-.2.2-.4.6-.4.6-.4,0-.9.4-1.3,0-.3-.3-.6-.2-.8.2.2.3.5.5.7.8-1,1.1-1.3,1.1-2.6.2-.3-.2-.7-.2-1.2-.4.5,0,.7-.2,1.1-.3,0-.3-.1-.6-.2-1.1.9.2.6-.5.8-.9h0Z"/>
  <path class="st0" d="M21.3,37.3c.4-.6.7-1.1,1.1-1.6.9.7-.3,1.7.4,2.2-.4.4-.9.7-1.1,1.1-.3.8.8.6,1,1.2-.2,0-.4.2-.6.3-.5.3-.8,0-1.1-.3-.3-.3-.1-1-.8-1-.3.6.8,1.1,0,1.7-.8-.9-.8-2.8,0-3.6s.8,0,1.1,0Z"/>
  <path class="st0" d="M127.9,54.1s.2.3.3.3c.9.2,1.1.6.5,1.3-.3.4-.6.7-1.1,1.2-.2-.5-.6-1.1-.6-1.5,0-.6-.3-.7-.6-.7-1,.3-1.2-.4-1.6-1,.5-.3,1.1-.2,1.7.3.2-.5.4-.9.6-1.4h.9c0,.5-.8.8-.2,1.3h0v.2h0Z"/>
  <path class="st0" d="M26.4,42.9c-.2.4-.3.7-.5,1.1-.3-.2-.6-.4-1.1-.7-.3.4-.6.7-.9,1.1h0s0,.3-.1.4c-.2.6-.4.7-1.3.3,0,.5,0,.9.1,1.3-.4,0-.9.3-1.3-.4.9-.4.9-1.1.4-1.9.5-.2.9-.4,1.3-.6v-.8c.6.4,1.1.6,1.6,0,0-.4-.7-.9.3-1.2.2,1,.9,1.1,1.7,1.2h0s-.2.2-.2.2Z"/>
  <path class="st0" d="M69,22.9c-.3,0-.7-.2-.9.2-.2.3-.5.5-.9.9v1.6c-.8-.8-1.3-1.4-1.9-2.1-.2.2-.3.4-.5.6,0-.2-.2-.5-.2-.5.5-.6,1.1-1.2,1.5-1.7.5.3.9.6,1.5,1,.3-.7.5-1.3.8-1.9.4-.1.7,0,.7.4s-.3.6-.4,1c0,0,.2.3.3.5h0Z"/>
  <path class="st0" d="M110.5,78.7c0-.3-.2-.6-.4-1-.3,0-.6.2-.9.3,0-1.9.4-2.7,1.6-2.8,0,.2-.2.4-.3.6-.3.5-.2.9.2,1.3l.6.6c.3.3.4.6,0,1.1s-.7,1-1,1.5c-.2.3-.5.4-.8.2-.3-.2-.5-.5-.3-.8.4-.4.8-.7,1.3-1.1h0Z"/>
  <path class="st0" d="M121.3,41.6c-.2-.3-.4-.5-.6-.8.7.2.9-.3,1.3-.8.2.9.4,1.6.7,2.5h-.7v-1.5c-.5.8.3,1.8-.8,2.1,0,.4.2.8.3,1.2-.2,0-.4.3-.6.4-.6.2-.7,0-.7-.6s-.2-.4-.4-.5c-.4-1.2.7-1.6,1.5-2.1h0ZM120.5,42.6c0,.2-.3.2-.3.3s0,.2.2.3c0,0,.2,0,.2-.2s0-.2-.2-.5h.1Z"/>
  <path class="st0" d="M38.7,84.9c.2-.7.4-1.3.6-2,.5-.2.9.4,1.4,0,.3-.3,1.5.8,1.6,1.4,0,.4,0,.9-.4,1s-1,.2-1.3-.3c-.2-.3-.4-.6-.6-1-.4.5-.7.8-1,1.2h-.2v-.2h0Z"/>
  <path class="st0" d="M23.5,50.4c-.2-.2-.4-.3-.6-.5-.6,0-1.2.3-1.8.4,0-.4,0-.7-.5-1.2.5-.5.9-1.1,1.5-1.7.1.6.2,1.1.4,1.6.4,0,.9-.3,1.4-.4.2.2.5.5.9.8-.3.3-.7.6-1.2,1h0Z"/>
  <path class="st0" d="M98.3,92.9c.2.5.5,1,.9,1.8-.7,0-1-.2-1.4-.3-.4.3-.8.6-.8,1.3s-.4.6-.8.5c-.5,0-.7-.5-.4-.9.5-.5,1-.9,1.6-1.5h-1.1c0-.7,0-1,.6-1h1.4Z"/>
  <path class="st0" d="M36.9,22c0,.9-.3,1.8.5,2.5-.5.2-1,.3-1.5.5,0-.9-.3-1.7-1-2.3v-.6c.6-.7,1-.7,1.9-.1h0Z"/>
  <path class="st0" d="M109.4,73.4c.4-.2.8-.4,1.2-.6-.3-1,0-2,.7-2.8,1.1.7,1.1.8.2,1.4,0,.5.7,1-.2,1.4-.4.2-.6.9-1,1.4-.5,0-.8-.2-1-.9h.1Z"/>
  <path class="st0" d="M83,17.8c.2.3.4.5.7.9-.2.2-.4.6-.7.7-.8.2-1.3.6-1.5,1.4-1.1.4-1-.9-1.8-1.1,2.1-.8,2.4-1,3.3-2h0Z"/>
  <path class="st0" d="M15.7,26.6c0-.1-.2-.2-.3-.4-.2-.4,0-.6.4-.6,1,.1,1.4.9,1.9,1.6,0,.1.2.3.2.4-.7.4-1.3.7-2,1.1-.2-.3-.3-.5-.5-.7.3-.3.6-.6.9-1-.3-.2-.5-.3-.7-.4h.1Z"/>
  <path class="st0" d="M107,26.2c.6-.3.8-.4,1.1-.6,0-.3-.2-.6-.3-.9.2,0,.4,0,.4.2.2.4.3.9.4,1.3.8-.1,1.3.3,1.6,1.3-.4,0-.7-.1-1.1-.2,0,.2,0,.4-.2.6-.3,0-.7-.2-1.1-.3.2-.2.3-.5.4-.7-.4-.2-.8-.4-1.4-.8h.2Z"/>
  <path class="st0" d="M133.6,53.5s0-.4.2-.4h1.1c0-.7-.3-1.3-1-1.8.6-.9,1.1,0,1.5,0,.2.7.4,1.4.6,2.1.1.4,0,.8-.4,1.2-.7-.3-1-1.3-2-1.1h0Z"/>
  <path class="st0" d="M72.2,100.3c.5.4.9.8.7,1.4-.2.6-.7.7-1.3.3.2.3.3.5.4.7-1,0-1.2,0-1.6-1.7.9.5,1.3-.2,1.8-.8h0Z"/>
  <path class="st0" d="M37.2,8c.4.4.9.7,1.2,1.2.4.5,0,1.3-.3,1.5-.5.2-1.1,0-1.4-.7-.3-.7-.2-1.3.5-2Z"/>
  <path class="st0" d="M124.9,50.1c-.2-.5-1.1-.9-.5-1.7.5,0,1,.3,1.4.3,1,0,1.2.2,1.1,1.2v.3h-2Z"/>
  <path class="st0" d="M26.7,27c.6,1.3.7,2.2.4,2.9-.4-.5-.7-.9-1.1-1.4-.3-.5-.6-1-1.1-1.7.8,0,1.2.2,1.8.2Z"/>
  <path class="st0" d="M68.3,98.4c.7.4,1.2,1,.7,1.9-.3.5.5.6.8.9-.6.2-1,.3-1.4.4-.7-.6-.3-1.7-1.1-2.3.4,0,.7.2,1.2.4v-1.3h-.2Z"/>
  <path class="st0" d="M127.9,49.1c.3-.6.5-1,.8-1.5.1-.2.5-.3.6-.3.5.3,1,.6,1.4,1.1.3.3,0,.8-.2.8-.8-.2-1.5.3-2.2.2-.1,0-.2-.2-.3-.3h0Z"/>
  <path class="st0" d="M99.2,91.4c.5-.5.9-.5,1.2,0,.4.4.8.8,1.4.5,0,0,.3,0,.4.3-.3,0-.6,0-.8.2-.3,0-.5.4-.7.7,0,0-.4,0-.6-.2h-.6c-.5-.4-.3-1-.3-1.5h0Z"/>
  <path class="st0" d="M112.4,32.5c.2,0,.4-.3.6-.4h0c0,.3.2.6,0,.9-.2.9.3,1.1,1,1.2-.4.5-.8.9-1.3,1.5-.2-.6,0-1.2-.2-1.9-.5-.8-1.2.3-1.6-.5,0-.3.2-.6.8-.7.2,0,.4-.2.6-.3h0v.2h0Z"/>
  <path class="st0" d="M113.3,67.8c.5-.3,1-.5,1.6-.8.2.2.6.4.9.7-.5.6-1.4.9-1.8,1.7,0-.4,0-.7.2-1.2-.3,0-.6,0-.9.2,0,.3,0,.7-.2,1.2-.4-.4-.6-.9-1.4-.6.7-.5,1.1-.7,1.6-1h0s0-.2,0-.2Z"/>
  <path class="st0" d="M77.6,14.7c-.4-.4-.8-.7-1.2-1.1,0-.2.2-.4.4-.6.3-.4.6-.9,1.2-.5.5.3.7,1.2.3,1.7,0,.2-.4.3-.6.5h-.1Z"/>
  <path class="st0" d="M116.9,35.9c.3.2.7.3,1.1.5,0,.3.3.7.4,1.2,0,.3.2.7,0,1,0,.2-.4.3-.6.5,0-.2-.4-.4-.4-.6,0-.3,0-.5.2-1-.4-.3-.9-.5-1.5-.9-.2-.3.4-.4.6-.7h.2Z"/>
  <path class="st0" d="M91.9,95.1c.9.5,1,.6.8,1.5,0,.5-.2,1-.3,1.6-.8-1.3-.9-2.4-.4-3.2.8-1.2,0,0,0,0h0Z"/>
  <path class="st0" d="M22.9,35.3c-.6-.8-1.2-.4-1.9,0v-1c.6-.3,1.1-.6,1.7-1,.1.7,1.1,1.1.3,2.1h-.1Z"/>
  <path class="st0" d="M120.4,48.2c0-.4-.4-.8,0-1.1v-.4c0-.4.2-.6.6-.5.4,0,.9-.3,1.1.4-.4.3-.9.5-1.3.8.2.5.4.9.5,1.3,0,0-.2.2-.5.3v-.7c-.2-.4-.4-.5-.6,0h.2Z"/>
  <path class="st0" d="M84.3,116.8c-.8-.6-1.5-1.2-2.2-1.8.2-.4.5-.9.7-1.3.8.5,0,.8,0,1.2.8,0,1.2,0,1.6.9.2.4.3.8,0,1h0Z"/>
  <path class="st0" d="M130.6,41c-.5.8-1.2,1.1-1.9.9,0-.3-.1-.6-.2-.9.4-.5,1.3-.5,2,0h0Z"/>
  <path class="st0" d="M127.7,58.8c-.5.4-.9.7-1.2.9v-.2c.7-.4.5-.9.2-1.4,0-.3-.3-.6-.4-.9,1-.5,1.3,0,1.4,1.6Z"/>
  <path class="st0" d="M102.1,93.5c.2.4.3.6.4.8-.8,1-1.8.7-2.8.4.8-.4,1.5-.8,2.5-1.2h0Z"/>
  <path class="st0" d="M124.3,47.1c.5-.4.9-.7,1.3-1.1.8.5.6,1.1.4,1.8-.7,0-1.2-.2-1.7-.7Z"/>
  <path class="st0" d="M35,21.1c-.2.4-.2.7-.4.8-.2.1-.7.1-.7.1-.2-.8-.9-.6-1.5-.6-.2-.5-.3-.9-.5-1.3l.2-.2.8.8c.6.1,1.3.2,2,.4h.1Z"/>
  <path class="st0" d="M61.2,21.8c.8,0,.6.8.9,1.3-.3.3-.7.6-1.1.9-.4-.8-.7-1.4-1-2h.2c.2.1.4.2.6.4,0-.2.3-.4.4-.5h0Z"/>
  <path class="st0" d="M17.5,52.1v.2c-.2.4-1.9.7-2.2.3s-.1-1.1.3-1.1c.6,0,1.2.2,1.8.3,0,0,0,.2.1.3Z"/>
  <path class="st0" d="M17.3,49.9c.3.4.3.9,1,.8.5,0,.6.4.7.8h0c-.2,0-.3.2-.6.4-.6-.7-1.3-1-2.3-.7v-.7c.4-.4,1.1.4,1.2-.4h0s0-.2,0-.2Z"/>
  <path class="st0" d="M25.7,32.4c-.3-.2-.5-.3-.7-.4.1-.2.3-.4.5-.8-.2,0-.4-.2-.8-.4l1-1c.2.4.5.7.5,1.1s-.3.9-.5,1.4h0Z"/>
  <path class="st0" d="M20.9,81.3c0-.4-.2-.8-.2-1.2s.2-.5.3-.6c.2,0,.6,0,.8.2.5.3.3.8.1,1.2-.2.5-.6.5-1,.4Z"/>
  <path class="st0" d="M30.3,15.2c1.1.7,1.2,1.1.6,2-1.1-.6-1.2-.9-.6-2Z"/>
  <path class="st0" d="M130.9,46.5c.3.2.6.6,1,0s.7-.3,1-.5c.4.4.6.8.2,1.2-.4.4-.9.5-1.3,0-.3-.3-1.1,0-.9-.9h0v.2Z"/>
  <path class="st0" d="M88,10.3v1.2h-.7c-.2-.2-.3-.6-.3-.7.4-.3.9-.7,1.4-.9.2,0,.6.2.7.4,0,.2,0,.5-.2,1-.4-.4-.6-.6-.9-1Z"/>
  <path class="st0" d="M130.4,64.6c-.2-.3-.4-.6-.6-.9-.2-.3-.3-.5-.6-.9.4-.2.8-.4,1.1-.5.1.4.2.8.4,1.2s.4.7-.4,1.1h.1Z"/>
  <path class="st0" d="M110.8,22.1c.3.4.7.7,1.1,1.2,0,.4-.3.7-.8.8-.7-.9-.8-1.6-.3-2Z"/>
  <path class="st0" d="M58.7,17.1c-.3-.3-.4-.5-.5-.6l-.5-.5c0-.3,0-.6.3-.9,0-.2.4-.5.6-.5s.5.2.6.4c0,.1,0,.4.2.6-.3.1-.7.2-.9.4,0,.2,0,.5.2,1.1Z"/>
  <path class="st0" d="M106.7,80l-.2-.2v-.7c.3,0,.6,0,.9.2v-1h0c.3,0,.5-.3.9-.5v1.6c-.6.2-1.1.4-1.7.6h0Z"/>
  <path class="st0" d="M114.3,86.8c-.3-.4-.5-.8-.6-1.1,0-.2.2-.7.4-.8.2,0,.6,0,.8.3.4.4.3.8-.5,1.6h-.1Z"/>
  <path class="st0" d="M81.3,18c-.2.3-.3.6-.6.7-.2.1-.6.3-.7.2-.2,0-.4-.5-.3-.7,0-.4.3-.8.5-1.2.5.4.8.7,1.1,1Z"/>
  <path class="st0" d="M45.3,18.9c0,.7,0,1.3.2,2-.4,0-.8.2-1.3.3,0-.5-.2-.9.5-1.1.2,0,.3-.7.4-1.1h.2,0Z"/>
  <path class="st0" d="M112,37.6c-.3-.4-.6-.8-.9-1.2.2-.2.4-.5.7-.8.7.4.9.9.5,1.5,0,.2-.2.3-.3.5h0Z"/>
  <path class="st0" d="M13.3,30.8c-.4-.6-1.3-.9-.9-1.9.6-.3.9.3,1.3.7-.1.4-.3.8-.4,1.3h0Z"/>
  <path class="st0" d="M116.4,28c0-.1.3-.3.3-.4,0-.2,0-.4.2-.8.3.4.4.7.6,1,0,.2.3.4.4.7-.2.4-.5.6-.8.4s-.9-.1-.6-.8h0Z"/>
  <path class="st0" d="M28.1,36.7c.1-.5.3-1,.4-1.4-.2-.5-.3-.9-.5-1.3,0,0,.1,0,.2-.2.3,0,.6.3.9.4,0,.3-.1.6,0,.8,0,.7-.2,1.2-.9,1.6h-.1Z"/>
  <path class="st0" d="M113.3,29.8c0-.2,0-.5-.2-.6-.3-.3-.3-.6,0-.8.2-.2.6-.3.7-.2.2,0,.2.4.3.7v.7c0,.4-.4.4-.7.2h-.1Z"/>
  <path class="st0" d="M24.4,62.4c1.3,0,1.4,0,1.5,1.3-.7,0-1-.2-1.5-1.3Z"/>
  <path class="st0" d="M127.8,48.6c-.4.3-.7.2-.9,0-.5-.7.2-1,.4-1.6.3.4.5,1,.5,1.7h0Z"/>
  <path class="st0" d="M87,13.2c-.4.5-.8.8-1.4.4-.3-.3-.3-.8,0-1.1s.6-.2,1.3.7h0Z"/>
  <path class="st0" d="M55.9,12.5c-.7,0-1.4.2-1.5-.7,0-.2-.4-.3-.6-.5v-.5c.2,0,.5-.1.5,0,.5.5.9,1,1.6,1.7Z"/>
  <path class="st0" d="M122.3,39c.2,0,.5,0,.8.2-.7.4-1.3.5-1.8.2,0,0-.2-.3-.3-.4h.8c0-.4-.2-.9.6-1.1v1h0Z"/>
  <path class="st0" d="M25.4,46.3c-.9,0-1.2.9-1.9.5-.4-.2-.4-.5-.1-.9.6,0,1.2-.4,2,.4Z"/>
  <path class="st0" d="M99.2,91.4c-.2.3-.4.5-.6.9-.5-.4-.9-.7-.6-1.5.4,0,.8-.2,1.4-.4-.2.4-.3.7-.4,1h.2Z"/>
  <path class="st0" d="M19.4,82.2c-1.2-.6-1.4-1.4-.7-2.5.2.8.5,1.6.7,2.5Z"/>
  <path class="st0" d="M15.6,32.7c-.8-.7-.9-1-.3-1.5.1-.1.5-.2.6-.1.2,0,.2.4.3.6v.2c-.1.2-.3.5-.5.8h-.1Z"/>
  <path class="st0" d="M47.1,14.7c.3-.3.4-.6.6-.8.7.3.3.7,0,1-.3.6-.8.3-1.4.1v-1.3c.2.3.3.5.6.9h.2Z"/>
  <path class="st0" d="M101.4,96c.4.5.9.9,1.4,1.6-.7-.2-1.3-.3-1.7-.5v-1h.3,0Z"/>
  <path class="st0" d="M62.5,24.6c-.5-1.2.8-.8,1.1-1.3,0,.3.2.6.3,1-.5.1-1,.2-1.4.3Z"/>
  <path class="st0" d="M57.2,9.2c-.4.4-.6.8-.8.8-.3,0-.6-.3-.8-.6,0-.1.2-.6.2-.6.4,0,.8.2,1.4.4Z"/>
  <path class="st0" d="M116.7,24.4c0,.3.3.5.4.8l-.2.2c-.3,0-.6-.3-1,0-.2.2-.7.2-.8-.2,0-.4.2-.5.6-.6.3,0,.6-.2,1-.3h0Z"/>
  <path class="st0" d="M60,108.2c.3-.5.5-1,.8-1.5h.6c0,.2.2.6,0,.7-.3.3-.8.6-1.2.9,0,0-.2,0-.3-.2h.1Z"/>
  <path class="st0" d="M113.4,37.1c0-.7.5-.3.6-.5.2-.2.2-.5.4-.9.3.6.5,1,.8,1.5h-1.8Z"/>
  <path class="st0" d="M129.5,60.1c.3-.4.6-.8.9-1.1.5,0,.7.4.5.8-.2.6-.7.6-1.2.7,0,0-.2-.2-.2-.3h0Z"/>
  <path class="st0" d="M125.1,41.6c.3-.6.6-1.1,1-1.9.2.5.4.9.5,1.2-.6.5-1.1.8-1.5.7Z"/>
  <path class="st0" d="M29.2,65.4c.3,0,.7,0,.9-.3.5-.4.8,0,1.2.2-.6.2-1.3.5-2,.7,0-.3,0-.5-.1-.7h0Z"/>
  <path class="st0" d="M28.3,30v1.4c-.5,0-.8-.4-.9-1.2.3,0,.6-.1.9-.2h0Z"/>
  <path class="st0" d="M117.9,65.9c.2.4.6.7.2,1.2h-.3c-.6,0-.4-.7-.6-1.1-.2-.6,0-.7.6-.6v.3h0v.2h.1Z"/>
  <path class="st0" d="M122.7,45.5c1.1,0,1.1.7,1.5,1.1-.4,0-.7,0-1.2.2,0-.3-.2-.7-.3-1.3Z"/>
  <path class="st0" d="M42.7,24.8v-1.5c.3-.2.7-.3.9.1.2.7-.2,1-.9,1.4Z"/>
  <path class="st0" d="M17.4,49.9c.4-.2.4-.4,0-.7s-.8-.7-.5-1.4c.7.5,1.2,1.1,1,2.1h-.6s.1,0,.1,0Z"/>
  <path class="st0" d="M77.3,21.8c-.6-.5-.2-1.4-.7-2h.6c.2.6.4,1.3.5,1.9,0,0-.3,0-.4.1Z"/>
  <path class="st0" d="M40.7,24.4c0-.6.3-1.2.4-1.7.3.3.5.6,1,1.1,0,.7-.8.6-1.4.6Z"/>
  <path class="st0" d="M80.8,15.2c-.5-1.1.8-1.1.7-1.8.5,0,.6.3.5.7,0,.3-.2.6-.6.3,0,0-.3.4-.6.7h0Z"/>
  <path class="st0" d="M42.6,86.8c.2.3.3.7.6,1.2-.5,0-1,.3-1.1.2-.5-.5,0-.9.2-1.3h.3Z"/>
  <path class="st0" d="M31.1,75.5c-.7-.3-1-.8-.7-1.3s.5,0,.7,1.3Z"/>
  <path class="st0" d="M104.8,21.2c.3.2.6.3.8.5v.8c-.2,0-.6,0-.7-.1-.2-.3-.2-.6-.3-1,0,0,.2-.1.3-.2h-.1Z"/>
  <path class="st0" d="M117.3,23.1c.8.4.8.8.7,1.2,0,.4-.5.5-1,.2,0-.4.2-.9.3-1.5h0Z"/>
  <path class="st0" d="M111.1,94.6c-.3-1,0-1.6.6-1.7.4.7-.3,1.1-.6,1.7Z"/>
  <path class="st0" d="M112.4,32.5c-.5,0-.9,0-1.1-.7.4-.2.7-.4,1.1-.5.6.5.2.8,0,1.2h0Z"/>
  <path class="st0" d="M98,97.1v.2c0,.5-.2,1-.8.8-.5-.2-.5-.7-.2-1.2.4,0,.8.2,1.2.2h-.2Z"/>
  <path class="st0" d="M19.3,45.5c-.1,0-.3-.4-.3-.4.3-.3.3-.7,0-1.1,0,0,.2-.4.4-.7.2.6.4,1,.5,1.5-.2.2-.4.5-.7.7h.1Z"/>
  <path class="st0" d="M133,56.7c-.3.7-.9,1.2-1.3,1-.6-.3-.2-.7,0-1h1.3Z"/>
  <path class="st0" d="M114.9,21.9c-.6.4-.9.6-1.4,1-.2-.3-.4-.6-.6-1h2Z"/>
  <path class="st0" d="M130.9,46.5c-.2.2-.7,0-.7.5s-.5.3-.8,0c.2-.3.3-.6.5-.8.1-.2.4-.2.6-.3.1.2.2.5.3.7h0Z"/>
  <path class="st0" d="M5.7,25.6c0-.4,0-.8.2-1.2,0-.1.4-.2.5-.2s.3.3.3.4c0,.4-.3.7-.5,1.1h-.5Z"/>
  <path class="st0" d="M33.5,29.1c-.7-.5-.9-1.1-.7-1.6.9.2.7.9.7,1.6Z"/>
  <path class="st0" d="M27.9,11.6c.3.9.3,1.1-.8,1.5-.2-.7.2-1.1.8-1.5Z"/>
  <path class="st0" d="M28.6,37.8c.2.6.4,1,.6,1.5-.3,0-.5.2-1,.4.3-.7-.2-1.3.4-1.9Z"/>
  <path class="st0" d="M80.5,21.5c.3.4.6.6.7.9,0,.2-.3.5-.5.5s-.6-.2-.6-.4c0-.3.2-.5.4-1Z"/>
  <path class="st0" d="M29.2,72.1c-.5,0-1-.2-.8-.9,0-.2.5-.3.7-.2.6.3.2.7,0,1.1h0Z"/>
  <path class="st0" d="M40.8,86.3c-.5.6-.9.3-1.3,0,0-.3.3-.6.4-.9.3.3.5.6.9.9Z"/>
  <path class="st0" d="M119.4,40.5c-.2-.4-.3-.7-.5-1.2.4,0,.7-.2,1-.2.3.3,0,.9-.5,1.4h0Z"/>
  <path class="st0" d="M134.3,41.6c-.4.6-1,.6-1.7.6l1.5-1.5c0,.3,0,.6.1,1h0Z"/>
  <path class="st0" d="M55.9,14.4h-.4c-.3-.1-.8-.1-.7-.6,0-.2.4-.4.6-.3.5,0,.9.3.5.9Z"/>
  <path class="st0" d="M58.2,102.3c.2-.6.8-.9,1.2-.7,0,0,.3.3.2.5,0,0-.3.3-.4.3-.4,0-.7,0-1.1-.2h0Z"/>
  <path class="st0" d="M64.4,100.1c.2-.3.3-.7.6-.9h.7c0,.3-.2.6-.4.8h-.9,0Z"/>
  <path class="st0" d="M26.8,38.3c-.1-.7,0-1.5.2-2.5.3.5.2,1-.2,2.5Z"/>
  <path class="st0" d="M120.6,27.6c-.6.2-1,.3-1.6.5.2-.7.4-1.1,1-1.2.2,0,.4.4.7.7h0Z"/>
  <path class="st0" d="M.2,50.7c0-.6-.1-1-.2-1.6.6.3.9.4,1.5.6-.5.4-.8.6-1.3,1Z"/>
  <path class="st0" d="M102.6,21.3c-.4.2-.8.7-1.2.2v-.7c.6-.4.8.2,1.2.5Z"/>
  <path class="st0" d="M21.1,32.5c-.7-.3-.9-.8-.6-1.6.2.6,1.1.8.6,1.6Z"/>
  <path class="st0" d="M107.7,88.5c.5,0,.8-.2,1.2-.3.2.7-.4.9-.7,1.5-.2-.5-.3-.8-.5-1.2Z"/>
  <path class="st0" d="M82.8,9.3v.8c0,.2-.3.4-.5.5,0-.2-.3-.4-.3-.7s.2-.7.8-.6Z"/>
  <path class="st0" d="M134.2,41.7c.2,0,.4-.3.6-.4h.6v.7c-.2.2-.5.3-.9.4,0-.3-.1-.5-.2-.8h-.1Z"/>
  <path class="st0" d="M10.9,45.1c-.1.2-.3.5-.5.7-.7-.5-.5-1-.2-1.6.3.4.5.7.7.9h0Z"/>
  <path class="st0" d="M43,25.5c.5-.2.7,0,.8.4,0,.2,0,.4-.2.6-.2-.1-.5-.2-.5-.4v-.7h0Z"/>
  <path class="st0" d="M121.1,65.6c-.3.7-.6,1.3-.9,1.9-.2-.9,0-1.6.9-1.9Z"/>
  <path class="st0" d="M12.4,56.5c.2-.5.5-.5.8-.3.4.3.9.7.4,1.6-.1-.5-.2-.8-.3-1.1h-.8v-.2h0Z"/>
  <path class="st0" d="M123.4,64.6c.2-.4.5-.8.8-1.2.2.2.4.4.7.6-.5.3-.9.5-1.3.8l-.2-.2Z"/>
  <path class="st0" d="M111.7,88.1c.5.5.5,1,0,1.3-.5-.4-.3-.8,0-1.3Z"/>
  <path class="st0" d="M113,32.1c.2,0,.4,0,.6-.1,0-.3-.2-.5-.4-.8.7,0,.8.5,1.1.8-.4.5-.8.5-1.3.2-.7-.5,0,0,0,0h0Z"/>
  <path class="st0" d="M135.6,55.4c-.5.2-.7.4-1,.5,0,0-.3-.3-.3-.5,0-.4.3-.5.7-.5s.3.2.7.5h0Z"/>
  <path class="st0" d="M116.3,31.9c-.4.4-.6.6-.8.9-.2-.2-.4-.4-.8-.9h1.6Z"/>
  <path class="st0" d="M19.8,68.1c.3.3.6.6.8,1v.5c-.2,0-.5,0-.6-.2v-.8c0-.2-.1-.3-.2-.5h0Z"/>
  <path class="st0" d="M34.6,12.6c.6.5.6,1,0,1.4-.2-.4-.6-.8,0-1.4Z"/>
  <path class="st0" d="M73.8,107.1c0-.9.9-.6,1.2-1.1,0,.7-.4,1.1-1.2,1.1Z"/>
  <path class="st0" d="M10.8,62.7c-.3.3-.4.6-.7.7-.1,0-.4-.2-.7-.3.2-.2.3-.4.5-.5h.9Z"/>
  <path class="st0" d="M56.5,106.6c.5-.3.9-.3,1.1.2,0,0-.2.6-.4.6-.6,0-.7-.4-.7-.8Z"/>
  <path class="st0" d="M2.3,47c-.4.2-.7.5-.8.4-.2-.2-.4-.4-.5-.7,0,0,.4-.5.5-.4.2,0,.4.4.7.7h0Z"/>
  <path class="st0" d="M43,95.1v.2c0,.6-.4.8-.9.7,0,0-.2-.3-.2-.4,0-.6.6-.5,1-.5h.1Z"/>
  <path class="st0" d="M83.5,11.2c-.4.4-.8.7-1.2,1.1,0-1,.4-1.4,1.2-1.1Z"/>
  <path class="st0" d="M31.1,23.8c.2.3.4.6.6,1,0,.1,0,.4-.1.4-.2,0-.5,0-.5-.1-.1-.4-.2-.8-.2-1.2h.3,0Z"/>
  <path class="st0" d="M19.5,46.9h.9c.1,0,.2-.3.3-.5,0,0,.1,0,.2.2v1.1c-.7.3-.8-.3-1.5-.7h.1Z"/>
  <path class="st0" d="M119.2,36.8c.2-.5.3-.7.4-1.1.3.2.6.4,1.1.8-.6,0-1,.2-1.5.4h0Z"/>
  <path class="st0" d="M101.4,23.7c.2.2.4.4.6.7-.4.3-.8.7-1.1.3-.5-.6.4-.6.5-1Z"/>
  <path class="st0" d="M126.8,55.8c-.5.2-.8.3-1.1.3s-.3-.2-.5-.4c.2-.2.4-.4.5-.4.3,0,.6.3,1.1.5Z"/>
  <path class="st0" d="M27.6,71.3c-.2-.5-.4-.9-.7-1.6.9.5,1.1,1.1.6,1.6-.7.8,0,0,0,0h.1Z"/>
  <path class="st0" d="M61.2,21.8c0-.1-.3-.2-.6-.5.6-.2,1-.3,1.5-.4.2.4.2.7-.2.6-.4,0-.6-.1-.8.3h0Z"/>
  <path class="st0" d="M94.4,96.4c-.2.4-.4.7-.7,1.1-.2,0-.4-.2-.7-.4.4-.4.8-.7,1.1-1l.2.2h0Z"/>
  <path class="st0" d="M89.2,100.5c-.4,0-.7,0-1.2.2,0-.6.3-.9.8-.8.2,0,.4.2.6.4,0,0,0,.2-.2.3h0Z"/>
  <path class="st0" d="M64.8,104c-.3.3-.5.5-.6.5-.2,0-.6-.2-.6-.4s.2-.4.4-.7c.2.2.5.3.8.6Z"/>
  <path class="st0" d="M129.7,34.2c-.2,1-.9.4-1.5.5.7-.5,1.2-.6,1.5-.5Z"/>
  <path class="st0" d="M67.4,20.2c-.5,0-.8-.2-.7-.7,0-.5.3-.7.8-.6v1.3s0,0-.1,0Z"/>
  <path class="st0" d="M17.9,41.6c-.2-.3-.4-.6-.6-1h1.2c-.1.3-.2.6-.3.9h-.3Z"/>
  <path class="st0" d="M47,20.1c-.2-.4-.8-.5-.4-1,.4-.5.7,0,1,.2-.2.3-.4.5-.6.8Z"/>
  <path class="st0" d="M26.6,18.8v.9h-1.1c-.1-1.1.7-.6,1.1-.9Z"/>
  <path class="st0" d="M55.6,16.6c.6.6.4.9,0,1.1h-.5c-.3-.6.3-.6.6-1h0Z"/>
  <path class="st0" d="M59.3,24.9c-.2-.3-.4-.6-.7-.9v-.2c.5.2.9.4,1.5.7-.4.2-.6.3-1,.4h.2Z"/>
  <path class="st0" d="M86.7,120.4c0-.6.2-.9.7-.7.2,0,.4.4.4.5-.2.6-.7.3-1.1.2Z"/>
  <path class="st0" d="M56.1,16.4c-.2-.3-.5-.6-.8-1,.3-.2.6-.3.9-.5v1.4h-.2,0Z"/>
  <path class="st0" d="M10.6,51.5c-.3.5-.6.7-1,.3-.1,0-.1-.4,0-.5.4-.4.7,0,1,.2Z"/>
  <path class="st0" d="M23.7,35.4c.8.2.3.9.9,1.2-.3.2-.5.2-.6.3,0-.5-.1-1-.2-1.6h0Z"/>
  <path class="st0" d="M32.4,23c.4-.2.7-.4,1.2-.6,0,.5-.2.8-.3,1.3-.4-.3-.6-.4-.9-.7Z"/>
  <path class="st0" d="M21.4,59.1c0-.6.2-1,.8-1.3,0,.9-.3,1.3-.9,1.3h.1Z"/>
  <path class="st0" d="M42.2,106.3c-.4.3-.6.5-.8.5s-.4-.3-.5-.6c0,0,.3-.4.4-.4.2,0,.4.2.8.4h0Z"/>
  <path class="st0" d="M90.2,17.4c-.4.2-.5.3-.9.4,0-.5,0-.8-.2-1.2.8-.1.6.5,1,.8h0Z"/>
  <path class="st0" d="M64.5,102.4c-.2-.2-.5-.4-.7-.7.3-.5.6-.5.9-.3.3.3.2.6-.2.9h0Z"/>
  <path class="st0" d="M84.5,1c.4.3.6.6.3,1h-.5c-.4-.3-.4-.7.2-1.1h0Z"/>
  <path class="st0" d="M120.7,63.7c-.3.2-.6.3-.9.5-.3-.4-.4-.8,0-1,.3,0,.7-.2.9.5Z"/>
  <path class="st0" d="M84.3,109c-.3-.5-.5-.8,0-1.1h1l-1,1h0Z"/>
  <path class="st0" d="M84.9,103.8c.3-.3.5-.5.7-.6.4.2.5.6.3.8-.3.4-.6.2-1.1-.2h0Z"/>
  <path class="st0" d="M86.5,20.2v.5c0,.2-.3.4-.5.5,0-.1-.3-.3-.3-.4,0-.3,0-.6.5-.5h.4,0Z"/>
  <path class="st0" d="M89.7,103.1c-.4,0-.7.2-1.1.3v-1.1c.4.3.7.5,1.1.8Z"/>
  <path class="st0" d="M131.3,59.3c.5-.4.8-.2,1,0,0,.2,0,.5-.1.7h-.3c-.2-.3-.4-.6-.6-.9h0v.2h0Z"/>
  <path class="st0" d="M117.3,32.5v-.7c0-.2.3-.4.5-.6,0,0,.2,0,.3.1,0,.2-.2.5-.3.7,0,0-.2.2-.5.5Z"/>
  <path class="st0" d="M17.7,32.4c-.1-.3-.3-.5-.3-.6.2-.6.8-.3,1.3-.3-.3.3-.6.5-1,.9Z"/>
  <path class="st0" d="M10.8,45.1c.2,0,.4-.2.6-.3.1.3.3.5.4.9-.3,0-.5.2-.8.3,0-.4-.1-.7-.2-1h0Z"/>
  <path class="st0" d="M33.2,82c-.4.2-.6.3-.7.3-.2,0-.4-.4-.6-.6.1,0,.3-.4.4-.3.2,0,.4.3,1,.6h0Z"/>
  <path class="st0" d="M42.3,90.8v-.9h1.2c0,.8-.8.3-1.1.9h-.1Z"/>
  <path class="st0" d="M43,93.6c.3.4.6.7.8,1.1,0,0-.2.2-.3,0-.4-.2-.8-.5-.5-1.3h0v.2Z"/>
  <path class="st0" d="M26.7,16.2c.3.3.6.7.9,1.1-.7,0-1-.4-.9-1.1Z"/>
  <path class="st0" d="M117.9,65.9v-.3s-.3-.2-.6-.4c.4-.2.6-.3,1-.4,0,.4.2.7.3,1.1,0,0-.7,0-.7,0Z"/>
  <path class="st0" d="M39.6,20.5c-.3.1-.5.3-.8.4,0-.2-.3-.4-.2-.6.2-.6.6-.1,1-.2v.3h0Z"/>
  <path class="st0" d="M114.2,25.3c-.5-.1-.8-.4-.6-.9,0-.1.5-.3.6-.2.4.3.2.7,0,1h0Z"/>
  <path class="st0" d="M17.3,37.2c-.3.4-.4.7-.6.9-.2,0-.4-.3-.5-.4,0-.5.3-.6,1-.5h.1Z"/>
  <path class="st0" d="M23.9,30.7c.3.4.5.8.4,1.2-.3-.1-.5-.2-.8-.4.1-.2.2-.5.4-.8Z"/>
  <path class="st0" d="M91.6,100.1c0,.5-.2,1-1.1.8.3-.4.6-.7.8-1,0,0,.2.2.3.2Z"/>
  <path class="st0" d="M115.5,24.3c-.5-.3-.8-.4-1.2-.7.7-.2,1.1,0,1.2.7Z"/>
  <path class="st0" d="M42.9,13.2c.2.3.4.6.4.8s-.3.4-.4.3c-.2,0-.4-.3-.4-.5s.2-.3.4-.7h0Z"/>
  <path class="st0" d="M22.8,60.8c.3,1,.2,1.1-.6,1.3.2-.4.4-.7.6-1.3Z"/>
  <path class="st0" d="M38.2,81c.6.2,1,.4.6.8h-.5v-.9h0Z"/>
  <path class="st0" d="M52.8,25c.4-.6.7-.8,1-.4v.6c-.3,0-.6-.1-1-.2Z"/>
  <path class="st0" d="M132.3,63.5c-.1-.5.1-.9.7-1,.2.6-.5.6-.7,1Z"/>
  <path class="st0" d="M13.5,62.2h-1.2c.2-.3.4-.7.5-.7.3,0,.5.3.8.4,0,0,0,.2-.1.2h0Z"/>
  <path class="st0" d="M23.3,39.7c.2.4.3.7.5,1.1-.7,0-.9-.4-.5-1.1Z"/>
  <path class="st0" d="M107.8,76c0,.3.3.6.4.8-.2,0-.4.2-.5.2-.4-.3-.3-.6,0-1h0Z"/>
  <path class="st0" d="M72.2,19.4c-.2-.3-.4-.6-.6-1,.6,0,.8.3.6,1Z"/>
  <path class="st0" d="M65.7,107.3c-.2-.3-.3-.5-.3-.6.2-.2.4-.3.6-.4,0,0,.3.3.2.3,0,.2-.3.4-.5.7Z"/>
  <path class="st0" d="M68.7,105.8c.4.3.7.5,1,.7-.8.4-.9.4-1-.7Z"/>
  <path class="st0" d="M63.5,105.6c-.5.2-.8.4-1.4.6.2-.6.4-.9.6-1.5.3.4.5.6.8.9Z"/>
  <path class="st0" d="M135.1,56.8c-.3.3-.5.5-.8.8-.1-.3-.3-.5-.3-.6.1-.6.5-.7,1.1-.2Z"/>
  <path class="st0" d="M18.9,38.1c0,.6,0,1-.6,1s-.3-.2-.3-.3c0-.5.4-.6.9-.7Z"/>
  <path class="st0" d="M15.5,47.4c-.3.2-.4.4-.5.5-.2-.2-.4-.4-.5-.6l.3-.4c.2,0,.4.3.7.5Z"/>
  <path class="st0" d="M130.3,43.8c0,.3-.2.6-.2.9-.2-.2-.5-.4-.8-.6.3,0,.5-.3.8-.4,0,0,.1,0,.2.2h0Z"/>
  <path class="st0" d="M16.9,44.4v-1.1c.3,0,.5,0,.8.2-.2.4-.4.6-.6.9,0,0-.2,0-.2,0Z"/>
  <path class="st0" d="M90.4,98.5c0-.2-.3-.4-.4-.7.3,0,.5-.3.8-.4l.2.2c-.2.3-.4.6-.6.9h0Z"/>
  <path class="st0" d="M119.4,38.6c.3-1.1.9,0,1.3-.4,0,.2-.6.3-1.3.4Z"/>
  <path class="st0" d="M41.2,88.9c.5.3.5.6.2,1h-.3c-.4-.4-.2-.7.2-1h-.1Z"/>
  <path class="st0" d="M24.9,66.3c0,.5-.2.9-.3,1.4-.1-.5,0-1,.3-1.4Z"/>
  <path class="st0" d="M76,19.5c-.6-.3-.8-.5-.5-.9,0-.1.3,0,.5,0v1h0Z"/>
  <path class="st0" d="M25.5,33.9c.2.2.4.4.4.5,0,.2-.3.3-.5.4-.1-.2-.3-.3-.3-.5s.2-.3.4-.5h0Z"/>
  <path class="st0" d="M90.4,98.6h.9v.3c-.3,0-.6.2-1.2.4.2-.5.2-.7.3-.9h0s0,.2,0,.2Z"/>
  <path class="st0" d="M67.4,20.2c.3-.4.6-.8,1.1-1.4,0,.8-.5,1.3-1.1,1.4-.9.2,0,0,0,0Z"/>
  <path class="st0" d="M85,99.1c.4,0,.7,0,1,.4-.6.5-.9.2-1-.4h0Z"/>
  <path class="st0" d="M59,20c-.2.2-.4.4-.5.3-.2,0-.4-.3-.4-.4,0,0,.3-.4.4-.4.2,0,.3.3.5.5Z"/>
  <path class="st0" d="M46.1,104.3c-.3-.5-.5-.9-.7-1.2.9,0,1,0,.7,1.2Z"/>
  <path class="st0" d="M21.5,69.9h.9c.1,0,.2.3.3.4-.2,0-.4.2-.5,0-.2,0-.4-.3-.7-.4v-.2s0,.2,0,.2Z"/>
  <path class="st0" d="M114.5,83.3c0,.5,0,.8-.5.7,0,0-.3-.2-.3-.3,0-.5.3-.6.8-.4Z"/>
  <path class="st0" d="M123.4,28.8c.2.1.5.3.7.4v.3c-.3,0-.5.1-.8,0v-.6l.2-.2h0Z"/>
  <path class="st0" d="M35,84.1c.5-.3.9-.2,1.1.3-.5.2-.9.2-1.1-.3h0Z"/>
  <path class="st0" d="M75.5,10.1v-1.2h.3c.3.4,0,.7-.3,1.2Z"/>
  <path class="st0" d="M48.8,10.9c-.3-.4-.4-.8,0-1.2.5.4.4.7,0,1.2Z"/>
  <path class="st0" d="M136.8,46.9c.5-.2,1-.7,1.4-.3v.4c-.2,0-.5-.2-.7-.2h-.7Z"/>
  <path class="st0" d="M28.5,23.8c-.2-.2-.4-.4-.6-.7.3-.2.5-.3.8-.5.3.4.3.8-.2,1.2Z"/>
  <path class="st0" d="M27.5,69.6c.3,0,.7-.2,1-.4.3.4.5.7.1,1.1-.4-.2-.8-.5-1.2-.7h.1Z"/>
  <path class="st0" d="M75.8,12.4c0,.6-.5.8-.7,1.2,0-.6.2-1,.7-1.2Z"/>
  <path class="st0" d="M72.6,105.2c0-.4,0-.8-.2-1.3.6.5.7.9.2,1.3Z"/>
  <path class="st0" d="M59.3,10.5c-.2.2-.4.5-.5.4-.2,0-.4-.3-.4-.5,0,0,.2-.4.3-.4.2,0,.3.2.6.4h0Z"/>
  <path class="st0" d="M11,62.4c.4-.5.8-.5,1.1,0h-1.1Z"/>
  <path class="st0" d="M125.3,62.1v1c-.5-.2-.5-.5,0-1Z"/>
  <path class="st0" d="M64.8,17c-.2.3-.3.5-.5.8-.3-.5-.2-.7.5-.8Z"/>
  <path class="st0" d="M105.2,19.6c-.3.1-.5.3-.6.3s-.2-.2-.4-.3c.2-.2.4-.3.6-.4,0,0,.2.2.4.5h0Z"/>
  <path class="st0" d="M121.7,62.9h0v.8h-.2c0-.3-.3-.7-.5-1.1.4,0,.6.2.8.3h-.1Z"/>
  <path class="st0" d="M55.2,23.6h-.2c-.3,0-.7.2-.9-.2,0,0,0-.3.2-.4.5-.2.7.2.9.5h0Z"/>
  <path class="st0" d="M51.9,24.1v.2c0,.3,0,.6-.3.6s-.2-.4-.4-.6v-.2h.7Z"/>
  <path class="st0" d="M111.8,25c.7,0,.9.3.7.9-.2-.3-.4-.5-.7-.9Z"/>
  <path class="st0" d="M53.4,27.3h0c-.2-.3-.4-.5-.7-1,.5.2.8.2,1.1.4-.2.3-.3.5-.4.7h0Z"/>
  <path class="st0" d="M112.8,28.2c-.4.1-.4.9-1.1.4.4-.1.3-1,1.1-.4Z"/>
  <path class="st0" d="M116.9,35.9c-.6,0-1.1,0-1.6-.3.7-.3,1.1.3,1.6.3h0Z"/>
  <path class="st0" d="M24.7,38.2c-.1.8-.6.6-1.2.6.3-.6.7-.7,1.2-.6Z"/>
  <path class="st0" d="M137.5,40.4c.1-.4.3-.7.4-1.1.2.2.5.4.4.5,0,.4-.2.7-.9.6h.1Z"/>
  <path class="st0" d="M19.1,48.6c-.5-.3-.7-.7-.2-1.3-.1.5.9.8.2,1.3Z"/>
  <path class="st0" d="M11.3,48.5c0,.5-.1.8-.2,1.1-.5-.4-.4-.8.2-1.1Z"/>
  <path class="st0" d="M127.4,50.1c.7,0,.8.4.6.9-.5,0-.7-.3-.6-.9Z"/>
  <path class="st0" d="M82.2,110.9h1.2c-.3.5-.7.5-1.2,0Z"/>
  <path class="st0" d="M131.2,56.2c-.2.3-.4.6-.8,1-.1-.7.2-1,.6-1.2,0,0,.1,0,.2.2Z"/>
  <path class="st0" d="M2.2,53.1c.2.3.3.4.3.6s-.2.3-.3.4c0,0-.4-.2-.4-.3,0-.2.2-.4.3-.7h0Z"/>
  <path class="st0" d="M135.3,48.3v.8h-.5c-.2-.3-.2-.6.4-.8h.1Z"/>
  <path class="st0" d="M123,30c.2,0,.5,0,.9.2-.3.2-.4.4-.6.5,0-.2-.3-.3-.4-.5v-.2h0Z"/>
  <path class="st0" d="M88.6,15c-.2.2-.3.4-.5.4s-.4-.3-.3-.4c0-.2.3-.3.4-.5,0,.1.2.3.4.4h0Z"/>
  <path class="st0" d="M135.6,50.1c.5,0,.7.4.7,1.1-.3-.4-.4-.7-.7-1.1Z"/>
  <path class="st0" d="M32.2,12.6c0,.3,0,.7.2,1.2-.8-.4-.6-.8-.5-1.2h.3Z"/>
  <path class="st0" d="M83.8,105.1c-.4,0-.8.2-1.1.4v-.3c.4,0,.8-.2,1.2-.3v.3h0Z"/>
  <path class="st0" d="M8.7,66.4c-.2-.3-.4-.5-.7-.9.5,0,.7.3.7.9Z"/>
  <path class="st0" d="M119.8,64.8c0,.6-.2.9-.3,1.2h-.2c0-.2-.3-.5-.3-.7s.4-.3.8-.6h0Z"/>
  <path class="st0" d="M80,11v1.4c-.6-.6-.5-1,0-1.4Z"/>
  <path class="st0" d="M76.3,10.4c.5.3.7.5.4.9-.5-.1-.5-.4-.4-.9Z"/>
  <path class="st0" d="M14.1,65.5c-.3,0-.5.2-1,.4.1-.8.4-1,.9-.8,0,0,0,.2.1.3h0Z"/>
  <path class="st0" d="M73.8,108c.3-.2.6-.4,1-.7,0,1-.5.8-.9.9v-.2h0Z"/>
  <path class="st0" d="M15.7,26.6h0v.8h-.2l-.3-.6c.2,0,.4-.2.6-.3h-.1Z"/>
  <path class="st0" d="M64.4,8.4c-.2.2-.3.5-.6.8-.3-.7,0-.9.3-1,0,0,.2.1.3.2Z"/>
  <path class="st0" d="M29.4,24.7c.3.2.7.5,1,.7-.9.2-1,0-1-.7Z"/>
  <path class="st0" d="M38.8,2.6c-.2-.8,0-.9.9-.7-.4.3-.7.5-.9.7Z"/>
  <path class="st0" d="M35,84.1c-.5-.3-.5-.6,0-1.1v1.1h0Z"/>
  <path class="st0" d="M59.1,22.7c.4.1.5.4.3.9,0-.4-.2-.6-.3-.9Z"/>
  <path class="st0" d="M38.1,22.6c0,.4-.3.8-.4,1.4-.3-.7,0-1.1.4-1.4Z"/>
  <path class="st0" d="M23.3,42.3c-.6,0-.9.2-1.3.3.1-.5.6-.6,1.3-.3Z"/>
  <path class="st0" d="M101.1,17.7c.5.5.5.8,0,1,0,0-.3,0-.4-.1,0-.2.2-.5.3-.9h0Z"/>
  <path class="st0" d="M25.3,60.1h-.7c0-.2.2-.4.2-.6.2,0,.4.2.6.3,0,0,0,.2-.1.4h0Z"/>
  <path class="st0" d="M118.6,17c-.3,0-.5-.1-.8-.2v-.3h.8v.5h0Z"/>
  <path class="st0" d="M104,95.5c0,.3-.3.6-.5.9,0-.4,0-.7.5-.9Z"/>
  <path class="st0" d="M40.5,15.5v.9h-.3v-.8h.4-.1Z"/>
  <path class="st0" d="M23.4,48.6c-.3-.2-.6-.4-.9-.6.6,0,.9,0,.9.6Z"/>
  <path class="st0" d="M29.6,72.4c.4.6.1.8-.2,1.1-.4-.5,0-.7.2-1.1Z"/>
  <path class="st0" d="M41.8,85.5s.3.2.4.3c0,.2,0,.4.2.6-.4,0-.6-.4-.5-.9h-.1Z"/>
  <path class="st0" d="M112.2,66.8c0-.3-.2-.6-.5-1.1.4.3.9.3.9.8,0,0-.3.2-.4.3h0Z"/>
  <path class="st0" d="M14.6,76.1c-.2,0-.4.3-.5.3s-.2-.2-.4-.4c.1,0,.3-.3.4-.3s.3.2.5.4Z"/>
  <path class="st0" d="M116.9,26.1c.2-.1.5-.3.7-.4,0,.1,0,.2.2.4-.2.1-.5.2-.7.3,0-.1,0-.2-.2-.3Z"/>
  <path class="st0" d="M112.5,76.5c.3,0,.6,0,1.1-.2-.4.8-.7.7-1,.6v-.3h0Z"/>
  <path class="st0" d="M69.8,109.6c-.2,0-.5-.3-.8-.5.2-.2.4-.3.4-.3.2.2.4.4.7.5,0,0,0,.2-.2.3h0Z"/>
  <path class="st0" d="M29.4,23.4c.3,0,.6-.2.9-.3-.1.7-.5.7-.8.6,0-.1,0-.2-.1-.3Z"/>
  <path class="st0" d="M39.3,23.3c-.2.2-.4.4-.5.4-.2-.1-.3-.3-.4-.5,0,0,.3-.3.4-.3s.3.2.4.4h0Z"/>
  <path class="st0" d="M66.5,100.9c0-.3,0-.6.2-1.1.4.6.5.9,0,1.1h-.4.2Z"/>
  <path class="st0" d="M95.3,23.1c-.6.1-1,0-.7-1,.3.4.5.7.7,1h0Z"/>
  <path class="st0" d="M18.8,63.7c-.2-.3-.3-.5-.4-.6l.3-.3c.1.2.3.3.4.5,0,0-.2.2-.3.4Z"/>
  <path class="st0" d="M91.5,19.6c0,.3,0,.5-.2.8-.5,0-.4-.5-.4-.8h.6Z"/>
  <path class="st0" d="M39.8,18.5c.4,0,.7,0,.7.5,0,0-.2.3-.3.2-.4,0-.5-.3-.4-.7Z"/>
  <path class="st0" d="M66.9,16.7c-.2-.2-.3-.4-.3-.5s.2-.2.3-.4c0,.1.2.3.3.5,0,0,0,.2-.3.4Z"/>
  <path class="st0" d="M125.6,62.3c.6-.2.9,0,.7.6-.3-.2-.5-.4-.7-.6Z"/>
  <path class="st0" d="M53.8,1.7c.2-.2.4-.4.5-.4s.4.2.4.4-.2.4-.4.4-.3-.2-.5-.3h0Z"/>
  <path class="st0" d="M23.9,44.4c.2,0,.5,0,.8-.2,0,.4,0,.6-.1,1.1-.3-.4-.5-.7-.7-.9h0Z"/>
  <path class="st0" d="M91.5,104.6v-.7h.2c0,.2.2.4.3.6h-.5Z"/>
  <path class="st0" d="M13.8,69.2c-.3-.3-.2-.6.2-.8h.3c.1.4,0,.6-.5.6h0v.2Z"/>
  <path class="st0" d="M19.3,45.5c.3,0,.7,0,1.1-.2v.9c-.4-.2-.7-.5-1.1-.7h0Z"/>
  <path class="st0" d="M97.8,13.8c-.4.4-.7.6-1.1,1,.2-.6.6-.9,1.1-1Z"/>
  <path class="st0" d="M31.1,72.5c-.6.5-.8.2-1.2-.5.5.2.8.3,1.2.5Z"/>
  <path class="st0" d="M106.9,89.7c-.2,0-.4-.2-.6-.3,0,0,0-.2.2-.4.2,0,.4.2.6.3,0,0,0,.2-.2.4Z"/>
  <path class="st0" d="M82.9,14.3c-.6-.3-.6-.6-.2-1.1,0,.5,0,.8.2,1.1Z"/>
  <path class="st0" d="M28.1,68c.1,0,.2.3.4.4-.4.2-.7,0-.8-.4h.5-.1Z"/>
  <path class="st0" d="M49.4,4.1c-.2,0-.3.3-.4.3-.2,0-.3-.2-.4-.3,0,0,.2-.3.3-.4,0,0,.3.2.5.4Z"/>
  <path class="st0" d="M122.9,31c0,.3.3.5.2.6,0,.1-.2.2-.3.3,0-.1-.3-.3-.3-.4s.2-.3.4-.6h0Z"/>
  <path class="st0" d="M18,47.7c-.2-.2-.3-.4-.5-.5.2-.2.4-.3.5-.5h.1c0,.3-.1.6-.2,1h.1Z"/>
  <path class="st0" d="M16.9,68.5c-.2.2-.3.3-.4.4-.1-.2-.3-.3-.4-.5l.2-.3c.2,0,.3.2.6.4Z"/>
  <path class="st0" d="M59.2,105.3s.3.2.3.4c0,0-.2.2-.3.3,0,0-.2-.2-.3-.3,0,0,0-.2.2-.3h0Z"/>
  <path class="st0" d="M88.6,99.2h-.8c0-.4.4-.4.8,0Z"/>
  <path class="st0" d="M75.4,109.1c.8.6.4.9,0,1.2v-1.2Z"/>
  <path class="st0" d="M84.9,109.9c0-.3.2-.5.3-1,.4.6.3.9-.3,1Z"/>
  <path class="st0" d="M73.7,110.4c.3-.2.5-.4.7-.5,0,0,.2.2.2.3,0,.3-.3.5-.9.2Z"/>
  <path class="st0" d="M105.7,95.6c-.2,0-.4.2-.6.2h-.3c0-.3,0-.5.2-.6h.4s0,.2.2.3h.1Z"/>
  <path class="st0" d="M113.1,87.1c-.2,0-.5-.2-.7-.3v-.3c.4-.3.5,0,.7.2v.3h0Z"/>
  <path class="st0" d="M109,78.1c0,.3.2.6.4,1.1-.3-.3-.5-.6-.4-1.1Z"/>
  <path class="st0" d="M28.1,75.3c-.2,0-.3.3-.4.3s-.3-.2-.3-.3.1-.2.2-.4c.1,0,.3.2.5.4Z"/>
  <path class="st0" d="M19.8,68.1c-.2-.3-.3-.6-.6-1.1.4.2.7.3,1,.4-.2.2-.3.4-.4.6h0Z"/>
  <path class="st0" d="M20.8,61.1c-.3,0-.4.3-.6.3s-.2-.3-.3-.4c0,0,.2-.3.3-.2.2,0,.3.2.5.4h.1Z"/>
  <path class="st0" d="M116.3,63.8c0,.2.3.4.4.6l-.2.2s-.3-.2-.4-.3v-.4h.2Z"/>
  <path class="st0" d="M21.4,59.1c0,.3,0,.5.1.9-.4-.2-.6-.3-.9-.5.4-.2.6-.3.8-.4h0Z"/>
  <path class="st0" d="M77.1,9.5c0-.2-.2-.4-.3-.6h.3s.2.3.3.5c0,0-.2.1-.3.2h0Z"/>
  <path class="st0" d="M83.8,9.8c0-.2-.3-.4-.3-.5s.2-.3.4-.3c0,0,.3.2.3.3,0,.2-.2.3-.4.5Z"/>
  <path class="st0" d="M92.5,11c-.2.1-.4.2-.5.2,0-.1-.2-.3-.3-.4l.3-.2s.2.2.4.4h0Z"/>
  <path class="st0" d="M66,14.5c0-.2,0-.4-.2-.6h.4v.6h-.3,0Z"/>
  <path class="st0" d="M107.8,15.2c0-.3,0-.5-.2-.9.7.2.6.6.2.9Z"/>
  <path class="st0" d="M41,14.4c0,.2.3.4.3.6,0,0-.2.2-.3.3,0-.1-.3-.3-.3-.4,0,0,.2-.2.3-.4h0Z"/>
  <path class="st0" d="M52.5,19.7v.3s-.2.1-.3,0c-.2,0-.4-.2-.5-.3v-.3c.2,0,.4.1.6.2h.2Z"/>
  <path class="st0" d="M16.1,57.8v-.9c.7.2.4.6.4.9h-.4Z"/>
  <path class="st0" d="M12.5,57.8c0-.2-.1-.4-.2-.6h.3c.1.2.2.4.3.6h-.4Z"/>
  <path class="st0" d="M21.4,20.6c.2.3.3.4.3.5l-.2.2c-.2,0-.3-.2-.4-.3,0,0,.1-.2.3-.4Z"/>
  <path class="st0" d="M79.7,21.4c-.2.4-.3.6-.4.9-.5-.5-.5-.8.4-.9Z"/>
  <path class="st0" d="M42.1,22.5l-.5-.5s0-.2.2-.2c.2.1.4.3.6.4,0,0-.2.2-.3.3Z"/>
  <path class="st0" d="M64.2,25.5c-.5,0-.7-.2-.8-.7.3.2.5.5.8.7h0Z"/>
  <path class="st0" d="M118.7,29.6v-1.1c.3.4.3.8,0,1.1Z"/>
  <path class="st0" d="M115.9,29.9c-.2.1-.4.3-.5.3,0-.1-.2-.3-.3-.4l.2-.2c.2,0,.3.2.5.3h.1Z"/>
  <path class="st0" d="M40.2,30.6v-.5c.7-.1.8.2.7.8h0c-.3-.1-.5-.2-.8-.3h0Z"/>
  <path class="st0" d="M16.2,32.7c.2-.2.3-.3.4-.3s.3,0,.4.2c-.1,0-.2.3-.4.4,0,0-.2,0-.4-.3Z"/>
  <path class="st0" d="M16.9,35.6h-.8v-.3h.8v.3Z"/>
  <path class="st0" d="M125.3,36.2c0,.2-.3.5-.5.7,0,0-.3,0-.3-.2s.3-.5.4-.7c0,0,.2.2.4.2Z"/>
  <path class="st0" d="M124.2,41.7c.2,0,.4,0,.6.2v.3h-.7v-.4h0Z"/>
  <path class="st0" d="M12.4,49.5c.1,0,.3-.3.5-.4h.2c-.1.2-.3.4-.4.6l-.2-.2s-.1,0-.1,0Z"/>
  <path class="st0" d="M25.1,51.6c-.5,0-.9-.2-.4-.9.2.3.3.6.4.9Z"/>
  <path class="st0" d="M17.3,68.9c.1-.2.3-.4.4-.6.2.4,0,.6-.4.6Z"/>
  <path class="st0" d="M13.6,28.3c.2,0,.5.2.7.3v.3c-.2,0-.5-.2-.8-.2,0-.1,0-.2.1-.3h0Z"/>
  <path class="st0" d="M32.3,26.5v-.8c.3.2.3.5,0,.8Z"/>
  <path class="st0" d="M93.8,94.2h.2v.3h-.3v-.5h0v.2h.1Z"/>
  <path class="st0" d="M25.7,52.3v-.7c.2,0,.4.3.6.4h0c-.3,0-.5,0-.8.2h.2,0Z"/>
  <path class="st0" d="M33.7,24.6h-.6v-.2c.2,0,.4-.1.6-.2v.3h0Z"/>
  <path class="st0" d="M83.2,104.7c-.7-.2-.7-.5-.5-1.1.2.4.3.7.5,1.1Z"/>
  <path class="st0" d="M139,45.7c.2.2.3.3.4.5-.1,0-.2.2-.3.2s-.3,0-.3-.3c0,0,.1-.2.2-.4h0Z"/>
  <path class="st0" d="M44.4,96.5c-.5,0-.8,0-.8-.5,0,0,.2-.2.3-.3,0,.3.3.5.4.8h0Z"/>
  <path class="st0" d="M98,97.2l-.4-.4h1.3c-.5.2-.8.2-1,.3h0Z"/>
  <path class="st0" d="M24.7,33.1c-.5.6-.7.4-1.1,0h1.1Z"/>
  <path class="st0" d="M17.6,42.8c-.2-.3-.4-.4-.5-.5l.3-.3c.1,0,.3.2.3.3,0,0,0,.3-.1.6h0Z"/>
  <path class="st0" d="M44.4,27.3h.4v.2h-.3v-.2h-.1Z"/>
  <path class="st0" d="M14.5,38.6c-.1,0-.3-.2-.3-.2,0,0,.1-.3.2-.4.1,0,.3,0,.3.2s-.1.3-.2.4Z"/>
  <path class="st0" d="M52,24.1v-.7c.2.3.4.5.6.8-.4,0-.6-.1-.7-.1h.1Z"/>
  <path class="st0" d="M116.8,22.2c0,.2.3.3.4.5v.2c-.3-.1-.5-.2-.7-.3,0,0,.2-.2.2-.3h0Z"/>
  <path class="st0" d="M25.2,21.3c-.2.2-.3.3-.4.3s-.3-.2-.3-.3c0,0,.1-.3.3-.3,0,0,.2.1.4.2h0Z"/>
  <path class="st0" d="M35.4,21.2c-.2-.4-.2-.6-.3-.9h.2c.4.1.4.4,0,1h0Z"/>
  <path class="st0" d="M73.9,20.6c.3-.3.5-.5.8-.8,0,.5-.3.8-.8.8Z"/>
  <path class="st0" d="M60.3,20.1c-.2.1-.3.2-.4.2,0,0,0-.1-.2-.2,0,0,.2-.2.4-.2,0,0,0,.1.3.2h0Z"/>
  <path class="st0" d="M117.6,17.2c.2,0,.4.2.5.3v.2c-.2,0-.4-.1-.6-.2v-.3h0Z"/>
  <path class="st0" d="M34.3,15.5c0,.2.3.3.4.5l-.2.2c-.2-.1-.3-.3-.5-.5,0,0,.2-.2.3-.3h0Z"/>
  <path class="st0" d="M98,15.2c0,.2,0,.5-.2.8-.5-.4-.2-.7,0-.9h.3-.1Z"/>
  <path class="st0" d="M18,59.5c-.1-.2-.2-.4-.4-.7.6-.2.6.2.6.4l-.3.3h0Z"/>
  <path class="st0" d="M23.8,58.2c-.3,0-.4.2-.6.2l-.2-.2c.1,0,.2-.3.4-.4,0,0,.2.2.4.3h0Z"/>
  <path class="st0" d="M110.5,84.8c0-.4.2-.7.2-.9.3.3.3.6-.2.9Z"/>
  <path class="st0" d="M35,89.7c0-.3.2-.5.3-.8h.3c0,.3-.2.5-.3.8h-.3Z"/>
  <path class="st0" d="M20.6,57.4c.1,0,.2-.3.4-.4h.2c-.1,0-.2.3-.4.4,0,0-.1,0-.2-.2h0v.2Z"/>
  <path class="st0" d="M21.9,83.8c.2-.2.4-.3.7-.6.1.7,0,.8-.7.6Z"/>
  <path class="st0" d="M14.9,54.7c.2,0,.4.2.6.3,0,0-.2.3-.2.2-.2,0-.4-.2-.5-.3,0,0,.1-.2.2-.2h-.1Z"/>
  <path class="st0" d="M32.3,82.9c.2.2.4.2.4.3v.5s-.2,0-.3.2c0-.2-.2-.3-.2-.5v-.6h0Z"/>
  <path class="st0" d="M124.4,52.9v1.2c-.5-.4-.6-.7,0-1.2Z"/>
  <path class="st0" d="M13.5,32.7c-.2,0-.3.2-.4.3h-.3s.2-.3.3-.3c0,0,.2,0,.4.2h0v-.2Z"/>
  <path class="st0" d="M128,32.6c-.3,0-.5.2-.6.2s-.2-.2-.3-.3c0,0,.2-.2.3,0,0,0,.2,0,.5.3h0v-.2h0Z"/>
  <path class="st0" d="M113.3,29.7c0,.2,0,.4-.2.6,0-.1-.2-.3-.4-.4.2,0,.4,0,.6-.1h0Z"/>
  <path class="st0" d="M114.5,65.2v.9c-.3-.3-.3-.5,0-.8s0,0,0,0h0Z"/>
  <path class="st0" d="M17.1,28.9l.3.3c0,.1-.2.2-.3.3,0,0-.2-.1-.2-.2s.1-.2.3-.4h0Z"/>
  <path class="st0" d="M116.4,28c-.7.1-.6-.2-.3-.8,0,.4.2.6.2.8h.1Z"/>
  <path class="st0" d="M101.2,23.6c-.2.1-.4.2-.5.2,0,0-.3-.2-.2-.2,0-.1,0-.3.2-.3s.2.1.5.3Z"/>
  <path class="st0" d="M59.7,21.1c0,.2.2.3.2.4,0,0-.2.1-.3.2,0-.1,0-.3-.2-.4,0,0,.2-.1.3-.2Z"/>
  <path class="st0" d="M41.5,21.2c0-.3,0-.5-.2-.8.4.1.7.3.2.8Z"/>
  <path class="st0" d="M88.7,20.2c0,.1-.2.2-.2.3,0,0-.2-.2-.3-.3,0,0,0-.2.2-.2,0,0,.2.1.3.2Z"/>
  <path class="st0" d="M79.3,20c0,.1.2.2.2.4v.5c0-.4-.2-.6-.3-.8h.2,0Z"/>
  <path class="st0" d="M91.5,19.6c0-.4,0-.8.7-1-.3.4-.5.7-.7.9h0Z"/>
  <path class="st0" d="M94.9,95.3v-.9c.3.3.3.6,0,.9Z"/>
  <path class="st0" d="M97.4,96v-.5h.2s.2.2,0,.3c0,0-.2,0-.3.3h.1Z"/>
  <path class="st0" d="M24.5,15.9c-.1-.2-.3-.3-.2-.3,0-.1.2-.2.3-.3l.2.2c0,.1-.2.2-.3.4Z"/>
  <path class="st0" d="M98.4,13.8c0,.2,0,.4.2.6h-.2c0-.2,0-.4-.2-.5h.2Z"/>
  <path class="st0" d="M129.3,61.6v.6h-.2c0-.2-.1-.4-.2-.6h.4Z"/>
  <path class="st0" d="M79.3,10.2c0,.3,0,.6-.2.8h-.2v-.9h.4,0Z"/>
  <path class="st0" d="M84,114.2c-.3-.2-.5-.3-.8-.5.4,0,.7,0,.8.5Z"/>
  <path class="st0" d="M37.9,85.8c-.6.2-.8,0-.6-.5.3.2.4.4.6.5Z"/>
  <path class="st0" d="M95.5,9.2c-.2-.1-.2-.2-.3-.2,0-.1.2-.3.3-.4l.2.2c0,.1,0,.3-.2.4Z"/>
  <path class="st0" d="M91.8,111.3s.2.2.3.2v.3s-.2,0-.3-.2c0,0,0-.2.2-.3h-.2Z"/>
  <path class="st0" d="M57.2,97.4c0,.2.2.4.4.6l-.2.2c0-.2-.3-.3-.4-.5,0,0,.2,0,.3-.2h0Z"/>
  <path class="st0" d="M78.9.6c-.2,0-.5-.2-.7-.3V0c.2.1.4.2.7.4v.2Z"/>
  <path class="st0" d="M23.1,76.4c-.1,0-.2-.2-.3-.2,0,0,.2-.2.3-.3,0,0,.2,0,.2.2,0,0-.1.2-.2.3Z"/>
  <path class="st0" d="M58.2,107c0,.2.3.3.3.4l-.2.2s-.2-.2-.3-.3l.2-.4h0Z"/>
  <path class="st0" d="M57.1,104.9c0,.2,0,.4-.3.7-.6-.4-.2-.6.3-.7Z"/>
  <path class="st0" d="M5.3,51.7c-.3-.4-.4-.6-.6-.8.4,0,.7,0,.6.8Z"/>
  <path class="st0" d="M15.9,47.4v.6h-.3v-.6h.3Z"/>
  <path class="st0" d="M133.8,46.1h.6v.2c-.2,0-.4,0-.6.2v-.3h0Z"/>
  <path class="st0" d="M12.1,43.6c.2,0,.4.3.5.4v.2c-.3,0-.5-.2-.7-.4,0,0,.1,0,.2-.2Z"/>
  <path class="st0" d="M116.2,71.4c-.2,0-.3.3-.5.4v-.2c0-.2,0-.3.3-.5,0,0,.2.2.3.2h-.1Z"/>
  <path class="st0" d="M22.6,57h.6v.2h-.6v-.3h0Z"/>
  <path class="st0" d="M112.2,84c-.3,0-.4,0-.6.2,0,0-.2,0-.3-.2,0,0,.2-.3.3-.4,0,0,.2,0,.5.4h0Z"/>
  <path class="st0" d="M21,41.5c-.2.2-.3.3-.4.3,0,0-.3-.2-.3-.3s.2-.3.3-.3c0,0,.2,0,.4.3Z"/>
  <path class="st0" d="M15.9,41.3c-.1-.2-.2-.3-.3-.5l.2-.2c.1,0,.3,0,.3.2s-.1.2-.3.4h.1Z"/>
  <path class="st0" d="M113.8,70.4l-.2-.3s.2-.2.4-.2v.3s-.2,0-.3.2h0Z"/>
  <path class="st0" d="M86.5,20.3c.3,0,1-.3.9.6-.4-.2-.6-.4-.9-.6h0Z"/>
  <path class="st0" d="M26.1,39c.1,0,.2,0,.3.2v.3c-.1,0-.3,0-.3-.2,0,0,0-.2.1-.3h-.1Z"/>
  <path class="st0" d="M126.7,38.5c0-.2-.2-.3-.2-.4l.2-.2c.2,0,.3.2.4.3,0,0-.2.2-.4.4h0Z"/>
  <path class="st0" d="M115.8,38.2s-.2.2-.4.3h0c0-.2.2-.4.3-.5,0,0,0,.2.2.3h0Z"/>
  <path class="st0" d="M120.9,37.4h.6v.2h-.5v-.3h0Z"/>
  <path class="st0" d="M28.1,36.6v1c-.3-.3-.5-.7,0-1h0Z"/>
  <path class="st0" d="M36.6,82.8c0-.2-.2-.4-.2-.6h.2c0,.2.2.4.3.6h-.3Z"/>
  <path class="st0" d="M5.2,33.8s-.2-.2-.3-.2c0,0,.2-.2.3-.3l.2.2s0,.2-.2.3Z"/>
  <path class="st0" d="M24.1,53.4c-.1,0-.3.3-.3.3-.1,0-.2-.2-.3-.3l.2-.2c.1,0,.2.2.4.3h0Z"/>
</svg>