<?xml version="1.0" encoding="UTF-8"?>
<svg id="Layer_1" xmlns="http://www.w3.org/2000/svg" version="1.1" viewBox="0 0 104.3 156.5">
  <!-- Generator: Adobe Illustrator 29.3.1, SVG Export Plug-In . SVG Version: 2.1.0 Build 151)  -->
  <defs>
    <style>
      .st0 {
        fill: #3d358b;
        fill-rule: evenodd;
      }
    </style>
  </defs>
  <path class="st0" d="M23.1,41.6v1.1c.7-.7,1.8-.7,1.7-1.9,0-.2.5-.6.8-.7.5-.2,1.1-.2,1.7-.3v.7c.4-.2.7-.4.9-.6-.2-.9-1.8-1-3.5-.2-.3-1.1-.3-1,.6-1.2.4,0,.8-.2,1.2-.4,0-.1,0-.2,0-.3-.3,0-.5-.2-.8-.3,0-.1.2-.2.3-.3.2-.1.4-.2.5-.3.3-.9.4-1.1,1.1-1.9.1-.2,0-.6,0-1,.4,0,.9,0,1.4,0,0,.8,0,1.5.1,2.3-.5-.1-.8-.3-1.3-.4.1.6.3,1.2.4,1.8.4,0,.8-.2,1.5-.3-.4.5-.7.9-1,1.3.3,0,.6,0,.8,0,.4-.1.8-.3,1.3-.5.1,0,.4-.1.4-.2.1-1.2,1.1-.9,1.8-1.2.9-.3,1.7-1.1,2.6-1.6.3-.2.6-.3.9-.5,0-1.4.4-2.6,1.9-3.2h0c.8.8,1.5,1.6,2.8,1,.2,0,.5,0,.7,0,.5.2.8.7,1.5.5,1.3-.3,2.6-.1,3.7-1.1h0c.8-.3,1.6-.5,2.5-.8-.3-1.2-.6-2.3-.9-3.6.8.6,1.4,1.1,2,1.5,0,.5,0,1.1.1,1.8,1.5-.3,2.8-.4,3.6-1.9.4-.8,1.8-.9,2.4-1.8.2-.3.4-.5.7-.9.3.5.5.9.7,1.2.2-.1.3-.3.7-.5-.1.7-.2,1.1-.4,1.8.4-.3.6-.5.9-.7.3.3-.5,1.1.5,1.2.4,0,.7.6,1.1.6.4,0,.8-.4,1.4-.7-.9-.1-1.5-.2-2.1-.3,0-1.1.6-1,1.2-.9,1.2.2,1.8,0,2.6-1,.1.7,0,1.6.3,1.7.8.5-.3,1.4.7,1.7.2-.6.5-1.2.7-1.8-.3,0-.6.1-.9.2.4-.5-.3-1.4.7-1.6.3,0,.4-.9.6-1.3-.2-.1-.4-.3-.6-.4,1.1.2,2.1-1.5,3.4-.1-.7.3-1.2.6-1.8.9,0,.2.1.6.2,1.2.4-.2.7-.3,1-.5.3-.2.6-.6,1-.7,1.5-.6,2.2-.3,3.4,1.1.5-.5.9-.9,1.4-1.4q.9.2,1.7,1.4t1.1-.8c-.5-.2-.9-.5-1.4-.8q.7-.5,1.9.3c.2-1,1.7-.8,1.9-1.8q-1.6-.6-1.8-1.3c.4-.2.9-.5,1.5-.8,0,.5,0,.8,0,1.1.7.2,1.4.4,2.1.5-.4.9-.7,1.6-1,2.4-.4.4-1.2-.8-1.5.3.5.3.8.7,1.5.3.5-.3,1.3-.1,1.9,0,.1,0,.3.2.3.3,0,1.4.8.3,1.4.5,0,.6,0,1.3.1,2.1-.9,0-.9-.6-1.1-1.1-.3,0-.7-.2-1.1-.3q.3.7,1.1.3c-.5,1.2-.5,1.2-1.9,1.3-.3,0-.7.4-1.1.6-.4-.2-.8-.6-.9-1.4,0-.5-.7-.9-1-1.3-.5.2-.9.4-1.5.6.5.4,1,.8,1.5,1.3.6.5,1.1,1.1,1.8,1.6.2.2.5.1.8.2-.6.6-.6,1.4-.7,2.4.9-.8.8-1.6.7-2.4-.2-.6.4-.7.7-.7.2,0,.5.2.7.5.1.2,0,.6,0,.9.8.1,1.3-.2,1.6-1-.4-.3-.8-.5-1.3-.9.9-.7,1.8,0,2.7-.2.7-.2,1.7.3,2.7.5-.2-.4-.5-.7-.6-1.1,0-.3,0-.8.1-1,.2-.2.6-.1.9,0,.4,0,.7.3,1.1.4-.2,1-.2,2-.5,3-.2.7-.2,1.6-1.3,1.6-.1,0-.2.7-.3.9.4.8,1.8.1,1.6,1.4h0c-.4-.2-.9-.2-1.3-.4-.6-.2-1,0-1.5.6,1,.5,1.6,1.1,1.5,2.3,1-.1,1.8-.2,2.4.6-.1.2-.2.4-.4.7.4,0,.7,0,1,0,.2-1.7,1-2.3,2.7-2-.3.4-.7.8-.9,1.3,0,.1.2.5.4.9.5-.7.8-1.2,1.2-1.7.7.4.8,1.2.9,2.1.5-.5.8-.8,1.1-1.1,1,.2.2.9.4,1.3.2.5.3,1.1.4,1.6-.3.2-.5.5-.8.6-.5.1-1.1.2-1.4,0-1.2-.6-2.2-1.5-3.4-2.1-.4-.2-.8-.2-1.4-.3-.2.5-.5,1-.8,1.5-.1,0-.2-.2-.3-.3.2.4.4.9.5,1.3.2.6.8.9,1.3.5,0,0,.2-.1.2-.2.2-.2.3-.4.5-.6.5.4,1.3.1,1.5.9,0,.1.2.2.4.2,1.3.2,2.2.9,2.7,2-.3,0-.6,0-1.1.2q.9.4,1.1-.2c.3,0,.6.1,1,.2-.8.8-1.1,1.7-2.2,2.2-.7.3-1.6.9-1.6,2.2,0,.9-.6,1.9-1,3-1-.6-1.8-1.4-3-1.2,0,1.6,1.8.8,2.2,1.9-.4.6-.7,1.2-.5,2.2,0,.4-.6,1-1,1.6.3.1.8.3,1.3.5,0,.4-.1.7-.2,1.1-.5-.1-1-.3-1.5-.4-.1.7-.2,1.2-.3,1.8h0c-.5.7-.9,1.4-1.4,2,0,0,.1.2.2.3,1.4-.3,2.7-.7,4.1-1,.6-.1,1.2,0,1.8.3-.9.5-1.6,1.6-2.9,1.1-.4-.1-1.1.4-1.2,1.2,0,.2,0,.4-.3.6-.1-.3-.3-.6-.5-1.1,0,.6-.1,1-.2,1.5q-1.4,0-1.9.4,1.2.4,1,1.6h0c.1.4.2.8.3,1.4.2,0,.6.1.9.2,0,1.2,0,1.2-1,.8-.8-.3-1.6-.6-2.3.2,0,0-.3,0-.5,0-.7,0-1.4.2-2.1.2,0,.3.1.6.2,1.1.7-.5,1.3-.9,1.9-1.4.3.7.6,1.5.9,2.2-.3.4-.6.9-.9,1.4.5.6,1,1.1.4,2.2,0-.4,0-.6,0-.8-.7.4-1.4.7-2.1,1,.2.2.3.4.5.5-.4,0-.8-.1-1.2-.2,0,0,0,.1,0,.2-.9.3-1.7.7-2.6,1,.1.3.2.5.4,1,1-1.2,2.1-.4,3.1-.2,0,.5,0,1,0,1.8.8-.7,1.3-1.1,1.2-2,0-.4.2-.8.4-1.6.6.9,1,1.6,1.8.9.1.6.2,1.1.4,1.7-.2.2-.5.6-.8.9.5.8,1,1.5,1.5,2.2-.3.7-.7.9-1.3.7-.5-.2-.5-.6-.4-1.1,0-.5-.1-1.1-.2-1.9-.6.5-.9.8-1.4,1.2-.3-.2-.6-.5-1-.7-.6.5-1.2,1-1.9,1.7-.1-.5-.2-.8-.3-1.2-.2,0-.5,0-.7,0,0,.9,1.1,1.5.3,2.6-.3-.3-.6-.6-1-1-.6.9-2.2.1-2.6,1.5-.3,0-.6,0-1-.1q.8.7,1,0c.4,0,.8.1,1.2.2.1-.2.3-.5.4-.7,1.9.6,2,.6,1.6,2.4-.4.1-.9.3-1.5.4-.4,1.1-.8,2.2-1.2,3.3-.8.2-1.4-.2-1.5-1.2.4-.2.7-.3,1.1-.5-.2-.1-.4-.3-.5-.2-.7.2-1.4.5-2.1.7.1.3.2.6.4,1.1-.5-.3-.9-.5-1.3-.7,0-.5,0-1.1-.1-1.7-.2,0-.5,0-.6.1-.2,1.3-1.2,2-2,3-.2-.3-.4-.5-.5-.7,0-.2,0-.4,0-.6.3-.5.7-.9,1-1.4-.1-.2-.3-.5-.5-.6-.7,0-1.2.1-1.7.2,0-.6,1-1.1,0-1.6-.6,1.2-1.2,2.3-1.9,3.6,0,.3.2.9.4,1.5.5-.3.8-.5,1.1-.8h0c0,0,0,.2,0,.3-.5,1.6-.5,1.7.6,2.8,0,.1-.1.3-.2.4-.2.2-.4.3-.7.6-.9-.8-1.8-.7-2.5.5-.2-.7-.4-1.2-.6-2-.5,1-1.1,1.5-.5,2.4-.5.5-1.3.7-1.3,1.7,0,.8-.9.4-1.5.4-.2,3.4-.5,6.7-.7,10.1,0,.6.2,1.2.5,1.7.7,1.5,1,3,1,4.6,0,1.3-.5,2.3-1.7,2.9-.4.2-.7.6-1,.9-.2-.2-.5-.4-.9-.6-1.5-.7-2.5-1.7-2.7-3.5,0-.9-.5-1.8-.7-2.8-.8.6-1.3.3-1.6-.5.4-.1.7-.2,1.2-.4,0-1-.2-2-.3-3-.1-1.2-.4-2.3-.3-3.5,0-1.3-.1-2.4-1.5-3-.2,0-.2-.4-.3-.6-.4.1-.7.2-1.1.3,0,0-.1,0-.2,0,0,0,0-.1,0-.1.3-.2.5-.3.8-.5,0-.1,0-.3-.1-.4-.4-.1-.7-.3-1.1-.4-.1,0-.5.4-.4.6,0,.4.3.8.9.7,0,0,0,0,.1,0,.5.6.7,1.2.3,2-.1-.4-.3-.7-.4-1.1-1.1-.4-1.2.8-1.8,1h0c0-1-1-2,.1-2.9-.4-.2-.8-.5-1.2-.7-.4.6-.7,1.1-1,1.7h0c-.2-.7-.9-1.3-.7-2.2,0-.2-.6-.6-.8-.7.4-.2,1.1-.5,1.9-.9.5.2,1,.6.8,1.5.6-.6,1.1-1.2,1.8-2,.2.5.3.8.5,1.2.5-.6,1.6-.5,1.7-1.7-.8-.2-1.8-.2-2.2-1.4.3,0,.5,0,.6,0-.2-.5-.4-1.1-.7-1.7-.4.3-.9.7-1.4,1.1.2.1.4.3.6.5-1.1.7-2.1,1.4-3.3,2.2-.1-.2-.2-.3-.3-.5,0-.2,0-.4-.2-.6-.8,1.3-1.9,2.4-2.7,3.7-.2.4-.2.9-.2,1.4,0,.7,0,1.4-.4,2.1-.2.4,0,1,0,1.6.3-.1.6-.2.8-.3,0,0,0-.1,0-.1.3,0,.7,0,.9,0,.3.2.4,1.6.2,1.8-.3.3-.6.5-1,0-.2-.2-.6-.3-.7-.3-.2.2-.5.6-.5.8,0,.5.1.9,0,1.4,0,.3.4.8.7,1,.5.4.7.6,0,1.1-.2.1-.4.7-.3,1,.2.9.6,1.8.9,2.6.2.6.5,1.1.8,1.6,1.5,3.1,1,6.3,1,9.6s-.3,3.3-.3,4.9c0,1.4,0,1.4,1,2.4-.3,0-.6.1-1.1.2-.1.9-.3,1.8-.4,2.7-.1.7-.2,1.4-.3,2.1-.4,1.8-.8,3.5,0,5.3,0,.2,0,.4,0,.6.2,1.8.1,3.6.5,5.3.4,1.6.4,3.1.5,4.7,0,1.6-.6,2.9-1.5,4.1-.9,1.2-2.4,1.4-3.5.5-1.1-.9-2.1-2-3-3.1-.6-.8-.8-1.7-.9-2.7-.1-2.1.4-4.2.7-6.3.2-1.9.6-3.8.9-5.7,0-.3,0-.6.1-.9,1.2-4,1-8,.5-12,0-.3-.1-.7,0-1,.4-1.6.1-2.5-1.3-3.6,0-.4.5-.7.2-1.4-.7-1.2-1.1-2.7-1.6-4-.1-.4-.3-.8-.5-1.2-.8,0-1.6.3-1.8-1,.4.1.8.2,1.3.3,0-.1.1-.3,0-.4-1.3-2.2-1.2-4.5-1-6.9,0-.2,0-.4.2-.5.6-1.4,1.2-2.7.6-4.3-.1-.3.2-.9.1-1.3,0-.4-.3-.7-.5-1.2,1.2-.5.6-1.5.6-2.3,0-.5-.4-.9-1.1-1-.4,0-.8-.3-1.3-.6-.6.5-1.6.5-2.3,1,0,0-.3-.2-.5-.4,1.6-1.5,3.2-2.3,5.2-1.1.6-1.5-.6-2.3-1.1-3.4-.7.4-1.3.8-2,1.2-.8-1.2-2.6-.2-3.4-1.8-.7.6-1.4,1.2-2.1,1.8-.2-.2-.6-.5-1-.8-.6-.4-.8-.9-.5-1.8-.2,0-.4,0-.6.1-.1-.4-.1-1-.4-1.3-.4-.3-1-.4-1.4-.6-.4.3-.7.5-1,.7h0c.3-.8-.4-1.8.2-2.7.6.3,1,.6,1.6.9.7-1-.4-1.2-.7-1.6.2-.9.7-.2,1.2-.3,0-.3,0-.6-.3-.7-.2-.2-.7-.3-.9-.5-.3-.3-.6-.8-.8-1.2,0-.2.2-.6.2-.8,0-.3-.2-.7-.3-1.1-1.3,0-2.2-.7-3-2-.2.5-.3.9-.4.9.7,1,1.3,1.9,1.9,2.8.5,0,.3-1.2,1.1-.8-.3.8-.5,1.7-.9,2.7.8,0,1.3,0,2.2.2-1.2.6-2,1.3-3.2.9,0-.3,0-.5.1-.8-.9,0-1.2-.6-1.4-1.4.3.2.5.4.8.5,1.2-.8-.4-1.4,0-2.3-.4.2-.6.4-.9.5-.3.1-.8.3-.8.2-.4-.8-1.4-.8-2-1.3-.2-.1-.2-.3-.4-.5,0,0,0,0-.1,0,0-.1.1-.3.2-.3.2,0,.5,0,.8,0,.2-.4.4-.8.7-1.2.5,0,.9-.1,1.3-.2,0-.2,0-.3,0-.3-.3-.5-.6-.9-.9-1.4-.2-.4-.4-.6-1-.6-.5,0-1-.7-1.7-1.2,0,0-.4,0-.9,0,.3-.4.4-.6.7-1.1-.4-.3-.8-.5-1.2-.8s-.8-.5-1.3-.8c-.2.2-.4.4-.6.7-.4-.2-.9-.4-1.4-.6.5-.2,1.1-.2,1.4-.5.3-.3.5-.9.8-1.4-.2-.6-.5-1.2-.8-1.9-.7-.1-.9-.3-1.9-2-.4,0-.9,0-1.5-.2.6-.8.3-2.2,1.9-2.2-.5-.3-1.1-.5-1.6-.8-.3.4-.6.7-1,1.2-.4-.9.1-1.4.3-2,.2.1.4.3.6.4.1-.3.2-.5.3-.8.1-.4.2-.9.2-1.3.1,0,.2,0,.4,0,0,.4.1.8.2,1.2.8-.2.4.7.8.9.2,0,.4-.2.7-.3-.7-.8-.1-1.7,0-2.6,0-.4.4-.8.6-1.2.1-.2.5-.4.5-.5-.2-1.1.7-1.8.8-2.7-.3-.2-.6-.5-1-.8,1-.5,2.2-.7,1.6-2.3h1.5c0-.5,0-1,.2-1.4.3-.8.3-1.4-.8-1.5-.2,0-.4-.4-.5-.7-.1-.3-.2-.6-.3-1,.4,0,.8-.1,1.3-.2,0,0,0-.2,0-.3-.6-.3-1.1-.5-1.8-.8,0-.2.1-.4.3-.8-.4-.3-1.3-.4-.9-1.5.3.3.4.6.7.6.3,0,.7,0,1.1-.2,0,.5-.2,1-.3,1.6.7.5,1.3.5,2-.2.1-.2.5-.1.8-.2.2-.1.4-.4.8-.8-.1.7-.3,1.3-.3,1.8,0,.3.2.7.5,1.3.6-1.8,2.1-2.4,3-3.4.2-.2.6-.5.9-.5.8,0,.7-.6.8-1.1-.6,0-1.1,0-1.6,0,0-.1-.1-.2-.2-.3.9-.1,1.3-.6,1.2-1.5h-2.1c.4-.4.5-.8.7-.8.6,0,1.3,0,1.4-.8,0-.6.1-1.1.2-1.7.6-.5,1.2-1.1,2-1.7.2,0,.7.1,1.2.2,0,.6-.3,1.1-1,1-.9,0-1.3.5-1.6,1.3.2.2.5.4.7.6-.1.3-.2.6-.3,1h0c-.3,0-.6,0-.9,0v1.3c.3,0,.4,0,.6-.1h0ZM18.2,56.7c-.3-.3-.6-.5-.9-.8,0,.1-.1.2-.2.4.4.1.8.3,1.2.4,0,.3-.2.6-.3.9.3-.2,1.2-.4.2-.9ZM89.7,49.2c-.6.9-.5,1,.9,1.1-.3-.4-.6-.7-.9-1.1.4,0,.7.1,1.1.2,0,0,0-.2,0-.2-.2-.2-.5-.4-.8-.7-.1.3-.2.5-.3.8ZM78.3,79.9c-.2.4-.5.8-.8,1.2q1,0,.8-1.2c.1-.2.2-.4.4-.7-.3,0-.7-.3-.9-.2-.4.3-.8.7-1.3,1.2.8-.1,1.3-.2,1.8-.3ZM74.7,29.5c-.2-.2-.3-.4-.5-.5,0,0-.2,0-.2.1,0,.4.1.8.2,1.2-.2,0-.4-.1-.6-.2,0,.4,0,.7,0,1-.1.4-.3.7-.7,1.4,1.3-.7,1.5,1.2,2.6.6-.1-.5-.2-1-.4-1.5q1.5.2,1.7-.7c-.3,0-.7.1-1,.1-.4,0-.8,0-1.1,0-.4,0-.7-.3-.6-.7.2-.3.4-.5.6-.8.3.3.5.6.8.9.4-.4.7-.6.9-.8q-.6-.9-1.7,0ZM15.6,68.3c.3-.5-.2-.7-.5-.9-.5-.4-.8-.2-.8.7.4,0,.9.1,1.3.2-.2.2-.5.4-.9.8.9,0,1.6.2,2.4.2-.3-.8-.6-1.6-1.6-1ZM31,88c-.3,1.2,0,2.3.6,2.3.3-.2.6-.5.9-.8.4.2.7.3,1.1.4-.2-.5-.3-.9-.4-1.1-.4,0-.9,0-1.1-.2-.3-.4-.2-.9.3-1.2.2-.1.3-.3.4-.5,0-.1,0-.3,0-.4h-1.2c0,.6.2,1.1,0,1.6-.2.5-.5.3-.6-.2-.1-.8-.8-.7-1.6-.6.5-.3.7-.5.9-.6-.2-.7-.4-1.3-.6-1.9-.2,1-1.6,1.2-1.4,2.4-.4-.4-.8-.8-1.1-1.2-.4-.5-.7-.8-1.5-.3,1.5.9.3,2.3,1,3.4.4-.3.9-.7,1.3-1,.1,0,.4.1.7.3-.4.3-.7.6-1.2,1,.8.2,1.2.3,1.6.3.2-.8.3-1.4.5-2,.6,0,1,.1,1.5.2ZM90.8,46.8h1.3c-.2-1-.6-1.6-1.7-1.6-.1-.5-.3-.9-.4-1.4-1,.8-1.5,0-2.2-.6,0,0-.1.2-.2.3.7.8,1.5,1.6,2.1,2.3-.4.6-.7,1-1,1.4,0,0,.1.1.2.2.5-.2.9-.4,1.4-.7.3.3-.1,1.2.8,1,0-.2-.1-.5-.2-.8ZM83.6,52.9c.5-.1.9-.1,1.1-.3.5-.7,1-1.5,1.4-2.2-.8,0-1.6-.2-2.1,0-.6.2-1.2.7-1.6,1.3-.4.5-.5,1.1-.7,1.7,0,0,.1,0,.2,0,.7-.7,1.4-1.4,2.2-2.1,0,0,.1,0,.2.1-.2.4-.4.8-.6,1.4ZM53.3,97.3c.3.7.6,1.4,1.8,1.5-.5-.7-.3-1.1,0-1.7.4-.5.4-1.3,0-1.9-.6.7-1.2,1.3-1.8,2.1ZM71.7,29c-.7.4-1.2.8-1.8,1.1,1.7,1.8,1.9,1.8,2.6.8-.3-.4-1.2-.2-.9-1,.3,0,.5-.2,1-.3-.5-.3-.8-.5-.9-.5ZM84.2,57.3c.3.5.6.9.9,1.4.4-.8,1.4-1.3.7-2.6-.6.5-1.1.8-1.5,1.2ZM86.4,32.7c-.6-.4-1-.6-1.4-.8-.4-.3-.8-.5-1.3-.2.3.4.5,1,.7,1,.9,0,1.1.5,1.4,1.1,0,0,.3,0,.5,0,0-.4,0-.8.1-1ZM15.6,59.7c.4-.6.8-1.3,1.3-2.1-.9,0-1.4,0-2,.1.2.3.6.8.5.9-.2.4-.5.7.3,1ZM62.1,95.6c.4,0,.8,0,.9-.1.3-.3.6-.8.6-1.2,0-.6-.5-.9-1.2-1,0,.7-.2,1.4-.3,2.3ZM16.4,56c.2-1-1-.5-1.2-1,.2-.1.3-.3.5-.4-1-.6-.9.3-1.3.6.6.6,1.1,1.3,2,.8ZM82.7,57.8v3c.7-1.1.9-1.9,0-3ZM74.4,84.6c-.6-.4-1.1-.8-1.8-1.2,0,.7,0,1.1.1,1.6.6-.2,1.1-.3,1.7-.4ZM21.5,57.2c.3.9.8,1.2.9.7.1-.7,1-.7,1-1.5-.7.3-1.3.5-1.9.8ZM78.9,70.6c-.2.7-.2,1-.3,1.3.6.1,1.1.3,1.6.4,0,0,.1-.2.2-.3-.4-.4-.8-.8-1.4-1.4ZM75.5,84.6c0,0,0,.1-.1.2.3.3.6.7,1,.9.2,0,.6-.3,1.1-.7-.9-.2-1.4-.3-1.9-.4ZM86.7,46.5c-.3.6-.6,1.2-1,2,.6-.1,1-.2,1.3-.3-.1-.7-.2-1.1-.3-1.7ZM11.9,65.1q1,1.2,1.8.6c-.7-.2-1.3-.4-1.8-.6ZM12.7,61.4c.3.6.5,1.1.7,1.6.2,0,.3-.1.5-.2-.8-.3.4-1.3-1.2-1.4ZM69.1,28.4c-.7.3-1.2.4-1.7.6.4.1.8.3,1.3.4.1-.3.2-.6.4-1.1ZM82.9,40.1h-1.6q.4.8,1.6,0ZM28.4,40.6c0,.3,0,.6.2.7.4.3.9.3,1.3-.2-.5-.2-.9-.3-1.5-.5ZM85.3,43.2q-.4-1.2-1.2-.6c.4.2.8.4,1.2.6ZM82.8,64.1c0-.3,0-.5,0-.7,0-.2,0-.4-.2-.7q-.6.8.2,1.4ZM48.1,94.1c.1-.5.3-.9.5-1.6-.6.5-.9.7-1.3,1,.3.3.5.4.8.6ZM17.9,59.3c-.5,1,0,1.2.4,1.5-.1-.4-.2-.8-.4-1.5ZM77.3,77.8c.2-.6.3-1.1.5-1.7-.5.3-.7.5-.9.6.1.4.2.6.4,1.1ZM16.9,47.7c-.4,0-.8.2-1.3.3q1,.3,1.3-.3ZM83.4,55.7c.5.6.5.6,1.4,0-.3,0-.5,0-.7,0-.2,0-.4,0-.7,0ZM20.6,69.7c.5-.7.3-1-.5-1.2.2.5.4.9.5,1.2ZM84.3,67.5c-.7.2-1.1.3-1.7.5.4.2.6.4.9.5.2-.3.4-.5.8-1ZM80.2,79.5c.5-.4.8-.6,1.1-.9-.5,0-1.2-.4-1.1.9ZM82.4,35.2q.4-.8-.1-1.3c0,.4,0,.6.1,1.3ZM86.7,52.8c0,0,.2.2.3.2.5-.2.9-.5.6-1.2-.3.4-.6.6-.8.9ZM19.7,67.2c0,0,0-.2.1-.3-.3-.2-.6-.3-.9-.5,0,.4,0,.6.3.7.1,0,.4,0,.6,0ZM86.4,61.5c.1-.1.2-.2.4-.3-.4-.1-.3-.9-1.1-.7.3.4.5.7.8,1ZM39.2,46c0,.1-.2.2-.3.3.2.1.4.3.6.4,0,0,.2-.2.2-.2-.2-.2-.3-.4-.5-.5ZM82.1,64.6c0,0,0,.2,0,.3.4,0,.8-.1,1.1-.2,0,0,0-.2,0-.3-.4,0-.8,0-1.2.1ZM81.8,43.6c-.6-.2-.9-.3-1.3-.5,0,.4,0,.5,0,.8.4,0,.7-.2,1.2-.3ZM65.8,89.5c0,0-.2-.2-.3-.2-.2.4-.9.4-.6,1.3.4-.5.6-.8.9-1.1ZM66,88.6c0-.5,0-.8-.1-1.3-.6.5-.5.9.1,1.3ZM28.4,85.2q.6-.5,0-1.1c0,.4,0,.7,0,1.1ZM82.9,44c0,0,0-.1.1-.2-.2-.1-.3-.2-.5-.4,0,0-.1.2,0,.3.1.1.3.2.5.3ZM86.3,43.3c.1,0,.2-.1.3-.2,0-.2.2-.3.2-.5,0,0-.3-.3-.3-.2-.1,0-.3.2-.3.4,0,.2.1.4.2.5ZM53.6,92.6c0,0-.2-.2-.3-.3-.2.2-.3.4-.5.6,0,0,.2.2.3.3.2-.2.3-.4.5-.6ZM85.7,38.6c-.3.5-.4.6-.4.7,0,.1.2.3.3.3.1,0,.3-.2.3-.2,0-.2-.1-.4-.3-.7ZM85.2,38.1c0,0,0-.1,0-.2-.4,0-.8,0-1.2,0,0,0,0,.2,0,.3.4,0,.8,0,1.2,0ZM78.2,35.7c-.2-.2-.3-.3-.4-.4-.1.1-.2.3-.3.4,0,0,.2.2.3.2.1,0,.3-.2.5-.3ZM81.3,33.3c0,0,0,.1,0,.2.2,0,.4.1.7.2,0,0,0-.2,0-.2-.2,0-.5,0-.7,0ZM82,69.4c0-.1,0-.2.1-.3-.2,0-.4-.1-.6-.1,0,0,0,.2-.1.3.2,0,.4.1.6.2ZM17.3,79.6c0,.1,0,.2,0,.3.3,0,.6.2,1,.2,0-.1,0-.2,0-.4-.3,0-.6-.1-1-.2ZM82.8,54.5c-.1,0-.2,0-.3,0,0,.3,0,.6-.1.9,0,0,.2,0,.3,0,0-.3.1-.6.2-.9Z"/>
  <path class="st0" d="M98.2,49.4c0,.9-.4,1.4-1.4,1.2,0,.6.2,1.1.2,1.7-1.2-.3-1.7,1-2.6,1.6-.3.2,0,.8.4.7.5,0,1-.2,1.7-.3.5.3,1.4.5.9,1.8-.6-.1-1.3.2-1.6-.7,0-.2-.4-.3-.6-.3-.7,0-1.4.2-2,0-.9-.3-1.2.7-1.9.6-.3-.4-.1-.7.3-.9,1-.6,1-.6.6-1.5-.3-.7-.3-.8.4-.9.1,0,.3,0,.5,0,1.2-.5,1.2-.5,1.4.9.4-.5.7-.9,1-1.4-.9-.3-1.1-1.6-2.4-1.3.6-.7,1.4-.6,2.1-.6.6,0,1,0,1.4-.4.5-.5,1-.5,1.5,0h0Z"/>
  <path class="st0" d="M38.5,28.3c.5-1.2.5-1.2,1.8-.2-.3.3-.5.7-.9.9-.3.2-.7.3-1,.3-.4,0-.9,0-1.5,0,.2.6.4.9.5,1.3-.3.1-.6.2-.8.4-.4-.3-.8-.6-1.3-1-.3.9-.5,1.5-.7,2.2-1.2-.5-.5-1.4-.5-2.2-.3,0-.6,0-1,.1-.2-.3-.5-.6-.7-1,.2-.3.4-.7.6-1,.9-.1,1.5.4,1.8.8h2c.2-1,1.1-.3,1.8-.6Z"/>
  <path class="st0" d="M85.9,72.3c.9-1.3,1.7-2.1,3-2.6.4.5.9,1,1.1,1.6.2.6-.1,1.3-.3,2.1.3-.1.6-.2.8-.3.5,0,.9.1.9.6,0,.3-.5.7-.8.7-1,.2-1.6-.6-1.5-1.8-.6.3-1.1.2-1.6-.3-.4-.4-.5-.4-1.6-.1Z"/>
  <path class="st0" d="M85.9,26.4c-.2-.7-.3-1.1-.5-1.6.8-.3,1.4-1.2,2.7-.6-.5.3-.8.6-1.2.9.2.4.4.8.6,1.2,0,.1-.1.3-.3.4-.4.3-.6.6-.9,1.1-.4.6-.9,1.5-2.2,1.1.4-.5.7-.8,1.1-1.2,0,0,0-.2-.1-.1-.6.2-1.2.2-1.3-.6,0-.7.7-.6,1.2-.7.2,0,.4,0,.8.1Z"/>
  <path class="st0" d="M53.8,26.2c-.4.3-.8.6-1.6,1.3.5.2.9.4,1.4.7-.3.5-.5.8-.7,1.2-.3-.6-.5-1.2-.9-1.5-.4-.2-1.1-.1-1.7-.1,0-1.1,0-2.1,1.2-2.7h0c.2.1.4.2.7.3h0c0,.3.2.6.3.9h.3c0-.2.1-.4.1-.5,0-.4.2-.9.7-.7.6.2.7.7.3,1.2h0Z"/>
  <path class="st0" d="M64.1,26.5c-.7,0-1.4.2-2.2.3,0-.3-.1-.7-.1-1-.1,0-.2,0-.3,0,0,.4-.1.7-.2,1.3-.2,0-.6.2-1.1.4-.1-.4-.2-.8-.4-1.1.4-.2.7-.4,1.1-.6-.8-.6-.7-1.2-.3-1.7.7.2,1.6.3,2.2.7.5.4.8,1.1,1.2,1.8Z"/>
  <path class="st0" d="M67.5,98c-.4-.1-.8-.2-1.3-.4-.2.3-.5.6-.8.8-.4.4-.6.8-.3,1.5.4.9,0,1.1-.9.8.1-.2.2-.4.4-.6-.8-.7-.9-1.6-.3-2.6.1-.2,0-1.3.9-.7.1,0,.5-.3.7-.5.4-.5.9-.5,1.3-.1,0,.6.2,1.2.2,1.8h0Z"/>
  <path class="st0" d="M50.1,101.2h0c.2.1.5.3.8.4-1.9,1.5-3.4.8-3.9-1.2.4-.3.8-.7,1.2-1.1h0c0,.2.2.5.3.8.3-.3.6-.5.7-.6.4.6.7,1.1,1.1,1.7Z"/>
  <path class="st0" d="M67.7,23.5c0-.3.1-.8.2-.8,1.4,0,2.5-1.6,4.1-.6v1.2c-.8-.5-1.4.1-2.1.4-.6-.9-1.4-.2-2.1-.3h0Z"/>
  <path class="st0" d="M98.2,49.4c-.1-.5-.2-1-.4-1.5.1,0,.3-.1.5-.2.1,0,.3,0,.5-.1,0-.6-.2-1.2-.3-1.9-.3,0-.6,0-1,0,0,0,0,0,0,0-.2-.2-.5-.4-.9-.7.7,0,1.3-.3,1.8-.2.3,0,.6.6.7,1,.2.7.3,1.4.5,2.4,0,.1-.9,0-.8.7,0,.1-.5.3-.8.5,0,0,0,0,0,0Z"/>
  <path class="st0" d="M9.3,73.2c.4,1.3,1.5.6,2.3,1.1-.5.2-1,.4-1.5.5-.2,0-.4-.1-.6-.2-.4-.1-.9-.3-1.4-.5,0-.1.2-.4.3-.7q-.6-.7.1-1.9c0,1.3,1.4.6,1.7,1.7-.4,0-.7,0-1,0Z"/>
  <path class="st0" d="M97.7,53.6c1,.1,2.1.3,3.3.4,0,.6-.1,1.3-.2,2.2-.6-.3-1.2-.3-1.4-.6-.4-.8-1-1.4-1.9-1.6,0-.1.1-.3.2-.4Z"/>
  <path class="st0" d="M91.9,33.5c.2-1.1,1-1.4,1.9-1.4.9,0,1.4.7,1.8,1.6-1.4.5-2.5-.5-3.7-.3h0Z"/>
  <path class="st0" d="M6.1,45c0-.6,0-1-.2-1.3-.5-1.1-.5-1.1.4-2,.5.5,1.6.7,1.3,1.8-.2.8-.9,1.1-1.6,1.5Z"/>
  <path class="st0" d="M91.9,33.5c-.1.9-.6,1.8-.2,2.8-.9-.6-1.7-1.3-2.7-1.9.3-.3.6-.7,1-1.1.3.3.6.6,1,.9.3-.2.6-.4.9-.6,0,0,0,0,0,0Z"/>
  <path class="st0" d="M43.6,27.9c.2.7.3,1.3.5,1.9-.3.2-.6.3-.9.5-.7-.5-1.5-1-1.5-2.2.6,0,1.2,0,1.9-.1Z"/>
  <path class="st0" d="M56.8,24.2c0,.8-.1,1.3-.2,1.9-1.3-.5-2.6-.8-2.8-2.4.4.2.8.6,1.3.6.5,0,1,0,1.7,0Z"/>
  <path class="st0" d="M46.6,98.9c-.8.3-1.5.5-2.2.8-.5-1-.3-1.5.7-2.1.4-.2.7-.4,1.2-.6.1.7.2,1.3.3,1.9Z"/>
  <path class="st0" d="M22.3,26.3c1.4-1.1,2-.9,2.6.8-1.1.9-1.5.7-2.6-.8Z"/>
  <path class="st0" d="M29,107.9c.2-.3.4-.6.6-.8.1-.2.3-.3.5-.4.1.2.2.5.4.8.3,0,.7.2,1.4.4-.6.7-.9,1.5-1.7,1.2-.5-.2-.8-.9-1.2-1.3Z"/>
  <path class="st0" d="M95,69c-.7.2-1.1-.9-1.8-.1,0,0-.8-.4-.9-.6,0-.4.1-.9.7-1,1.2-.2,1.8.3,1.9,1.7Z"/>
  <path class="st0" d="M26.1,91.6c0,.8-.6,1.4-.3,2.1.2.4,0,.8-.6.9-.5,0-.6-.4-.6-.8,0-.4,0-.9,0-1.3,0-.7.6-1.1,1.5-.8Z"/>
  <path class="st0" d="M70.4,90.5c.6-.5,1,.2,1.4.5,0-.3.1-.5.2-.7,0,0,0,0,0,0,.3.2.7.5.9.8.1.2,0,.6-.2.8-.1.1-.5.2-.7.2-.9-.1-1.6-.5-1.7-1.5Z"/>
  <path class="st0" d="M11.5,69.5c-.4.5-.8.9-1.2,1.4-.6-.5-.7-1-.3-1.8-.5-.3-1-.6-1.4-.8.8-.3,1.8,0,2.8,1.2Z"/>
  <path class="st0" d="M94.2,23.6c.6.1,1.1.3,1.6.4,0,.9-1,.5-1.2,1,0,.3,0,.8-.3.8-.8.3-.9-.4-1.1-.9.3-.4.6-.9.9-1.4Z"/>
  <path class="st0" d="M89.3,81.3c-.1-.2-.3-.4-.3-.5.5-.9.9-1.7,1.4-2.7,1,.1,0,1.3.6,1.5-.6.6-1.2,1.1-1.7,1.6h0Z"/>
  <path class="st0" d="M95.5,90.5c-1,.4-1.7.2-2.3-.5.1-.8.7-1,1.3-.8.7.1.9.7,1,1.4Z"/>
  <path class="st0" d="M86.8,78.9c.6-1.1,1.2-1.4,2.1-1.4.4.5.4,1,0,1.4-.6.6-1.3,0-2.1,0Z"/>
  <path class="st0" d="M101.4,38.5c-.3.3-.5.8-.9,1-.3.1-.7,0-1.1,0,0-.4,0-.8.2-1.1.5-.6,1.1-.5,1.8.2Z"/>
  <path class="st0" d="M40.6,31c.4-.3.7-.5,1-.6.4.6.8,1.2,1.2,1.8q-1.9.1-2.2-1.1Z"/>
  <path class="st0" d="M79.3,95.3c1.3-.1,1.4.1,1.4,2-.6.3-.8,0-1-.5-.1-.5-.3-1-.4-1.5Z"/>
  <path class="st0" d="M75.7,22.7c-.8.5-1.4.8-2,.2-.7-.7.5-1,.3-1.6.6.5,1.1.9,1.7,1.4Z"/>
  <path class="st0" d="M22.4,88.4c.1.8.7.5,1.2.3.1.5.3,1,.4,1.6-1.4.7-1.4-1-2.4-1,0-.1,0-.2,0-.3.3-.2.6-.3.8-.5,0,0,0,0,0,0Z"/>
  <path class="st0" d="M86.9,67h0c.4-.4.9-.9,1.3-1.4.7.9.7,1,0,2.2-.4-.3-.8-.5-1.3-.8Z"/>
  <path class="st0" d="M30.7,101.6c-.2,0-.4.1-.6,0-1.2,0-1.3-.1-1-1.5q1.3-.1,1.6,1.4h0Z"/>
  <path class="st0" d="M11,82.2c-.3-.3-.7-.7-.7-1.1,0-.4,0-.9.3-1.3,0-.2.5-.2.7-.4.1.3.4.8.4.8-.6.5-.6,1.1-.6,1.9Z"/>
  <path class="st0" d="M58.8,24.2c-.3,0-.5.1-1,.3.5-.7.9-1.1,1.2-1.5.1,0,.2,0,.4,0,.2.8.4,1.6.6,2.4-1.3.1-.9-.7-1.1-1.3Z"/>
  <path class="st0" d="M12.8,52.6c-.1-.6-.2-1-.3-1.5-.3.2-.5.4-.7.6,0-.3-.3-.5-.2-.7.3-.7.7-.8,1.3-.6.6.3.6.6,0,2.1Z"/>
  <path class="st0" d="M95.8,19.3c-.8.4-1.4.6-2,.9-.6-.9.4-1.4.3-2.3.6.5,1,.9,1.7,1.4Z"/>
  <path class="st0" d="M45.3,25.1c0,.6-.1,1.2-.2,1.8-.4-.2-.8-.5-1.3-.7q0-1.4,1.4-1.1Z"/>
  <path class="st0" d="M33.8,98.1c-1.1-.3-.7-1-.8-1.6.5-.1,1.1-.5,1.5.1.5.8-.6.9-.7,1.5Z"/>
  <path class="st0" d="M80,93.8c-.4-.2-.7-.4-1.1-.7.3-.2.5-.5.7-.5.6,0,1.1.2,1.2-.6,0,0,.3,0,.5-.1,0,.2.1.5,0,.6-.4.4-.8.8-1.3,1.3Z"/>
  <path class="st0" d="M67.5,98c.3.2.7.4,1.1.7-.2.3-.5.8-.9,1.4-.5-.4-.8-.7-1.4-1.1.5-.4.8-.7,1.1-1,0,0,0,0,0,0Z"/>
  <path class="st0" d="M76,22.1c-.5-1.2-.4-1.9.5-2.5,0,.5-.2,1,.2,1.4.4.4,0,.9-.7,1Z"/>
  <path class="st0" d="M88.2,35.5c.2-.1.3-.2.5-.4.1.5.2.9.3,1.4-1,1-1.4-.3-2.2-.6.5-.1.9-.3,1.4-.4,0,0,0,0,0,0Z"/>
  <path class="st0" d="M82.8,20c-.2-.6-.4-.9-.5-1.3,0-.3,0-.6.3-.8.1-.1.6,0,.7,0,.2.2.4.6.3.9,0,.3-.4.6-.8,1.1Z"/>
  <path class="st0" d="M102.2,40.6c.6,0,1.1,0,2.1.1-.5.7-.7,1-1.1,1.6-.5-.5-.8-.9-1.1-1.3,0-.1.1-.2.2-.3Z"/>
  <path class="st0" d="M86.5,83.7c.7,0,1.4,0,2,0,.2,0,.4.4.4.5-.1.2-.5.6-.6.5-.6-.2-1.4-.1-1.8-1.1Z"/>
  <path class="st0" d="M90.8,72.1c0-.7,0-1.5-.8-1.9,0,0,0-.5.2-.8.2.7.7,1.1,1.6,1.1-.2.7-.4,1.1-.6,1.6-.1,0-.2,0-.4,0Z"/>
  <path class="st0" d="M68.9,97.1c1.3-.3,1.5,0,1.6,1.2q-1.3-.4-1.6-1.2Z"/>
  <path class="st0" d="M68,9.6c-.5-.3-.9-.5-1.2-.9-.1-.1-.1-.6,0-.8.1-.1.6-.1.8,0,.4.3.8.8.4,1.6Z"/>
  <path class="st0" d="M11.2,76.9q.6-1.3,1.6-.9t-1.6.9h0Z"/>
  <path class="st0" d="M23.4,99.9c-.4-.5-.6-.9-.9-1.3q.8-.6,1.7.1c-.3.4-.5.7-.8,1.2Z"/>
  <path class="st0" d="M72.1,95.4c.9.5.9,1.1.8,1.8-1.5-.6-1.5-.7-.8-1.8Z"/>
  <path class="st0" d="M77.5,91c-1.7.4-1.9.2-1.7-1.3.5.4,1,.8,1.7,1.3Z"/>
  <path class="st0" d="M83.3,25.9c.2-.8.4-1.5.6-2.2.1,0,.2,0,.4,0,0,.3.1.6.2.9.1.3.3.5.4.8-.4.1-.9.3-1.6.4Z"/>
  <path class="st0" d="M19,92.7c-.8-.3-1.2-.6-1-1.3.2-.6.8-.5,1.4-.3-.1.5-.3,1-.4,1.6Z"/>
  <path class="st0" d="M57.6,8.9c-.6.7-1.1.7-1.5,0-.1-.2,0-.8.3-.8.7-.3.9.3,1.2.8Z"/>
  <path class="st0" d="M37.2,124.3c-.6-.7-.9-1.1-1.2-1.5q.9-.5,2,.6c-.2.2-.4.5-.8.8Z"/>
  <path class="st0" d="M13.2,86.7c.6-.4,1.1-.6,1.5,0,.1.2,0,.7-.2.8-.7.3-1-.1-1.3-.8Z"/>
  <path class="st0" d="M15.8,79.9s0,0,.1,0c0,.4-.1.8-.2,1.4-.9-1.1-1-1.5-.6-2.2.2.2.4.5.7.7Z"/>
  <path class="st0" d="M4.3,71.4c-.3-.3-.5-.6-.8-.9.4-.5.7-1.1,1.3-.6.5.4.3.9-.5,1.5Z"/>
  <path class="st0" d="M5.2,68.1c.5.3,1,.6,1.5.8-.3.5-.6.8-1.3.4-.5-.3-.8-.6-.2-1.2Z"/>
  <path class="st0" d="M26.8,119.3c.5-.6.7-.9,1-1,.2-.1.6,0,.9,0-.1.3-.2.7-.5.8-.3.2-.7.1-1.4.2Z"/>
  <path class="st0" d="M20.9,100.9c-.5-.1-.8-.2-1.1-.2,0-.8.3-1.1,1.1-1.2v1.5Z"/>
  <path class="st0" d="M83,23.5c0,.7,0,1.1,0,1.7-.5-.2-.8-.4-1.3-.6.5-.4.9-.7,1.4-1.1Z"/>
  <path class="st0" d="M86.9,94.8h1.3c0,0,.1.2.2.3-.2.3-.5.7-.7.7-.3,0-.6-.3-.9-.5,0-.2.1-.3.2-.5Z"/>
  <path class="st0" d="M75,93.7c1.1-.6,1.4,0,1.7.8-.8.2-1.3,0-1.7-.8Z"/>
  <path class="st0" d="M46.6,101.6c.8.2.9.8,1.1,1.5q-1.1.3-1.1-1.5Z"/>
  <path class="st0" d="M57.2,15.9c-.8.2-1.2-.2-1.5-.9q1.1-.3,1.5.9Z"/>
  <path class="st0" d="M90,66.8c.5-.5.8-.8,1-1.1.2.3.5.5.9,1.1h-2Z"/>
  <path class="st0" d="M18.5,89.5c.7-1.3,1.4-.7,1.9-.6,0,.1,0,.2,0,.3-.6,0-1.1.1-2,.2Z"/>
  <path class="st0" d="M72.1,21.4c-.7-.2-1-.3-1.6-.4.4-.5.7-.8,1.1-1.2.2.6.3.9.5,1.6Z"/>
  <path class="st0" d="M14.7,77.5c1.3-.3,1.3.8,1.7,1.3-.7-.2-1.5-.2-1.7-1.3Z"/>
  <path class="st0" d="M90.4,26.6c.5-.2.9-.3,1.4-.4,0,0,.1.1.2.2-.3.4-.7.8-1.1,1.2-.1-.3-.3-.6-.5-1Z"/>
  <path class="st0" d="M32.2,34.2c0-.1-.2-.2-.3-.3-.2-.3-.6-.7-.1-1.1,0,0,.3,0,.4,0,.4.3.7.7.3,1.2,0,0-.1.1-.2.2Z"/>
  <path class="st0" d="M92.3,65.2c-.3-.1-.6-.3-1-.5.2-.5.4-.9.7-1.6.1.4.2.6.2.8,0,.4,0,.8,0,1.3Z"/>
  <path class="st0" d="M33.9,99c.4.7.5,1.2-.1,1.4-.2,0-.7-.1-.7-.3-.2-.7.4-.8.9-1.1Z"/>
  <path class="st0" d="M47.1,23.6q.5.9-.5,1.7c0-.7,0-1.2.1-1.7.1,0,.2,0,.3,0Z"/>
  <path class="st0" d="M70.3,88.5c0,.2,0,.4,0,.6-.5.5-1,.5-1.6.3h0c.2-.3.4-.6.7-1h0c.3,0,.6,0,.9,0Z"/>
  <path class="st0" d="M38.2,31.7c0-.2-.1-.4-.2-.5,0,0,.2-.2.2-.2.4,0,1.2-.4,1.1.5,0,.7-.7.4-1.2.3,0,0,0,0,0,0Z"/>
  <path class="st0" d="M78.2,98.5c.4,0,.9,0,1.6-.1-.3.5-.5,1-.6.9-.4,0-.7-.3-1.1-.5,0,0,0-.2,0-.3Z"/>
  <path class="st0" d="M8.7,62.5c-.2-.1-.4-.3-.6-.4-.3,0-.6.2-.9.3,0,0,0-.2-.1-.2.3-.2.6-.5,1.1-.8.2.5.4.8.5,1.2Z"/>
  <path class="st0" d="M19.4,45.2q-.9.3-1.2-.6t1.2.6Z"/>
  <path class="st0" d="M72.8,110.9c1.1.8,1.1,1-.2,1.7,0-.5.1-1,.2-1.7Z"/>
  <path class="st0" d="M25.8,109.4c0-.3,0-.6.1-.9.4,0,.7,0,1.1,0-.1.7-.5,1-1.3.9Z"/>
  <path class="st0" d="M46.9,32.1c-.4-.2-.7-.4-1.2-.8.5-.3.8-.6,1.4-1,0,.8-.1,1.3-.2,1.8,0,0,0,0,0,0Z"/>
  <path class="st0" d="M31.7,35.3c.7-.2,1.3-.4,2-.6-.3,1.3-1.4.4-1.9.9,0-.1,0-.2-.1-.4Z"/>
  <path class="st0" d="M16.6,90c-.3-.1-.7-.2-1.2-.4.4-.4.7-.6,1-.9.2.4.3.7.4,1,0,0-.2.2-.2.3Z"/>
  <path class="st0" d="M28,95.6c0-.2-.1-.5-.2-.8h2.1c-.8.4-1.3.6-1.8.8Z"/>
  <path class="st0" d="M67.6,23.4c-.9.8-.9.8-1.6-.2.6-.4,1.1.2,1.7.2,0,0,0,0,0,0Z"/>
  <path class="st0" d="M74.6,25.5c-.6-.3-1-.6-1.5-.8.8-.5,1.2-.3,1.5.8Z"/>
  <path class="st0" d="M21,26.1c-.3.2-.5.5-.8.5-.1,0-.3-.3-.5-.5.2-.2.4-.4.6-.5,0,0,.3.3.6.5Z"/>
  <path class="st0" d="M24.4,96h1.5c-1,1-1.1,1-1.5,0Z"/>
  <path class="st0" d="M30.2,96c.6-.2,1.1-.1,1.3,1-.6-.3-1.1-.4-1.5-.6,0-.1,0-.2.1-.4Z"/>
  <path class="st0" d="M47.5,17.1c.5.4.8.6,1.2.8-.1.2-.2.4-.3.4-.7.1-1-.2-.9-1.2Z"/>
  <path class="st0" d="M67,18c.2.4.5.6.5.8s-.4.3-.6.5c-.1-.2-.4-.4-.4-.5,0-.2.2-.5.5-.8Z"/>
  <path class="st0" d="M51.4,25.1c-.5,0-1,0-1.4,0-.2,0-.3-.4-.2-.8.5.3,1.1.6,1.6.9h0Z"/>
  <path class="st0" d="M10.8,34c.5-.3.9-.5,1.4-.7,0,1.2,0,1.2-1.4.7Z"/>
  <path class="st0" d="M69.5,94.7c.2-.4,0-1.2,1.3-.7-.4.4-.7.7-.9,1-.1-.1-.2-.2-.3-.3Z"/>
  <path class="st0" d="M97.6,58.5c.4,0,.8,0,1.4,0-.6.8-.9.8-1.4.5,0-.1,0-.3,0-.4Z"/>
  <path class="st0" d="M9.1,59.7q.8-.9,1.3.1c-.5,0-.9-.1-1.3-.1Z"/>
  <path class="st0" d="M94.1,61.7c-.1,0-.2,0-.2,0-.5,0-.9-.2-.9-.8,0,0,.2-.3.3-.3.5,0,.8.3.8,1Z"/>
  <path class="st0" d="M22.1,101.3c-.2-.3-.4-.5-.4-.7,0-.2.3-.4.5-.4.1,0,.4.3.4.4,0,.2-.3.3-.5.6Z"/>
  <path class="st0" d="M94.6,69.6c.2.4.4.6.4.8,0,.2-.3.3-.4.5-.2-.2-.4-.4-.5-.7,0-.1.2-.3.5-.6Z"/>
  <path class="st0" d="M22.7,133c-.3.4-.6.6-1,1-.2-1.2-.2-1.3,1-1Z"/>
  <path class="st0" d="M25.7,112.5c-.3.2-.6.4-.8.4-.2,0-.4-.2-.5-.4.2-.2.5-.4.7-.6,0,0,.3.3.6.5Z"/>
  <path class="st0" d="M11.2,76.9c0,.2.2.5.3.7-.5.5-.9.6-1.4-.1.4-.2.8-.4,1.2-.6,0,0,0,0,0,0Z"/>
  <path class="st0" d="M37.2,27.3c-.4.2-.6.4-.8.3-.2,0-.3-.3-.5-.5.2-.1.4-.4.6-.4.2,0,.4.2.7.5Z"/>
  <path class="st0" d="M53.8,26.2c.2.5.5.9.8,1.5-.4.3-.8.3-.9-.3,0-.4,0-.8,0-1.2,0,0,0,0,0,0Z"/>
  <path class="st0" d="M9.1,46.7c-.8-.9-.4-1.3.4-1.7-.1.5-.2,1-.4,1.7Z"/>
  <path class="st0" d="M93.9,55.7c.2.4.3.8.5,1.3q-1.2-.5-.5-1.3Z"/>
  <path class="st0" d="M30.9,16.5q-.4-1.2.6-1.1c-.2.3-.3.6-.6,1.1Z"/>
  <path class="st0" d="M14.3,42.1c-.2-.6-.3-.9-.5-1.3.3,0,.6-.2.7,0,.4.4.3.8-.2,1.4Z"/>
  <path class="st0" d="M23.4,40.4c.3.2.5.4,1,.8-.5.2-.9.3-1.3.4h0c.1-.4.2-.8.3-1.2h0Z"/>
  <path class="st0" d="M26.7,103.9c.2.2.3.4.4.5-.2.1-.4.3-.6.3,0,0-.3-.3-.2-.4,0-.1.2-.2.5-.4Z"/>
  <path class="st0" d="M21.5,96.8c.3-.4.5-.7.8-1.1q.2.9-.8,1.1Z"/>
  <path class="st0" d="M97.2,46.3c-.2.3-.4.5-.8.9-.2-.6,0-1,.4-1.4.1.3.2.4.3.6h0Z"/>
  <path class="st0" d="M34.3,101.8c-.2-.3-.4-.6-.3-.7,0-.2.3-.3.5-.4.1,0,.4.3.4.3-.1.2-.3.4-.6.8Z"/>
  <path class="st0" d="M47.3,111c-.3.3-.5.5-.7.5,0,0-.4-.2-.4-.3,0-.2.2-.5.3-.5.1,0,.4.1.7.3Z"/>
  <path class="st0" d="M2.9,65.7c.6,0,1,.3,1,1.2-.7-.2-.8-.7-1-1.2h0Z"/>
  <path class="st0" d="M22.2,91.9c-.3-.1-.6-.3-.9-.4q.6-.4.9.4Z"/>
  <path class="st0" d="M30.7,101.6c.2.4.5.7.8,1.2-.4,0-.7.1-.9,0-.4-.4-.3-.8.1-1.2,0,0,0,0,0,0Z"/>
  <path class="st0" d="M64.2,15c-.9,0-1.3,0-1.2-.9.4.3.7.5,1.2.9Z"/>
  <path class="st0" d="M25.7,12.1c-.2.2-.4.4-.5.4-.2,0-.4-.3-.5-.4.1-.1.3-.4.4-.4.2,0,.4.2.7.4Z"/>
  <path class="st0" d="M85.3,86c-.4.1-.6.3-.8.2-.3-.1-.5-.4-.7-.6.1-.1.3-.4.4-.3.2.1.4.3,1.1.8Z"/>
  <path class="st0" d="M55.6,114.8c.1.3.3.6.4.9-.2,0-.3.1-.4,0-.4-.3-.8-.6,0-1Z"/>
  <path class="st0" d="M61.7,21.5c.3-.2.7-.3,1-.5,0,.7-.4.9-1,.5Z"/>
  <path class="st0" d="M14.4,87.8c.4,0,.8.1,1.5.2-.8.7-1.1.4-1.5.2,0-.1,0-.3,0-.4Z"/>
  <path class="st0" d="M82.4,91.1c.3-.3.6-.6.9-1q.2.8-.9,1Z"/>
  <path class="st0" d="M50.5,105c0-.2-.2-.4-.2-.6,0-.3.2-.5.4-.7.1.1.4.2.4.3,0,.3-.1.5-.2.8-.1,0-.2.1-.4.2Z"/>
  <path class="st0" d="M83.9,82c.1.5.2.9.3,1.3q-.7-.3-.3-1.3Z"/>
  <path class="st0" d="M45.4,17.5c-.4,0-.9-.2-1.3-.3q.4-.7,1.3.3Z"/>
  <path class="st0" d="M37.1,2.2c-.2-.4-.4-.6-.3-.7,0-.1.3-.3.5-.3,0,0,.3.3.3.4,0,.2-.3.3-.5.6Z"/>
  <path class="st0" d="M97.7,62.5c-.4,0-.7,0-1.3-.2.5-.7.9-.6,1.3-.3,0,.1,0,.3,0,.4Z"/>
  <path class="st0" d="M12.9,78.1c.4,0,.7,0,1.1-.1.1.1.2.3.3.4-.3.1-.5.3-.8.3-.2,0-.5-.2-.7-.3,0-.1,0-.2,0-.3Z"/>
  <path class="st0" d="M75.8,116.6q0,.8-1,.8c.4-.3.6-.6,1-.8Z"/>
  <path class="st0" d="M67.4,115c.8-.4,1.1-.2,1.4.5-.4,0-.6,0-.8,0-.2,0-.3-.2-.6-.4Z"/>
  <path class="st0" d="M27.7,107.1c0,1-.5,1-1.1,1,.3-.3.6-.5,1.1-1Z"/>
  <path class="st0" d="M46.1,105.4c-.3.2-.5.3-.6.3-.2,0-.3-.2-.4-.4,0,0,.2-.4.3-.4.2,0,.4.2.7.4Z"/>
  <path class="st0" d="M47.5,13.9c-.3,0-.5-.2-.8-.3,0-.1,0-.4.1-.4.3,0,.5,0,.8.1,0,.2,0,.3-.1.5Z"/>
  <path class="st0" d="M45,21.9c-.2-.2-.3-.5-.5-.7.2,0,.3-.2.5-.3.1.2.2.5.4.7-.1,0-.2.1-.3.2Z"/>
  <path class="st0" d="M70.8,25.4c.4-.2.8-.3,1.2-.5,0,1-.5,1-1.2.5Z"/>
  <path class="st0" d="M45.9,29c.3.1.6.2.9.3,0,0,0,.2,0,.2-.2,0-.4.1-.6,0-.2,0-.3-.2-.4-.3,0,0,.1-.2.2-.3Z"/>
  <path class="st0" d="M28.7,33.2c-.2-.2-.6-.3-.7-.5-.1-.3.3-.5.6-.2.1,0,.2.2.3.3,0,.1-.1.2-.2.4Z"/>
  <path class="st0" d="M97.1,46.3c.2-.2.3-.4.5-.6,0,0,0,0,0,0,0,.2.2.4.3.5.3.4.2.8-.2.8-.5,0-.5-.4-.5-.7,0,0,0,0,0,0Z"/>
  <path class="st0" d="M4.9,55.3c.5.1.8.2,1.2.3,0,.2,0,.3-.2.4-.4.3-.7.2-1-.6Z"/>
  <path class="st0" d="M96.1,56.6c-.3,0-.6,0-1.1,0,.3-.8.6-.8,1.1,0Z"/>
  <path class="st0" d="M92.7,66.8c-.2-.1-.4-.2-.7-.3,0,0,.1-.3.1-.2.2,0,.4.2.7.3,0,0,0,.2-.1.3Z"/>
  <path class="st0" d="M8.9,78.3c-.6-.1-.8-.5-.5-1.3.4.4.6.7.9,1-.1,0-.2.2-.3.3Z"/>
  <path class="st0" d="M.3,47.6c-.1-.2-.3-.3-.3-.4,0-.2.2-.3.3-.4.1.1.3.2.4.3-.1.1-.2.3-.4.5Z"/>
  <path class="st0" d="M82.5,94.4c-.3,0-.5.1-.8.1,0,0,0-.2,0-.3.3,0,.5-.2.8-.3,0,.1,0,.2,0,.4Z"/>
  <path class="st0" d="M86.3,72.7c.1.2.3.4.3.5,0,.1-.3.3-.4.3-.1,0-.3-.2-.3-.4,0-.1.2-.2.5-.5Z"/>
  <path class="st0" d="M7.8,58.4c-.2-.4-.3-.5-.3-.6,0,0,.2-.3.3-.3.1,0,.3.2.4.4,0,0-.1.2-.3.5Z"/>
  <path class="st0" d="M77.2,97.2l.6-.6c0,0,.2.1.3.2-.2.2-.3.5-.5.7-.1,0-.2-.2-.3-.3Z"/>
  <path class="st0" d="M15,91.7c-.2-.2-.4-.4-.4-.5,0-.1.2-.3.4-.4.1,0,.3.2.3.4,0,.1-.2.3-.4.5Z"/>
  <path class="st0" d="M79.8,91.4c-.2-.3-.3-.5-.3-.6,0-.1.3-.2.4-.4.1.1.3.3.3.4,0,.1-.2.3-.4.5Z"/>
  <path class="st0" d="M26.6,24.6c.3,0,.6,0,.9,0,0,0,0,.2,0,.2-.1,0-.3.2-.4.2-.2,0-.3,0-.5,0,0-.1,0-.2,0-.3Z"/>
  <path class="st0" d="M84.5,22.2c.2.2.3.4.5.5-.1,0-.2.2-.3.2-.2,0-.3-.2-.4-.3,0,0,.1-.2.3-.4Z"/>
  <path class="st0" d="M54.2,21.9c0-.6,0-.9.1-1.3.7.4.6.7-.1,1.3Z"/>
  <path class="st0" d="M87.2,21c-.3-.2-.5-.5-.9-.8.3-.1.5-.3.5-.2.2.2.5.5.7.7,0,0-.2.2-.3.3Z"/>
  <path class="st0" d="M21.4,14.4c.3.1.6.3.8.4,0,.1,0,.2-.1.3-.3,0-.6-.2-.9-.2,0-.1,0-.3.1-.4Z"/>
  <path class="st0" d="M59.1,12.9c.1.2.2.4.3.6,0,0-.3.2-.3.2-.2-.1-.3-.3-.4-.5.1,0,.2-.2.4-.3Z"/>
  <path class="st0" d="M38.2,0c.2.3.5.7.8,1.1-.7-.2-.8-.6-.8-1.1Z"/>
  <path class="st0" d="M12.2,84.5c.2.2.4.4.6.5,0,0,0,.1,0,.2-.2,0-.4,0-.6-.1-.1,0-.1-.3-.2-.5,0,0,.2-.1.3-.2Z"/>
  <path class="st0" d="M94.9,48.7c-.2,0-.5-.1-.7-.2,0-.1,0-.3.1-.4.2,0,.5.2.7.3,0,0,0,.2,0,.3Z"/>
  <path class="st0" d="M6.8,45.7h1.2c-.5.5-.8.9-1.2,0Z"/>
  <path class="st0" d="M20.9,94.8c0-.2-.1-.5-.2-.7,0,0,.3,0,.3,0,0,.2.1.5.2.7,0,0-.2,0-.3,0Z"/>
  <path class="st0" d="M9.5,40.8c.9-.2,1.3-.2.9.8-.3-.3-.5-.5-.9-.8Z"/>
  <path class="st0" d="M98,35.8c0-.3-.2-.5-.2-.6,0-.1.2-.2.3-.4.1.1.3.2.4.4,0,0-.2.2-.5.6Z"/>
  <path class="st0" d="M32,30c0,.1-.2.2-.2.3,0,0-.2-.2-.2-.3,0-.1.2-.2.3-.3,0,0,.1.1.2.3Z"/>
  <path class="st0" d="M52.1,25.4c-.2-.3-.4-.6-.6-1,1.3,0,.4.7.6,1,0,0,0,0,0,0Z"/>
  <path class="st0" d="M27.5,112c.3-.1.6-.2.9-.3,0,.1,0,.2.1.3-.3.1-.6.2-1,.3,0,0,0-.2,0-.3Z"/>
  <path class="st0" d="M69.1,91.1c0-.3.2-.6.3-.9,0,0,.1,0,.2,0,0,.2,0,.4,0,.5,0,.2-.2.3-.2.5,0,0-.1,0-.2-.1Z"/>
  <path class="st0" d="M64.4,24.1c.2-.2.3-.4.5-.6,0,0,.2.1.2.2-.1.2-.2.5-.4.7-.1,0-.2-.2-.3-.2Z"/>
  <path class="st0" d="M90,21.3c-.2,0-.4-.2-.4-.2,0-.1.1-.3.2-.3.2,0,.3.2.4.2,0,.1-.2.2-.3.3Z"/>
  <path class="st0" d="M20.8,112.1c-.2,0-.5,0-.7,0,0,0,0-.2,0-.4.3,0,.5,0,.8,0,0,.1,0,.3,0,.4Z"/>
  <path class="st0" d="M62.1,17.5v-1.3c0,0,.1,0,.2,0,0,.4,0,.8.1,1.3-.1,0-.2,0-.3,0Z"/>
  <path class="st0" d="M70.6,16.1c-.2.2-.3.3-.5.4,0,0-.3-.2-.3-.3,0-.2.2-.3.4-.4,0,0,.2.2.4.3Z"/>
  <path class="st0" d="M27.8,3c-.1-.3-.3-.5-.4-.8,0,0,.2-.1.3-.2.2.2.3.5.5.7-.1,0-.2.2-.4.2Z"/>
  <path class="st0" d="M53.1,125.2c-.2-.2-.4-.3-.3-.4,0-.2.2-.3.2-.4.1,0,.3.1.3.2,0,.2-.1.3-.2.6Z"/>
  <path class="st0" d="M12.8,74.8c-.2,0-.5,0-.7,0,0,0,0-.2,0-.3.2,0,.5,0,.7,0,0,.1,0,.3,0,.4Z"/>
  <path class="st0" d="M52.9,104c-.1-.2-.3-.4-.3-.5,0,0,.2-.2.3-.3.1.1.3.3.3.4,0,0-.1.2-.3.4Z"/>
  <path class="st0" d="M33,101.7c.2.1.3.3.5.4,0,0-.2.3-.3.3-.2,0-.3-.2-.5-.3,0-.1.1-.2.3-.4Z"/>
  <path class="st0" d="M2.9,65.7c-.4.3-.8.9-1.5.1.6,0,1.1,0,1.5-.1h0Z"/>
  <path class="st0" d="M98.7,63.8c-.3.1-.5.2-1,.4,0-.8.5-.8,1-.4Z"/>
  <path class="st0" d="M88.3,60.3c.3.3.6.5.9.8q-.7,0-.9-.8s0,0,0,0Z"/>
  <path class="st0" d="M16.8,82.6c.2.2.5.3.7.5,0,.1-.1.2-.2.3-.2-.2-.5-.3-.7-.5,0,0,.1-.2.2-.3Z"/>
  <path class="st0" d="M89.3,81.2c-.3.1-.6.3-.9.4,0,0,0-.2,0-.3.3,0,.6,0,.9,0,0,0,0,0,0,0Z"/>
  <path class="st0" d="M6.5,54.4c.6.1.8.2,1.3.3-.6.4-.9.4-1.3-.3Z"/>
  <path class="st0" d="M69.5,88.5q-1-.2-.8-1.1c.6.1.7.7.7,1.2,0,0,0,0,0,0Z"/>
</svg>