<?xml version="1.0" encoding="UTF-8"?>
<svg id="Layer_2" xmlns="http://www.w3.org/2000/svg" version="1.1" viewBox="0 0 362.4 358.8">
  <!-- Generator: Adobe Illustrator 30.0.0, SVG Export Plug-In . SVG Version: 2.1.1 Build 123)  -->
  <defs>
    <style>
      .st0, .st1 {
        fill: none;
      }

      .st2 {
        fill: #e9a79d;
      }

      .st3 {
        fill: #361a5c;
      }

      .st1 {
        stroke: #fffef6;
        stroke-miterlimit: 10;
        stroke-width: 2.8px;
      }

      .st4 {
        fill: #7f8992;
      }

      .st5 {
        fill: #39a187;
      }

      .st6 {
        fill: #fffef6;
      }
    </style>
  </defs>
  <circle class="st1" cx="181.2" cy="179.4" r="138.5"/>
  <path class="st0" d="M116.6,114.8l-1.9-1.7c-17,17-27.5,40.4-27.5,66.3,0,51.8,42.1,93.9,93.9,93.9s93.9-42.1,93.9-93.9-42.1-93.9-93.9-93.9-44.9,8.6-61.4,22.9l1.4,1.5-4.6,4.9h0Z"/>
  <path class="st0" d="M240.6,108.3c1.5,1.5,3.4,3.8,6.1,3.8-2.3-2.3-4.8-4.4-7.3-6.4,0,.9.5,1.8,1.3,2.6Z"/>
  <path class="st3" d="M239.3,105.7c2.6,2,5,4.2,7.3,6.4.9,0,1.9-.3,3.1-1-3.1-3.1-6.3-5.9-9.8-8.6-.4.9-.7,2-.6,3.1Z"/>
  <path class="st6" d="M181.2,82.6c-24.2,0-46.3,8.9-63.3,23.6l1.9,2.1c16.5-14.2,37.9-22.9,61.4-22.9s37.9,6.1,52.9,16.4c.1-.9.4-1.9.9-2.8-15.4-10.3-33.9-16.4-53.8-16.4h0Z"/>
  <path class="st6" d="M140.1,263.9c-7.8-3.8-14.9-8.6-21.3-14.3-.3.3-.8.6-1.3.8,0,0-.8,0-2,0,6.9,6.4,14.8,11.8,23.4,16l1.3-2.5h0Z"/>
  <path class="st3" d="M97.3,227.5c2.5,4.4,5.3,8.5,8.5,12.4.3-1,.8-1.8,1.8-2.2-3.5-4.4-6.5-9-9.2-14,0,1.4-.5,2.7-1.1,3.8h0Z"/>
  <path class="st6" d="M95.4,217.7c-5.2-11.7-8.2-24.6-8.2-38.3,0-25.9,10.5-49.3,27.5-66.3l-2.1-1.9c-17.4,17.5-28.2,41.6-28.2,68.2s2.7,25.9,7.6,37.5c1.1,0,2.3.2,3.4.8Z"/>
  <path class="st6" d="M227.6,264.3l-.2-3.1c-13.7,7.8-29.4,12.2-46.2,12.2s-17.1-1.2-25.1-3.4l-1.1,2.6c8.4,2.4,17.2,3.6,26.3,3.6,16.8,0,32.6-4.3,46.4-11.9h0Z"/>
  <path class="st6" d="M271.6,213.8c-1.3.9-2.7,1.5-3.8,1.8-5.7,13.5-14.4,25.3-25.2,34.7l-.9,4.4c13.3-10.7,23.7-24.8,29.9-41h0Z"/>
  <path class="st6" d="M277.9,178.4c-.2-23.8-9.1-45.5-23.6-62.2-.8.5-1.7.9-2.8,1.2,13.8,15.6,22.5,35.9,23.4,58.2.8.4,1.8,1.3,2.9,2.9Z"/>
  <path class="st0" d="M123.2,157.5c.3-.3-2.3-7.3-2.9-7.4-1.6,0-.7,2.3-.3,3.4.2.4,1.7,3.4,1.8,3.6.3.4,1.1.6,1.3.4Z"/>
  <path class="st0" d="M119.7,159.4c0-.5-1.2-1.5-1.6-1.2-.6.6.9,1.3,1.6,1.2Z"/>
  <path class="st0" d="M126.7,158.7c-2-.5-3,1.8-4.4,2.4-.8.3-2.1-.1-2.5.1-.8.5-1.4,2.6-2.3,3.3,1.1.2,1.9-.4,2.8-.8,1.9-1,3.8-3.3,5.6-3.9.6-.2,1-.1.9-1h0Z"/>
  <path class="st0" d="M122.8,140c-.2-.4-.9,1.1-.8,1.6.8-.2.9-.9.8-1.6Z"/>
  <path class="st0" d="M125.1,148.2c.2-.1,0-3.3,0-4.1.2-1.9.9-4.4.8-6.2,0-.7,0-1.7-1-1.7-.6,0-1.7,10.9-1,11.8.2.3,1.1.3,1.2.2h0Z"/>
  <path class="st0" d="M129.3,161.7c1.2,2.2,2.5,0,1.6-1-1-.9-2.6-.8-1.6,1Z"/>
  <path class="st0" d="M132.9,159.4c.3.2,6.6-.9,6.2-2.7-2,.6-5.5.5-6.2,2.7Z"/>
  <path class="st0" d="M121.2,149.1c0,.3,2.3,5.4,2.5,5.7.1.2,1.2.4,1.3.2-.3-1.5-.8-3-1.4-4.5-.2-.6-1-1.3-1-1.4v-5.6c-.9-.2-.9.3-1.1,1.1-.1.7-.6,4.1-.5,4.5h0Z"/>
  <path class="st0" d="M139.7,149.7c-1.2.6-1.6,1.9-2.7,2.7-1.1.9-5.3,3.5-6.6,3.5s0-1-.6-.8v2.3c2.4-.1,5.1-1.3,6.8-3.1.6-.6.7-1.4,1.1-1.8.6-.7,2.8-1.4,2-2.8h0Z"/>
  <path class="st0" d="M126.7,162.5c-.1-.1-3.7.4-3.9,1.2,2.6.2,4.1,3.6,3.9-1.2Z"/>
  <path class="st0" d="M125.2,150.4c-.6,2,1.8,7.1,3.2,8.6,1.7-2.4-.5-4.6-1.4-6.7-.2-.6-.6-2.5-.7-2.6-.3-.2-1,.2-1.1.6h0Z"/>
  <path class="st0" d="M121.2,165.6l-4.7,41.1,1.1-4.2c.7-11.4,4.8-23.3,5.9-34.5.1-1.4,0-.9-.6-1.5-.6-.6-.6-1.2-1.7-1h0Z"/>
  <path class="st0" d="M114.1,163.7c-.3-.2-.2-.7-.3-.8-.1,0-.8-.1-.8.2,0,3,3.7,2.8,2.9,1.7-.6-.5-1.3-.7-1.9-1.2h0Z"/>
  <path class="st0" d="M128.6,153.2c.5-.1,1.9-2.2,2-2.3.5-.2,1.1.5,1.4.3.1,0,1.2-1.7,1.4-1.9.2-.4.2-1.1.2-1.1,0,0,.8.5,1.8.1.8-.3,2.3-3.1,4-2.5-.1,1-.3,1.8-.2,2.8,0,.6-.6.9.6.7.2-4.5-.4-8.9-3.6-12.3-.9-.9-3.7-3.2-4.4-.9-.4,1.2.2,2.6-.8,3.5-.2,0-.6-1.7-1-2.1-1.1-1.4-1.5.3-2.3,1.4-.3.4-1,.5-1.1.9-.3.9-.6,6.7-.4,7.7.2,1.2,2.5,3.9,2.3,5.6h0ZM132.1,143.9c1.4.2,1.1,2.9.4,2.3-.1,0-.5-1.9-.4-2.3Z"/>
  <path class="st0" d="M117.3,161.8c0-1.3-1.3-8.1-2.9-7.8-.8.2-.4,1-.3,1.4.5,1.6,1,4.1,1.9,5.4.3.5.4,1.1,1.2.9h0Z"/>
  <path class="st0" d="M118.9,216.6c1.2-7.9,2-15.8,3.2-23.6,1.4-9.1,3.1-18.2,4.2-27.4-.7.2-.8,1-1,1.6-.9,2.8-1.5,7.2-2.1,10.3-2.6,13.2-4.3,27.5-7.1,40-.2.9-.7,2-1.8,1.7.8-12.9,2.5-25.8,3.8-38.7.4-3.7.4-7.5,1-11.1.1-.7,1-3,1-3.2,0-.6-1.4-.5-1.6,0-.3,1.3-.2,4.4-.4,6.1-3.1,21.3-6.1,43-7.3,64.5,0,1.1.4,2.2.4,2.7,0,.2-2.2,1-2.4,3.5-.1,2.3.4,3.4,2.7,4,1.8.4,4.8.8,6.1-.7,2.4-2.6-1.1-7-1.6-10.1-.7-4.5,2.1-14.6,2.9-19.7h0Z"/>
  <path class="st0" d="M185.2,234.1c-.8,1.9,1,3.6-1.3,4.2-4.8,0-9.6-.2-14.4,0-3.5.1-7.8,1.1-11.2,1-2.4,0-4.7-.9-7-1-6.1-.2-12.6,1.4-18.6,2-4.3.4-8.7,0-13,.6l1,4.1c8.4-.6,16.8-1.3,25.2-1.9.9,0,1.3-.7,1.9-.8,11.7-.7,23.6,1.8,35.3,0,2.8-.4,3.5-2.9,5.4-4.2.6-.4,1.5-.3,2-.7.5-.4.6-1.4,1.1-2,1.6-1.7,2.8-.5,2.1-4.6-3.1-.5-7.3.5-8.6,3.6h0Z"/>
  <path class="st0" d="M112.5,150.9l-3.5,2.3c-.4.6,1.3,2.6,1.7,3.4.3.6,1.1,3.5,1.3,3.6,0,0,1.8-.4,1.9-.4.3-.3-1.6-7.6-1.3-8.9h0Z"/>
  <path class="st0" d="M115.2,151.3c.5-1,2.5-7.7,2.1-8.1-.2-.2-1.2,0-1.5.7-.9,2.5-1.4,6-2,8.6.9.1,1.1-.6,1.4-1.2Z"/>
  <path class="st0" d="M111.8,162.9c-.8-2.1-1.4-4.7-2.3-6.6-.4-.7-.8-1.6-1.8-1.6-.6.7,2.6,8.6,4.1,9.3,1-.7.2-.6,0-1.2h0Z"/>
  <path class="st0" d="M121.2,139.3c-.6-.6-1.3.3-1.4,1.1-.4,2.6-.6,5.3-.5,7.9,1.4-.6,2.3-8.6,1.9-8.9h0Z"/>
  <path class="st0" d="M117.8,157.9c.6.2.2-.5.5-.6.5-.2,1.7-.1,1.8-.7,0-.5-1.7-3.2-1.9-4.4-.1-1.1.3-1.7.3-2.6,0-.4-.2-2.4-.7-2.6,0,1.7-1.6,4.5-1.6,6,0,1.5,1.6,3.2,1.6,4.8Z"/>
  <path class="st0" d="M105.6,135.9c-.3-.2-.7,0-1.1,0-.5.5,1.8,4.7,2.3,5.2.4.4.7.3,1.2.3.5-.5-2-5.1-2.4-5.4h0Z"/>
  <path class="st0" d="M111.3,148.6c1.2,0-.4-3.8-.8-4.3-.3-.4-.8-.9-1.4-.8-.4.4,1.7,5,2.1,5h0Z"/>
  <path class="st0" d="M209.3,203.5c-1,.8-4.6,4.9-4.9,5.3-.2.3.1.8-.2,1.2-.5.8-1.9,1.7-2.1,2.2-.7,1.5.9,3.4,2.5,2.1.5-.5,6-8.5,6.3-9.2.8-2.1.4-3.2-1.6-1.6h0Z"/>
  <path class="st0" d="M210.3,201c1.1-1.1.7-1.8-.8-2-3.1-.4-5.3,2.7-8.3,3.2.2,9.8,5.5,1.2,9.1-1.2h0Z"/>
  <path class="st0" d="M188.8,179.6c2.8.2,2.9-2,3.1-4.2-3.6-1.5-3.6,1.5-3.1,4.2Z"/>
  <path class="st0" d="M206.9,222.1c-.2-.4-2-1.5-2.4-2.2-.6-1.1-.3-3.3-.5-3.4-.7-.7-2.9-.5-3.3-2.5-.6-3.5,2.3-3.2,3.1-5.6-3.3,1.1-4-5.3-4.5-5.5-1-.2-8.4,1.9-8.9,2.7-.7,1.3.4,3.5.5,4.9.2,2.1.1,7.4-.6,9-1.4,2.9-6.8.2-5.8-3.9.4-1.9,5.4-8.1,0-8.3-1.2,0-5.2,1.3-6.6,1.7-7.9,2.4-15,6.4-23.6,6.7-5,.2-5.8-2.2-7.4-6.6-1-2.9-2.7-8.6-3.2-11.5-.5-2.4.5-4.8.3-6.9-.1-1.6-3.9-8.7-.6-9.1,1.2-.1,1.6.8,2.3.8,1.4,0,4.3-2.5,5.2,1.2.8-1.1,1.3-2.1,2.9-2.1,1.2,0,2.2.7,2.7.8,2.2.1,4.5.4,6.6.6,1.3,0,3.2-1,3.7,1.6-3.9-1.6-4.6.8-3.2,3.9.6-.3,3.1-.3,3.2-.4.2-.2-.2-2,0-2.3.2-.2,1.1.2,1.1-.2.4-1.6-1-3.7-2.6-4-.9-.2-1.6.3-2.2.2-1.6-.2-4.4-.4-5.8-.7-1.5-.3-2.9-2.5-4.4-2.5-.9,0-6.7,3.7-6.4.4.2-2.3,3.1-1.6,3.5-2.2l-5-24.4c-2.2,1.7-3.8,5.6-6.1,7-1.5.9-6.4,1.8-6.6,2s-.3,1.2-.7,1.9c-1.2,1.7-2.2.8-3.7,0-2.4,11-3.4,22.3-5.2,33.5-1.1,6.7-2.1,13.4-3.1,20.2-.9,5.9-3.3,13.4-2.6,19.5.3,2.8,2.6,2.9,4.8,2.8,4.8,0,10.6-1.3,15.6-1.5,10.8-.5,21.7,0,32.6-.4,3.3-.1,6.6.1,10.1-.4,3.8-.6,2.8-3.5,4.1-5.6,1.3-2.1,5.6-3,7.8-2.7.7.1,1.8.9,2.1.8.2,0,2.4-1.9,3.6-2.1,1.1-.2,7.4-.4,7.9-.9-.8-1.4.2-1.1.3-1.2,0-.4-.2-.8,0-1.4.2-.6,1.3-.4.9-1.4h0ZM140.2,179c-.7.7-.7,1.9-1.9,2.7-2.2,1.5-4.3-1.7-2.3-3.5.7-.7,3.9-1.3,4.9-1.3.5,0,1.3.7,1.3.9,0,.4-1.5.7-1.9,1.1h0Z"/>
  <path class="st0" d="M174.4,168c-.2,1.2-2.2,3.4-2.2,4.5s2.3,3.6,3.3,2.9c.2-.2,2.1-4.8,1.9-5l-3.1-2.4h0Z"/>
  <path class="st0" d="M183.8,173.5c-1,.6-1.4,5.6,1.5,4.8,1-.3,2.3-2.8,2.2-3.5,0-.9-3.1-1.7-3.7-1.3h0Z"/>
  <path class="st0" d="M178,174.1c-.3,1.5,0,2.1,1.7,2.1,1.8,0,2.1-2.5,2.1-3.9-2.7,0-3.2-1.4-3.8,1.9Z"/>
  <path class="st0" d="M210.7,208.4c-.5.1-5.4,7.6-5.6,8.4-.3,1.6,1.3,4.6,2.8,3.2.7-.6,4.7-6.2,4.8-6.9.2-1.1-.3-5.1-2-4.7h0Z"/>
  <path class="st0" d="M199.2,235.1l1.2-3.9c-2.1.2-1.7,2.4-1.2,3.9Z"/>
  <path class="st0" d="M260.4,215.7c1.5-1.2,6.2-2.6,8.2-3.7,1.1-.6,4.8-2.6,2.8-3.5-1.1-.5-4.7,2.3-5.9,3-1.7.9-5.7,2.3-6.7,4.2-.9,1.7.3,1,1.4.8,0-.2-.2-.5.2-.8h0Z"/>
  <path class="st0" d="M236.5,270.5c-.6-3.3,1.4-8.1,2.1-11.4,2.2-9.8,5.8-22.3,9.6-31.6.8-1.9,2.9-5.1,3.4-6.7,0-.2-1.6-.6-1.6-1.4,1.6.2,3.8-.8,4.7-2.1.2-.4.6-.3,0-.8-1.2-.8-8.7-3-9.6-2.5-.1,0-.9,2.1-.9,2.4,0,.2.6.2.8.5.2.5.2,1.8.5,2,1.1.7,4.7-.4,4.6,2.6,0,1.8-3.4,7.6-4.3,9.7-.6,1.3-3.1,9.9-4.1,9.9-.9-.6-.3-.7-.2-1.4.2-1.1.6-3.2.8-4.2,0,0,.4-1.3.4-1.4.1-.1.8,0,.7-.3,0-.3-.6-.6-.6-1.2,0-.5.7-2.8.8-3.6.4-3.6.6-7.3.6-10.9h-1.2c.3,6.3-1.2,13.2-2.5,19.4-1.6,7.6-4.1,15.1-6.2,22.6-.6,2.2-.8,5.3-1.5,7.4-.9,2.7-6.5,5-2.8,8.1.8.6,4.5,2.1,5.4,1.9.6-.2,1.5-1.9,1.9-3.4-.9-1.3-1.6-2.4-2.1-3l1.2-.8h0Z"/>
  <path class="st0" d="M140.4,155.6c1.1.2,4.8-5.2,2.3-4.6-.4,0-4.1,4.3-2.3,4.6Z"/>
  <path class="st0" d="M189.9,256.1c-.2-.8-.8-.9-1.6-.8.2.8.8.9,1.6.8Z"/>
  <path class="st0" d="M195.9,253.4l.2-1.2h-.8c-.1.6.2.8.6,1.2Z"/>
  <path class="st0" d="M185.6,120.3c0,0-.1,1.4-.2,1.5-.4.4-1.2,0-.9,1.1.7.4,2.6-2,2.7-2.2.4-1.8-1.3-3.4,0-4.8-.6-.5-3,2-3.1,2.2-.7,2.2,1.2,1.7,1.5,2.1h0Z"/>
  <path class="st0" d="M145.4,184c-.6-1.3-2.3-2.1-2.2-.2,0,1,1.3,5.4,2.1,5.7.2,0,1.1-.2,1.2-.2.2-.2-.9-4.9-1.1-5.3Z"/>
  <path class="st0" d="M164.5,190.9c-.2,0-.2-.6-.3-.7-1-.6-13.4-.8-15.2-.5-2.6.4-3.2,1.6-3.3,4.1,0,2.4,1.9,11.8,2.7,14.3.2.7,1.7,4.1,2.1,4.4,2.4,1.8,8.9,1.6,11.3-.2,8.4-1.7,16.6-4.4,24.5-7.7-.6-.8-1.7-3.4-2.6-3.5l-10.4,2.4c-1.9,0-4-1.3-4.3-3.2-.2-1.5-.3-10.2-.8-10.6-.9.2-2.9,1.2-3.6,1.2h0Z"/>
  <path class="st0" d="M156.1,187.5c0-.2-.4-4.2-.6-4.4-2.7-3.1-3.3,3.4-2.9,5.1.8,0,3.2.4,3.4-.6h0Z"/>
  <path class="st0" d="M161.6,183.2c-4.9-1.5-4.1,1.3-4.2,5,5.4.7,4.6-.5,4.2-5Z"/>
  <path class="st0" d="M151.5,188.1c-.4-1.8-1.3-7.1-4.1-5.1-.8.6.1,5,.6,5.3.6.4,2.7-.2,3.5-.2h0Z"/>
  <path class="st0" d="M209.1,142.4c.1.2.7.3.9.4.2.3-.2,3.3.9,2.2,1-1,.5-5.1-.5-6.1-.4-.4-2.6-.6-2.6.1l1.1,1.2c-.2.5-.9-.1-.8.6,1.6,0,.8,1.2,1,1.6h0Z"/>
  <path class="st0" d="M180.5,199.5c.6,0,.7-.7.5-.9-.8-.9-2.3.4-3.1.6-7.6,1.6-5.5-2.1-6.7-7.3-.2-1-1-3.2-1.8-3.8,1.2,4.3,0,9.1,2.8,12.8l8.4-1.4h0Z"/>
  <path class="st0" d="M215.9,163.5c2.4-1.3,4.8-6.3,5.9-8.9,1.6-3.6,3.3-8.5,2.6-12.5-.2-1.2-1.3-1.9-1.4-2.7,0-.7,3.1-9.1,3.5-10.9,1.7-7.7,2.4-18.4-4.2-24.1-.6-.5-6.1-3.4-7-3.7-2.9-1.1-7.5.1-10.4,1-3.2.9-6.2,3.1-8.8,4-.7.2-3.4.2-3.5,1.2,0,.4,2.9,6.1,2.3,7.6-.8-.9-2-2-2.6-3-.6-.9-1.4-3.7-1.6-3.8-.3-.1-.8.2-1.2,0-.5-.3-.6-1.4-1.5-1.7-.2,0-3.1,0-3.4,0-2.9.3-3.3,1.2-5.3,2.5-2.4,1.6-8,5.7-9.7,7.8-.5.7-1.2,1.6-1.5,2.4-.8,2.8-.9,8.7-1.3,11.9-.4,2.5-1.3,11-2.6,12.5-1.1,1.2-3.6,2.5-4.9,4.1-1.8,2.1-1.6,3.4-.4,5.8,1.5,2.9,5.1,4,8.1,4.3,2.7.2,5.8,0,8.5,0s.2,1.9.2,2.5c0,1.4-.3,6.7.5,7.5,5.3,3,11.2,7,17.6,5.5l-.2.8c2.9-.2,2.4-4.2,2.9-6.2,1.5-6.6,4.5-2.6,8.7-1.6,3.6.8,7.4-.2,10.6-2h0ZM171.4,142.9c-2.2-3.4-1.4-8.4-.7-12.2,1.1-5.7,1.8-6.3,4.7-10.8,1.4-2.2,2.9-5.7,4.9-7.1,3.8-2.8,8.5-1.7,11,2.1,2.6,4,1.2,6,.6,10.3-.5,3.6-.7,6.8-2.1,10.4-1.1,3.1-7.1,8-9.7,10.3-.4.4-1.1.9-1.6.9-1.9.2-6.1-2.2-7.1-3.7h0ZM193.7,158.8c-.3,1.9-.6,5.7-3.2,5.3-3.2-.5-2.3-6.3-2.9-8.6-1,1.2-7.4,3.8-7.6,1.4-.1-1.3,3.4-6.3,4.5-7.4,1.6-1.6,6.2-5.8,8.4-3.9,2.5,2,1.3,10.3.8,13.2h0ZM200.1,149.9c-.3-2.8,1.7-8.5,3.2-10.9.6-1,4.3-3.1,5.5-3.2,1.2,0,4.4,1.8,4.8,2.9.2.8.9,6.4.7,7.1-.2.8-3.7,7-4.3,7.8-.2.3-.4.6-.8.7-5.3.4-8.2,2.6-9-4.4h0Z"/>
  <path class="st0" d="M187.4,218.8c.3,0,.2-.7.2-.8-.8-.8-2.2,0-.2.8Z"/>
  <path class="st0" d="M191.9,203.6c4.2-1.1,14.3-5,16.8-8.4,3.8-5.4,3.4-16.6,2.9-23.1-.2-3-.3-4.9-4-4.4-3.7.5-3.2,3.3-3,6.3.2,4,1.1,8.3,1.2,12.4,0,2,.1,3.9-1,5.6-.6.9-5.9,4.8-7.1,5.4-2.8,1.3-6.4,1.8-9.4,2.4.6,3.2,0,4.7,3.6,3.8Z"/>
  <path class="st0" d="M231.8,244.6c0-1.6-.9-3.2-.8-5.1,0-3.1,2.4-4.5,2.3-7.8,0-.3-.6-3.2-.7-3.3-.8-.8-3.1,1.4-3.8,1.9-.5.4-1.4.2-1.3,1l3.1,36.7c.6-.1.7-.7.9-1.2,1.3-4.4,0-11-.1-15.6,0-2.3.4-4.6.4-6.6h0Z"/>
  <path class="st0" d="M224.4,201c-.1.7,0,1.4.8,1.6.2-.5-.6-1.9-.8-1.6Z"/>
  <path class="st0" d="M242.3,214.9c2.1.8,3.5-2.4,3.1-4.2-2.1,0-3.2,2.4-3.1,4.2Z"/>
  <path class="st0" d="M229.9,187.8c-1.1,0-1.7,1-1.6,1.9,1.1.3,1-1.3,1.6-1.9Z"/>
  <path class="st0" d="M253.2,174.6c-1.5-.1-1.9,1.1-2.5,1.6-.5.4-1.3.3-1.4.4-.1.1.4.6.4.8,1.5-.5,3.1-.7,3.5-2.7h0Z"/>
  <path class="st0" d="M225.6,210.1l-2.3.2c-.6-2.2,2.3-4,4.3-3.1-3.5,4.6.6,2,2.3-.2,1.5-1.9,0-1.1,0-1.6,0-.4,1.7-5.6,2.6-6,.6,1.8-1.6,3.9-2,5.4-.1.5.4.9.6.8.2,0,1.9-2.7,2.1-3.1,4.6-8.6,6.1-14.5,13.4-21.5.8-.7,3.1-2.8,3.1-3.7-1.7.5-.7.9-.9,1.1-.4.4-1.6.2-2.1.6-.6.3-.7,1.4-2.4,1.1,1.6,2.3-.3,1.4-1.4,2.7-.5.5-.5,1.5-.6,1.6-.3.3-1.9-.4-2.8-.3-.1,0-2.8,1.1-2.9,1.2-.2.2-2.8,3.1-1.5,3.4.9.2,1.4-1.9,2-2.3.4-.3,3.1-1.6,3.2-.6.3,2-2.8,2.3-2.9,2.5-.5.6-.4,1.7-.8,2-.5.3-3.3-.2-4.3.3-1.4.6-3.2,3.1-3.7,4.5-.4,1.1.7,1.6,1.3.5,1.9-3.1,2.6-3.8,6.5-4.2.2.3-1.4,4.9-1.6,5-.3.2-1.1,0-1.6,0-.3,0-.3.7-.5.8-1.1.3-.9-.7-1.2-.8-1.3-.3-3.9,1.1-4.7,2.2-2.3,3.1,1.8,5.3,1.1,6-1.2,0-2.4-.9-3.7-.6-1.3.3-3.5,3.4-3.3,4.6,0,.2.6.2.8.5.2.6,0,1.8.8,2.2,1.2.8,2.4-.2,3.1-1.2h0ZM227.9,199.2l3.5-1.7c-.1,3-2.6,1.8-2.7,1.9,0,0,0,.6-.1,1-1.3,2.1-2.2.2-.7-1.2h0Z"/>
  <path class="st0" d="M226,192.4c-.3-.3-1.9,1.4-2.1,1.6-.8,1.1-1.6,2.8-1.8,4.2.8-.3,4.1-5.6,3.9-5.8h0Z"/>
  <path class="st0" d="M263.6,171.9c.6-.7-1.6-2.2-2.1-2.6-.2-.1-.9-.6-1-.6-.6.9,2.7,3.5,3.1,3.1h0Z"/>
  <path class="st0" d="M257.1,184.1l-4.7,13.4,1.6-.2,5.4-13.7c-.8,0-1.8-.2-2.3.6h0Z"/>
  <path class="st0" d="M258.8,178.1l-.2-5c-.8-.5-1.5-.3-2.3,0,.9,2.6.4,5.7,1.8,8.1l.7-3.1Z"/>
  <path class="st0" d="M256.3,170.7c-.2-.2-3.1-2.3-3.3-2.3-.1,0-.9.8-1,.9-.1.6,2.7,2.4,3.3,2.5,0,0,1-1.1,1-1.1Z"/>
  <path class="st0" d="M260.8,184.7c-.3,1.7-4.7,12.2-5.7,13.7-.4.6-1,.8-1.5,1.2,1.4-.1,2.5,0,3.9.2-1.1-2.1.8-2.9,1.3-4.3,1.7-4.3,2.5-9.1,5.2-13.1l-1.1-7.5c-.7.5-2.5.2-2.7,1,0,.2.4,1.3.4,1.9,0,1.5.4,5.9.2,6.8h0Z"/>
  <path class="st0" d="M267.5,207.9l3.9-1.9c-1.3,0-3.1.7-3.9,1.9Z"/>
  <path class="st0" d="M265.8,205.2c-.4,0-3.8,4.7-4.5,5.3-.8.7-2.8,1.6-3.9,2.7-.8.8-3,3.1-.8,2.7l10.1-9.1c.3-.6-.6-1.1-1-1.5h0Z"/>
  <path class="st0" d="M247.3,206.7c.3-.2,2.1-5.7,2.9-6.4.5-.5,1.6-.4,2.2-.5,0-.8-1-.2-1.2-1.4-.2-.8.4-3.5.6-4.5.9-3.7,3.5-8.1,4.4-11.5.1-.4-.8-5.8-1.1-5.9l-6.9,4.9c-8.9,7-12.5,26.1-22.6,30.6-.4.2-3.1.4-1.9,1.2,1,.7,3.3.7,4.5.6,3.9-.3,13.3-3.8,16.8-5.7.6-.4.8-1.1,1-1.2.4-.2,1.1,0,1.4-.1h0ZM233,209.1l3.7-5c2.2,1.3-3,5.6-3.7,5ZM242.1,205.6c-1.3-.8.7-2.5,1.4-1.9.6.6-.8,1.8-1.4,1.9ZM243.6,194.4c-.2.5.8,2-1.2,2.6-.8-1.6.1-1.4.8-2.9.2-.5,0-1,0-1.3,0-.2,2.7-2.6,3-2.8.2-.1.7-1,1.2-.4,1.2,1.1-3.7,4.4-3.8,4.7h0Z"/>
  <path class="st0" d="M274.9,205.2l-1.9,1.6c1.4.7,1.8-.3,1.9-1.6Z"/>
  <path class="st0" d="M253.2,201.4h-1.9c-1.1,3.2-3.1,6.5-4.4,9.5-.7,1.7,0,2.8.9,1.3.6-1,1.4-1.5,1.8-2.1.5-.8,3.9-8.3,3.5-8.6h0Z"/>
  <path class="st0" d="M258.6,202.5c-3.6-1-3.6,1-5.1,3.6-.9,1.6-2.1,4-3,5.9-1.2,2.8.4,1.7,1.5.2.5-.6.8-1.6,1.4-2.4.5-.7,5.8-6.9,5.2-7.4h0Z"/>
  <path class="st0" d="M259.2,209.8c.8-.8,4.8-5.6,4.8-6.3,0-1.2-2.6-.2-3.3.2-.5.3-6.9,8.4-7.4,9.3-.9,1.7-.7,2.2,1.2,1.2.7-.4,3.9-3.6,4.7-4.4Z"/>
  <path class="st0" d="M254.7,220c1.2.2,2.4,1.1,3.6.4.5-.3.9-1.6.6-1.9,0-.1-2-.9-2.4-.8-.6.1-2,2.1-1.8,2.3h0Z"/>
  <path class="st0" d="M281,193.1c-.1-.6-1.6-4.4-1.9-4.6-1-.9-.8,2-.9,2.4-.3,1.3-.9,4.2-1.4,5.2-.5,1.2-1.8,1.6-2.3,2.2-.6.8-1,1.9-1.7,2.8-.6.8-1.8,1.6-2.3,2.3-.3.5-.4.9.2,1,.3,0,5.6-1.6,6.3-1.9,4.1-1.9,4.9-5.3,3.9-9.5h0ZM276.5,199.8c.4-.5,1.9-3.1,2.1-3.1,1.4-.1-.6,4.5-2.1,3.1Z"/>
  <path class="st0" d="M244.8,231.2c.5-1.1,3.7-9.7,3.3-10.1h-2.7c.4,3.9-1.1,7.5-1.6,11.2.6-.1.8-.7,1-1.2h0Z"/>
  <path class="st0" d="M229.1,263.1c.2,1.5-.6,3.5.6,4.6.8-.5.2-1.6.1-2.4,0-.5-.1-2.1-.7-2.2Z"/>
  <path class="st0" d="M214,255.3c1,0,2.3-.1,2.7-1.2-.7.2-2.3.5-2.7,1.2Z"/>
  <path class="st0" d="M252.4,222.7c.3,0,1,0,1.1,0,0,0,.5-1.8,0-2.1-1.6-1-1.2.9-1.2,2.1h0Z"/>
  <path class="st0" d="M276.1,185.1c.6,1.7-1.4,6.2,1,6.6.8.1.7-.4.8-1,.1-.7.1-5.4-.2-5.6-.3-.2-1,0-1.5,0h0Z"/>
  <path class="st0" d="M209.7,237.8l1.2-1.2c-.7-.1-1.3.4-1.2,1.2Z"/>
  <rect class="st0" x="275.6" y="180" width=".6" height="2.9" transform="translate(-45.9 107.3) rotate(-20.4)"/>
  <path class="st0" d="M212.8,248.3c.7.1,1.3-.5,1.6-1.2-.7-.1-1.3.5-1.6,1.2Z"/>
  <path class="st0" d="M267.1,182.3c0-1.2-1.1-9-1.6-9.3-.2-.1-1.5-.2-1.5.1.8,2.5.5,6.2,1.2,8.5.3.8,1.1.7,1.9.6Z"/>
  <path class="st0" d="M209.7,234.1c.5,1.3,1.7-.4,1.2-1-.3-.3-1.6-.2-1.2,1Z"/>
  <path class="st0" d="M216.1,221.5c-.4,0-3.4,5.7-3.9,6.6-.4.7-3.2,3.2-1.1,3.9,3.2,1,4.1-5.2,4.6-7,0-.2,2-3.6.4-3.5h0Z"/>
  <path class="st0" d="M215.9,216.9c-.1-.2-1.7-.5-2.1-.4-2.4.1-2.5,2.4-3.8,3.8-.4.4-2.4,1.6-2.5,1.8-.2.4,0,1-.2,1.5-.1.4-.7.9-.7,1.3,0,.3,3.4,2.2,3.7,3.3,1.2-1.2,6.3-10.2,5.6-11.2h0Z"/>
  <path class="st0" d="M259.4,203.3l1.2-1.2c-1.3-.1-1.3-.1-1.2,1.2Z"/>
  <path class="st0" d="M262.4,200.5c.1,0,.4-1.4.7-1.9,1.4-2.5,6.4-9.4,6.7-11.6.2-1.4-.5-5.2-.7-6.9,0-.7.1-1.3-.6-1.7l-.2,4.5c0,.6.4,1.4.3,1.9,0,1.3-7.1,14.2-8.1,14.7-.5.3-1,.2-1.5.2.2.8,3.1.9,3.4.7h0Z"/>
  <path class="st0" d="M262.4,194.1c.7-1.2,5-9.2,4.3-9.8-1,0-2.1-.3-2.7.6-.1,1.8-5.6,12.5-5.1,13,1,.9,3-3.1,3.4-3.8h0Z"/>
  <path class="st0" d="M266,199.6c.7-.6,5.6-7.9,6-8.8.1-.4.4-1.3.2-1.5,0,0-.9-.4-1.3,0-.5.6-6.9,10.5-6.4,10.9.7.1,1.1-.1,1.6-.6h0Z"/>
  <path class="st0" d="M270.2,175.7c.4-.4-1.8-3.9-3.1-2.7l1.6,2.1c.1.6,1.2.9,1.5.6h0Z"/>
  <path class="st0" d="M271.6,186.6c1.5.3.5-2.3.5-2.9,0-.7.4-1.4.4-2,0-1.4-.6-2.9-.4-4.4-.8,0-1.5-.2-1.9.6.6,1.2.1,8.5,1.3,8.7h0Z"/>
  <path class="st0" d="M266.2,202.5c.7,0,6.6-9.8,8.3-10.7-.1-2.5.8-5.3.9-7.7,0-.7-.5-.5-.6-.7-.3-.4-.5-.9-.9-1-.3,2.1.4,5.9-.2,7.8-.9,3.1-6,7.9-7.6,11-.7.4,0,1.4.2,1.4h0Z"/>
  <path class="st0" d="M268.1,202.1l.4,1.2,3.9-4c.4-2.2,3-2.8,3.2-4.9-1.4-1.3-6.4,7.2-7.6,7.8h0Z"/>
  <path class="st5" d="M83.7,234h-.3c-3.7,1.9-7.2,2.5-9.2-1.8-1.9-4,.3-6.4,4.7-8.5l8.5-4.1c3.6-1.8,7.1-1.8,9,2.1,2,4.2-.7,6.5-3.5,7.9l-.9.4-1.3-2.7.7-.3c2-1,3.6-2.2,2.7-4.2-.8-1.7-2.5-1.8-5.2-.5l-9.1,4.4c-2,1-4,2.4-3,4.4.8,1.8,2.3,1.8,5.2.4l.6-.3,1.3,2.7h0Z"/>
  <path class="st5" d="M91,261.5c-2.6.9-6,2.2-6.7,2.5l-2.6-7.8c.4-.3,1.5-.9,2-1.1-1.8-.6-3.6-1.8-4.9-5.6-1.8-5.3.7-9.1,4.7-10.5,5.4-1.8,9.3,1.8,11.6,8.8.3.8.7,2.2,1,2.9l1.3-.4c1.5-.5,2.5-1.4,1.7-3.6-.7-2-1.8-2.2-3.4-2l-2.6-7.8c4.1-1,8.6.1,11.2,8.2,2.4,7.4.6,11.5-5,13.4l-8.5,2.8h0ZM91.9,252.2c-.2-.4-.4-1.3-.7-2-1-3.1-2.4-3.8-4.2-3.2-1.4.5-2.2,1.7-1.7,3.5,1,3.1,3.3,2.8,5.8,1.9l.7-.2h0Z"/>
  <path class="st5" d="M108.4,258c3-3.6,3.8-4.6,4.5-5.4l1.3,1.1c-.3.4-.8,1.1-1.9,2.4,2-1.2,4.1-1.1,6.1.6s3.1,4.4,0,8.1l-11.3,13.4-1.4-1.2,11.1-13.1c1.9-2.2,2.3-4.4.4-6.1-2.4-2.1-4.9-1.5-8.6,2.8l-9.2,11-1.4-1.2,10.5-12.5h0Z"/>
  <path class="st5" d="M119.8,268.1l3.9,2.3,3.8-6.3,5.1,3-3.8,6.3,5.1,3-2.3,3.8-5.1-3-6,10c-1.2,2.1-1.3,3.3.8,4.6.6.4,1.3.8,2,1l-2.1,3.6c-1.2-.3-2.5-1-3.8-1.7-4.6-2.8-4.8-5.6-2.4-9.6l6.5-10.8-3.9-2.3,2.3-3.8h0Z"/>
  <path class="st5" d="M139.2,272.4l11.6,4.6-9.1,23.1-11.6-4.6,9.1-23.1ZM142.4,264.4l11.6,4.6-2.5,6.2-11.6-4.6,2.5-6.2Z"/>
  <path class="st5" d="M153.1,284.9c.6-1.9,1.4-4.1,1.9-5.7l2.8.5c-.4,1.3-.9,3.1-1.5,4.7,1.8-2.2,4.9-4.7,10-3.8,5.2,1,8.2,4.5,5.8,11.6l-4.6,13.2-2.9-.5,4.5-13.1c1.5-4.2.9-7.6-4-8.5-5.4-1-9.5,3-11.5,8.7l-3.5,10.2-2.9-.5,5.8-16.8h0Z"/>
  <path class="st5" d="M208.6,295.2c.4,4.3,1,8.6,1.2,9l-12.8,1.2c-.2-.8-.4-1.7-.6-2.3-1.7,2.3-4.3,3.5-8.3,3.8-5.5.5-9.8-1.9-10.3-7-.5-5.7,4-8.9,13.5-9.8,1.9-.2,2.5-.2,3.5-.3v-1.1c-.2-1.4-.7-2.2-2.5-2-1.5.1-1.9,1.1-1.9,2.1l-12.2,1.1c-.2-3.1,1.4-8.6,13.7-9.8,12.8-1.2,15.6,3.7,16,7.9l.7,7.3h0ZM195.3,294.9c-.3,0-.8,0-1.8.1-1.8.2-2.7,1-2.6,2.3.1,1.1.9,1.7,2.1,1.6,1.6-.1,2.6-.9,2.4-3.6v-.4s0,0,0,0Z"/>
  <path class="st5" d="M241.5,288.8c.9,1.1,4.8,6.1-.2,10.9-4.5,4.3-9.5,1.5-14.3-3.5-4.6-4.8-6.8-10.4-2.4-14.5,5-4.8,9.7-.4,10.5.5l-2.6,2.5c-.7-.7-3.4-3-5.8-.7-2.5,2.3-.8,5.9,2.9,9.8,4,4.3,7.4,5.9,9.7,3.7,2.5-2.3.4-5.1-.3-6.1l2.6-2.4h0Z"/>
  <path class="st5" d="M259.3,266.7c.8.7,2.4,1.8,3.2,2.3,3,1.9,5.7,2.5,7,0,1.3-2.5-.4-4.5-1.9-5.8l-.2-.2,1-1.9.2.2c1.8,1.5,4.7,4.5,2.5,8.7-2.6,4.9-7.4,2.5-11.4-.5l-3.5-2.6c-4.6-3.5-7-7.2-5-11.1,2.3-4.4,6.4-3.2,10.2-.2.4.3,2.1,1.6,2.6,2l-4.7,9h0ZM261.5,258.4c-.6-.5-2-1.5-2.6-2-2.4-1.5-4.9-2-6.2.5-1.5,2.9,1.3,5.6,3.8,7.6l1.3,1,3.8-7.1h0Z"/>
  <path class="st5" d="M259.7,246.5c12.9,3.3,20.6,5.1,22.7,5.8h0c-1.5-1.8-4.3-5.4-14.6-18.7l.6-1c14.2,3.3,21.2,4.9,22.8,5.3h0c-1.3-1.6-5-6.2-14.6-18.3l.5-.8,15.4,19.3-.6.9c-9-2.1-20.8-4.8-23-5.4h0c1.4,1.6,7.8,9.9,14.6,18.7l-.6.9-23.8-6,.5-.9h0Z"/>
  <path class="st5" d="M239.1,271.8c0,.9-.3,2.4-.9,3.7.5.8,1.1,1.7,1.8,2.7l9,13.5,7.2-4.8-5.8-8.8c-2.7-4.1-2-6.3,2.2-9l-4.6-6.9c-3.3,2.2-3.9,5.3-3.1,7.9-.8-1.2-2-2.9-2.5-3.6l-4.5,3c.3,1.3,1.3,1.1,1.3,2.1h0Z"/>
  <path class="st6" d="M189.8,135.5c1.3-3.6,1.5-6.7,2.1-10.4.6-4.2,2-6.2-.6-10.3-2.5-3.8-7.2-4.9-11-2.1-2,1.4-3.5,5-4.9,7.1-2.9,4.5-3.6,5.1-4.7,10.8-.7,3.8-1.5,8.8.7,12.2,1,1.6,5.2,3.9,7.1,3.7.5,0,1.2-.6,1.6-.9,2.7-2.3,8.6-7.2,9.7-10.3h0ZM184.1,118.2c0-.2,2.5-2.7,3.1-2.2-1.4,1.4.4,2.9,0,4.8,0,.2-2,2.6-2.7,2.2-.3-1.1.6-.7.9-1.1,0,0,.2-1.5.2-1.5-.3-.4-2.2.2-1.5-2.1h0Z"/>
  <path class="st6" d="M209.9,153.6c.6-.7,4.1-6.9,4.3-7.8.2-.7-.4-6.3-.7-7.1-.4-1.2-3.5-3-4.8-2.9-1.1,0-4.8,2.2-5.5,3.2-1.5,2.4-3.5,8.1-3.2,10.9.8,7,3.7,4.8,9,4.4.4-.1.6-.4.8-.7h0ZM208.1,140.8c-.2-.7.6-.1.8-.6l-1.1-1.2c0-.7,2.2-.5,2.6-.1,1,1,1.5,5.1.5,6.1-1,1.1-.7-1.9-.9-2.2-.1-.2-.7-.2-.9-.4-.2-.4.6-1.6-1-1.6h0Z"/>
  <path class="st4" d="M184.5,149.5c-1.1,1.1-4.6,6.1-4.5,7.4.2,2.4,6.6-.2,7.6-1.4.6,2.2-.3,8.1,2.9,8.6,2.6.4,2.9-3.4,3.2-5.3.5-2.9,1.6-11.2-.8-13.2-2.2-1.8-6.8,2.3-8.4,3.9h0Z"/>
  <path class="st2" d="M247.3,189.7c-.5-.5-1,.3-1.2.4-.3.2-2.9,2.6-3,2.8-.1.3.2.7,0,1.3-.6,1.4-1.6,1.3-.8,2.9,2-.7,1.1-2.1,1.2-2.6.1-.3,4.9-3.6,3.8-4.7h0Z"/>
  <path class="st2" d="M236.7,204.1l-3.7,5c.7.6,5.9-3.8,3.7-5Z"/>
  <path class="st2" d="M242.1,205.6c.6-.1,2-1.4,1.4-1.9-.6-.6-2.6,1.2-1.4,1.9Z"/>
  <path class="st2" d="M228.6,200.4c.2-.4.1-1,.1-1,.1-.1,2.6,1.1,2.7-1.9l-3.5,1.7c-1.6,1.4-.6,3.4.7,1.2h0Z"/>
  <path class="st2" d="M278.6,196.7c-.3,0-1.7,2.6-2.1,3.1,1.5,1.4,3.5-3.2,2.1-3.1Z"/>
  <path class="st2" d="M193.5,260.5c-2.4-.4-5,0-7.6-.5-.7-.1-4.2-1.2-4.6-1.5-.9-.8-1-3.2-.7-4.3-1.3-.3-.7.9-.9,1.4,0,.2-.7.2-.7.4.3,4.5,4.8,5,8.4,5.6,2.2.3,4.1.1,6.1.5.3,0,.7.6,1-.2.3-1-.3-1.1-1.1-1.2h0Z"/>
  <path class="st2" d="M181.1,252.3c0-.1.4-.1.5-.2.3-.7.8-1.2.6-2.2l-1.9,3.3c1.1.8.8-.7.9-.9h0Z"/>
  <path class="st2" d="M281.2,189.4c-.5-.9-2.2-2.7-2.3-3.1-.2-.9.4-1.6.2-2.2,0-.4-.8-.8-1-1.3-.8-1.9-.8-4.7-3.7-4-.4.1,0,1.2-1,.8,0-1,.1-2-.3-3-.1-.3-3.6-4.7-4-5-1.6-1.3-1.6.6-3,0-2.1-1-4.4-6.1-6.9-3.2-1.5,1.7,1.4,2.6,2.1,4.2-2.9.6-7.4-8.6-10.1-4.4-1.5,2.3,1.1,3.3,2.3,4.8-5.2,0-9.8.6-14.1,3.5-7.8,5.2-21.9,21.5-21.4,31.2.2,4,3.6,7.4,7.6,7.8,6.3.7,11.1-2.6,16.7-4.4-1.6,2.7-.3,5.8-.4,8.8,0,8.6-4.8,28-7.5,36.7-.3,1-1.1,3-1.8,3.8v-21.5c0-.1-.4-.4-.4-.8-.1-2,2.1-2.1,2.6-3.9,0-.3-.2-4.9-.3-5.3-.4-2.4-2.2-1.8-2.6-2.2-.2-.2,0-1.1-.4-1.7-.3-.5-1.6-1.6-2.2-1.7-3.8-.7-8.2,1.3-11.8,1.9-.3-.3,1.1-2.5.7-3.6-.4-1.2-1.9,0-1.9-1.2,0-1.2,1.3-1.8,1.1-3-.3-2-3.1-1.7-3.6-2.6-.2-.3.5-5-.6-6.8-.3-.4-1.1-.5-1.1-.9-.2-.9.6-2.2.7-3.1,0-1.1-.9-1.8-.9-2.3,0-.5.8-1,.6-2.2-.3-1.9-1.9-1.5-3.4-1.5l3-5.3c1.6-4.4,2.1-21,.2-25.2-.3-.7-1.2-.2-.9-1.2,4.3.4,7.1-1.8,9.5-5.1,2.1-2.9,5.9-13.4,5.6-16.8-.1-1.6-1.1-3.7-1.1-5.1,0-1.9,1-4,1.3-5.6.8-4,3.9-15.3,3.7-18.4-.3-3.6-3.7-10.4-6.9-12.2-1-.6-6-3.1-7-3.5-4.7-1.6-13.2.8-17.8,2.6-2.3.9-4.7,3.1-7.5,3.4-1.6.2-4.1-1.5-5.4-1.8-1.8-.4-6.6,2.1-8.4,3.1-2.4,1.4-9.9,7.6-10.3,10.2-.2,1.1.1,2.3,0,3.4-.9,5.6-1.3,10-1.9,15.6-.4,3.7-4.3,5.6-6.4,8.8-2.4,3.7-2.6,5.4-1.3,9.8.4,1.5,2.7,2.8,4.2,3.2.5.1,4.2,1,4.5,1h8.3c-.4,2.4,0,6.1-.5,8.3-.7,3.1-5.5,5.1-.9,8.8,2.3,1.8,2.4.3,3.4.5.5,0,1.6,1.2,2.5,1.4,1.1.2,2-.4,2.6-.4.4,0,1,2.9,4.2,2.3.5,0,1.3-.8,1.4-.7.2.1.4,1.9,1.5,2.2,4.5.9,3.2-5.2,4.4-5.9.8-.5,3.4-.7,4.2-1.9.1-.1,1.4-3,1.5-3.1.5-2-.6-.9,1.2-3.1.3-.3.2-1.1.4-1.2.6-.4,3.6.7,4.6.4-1.7,1.3-2.2,4.3-2.3,6.4-.3,4,1.1,9,1.2,13.2,0,2.3-.8,4.9-2.5,6.4-2.4,1.9-4.4,2.3-6.9,3.5-.6.3-1.4,1.4-2.6,1.8-1.6.6-3.2.2-4.7.9.1-.4-.5-1-.4-1.2.2-.3,6-1.8,7-3,1.4-1.7.8-4.2,0-6.2-3.5-.5-4.6,3.9-6.6,5.5-1,.7-6.2,2.4-7,1.8,0-.9.9-1.3,1.3-2.1.7-1.5-.3-5.9-2.7-5-2.4.9-1.3,4.2-3.6,4.8-1.4-2.1-.8-4.1-1.5-6.5-.7-2.1-3.5-6.9-5.8-7.4-1-.2-5.9.3-5.9-.7.8-2.4,6-5.5,3.1-8.1-4-3.6-4.6,7.6-5,7.9-1.3.9-1.1-3.5-1.3-4-.7-3.3-2-4.7-5.3-5.5-2-4.4-1.3-10.1-2.5-14.6-.5-1.7-1.7-5.3-2.4-6.9-1.4-3.5-4.2-3.2-7.5-3.2-.5-3.3-5.6-11.1-9.4-9.9-.9.3-3.3,3.5-4.8,3.7-.5-6.1-4.8-2.6-4.5,1.9-.9-.4,0-2-1.2-2.5-2.7-1.2-2.8,4.6-2.7,6-3.6-5-4.8,4.6-5.2,4.7-1-2.2-6.4-13.4-8.6-13.6-1.2-.1-2.7,1.5-1.9,2.7,1.5,1.9,3.4,3.8,4.6,5.9.3.6.3,1.4.7,2.1,1,1.7,2.1,3.4,3.1,5.1-6.1,2.4-5.2,5.2-3.1,10.5,1.2,3,1.1,2.3,3,3.7,0,0-.2.6,0,.9,1.5,2.2,2.9,2.6,5.5,1.7-2.1,18.2-4.2,36.4-6,54.6-.4,4.7-.4,9.7-1,14.3-.4,3.5-2.6,5.4-2.7,8.6,0,.9.4,2.9,1.2,3.4,1.3,1,7,1.2,8.7,1,2.5-.3,3.3-2.5,4.7-2.7,1.1-.2,2.6.1,3.9,0,8.6-.9,17.5-1.8,26-2.3,7.9-.4,16.2.9,24.1.6,1.3,0,9.1-1.4,9.5-.9-.2,1.9-1.6,3.6-1.6,5.6,0,1.2.9,1.8,1.1,2.8.4,1.7-.4,3.1,1.6,4.4,2.3,1.5,5.2,1.9,7.9,2-1.1-3.7-9.8-6.1-9.2-10,.1-.9,1.3-3.8,1.7-4.7.8-1.4,5.1-6.8,6.5-7.5.5-.2.7-.6,1.4-.4l.4,3.1c-.7,0-.3-2.2-1.6-1.4-1.5,3.1-5.2,5.5-4.6,9.3.5,3.1,5.4,6,7,8.7,1.7,1,1.7-2.9,1.7-3.9-.1-1.8-1.1-4-1.3-6-.2-2.7.3-5.5.1-8.1-.1-2.2-1.7-6,0-7.6,2.5-2.3,6.2-1.2,9.2-2.1.8-.2.7-1,1-1,1.7-.2,4.2,2.9,1.6,2.7-.6,0-1.2-.4-2-.4-2.7,0-7.7.4-8.3,3.8-.2,1.5,2,6.5,2.3,8.8.2,2,.6,6.6.6,8.5,0,1.2-1.7,4.4.8,4.1,1.3-.1,1.1-2,1.7-2.9,1.4-2.3,10-9.1,12.6-11.5,3.6-3.3,7.3-6.6,10.9-10.1.4-.7,0-2.8-.8-3-1.9-.6-5.9.2-7.8,1.1-.8.4-.6,0-.1.8-1.2.3-.9-1-.6-1.6.5-.8,10.7-2.9,11.8-2.5,3.2,1.1,1.5,3-.2,4.5-.5.4-1.4.4-1.8.9-.5.7-.3,1.8-.9,2.4-1.1,1.4-4.4,3.4-5.9,4.8-5.3,5-10.4,10.4-15.2,15.9-.5.6-4.9,4.2-4,5.1.9.9,2.9-2.4,3.6-2.8,3.5-2.3,6.4-2.8,10.2-6.1.6-.6,4.5-4.3,4.6-4.7.9-2-1.1-3.9.8-5.4l2.4,5.8c.3,3.3-6.3,6.9-8.7,8.4-.6.4-.9.9-1.5,1.3-1.9,1.1-4.5,2.1-6.4,3.1l-.7,1.6c.7,0,1.4,0,2,0,4-.7,13-4.2,16.2-6.7,1.2-1,2.8-3.1,3.1-4.7.3-1.9.4-7.9,0-9.7-.2-1.2-3-3.1,0-3.7.5,6.4,2,12.7,1.5,19.1-.3.7-.8,1.3-1.3,1.9-1.4,1.6-3.8,3.1-5.5,4.2-.8.5-7.2,3.4-5.9,4.7.4.4,1.2-.4,1.6-.6,4.1-2.4,7.9-5.4,11.6-8.4,0,2-.1,4,0,6,.1,2.6.9,6.4.7,8.9,0,1.2-1.9,1.7-1.4,3.8.1.5,1,2.3,1.4,2.6.3.3,5.4,2.6,5.7,2.6,1.4,0,2.6-1.8,3.5-3.7.6-1.4,1-2.9.9-3.7,0-1-1-.8-1.3-2.1,0-.4-.1-.8,0-1.4.2-3.3,2.7-13,3.7-16.5.9-3.4,2.8-6.8,3.9-10.1,1.9-6,3.1-12.2,6-17.8,3.1,2.2,3.2-1.8,3.9-2.3.2-.1,2.8.9,4.4-.8,1.7-1.8,0-2.4.6-4.2-1,.2-2.2.9-1.4-.8,1-1.9,5-3.3,6.7-4.2,1.2-.7,4.8-3.5,5.9-3,2,.9-1.7,2.9-2.8,3.5-2,1.1-6.8,2.5-8.2,3.7-.4.3-.2.6-.2.8,2.6-.6,7.7-2.7,10.3-3.9.7-.3,3.1-1.6,3.5-1.9,1.6-1.7,1.6-4.4,2.9-6.1.6-.7,2.5-1.7,3.3-2.5,4.2-4,3.4-8,1-12.7h0ZM189.9,256.1c-.7.1-1.3,0-1.6-.8.7-.1,1.3,0,1.6.8ZM195.4,252.2h.8l-.2,1.2c-.4-.4-.7-.6-.6-1.2ZM199.2,235.1c-.5-1.5-.9-3.6,1.2-3.9l-1.2,3.9ZM212.8,213.1c-.1.7-4.1,6.3-4.8,6.9-1.5,1.4-3.2-1.6-2.8-3.2.2-.8,5.1-8.3,5.6-8.4,1.7-.4,2.2,3.6,2,4.7h0ZM210.9,205.1c-.3.7-5.8,8.7-6.3,9.2-1.6,1.3-3.2-.6-2.5-2.1.3-.6,1.6-1.5,2.1-2.2.3-.4,0-.9.2-1.2.3-.5,3.9-4.6,4.9-5.3,2-1.6,2.5-.5,1.6,1.6h0ZM209.5,199c1.5.2,1.8.9.8,2-3.6,2.4-8.9,11-9.1,1.2,3-.5,5.2-3.5,8.3-3.2h0ZM175.5,175.3c-1,.7-3.3-1.8-3.3-2.9,0-1,2-3.3,2.2-4.5l3.1,2.4c.1.2-1.7,4.8-1.9,5h0ZM179.6,176.1c-1.7,0-1.9-.5-1.7-2.1.6-3.2,1.1-1.9,3.8-1.9,0,1.4-.4,3.9-2.1,3.9ZM185.3,178.3c-2.9.8-2.5-4.2-1.5-4.8.6-.4,3.7.4,3.7,1.3,0,.7-1.2,3.3-2.2,3.5h0ZM188.8,179.6c-.6-2.7-.5-5.8,3.1-4.2-.2,2.3-.3,4.5-3.1,4.2ZM196.7,167.2c-.5,2,0,6-2.9,6.2l.2-.8c-6.4,1.5-12.2-2.6-17.6-5.5-.8-.8-.5-6.1-.5-7.5,0-.6.7-2.5-.2-2.5-2.7,0-5.9.2-8.5,0-3-.2-6.7-1.4-8.1-4.3-1.2-2.4-1.4-3.7.4-5.8,1.3-1.6,3.8-2.9,4.9-4.1,1.4-1.5,2.3-10,2.6-12.5.5-3.2.5-9.1,1.3-11.9.2-.8.9-1.7,1.5-2.4,1.6-2.2,7.3-6.2,9.7-7.8,2-1.3,2.4-2.2,5.3-2.5.3,0,3.2,0,3.4,0,.9.3.9,1.4,1.5,1.7.3.2.9-.2,1.2,0,.2,0,1,2.9,1.6,3.8.6,1,1.9,2.1,2.6,3,.6-1.5-2.3-7.2-2.3-7.6,0-.9,2.8-.9,3.5-1.2,2.6-.9,5.7-3.1,8.8-4,2.9-.8,7.6-2,10.4-1,.9.3,6.4,3.2,7,3.7,6.6,5.7,5.9,16.4,4.2,24.1-.4,1.8-3.5,10.2-3.5,10.9,0,.8,1.2,1.6,1.4,2.7.6,4-1.1,8.8-2.6,12.5-1.1,2.6-3.5,7.5-5.9,8.9-3.2,1.8-7,2.8-10.6,2-4.1-.9-7.1-4.9-8.7,1.6h0ZM197.8,197.4c1.1-.6,6.5-4.5,7.1-5.4,1.1-1.7,1.1-3.7,1-5.6-.1-4.1-.9-8.4-1.2-12.4-.2-3-.7-5.8,3-6.3,3.7-.5,3.8,1.4,4,4.4.5,6.5.9,17.7-2.9,23.1-2.4,3.5-12.6,7.4-16.8,8.4-3.6.9-2.9-.6-3.6-3.8,3-.6,6.6-1.1,9.4-2.4ZM187.6,218s.1.8-.2.8c-2-.7-.6-1.6.2-.8ZM171.2,191.9c1.2,5.2-.9,8.9,6.7,7.3.8-.2,2.2-1.5,3.1-.6.2.2,0,.9-.5.9l-8.4,1.4c-2.8-3.7-1.6-8.5-2.8-12.8.9.6,1.6,2.8,1.8,3.8h0ZM173.3,203.6l10.4-2.4c.9.1,2.1,2.7,2.6,3.5-7.9,3.2-16.1,6-24.5,7.7-2.4,1.9-9,2-11.3.2-.4-.3-1.9-3.7-2.1-4.4-.8-2.6-2.8-12-2.7-14.3,0-2.5.7-3.7,3.3-4.1,1.9-.3,14.2-.1,15.2.5.1,0,.1.6.3.7.8,0,2.8-.9,3.6-1.2.5.4.6,9.1.8,10.6.3,1.9,2.5,3.3,4.3,3.2h0ZM145.3,189.5c-.8-.4-2-4.7-2.1-5.7-.1-1.9,1.6-1.1,2.2.2.2.4,1.2,5.1,1.1,5.3,0,0-1,.3-1.2.2ZM147.4,183.1c2.8-2.1,3.7,3.3,4.1,5.1-.8,0-2.9.6-3.5.2-.5-.3-1.4-4.7-.6-5.3h0ZM155.5,183.1c.2.2.6,4.2.6,4.4-.2,1-2.6.5-3.4.6-.5-1.7.2-8.1,2.9-5.1h0ZM157.3,188.1c.1-3.7-.6-6.5,4.2-5,.4,4.5,1.1,5.7-4.2,5ZM142.8,150.9c2.4-.5-1.2,4.9-2.3,4.6-1.7-.4,1.9-4.6,2.3-4.6ZM126.7,139.9c.1-.5.8-.6,1.1-.9.8-1.1,1.2-2.9,2.3-1.4.4.4.8,2.2,1,2.1,1-.9.4-2.3.8-3.5.6-2.2,3.5,0,4.4.9,3.2,3.4,3.9,7.8,3.6,12.3-1.2.1-.6-.1-.6-.7,0-1,.1-1.8.2-2.8-1.7-.7-3.1,2.1-4,2.5-1,.4-1.8-.2-1.8-.1,0,0,0,.8-.2,1.1-.2.3-1.3,1.9-1.4,1.9-.3.2-1-.5-1.4-.3-.1,0-1.5,2.2-2,2.3.2-1.8-2.1-4.5-2.3-5.6-.2-1,.2-6.8.4-7.7h0ZM137.6,152.6c-.4.5-.5,1.2-1.1,1.8-1.7,1.8-4.4,3-6.8,3.1v-2.3c.7-.2.2.8.6.8,1.3,0,5.4-2.6,6.6-3.5,1.1-.9,1.5-2.1,2.7-2.7.8,1.5-1.4,2.2-2,2.8h0ZM139.1,156.7c.4,1.8-5.9,2.9-6.2,2.7.7-2.2,4.2-2.1,6.2-2.7ZM129.3,161.7c-1-1.8.6-1.9,1.6-1,1,.9-.3,3.2-1.6,1ZM126.3,149.7c.1,0,.5,2,.7,2.6.9,2.1,3.1,4.3,1.4,6.7-1.4-1.6-3.9-6.7-3.2-8.6.1-.4.8-.9,1.1-.6h0ZM122.8,163.7c.1-.8,3.7-1.3,3.9-1.2.2,4.7-1.3,1.4-3.9,1.2ZM123.5,168.1c-1.1,11.2-5.2,23.1-5.9,34.5l-1.1,4.2,4.7-41.1c1.1-.2,1.2.4,1.7,1,.5.6.7,0,.6,1.5h0ZM125.8,159.7c-1.8.6-3.6,2.9-5.6,3.9-.9.5-1.7,1-2.8.8.9-.7,1.5-2.8,2.3-3.3.5-.3,1.7.2,2.5-.1,1.4-.6,2.5-2.9,4.4-2.4.2.9-.3.8-.9,1h0ZM118.1,158.3c.3-.3,1.4.6,1.6,1.2-.7.1-2.2-.6-1.6-1.2ZM120,153.5c-.4-1-1.3-3.4.3-3.4.6,0,3.2,7,2.9,7.4-.2.2-1,0-1.3-.4-.1-.2-1.7-3.2-1.8-3.6ZM124.9,136.1c1,0,.9,1,1,1.7.1,1.8-.6,4.3-.8,6.2,0,.8.1,3.9,0,4.1,0,.1-.9.1-1.2-.2-.6-.9.4-11.8,1-11.8h0ZM122.8,140c.1.7,0,1.4-.8,1.6-.2-.5.6-1.9.8-1.6ZM121.7,144.6c.1-.7.2-1.3,1.1-1.1v5.6c0,0,.8.8,1,1.4.5,1.5,1.1,2.9,1.4,4.5-.2.3-1.2,0-1.3-.2-.2-.3-2.5-5.4-2.5-5.7,0-.5.4-3.9.5-4.5h0ZM119.8,140.3c.1-.8.8-1.7,1.4-1.1.3.3-.6,8.3-1.9,8.9,0-2.6,0-5.3.5-7.9ZM118.5,149.6c0,.9-.4,1.5-.3,2.6.2,1.1,2,3.9,1.9,4.4-.1.6-1.4.5-1.8.7-.2.1.1.8-.5.6,0-1.6-1.6-3.4-1.6-4.8,0-1.6,1.5-4.3,1.6-6,.5.1.7,2.2.7,2.6ZM115.9,143.8c.2-.7,1.2-.9,1.5-.7.4.4-1.6,7.2-2.1,8.1-.3.6-.5,1.3-1.4,1.2.6-2.7,1.2-6.1,2-8.6ZM108,141.2c-.5,0-.8.1-1.2-.3-.5-.4-2.8-4.7-2.3-5.2.3,0,.8-.1,1.1,0,.4.2,2.9,4.9,2.4,5.4h0ZM109.2,143.5c.6-.1,1,.3,1.4.8.4.4,1.9,4.4.8,4.3-.5,0-2.5-4.6-2.1-5h0ZM111.7,164.1c-1.5-.7-4.7-8.6-4.1-9.3,1-.1,1.4.9,1.8,1.6,1,1.9,1.5,4.5,2.3,6.6.2.5,1,.4,0,1.2h0ZM111.9,160.2c-.2-.1-1-3-1.3-3.6-.4-.9-2.1-2.8-1.7-3.4l3.5-2.3c-.3,1.3,1.6,8.6,1.3,8.9,0,0-1.8.5-1.9.4h0ZM113.1,163.1c0-.3.7-.3.8-.2,0,0,0,.5.3.8.6.4,1.3.7,1.9,1.2.8,1-3,1.3-2.9-1.7h0ZM116.1,160.9c-.9-1.3-1.5-3.8-1.9-5.4-.1-.5-.6-1.3.3-1.4,1.6-.3,2.8,6.5,2.9,7.8-.8.2-.9-.4-1.2-.9h0ZM117.5,246.4c-1.3,1.5-4.3,1.1-6.1.7-2.3-.6-2.8-1.7-2.7-4,.2-2.5,2.4-3.3,2.4-3.5,0-.4-.5-1.6-.4-2.7,1.2-21.5,4.2-43.2,7.3-64.5.2-1.7.1-4.8.4-6.1.1-.6,1.6-.7,1.6,0,0,.2-.9,2.4-1,3.2-.6,3.6-.6,7.4-1,11.1-1.3,12.9-3,25.7-3.8,38.7,1.1.3,1.6-.8,1.8-1.7,2.8-12.5,4.6-26.8,7.1-40,.6-3.1,1.2-7.5,2.1-10.3.2-.6.2-1.4,1-1.6-1.2,9.2-2.8,18.3-4.2,27.4-1.2,7.8-2,15.7-3.2,23.6-.8,5.1-3.6,15.1-2.9,19.7.5,3.1,3.9,7.4,1.6,10.1h0ZM191.6,235.1c-.6.6-.6,1.6-1.1,2-.5.4-1.4.3-2,.7-1.9,1.3-2.6,3.8-5.4,4.2-11.7,1.8-23.6-.6-35.3,0-.6,0-1,.7-1.9.8-8.4.6-16.8,1.3-25.2,1.9l-1-4.1c4.3-.6,8.7-.2,13-.6,6-.6,12.5-2.1,18.6-2,2.3,0,4.6.9,7,1,3.4.1,7.7-.8,11.2-1,4.8-.2,9.6,0,14.4,0,2.3-.6.5-2.3,1.3-4.2,1.3-3.1,5.6-4.1,8.6-3.6.7,4.1-.6,2.9-2.1,4.6h0ZM206.1,224.9c0,0-1-.2-.3,1.2-.4.4-6.7.6-7.9.9-1.2.2-3.4,2.1-3.6,2.1-.3,0-1.4-.7-2.1-.8-2.2-.3-6.6.6-7.8,2.7-1.3,2.1-.3,5-4.1,5.6-3.4.6-6.8.3-10.1.4-10.8.4-21.8-.2-32.6.4-4.9.2-10.8,1.5-15.6,1.5-2.3,0-4.5,0-4.8-2.8-.7-6.1,1.7-13.6,2.6-19.5,1-6.8,2.1-13.5,3.1-20.2,1.8-11.1,2.8-22.4,5.2-33.5,1.4.8,2.5,1.7,3.7,0,.4-.6.5-1.6.7-1.9.2-.2,5.1-1.1,6.6-2,2.3-1.4,3.9-5.3,6.1-7l5,24.4c-.4.6-3.3-.1-3.5,2.2-.3,3.3,5.6-.4,6.4-.4,1.5,0,2.9,2.1,4.4,2.5,1.3.3,4.2.5,5.8.7.6,0,1.3-.4,2.2-.2,1.6.3,3,2.4,2.6,4,0,.4-1,0-1.1.2-.3.3.1,2.1,0,2.3-.1.1-2.7.1-3.2.4-1.4-3.1-.7-5.5,3.2-3.9-.5-2.6-2.3-1.5-3.7-1.6-2.1-.1-4.4-.4-6.6-.6-.6,0-1.5-.8-2.7-.8-1.6,0-2.1,1.1-2.9,2.1-.9-3.7-3.9-1.1-5.2-1.2-.6,0-1.1-.9-2.3-.8-3.3.4.4,7.5.6,9.1.2,2.1-.8,4.5-.3,6.9.6,2.9,2.2,8.7,3.2,11.5,1.6,4.4,2.4,6.8,7.4,6.6,8.5-.4,15.7-4.3,23.6-6.7,1.4-.4,5.4-1.8,6.6-1.7,5.4.3.4,6.4,0,8.3-.9,4.1,4.4,6.8,5.8,3.9.8-1.6.8-6.9.6-9-.1-1.4-1.2-3.6-.5-4.9.4-.9,7.8-3,8.9-2.7.5.1,1.2,6.6,4.5,5.5-.8,2.4-3.8,2.1-3.1,5.6.4,2.1,2.6,1.9,3.3,2.5.1.1,0,2.4.5,3.4.4.7,2.2,1.8,2.4,2.2.4,1.1-.6.8-.9,1.4-.2.6,0,1,0,1.4h0ZM206.6,224.8c0-.4.5-.8.7-1.3.1-.5,0-1.2.2-1.5.1-.2,2.1-1.3,2.5-1.8,1.3-1.4,1.4-3.7,3.8-3.8.4,0,2,.3,2.1.4.7,1-4.4,10-5.6,11.2-.2-1.1-3.6-3-3.7-3.3h0ZM209.7,237.8c-.1-.7.4-1.3,1.2-1.2l-1.2,1.2ZM209.7,234.1c-.4-1.1.9-1.3,1.2-1,.5.5-.7,2.3-1.2,1ZM215.7,225c-.5,1.8-1.4,8-4.6,7-2.1-.7.7-3.2,1.1-3.9.5-.9,3.5-6.5,3.9-6.6,1.6,0-.3,3.2-.4,3.5h0ZM212.8,248.3c.3-.6.9-1.3,1.6-1.2-.3.6-.9,1.3-1.6,1.2ZM214,255.3c.4-.6,2-.9,2.7-1.2-.4,1-1.7,1.2-2.7,1.2ZM277.6,185.1c.3.2.3,4.9.2,5.6,0,.6,0,1.1-.8,1-2.4-.4-.4-4.9-1-6.6.5,0,1.2-.1,1.5,0h0ZM275.7,179.9l1,2.7-.6.2-1-2.7.6-.2ZM275.7,194.4c-.2,2.1-2.8,2.7-3.2,4.9l-3.9,4-.4-1.2c1.2-.6,6.2-9.1,7.6-7.8h0ZM273.6,190.1c.5-1.9-.2-5.7.2-7.8.4,0,.7.6.9,1,.2.2.6,0,.6.7,0,2.4-1,5.2-.9,7.7-1.7.9-7.6,10.7-8.3,10.7-.3,0-.9-1-.2-1.4,1.6-3.1,6.7-7.9,7.6-11h0ZM250.5,212.1c.9-1.9,2.1-4.3,3-5.9,1.5-2.6,1.6-4.6,5.1-3.6.6.5-4.7,6.7-5.2,7.4-.6.8-.9,1.8-1.4,2.4-1.1,1.4-2.7,2.6-1.5-.2h0ZM249.6,210c-.4.6-1.2,1.2-1.8,2.1-1,1.5-1.6.5-.9-1.3,1.2-3,3.2-6.3,4.4-9.4h1.9c.3.3-3,7.7-3.5,8.6h0ZM253.4,213c.5-.8,6.9-9,7.4-9.3.7-.4,3.2-1.4,3.3-.2,0,.7-4,5.4-4.8,6.3-.8.8-4,4-4.7,4.4-1.9,1-2.1.4-1.2-1.2h0ZM260.5,202.1l-1.2,1.2c-.1-1.3-.1-1.3,1.2-1.2ZM263.1,198.7c-.3.5-.6,1.8-.7,1.9-.3.2-3.2,0-3.4-.7.5,0,1.1,0,1.5-.2.9-.5,8-13.4,8.1-14.7,0-.6-.4-1.3-.3-1.9l.2-4.5c.7.5.5,1.1.6,1.7.2,1.7.9,5.5.7,6.9-.3,2.2-5.2,9.1-6.7,11.6h0ZM264.1,184.9c.5-.9,1.7-.6,2.7-.6.7.6-3.6,8.6-4.3,9.8-.4.6-2.5,4.7-3.4,3.8-.5-.5,4.9-11.2,5.1-13h0ZM270.8,189.3c.4-.4,1.3,0,1.3,0,.2.2,0,1.1-.2,1.5-.4.9-5.3,8.2-6,8.8-.5.4-.9.7-1.6.6-.5-.4,5.9-10.3,6.4-10.9h0ZM272.2,177.3c-.3,1.5.3,3,.4,4.4,0,.5-.4,1.3-.4,2,0,.6,1,3.2-.5,2.9-1.2-.2-.7-7.5-1.3-8.7.4-.8,1.1-.6,1.9-.6h0ZM270.2,175.7c-.2.2-1.4,0-1.5-.6l-1.6-2.1c1.3-1.1,3.5,2.3,3.1,2.7h0ZM265.5,173.1c.5.3,1.6,8.1,1.6,9.3-.7,0-1.6.2-1.9-.6-.7-2.3-.4-6-1.2-8.5,0-.3,1.3-.3,1.5-.1ZM260.5,168.8c0,0,.8.4,1,.6.5.4,2.7,1.9,2.1,2.6-.4.4-3.7-2.2-3.1-3.1h0ZM260.2,176c.2-.8,2-.5,2.7-1l1.1,7.5c-2.6,3.9-3.5,8.8-5.2,13.1-.5,1.4-2.4,2.1-1.3,4.3-1.4-.2-2.5-.3-3.9-.2.5-.5,1.1-.7,1.5-1.2,1-1.5,5.5-12,5.7-13.7.1-.9-.2-5.4-.2-6.8s-.4-1.6-.4-1.9h0ZM254,197.2l-1.6.2,4.7-13.4c.5-.8,1.5-.6,2.3-.6l-5.4,13.7h0ZM258.5,173.1l.2,5-.7,3.1c-1.4-2.4-.9-5.5-1.8-8.1.8-.2,1.5-.4,2.3,0ZM252,169.4c0-.1.8-.9,1-.9.2,0,3.1,2,3.3,2.3,0,0-.9,1.1-.9,1.1-.6,0-3.5-1.8-3.3-2.5ZM229.9,187.8c-.6.6-.4,2.2-1.6,1.9-.2-.9.5-2,1.6-1.9ZM223.9,194.1c.2-.3,1.8-2,2.1-1.6.2.3-3.1,5.5-3.9,5.8.2-1.4,1-3,1.8-4.2h0ZM225.2,202.5c-.8-.2-.9-.9-.8-1.6.2-.4.9,1.1.8,1.6ZM221.7,209c-.1-.4-.7-.3-.8-.5-.2-1.2,2-4.3,3.3-4.6,1.3-.3,2.4.5,3.7.6.7-.7-3.4-2.9-1.1-6,.8-1.1,3.4-2.5,4.7-2.2.4,0,0,1.1,1.2.8.1,0,.1-.7.5-.8.5-.1,1.3.1,1.6,0,.2-.1,1.9-4.7,1.6-5-3.9.4-4.6,1.1-6.5,4.2-.6,1-1.7.6-1.3-.5.5-1.4,2.3-3.9,3.7-4.5,1-.4,3.8,0,4.3-.3.5-.3.3-1.5.8-2,.1-.2,3.2-.5,2.9-2.5-.1-1-2.9.3-3.2.6-.7.5-1.1,2.5-2,2.3-1.3-.2,1.3-3.2,1.5-3.4.1,0,2.7-1.2,2.9-1.2.8-.1,2.4.6,2.8.3,0,0,.1-1,.6-1.6,1.1-1.2,3-.4,1.4-2.7,1.7.3,1.9-.7,2.4-1.1.5-.3,1.8-.2,2.1-.6.2-.2-.8-.6.9-1.1,0-.2-.5-.7-.4-.8,0,0,.9,0,1.4-.4.6-.4,1-1.7,2.5-1.6-.4,2-2,2.2-3.5,2.7,0,.9-2.3,3-3.1,3.7-7.3,6.9-8.9,12.9-13.4,21.5-.2.4-1.9,3.1-2.1,3.1-.2.1-.7-.3-.6-.8.3-1.5,2.6-3.6,2-5.4-.8.4-2.6,5.6-2.6,6,0,.4,1.5-.3,0,1.6-1.7,2.2-5.8,4.8-2.3.2-1.9-.9-4.9.9-4.3,3.1l2.3-.2c-.7.9-1.9,1.9-3.1,1.2-.7-.4-.6-1.6-.8-2.2h0ZM228.1,213.8c-1.2.1-3.5.1-4.5-.6-1.2-.8,1.5-1,1.9-1.2,10.1-4.5,13.7-23.6,22.6-30.6l6.9-4.9c.2.2,1.2,5.5,1,5.9-.9,3.4-3.5,7.8-4.4,11.5-.2,1-.8,3.6-.6,4.5.2,1.1,1.1.6,1.2,1.4-.7,0-1.7,0-2.2.5-.8.8-2.6,6.2-2.9,6.4-.2.2-1-.1-1.4.1-.2.1-.3.8-1,1.2-3.5,1.9-12.9,5.4-16.8,5.7h0ZM245.4,210.7c.4,1.9-1,5.1-3.1,4.2-.1-1.9,1.1-4.3,3.1-4.2ZM227.5,231.4c-.1-.8.9-.6,1.3-1,.6-.5,2.9-2.7,3.8-1.9.1.1.7,3,.7,3.3.1,3.3-2.2,4.7-2.3,7.8,0,1.9.8,3.5.8,5.1,0,2-.5,4.3-.4,6.6.1,4.6,1.5,11.3.1,15.6-.1.5-.3,1.1-.9,1.2l-3.1-36.7h0ZM229.1,263.1c.6,0,.6,1.7.7,2.2.1.8.7,1.9-.1,2.4-1.1-1.2-.4-3.2-.6-4.6ZM253.5,222.7c-.1.1-.8,0-1.1,0,0-1.2-.4-3.2,1.2-2.1.5.3,0,2.1,0,2.1h0ZM250.1,219.6c0,.7,1.6,1.2,1.6,1.4-.4,1.6-2.6,4.7-3.4,6.7-3.8,9.3-7.4,21.8-9.6,31.5-.7,3.3-2.8,8-2.1,11.4h0c.2.9.9,1.1,1.1,1.7.1.4,0,1.2-.2,2.1-.4,1.5-1.2,3.2-1.9,3.4-.9.2-4.6-1.2-5.4-1.9-3.7-3,1.9-5.4,2.8-8.1.7-2.1.9-5.2,1.5-7.4,2.1-7.5,4.5-14.9,6.2-22.6,1.3-6.2,2.8-13.1,2.5-19.4h1.2c0,3.6-.2,7.3-.6,10.9,0,.8-.8,3.1-.8,3.6,0,.6.6.9.6,1.2,0,.2-.6.1-.7.3,0,0-.4,1.3-.4,1.4-.3,1-.6,3-.8,4.2-.1.6-.6.8.2,1.4,1,0,3.5-8.6,4.1-9.9.9-2.1,4.2-7.9,4.3-9.7.1-2.9-3.5-1.8-4.6-2.6-.3-.2-.3-1.5-.5-2-.1-.3-.7-.3-.8-.5,0-.4.7-2.3.9-2.4.9-.6,8.5,1.7,9.6,2.5.6.4.2.4,0,.8-.9,1.4-3.1,2.4-4.7,2.1h0ZM245.4,221.1h2.7c.4.4-2.8,9-3.3,10.1-.2.5-.4,1.1-1,1.2.4-3.8,2-7.4,1.6-11.3h0ZM259,218.5c.2.3-.1,1.6-.6,1.9-1.2.7-2.4-.2-3.6-.4-.1-.2,1.2-2.1,1.8-2.3.4,0,2.3.6,2.4.8h0ZM266.7,206.8l-10.1,9.1c-2.2.4,0-2,.8-2.7,1.1-1.1,3.1-1.9,3.9-2.7.7-.6,4-5.3,4.5-5.3.4.4,1.2,1,1,1.5h0ZM267.5,207.9c.7-1.2,2.5-2,3.9-1.9l-3.9,1.9ZM273,206.8l1.9-1.6c-.1,1.3-.6,2.2-1.9,1.6ZM277.1,202.6c-.6.3-6,1.9-6.3,1.9-.6-.1-.5-.5-.2-1,.5-.8,1.7-1.5,2.3-2.3.7-.9,1.1-2,1.7-2.8.5-.6,1.8-1,2.3-2.2.4-1,1-3.9,1.4-5.2.1-.4-.1-3.3.9-2.4.2.2,1.7,3.9,1.9,4.6,1,4.2.2,7.5-3.9,9.5h0Z"/>
  <path class="st2" d="M177.8,183.1c.4.1,1.8-.6,2-.8,1.9-3.4-9.8-3.9-5.9-1.1.2.1,3.7,1.9,3.9,1.9h0Z"/>
  <path class="st2" d="M140.9,177c-1,0-4.2.6-4.9,1.3-2,1.8,0,5,2.3,3.5,1.2-.8,1.2-2,1.9-2.7.4-.4,1.9-.8,1.9-1.1s-.8-.9-1.3-.9h0Z"/>
  <path class="st2" d="M132.1,143.9c0,.4.3,2.2.4,2.3.7.6,1-2.1-.4-2.3Z"/>
  <path class="st5" d="M77,109.8l1.4-2.5-5.2-2.8,5.3-9.7,5.2,2.8,1.6-2.9,6.3,3.4-1.6,2.9,7.9,4.3c1.2.7,1.8.6,2.6-.8.2-.3.2-.4.4-.9l5.9,3.2c-.3,1.8-1.5,4.2-2.2,5.5-3.1,5.8-5.8,6-10.3,3.6l-9.6-5.2-1.4,2.5-6.3-3.4h0Z"/>
  <path class="st5" d="M93.3,87.1l-3.2-3.5,2.2-2,3.2,3.5-2.2,2ZM99.3,89.2l16.8,18c3.3,3.5,5.5,6.7,1.8,10.1-.4.4-.8.7-1.1.8l-1.8-1.9c.3-.2.8-.6.9-.8,1.8-1.7.6-3.3-1.5-5.5l-17.3-18.6,2.2-2h0Z"/>
  <path class="st5" d="M121.2,81.3l1.7,2.4c4.4,6.2,4.1,10.8-.3,14-4.4,3.2-8.7,2-13.2-4.2l-1.8-2.5c-4.3-6.1-3.6-10.8.6-13.8,4.3-3.1,8.8-1.7,12.9,4.1h0ZM111.8,88l1.8,2.5c2.5,3.5,4.6,5,6.6,3.6,1.9-1.3,1.2-3.7-1.3-7.3l-1.8-2.5c-2.5-3.5-4.5-4.8-6.4-3.4-1.8,1.3-1.4,3.6,1.1,7.2Z"/>
  <path class="st5" d="M126.2,73.9c-.7-1.9-1.3-3.8-2-5.7l2.8-1c.4.9.9,2.3,1.4,3.6.4-2.4,1.8-5.4,5.9-6.8,3.5-1.2,6.5-.3,8.4,2.1.5-2.5,1.7-5.7,6.1-7.2,4.2-1.5,8.6-.3,10.9,6.2l4.8,13.8-2.8,1-4.8-13.7c-1-2.9-3.2-6.2-7.6-4.6-4,1.4-5.7,5.1-3.8,10.4l4.2,12.1-2.8,1-4.9-13.9c-1-2.9-3.1-5.9-7.6-4.4-4.8,1.7-5.3,6.1-3.6,10.8l4.1,11.7-2.8,1-5.7-16.4h0Z"/>
  <path class="st5" d="M183.3,70.1l-.6,10.9-2.8-.2,1.4-25.2c.2-3.2.3-5.4.3-6.9h2.7c0,.6,0,2,0,3.2.9-2,2.5-3.4,5.4-3.2,4.1.2,6,3.8,5.7,10.6l-.2,3.2c-.4,7.3-3.3,10.8-7.4,10.5-2.8-.2-4-1.6-4.5-3.1h0ZM192.3,62.6l.2-3.2c.3-5.1-.9-7.9-3.7-8-3.6-.2-4.7,3.1-5,8.1v2.3c-.4,4.8,0,8.6,3.7,8.8,2.9.2,4.5-3,4.8-8h0Z"/>
  <path class="st5" d="M218.7,80.8c-1.2,2.5-2.6,5.8-2.9,6.7l-7.5-3.6c0-.5.4-1.7.6-2.2-1.7.9-3.9,1.3-7.5-.4-5-2.4-6.1-6.8-4.2-10.7,2.5-5.2,7.7-5.4,14.5-2.2.8.4,2,1,2.7,1.3l.6-1.2c.7-1.4.7-2.7-1.3-3.7-1.9-.9-2.8-.3-3.7,1.1l-7.5-3.6c2.1-3.6,6-6.1,13.8-2.3,7.2,3.5,8.8,7.7,6.2,13l-3.8,8h0ZM212.5,73.7c-.4-.2-1.2-.6-1.8-.9-2.9-1.4-4.3-.8-5.1.8-.6,1.3-.4,2.7,1.3,3.5,2.8,1.4,4.1-.4,5.3-2.8l.3-.7h0Z"/>
  <path class="st5" d="M231.1,71.7c1.8-3.4,2.7-5.1,3.2-5.9l1.4.8c-.3.6-1.4,2.8-2.1,4.1,2-1.8,4.9-3.1,8.8-.9,3.2,1.8,5.3,5.1,2.2,10.8l-7.4,13.4-1.5-.8,7.3-13.3c2-3.6,1.9-7-1.5-8.8-4.5-2.4-8.1,0-10.9,5.1l-6,11-1.4-.8,8-14.6h0Z"/>
  <path class="st5" d="M256.7,110.5c-5.2,5.7-10.4,7.4-16.6,1.8-5.2-4.7-4.6-9.2-2.7-12.1l1.1,1c-1.8,3.2-1.1,6.9,2.5,10.1,5.8,5.2,10.3,2.9,14.7-2.1l2.8-3.1c-3.5,1.8-7.2,1.6-11-1.8-4.5-4.1-4.8-10.6,0-15.8,5.4-5.9,12.3-5.6,16.5-1.8,4.2,3.8,4.1,7.7,2.9,10.2,1.6-1.8,3.1-3.4,3.4-3.7l1.1,1c-.6.7-2.9,3.1-4.4,4.8,0,0-10.3,11.4-10.3,11.4ZM248.8,89.5c-4.3,4.7-4,10.4,0,14,4.9,4.4,9.9,2.9,14.1-1.7,3.9-4.3,5.2-9.5.3-13.9-4.6-4.2-10.5-2.6-14.4,1.7h0Z"/>
  <path class="st5" d="M260.2,116.8l7.8-5.7,6.1,8.3-7.8,5.7-6.1-8.3ZM271,110l10.6-9.3,4.7-3.4,6.7,9.2-4.8,3.5-12,7.2-5.2-7.1h0Z"/>
  <path class="st4" d="M53.8,171.6l-.3.3-.2.2h-.2c0,0-.1-.1-.1-.1l-.3-.3-.3-.3-.2-.3h0c0-.1,0-.4,0-.4v-.3s0-.4,0-.4v-.4c0,0,.1-.6.1-.6l.2-.2.3-.2h.3c0,.1.1.3.1.3v.3c0,0,0,.4,0,.4v.3c0,0,.1.4.1.4v.2l.2.3.4.8h0ZM53.4,167.6l.3.6-.3.4-.2.3v.3c0,0-.3.2-.3.2h-.2c0,.1-.5,0-.5,0v-.4c0,0,.1-.3.1-.3l.3-.5.4-.3.3-.3h0ZM53.9,165.3h.1c0,.1,0,.3,0,.3l.2.2h.1c0,.1-.3.7-.3.7l-.3.2h-.1c0,0-.4,0-.4,0h-.4c0-.1-.2-.3-.2-.3v-.5c.1,0,.3-.2.3-.2h.1c0-.1.1-.4.1-.4h.4c0-.1.2,0,.2,0l.4.2h0ZM52.8,168.3l.2.2v.5c0,0-.2,0-.2,0l-.4-.4.2-.3h.2ZM56.6,169h-.3c0,.1-.5.3-.5.3h-.2c0,0,0-.6,0-.6l-.3-.2h-.2c0-.1-.2-.2-.2-.2l-.2-.2-.5.3h-.3s-.2,0-.2,0l-.3.2h-.2c0,0-.1,0-.1,0v-.2c-.1,0,0-.5,0-.5l.3-.2.2-.2h.4c0-.1.2-.2.2-.2h.4c0,0,.2,0,.2,0l.3-.2h.3c0,0,.4.3.4.3h.1c0,.1.2.2.2.2h.2c0,.1.2.4.2.4v.2c0,0,.3.3.3.3v.2c0,0,0,.3,0,.3h0ZM54.6,171.5l.3-.2h.3c0,0,0,0,0,0h.1c0-.1.2-.4.2-.4v-.2h.1c0-.1.1-.2.1-.2v-.6c.1,0,0-.4,0-.4h-.1c0-.1,0-.3,0-.3v-.2c0,0,.6-.1.6-.1h.3l.2.5h.1c0,.1,0,.7,0,.7v.5s-.2.3-.2.3v.6c0,0-.3.1-.3.1h0c0,.1-.1.4-.1.4l-.2.2-.2.2-.2.2-.2.2h-.3s-.4.2-.4.2h-.1c0-.1-.2,0-.2,0h-.7s-.2,0-.2,0v-.2c0,0-.3,0-.3,0l-.3-.2-.2-.3.2-.2.3-.4.3.2h.2c0,0,.6,0,.6,0h0ZM53.5,167.7h0v.2s0,.4,0,.4v.4s-.2,0-.2,0v-.2c0,0,0-.2,0-.2v-.3s.3-.2.3-.2h0ZM56.7,165.3v.6c.1,0,0,.4,0,.4l-.2.3h-.2c0,.1-.5-.1-.5-.1l-.2-.3v-.3s-.3-.2-.3-.2h.3s.3-.4.3-.4h.2c0,0,.3-.2.3-.2h.1c0,.1.4.3.4.3Z"/>
  <path class="st4" d="M61.5,171.2v.2c.1,0,.3-.2.3-.2h0c0-.1,0,0,0,0h.2s0-.3,0-.3v-.3l.2-.2v-.2c-.1,0-.5-.3-.5-.3h-.2s-.2-.2-.2-.2h-.2c0-.1,0-.4,0-.4h.4c0-.1.3,0,.3,0l.5.2.2.2h.2s.2.4.2.4h.1c0,.1.1.2.1.2v.6s0,.2,0,.2h0c0,.1-.1.3-.1.3l-.3.3h-.2c0,.1-.3.5-.3.5h-.6c0,.1-.2.2-.2.2h-.2s-.1,0-.1,0h-.2c0,.1-.5,0-.5,0h-.2c0,0-.2-.2-.2-.2h-.1s-.3,0-.3,0l-.8.2v-.2c-.1,0-.3-.2-.3-.2v-.9s.1-.3.1-.3v-.2c0,0,0-.3,0-.3l.2-.2h.2s.1,0,.1,0l.2.3.3.2h.3c0,.1.2.2.2.2v.2s.1.1.1.1h.2c0,0,.2-.2.2-.2l.2.2v.3c0,0,.2-.2.2-.2h.2s0,0,0,0ZM59.9,168.3h-.1c0,0-.1.2-.1.2v.2c0,0-.1.3-.1.3h-.2c0,0,0,0,0,0l-.3-.4v-.2s0-.2,0-.2v-.2s.2-.2.2-.2l.3-.5h.2s.6-.2.6-.2h.2s.2.3.2.3l-.3.2-.4.4h0c0,.1.2.3.2.3h0ZM59.8,168.8l.3.2v.2s0,.2,0,.2h-.6c0-.1-.2-.3-.2-.3l-.2-.2v-.6c.1,0,.3,0,.3,0l.4.3v.2h0ZM60.8,169.7h-.2c0-.1-.2-.1-.2-.1h-.4c0,0-.3-.4-.3-.4l.3-.2h.7s.3,0,.3,0l.6.2h.4c0,.1,0,.3,0,.3v.3h-.2c0,0-.3,0-.3,0h-.2c0,0-.2,0-.2,0h-.2s0,0,0,0ZM60.8,167.6h-.5c0,0-.3.2-.3.2l-.2-.4.3-.2.3-.3h.3c0,.1.1,0,.1,0h.4c0,.1.2.1.2.1h.2s.2.2.2.2l.5.2v.2c0,0,0,.1,0,.1l-.6-.3h-.3s-.3,0-.3,0h-.3ZM61.8,167.8v-.2c.1,0,.5,0,.5,0l.2-.3h0c0-.1.4.1.4.1l.2.4-.2.5h-.2s-.5,0-.5,0h-.2c0-.1-.3-.4-.3-.4ZM62.3,168.3l-.3-.2v-.3s.3-.1.3-.1v.5c.1,0,0,.1,0,.1ZM62.8,168l.2.2v.5c0,0-.2.1-.2.1h0c0,0-.4-.5-.4-.5l.2-.3h.2Z"/>
  <path class="st4" d="M65.2,169.8h.7c0,0,0,.2,0,.2v.3c.1,0,.3.4.3.4h.2s.1,0,.1,0v.2c0,0,.4.6.4.6l.3.2v.4c0,0,0,.4,0,.4h-.2c0,0-.3,0-.3,0h-.5c0-.1-.2-.3-.2-.3l-.2-.4-.3-.4-.2-.3v-.3s0-.2,0-.2v-.2c0,0,.1-.5.1-.5h0ZM65.1,169.2v-.2c0,0,.1-.2.1-.2h0v-.5c0,0,.2-.2.2-.2h.2c0-.1.2-.2.2-.2l.2-.2h.2c0-.1.1-.2.1-.2h.4c0,0,.1-.2.1-.2h.2c0,0,.3.1.3.1h.2c0,0,.4.1.4.1v.2s0,.1,0,.1h.2c0,.1.3.3.3.3v.5c0,0-.8,0-.8,0l-.2-.2h-.2c0,0-.3-.1-.3-.1h-.3s-.3.1-.3.1l-.3.3v.2c-.1,0-.2.2-.2.2v.2c-.1,0,0,.4,0,.4v.4h-.8v-.6c-.1,0,0-.3,0-.3h0ZM66.8,172.4v-.5s0-.3,0-.3h.2c0-.1.2-.2.2-.2v-.2c0,0,.2,0,.2,0v-.2c.1,0,.4,0,.4,0l.2-.2v-.2c.1,0,.3-.2.3-.2v-.4s0-.3,0-.3h.3s.3.1.3.1v.2c0,0,.3.3.3.3v1.2c0,0,.2.2.2.2h.3c0,0,.1.2.1.2l.6.2v.2s0,.1,0,.1l-.3.2h-.1c0,.1-.4.2-.4.2h-.5c0,0-.3,0-.3,0h-.5c0-.1-.1-.4-.1-.4h0c0,.1-.1.2-.1.2h-.2s-.1.1-.1.1l-.2.2-.4-.2h-.1c0,0-.2-.1-.2-.1h0ZM68,165.4h.2c0,0,.1,0,.1,0h.4s.2.1.2.1v.4c.1,0,.2.7.2.7v.9c-.1,0-.4,0-.4,0h-.3v-.3l-.2-.2.2-.3v-.2c-.1,0-.3-.1-.3-.1h-.2s-.5,0-.5,0l-.5-.2v-.3c0,0,0-.2,0-.2l.3-.2v-.2c0,0,.5.1.5.1h.4ZM69.2,169.4l-.2.6h0c0,.1-.2.2-.2.2h-.2s-.5-.5-.5-.5v-.6s0-.2,0-.2v-.2c-.1,0,.2-.6.2-.6h.2s.5,0,.5,0v.4c0,0,0,.9,0,.9h.1c0,0,0,0,0,0ZM69,167.1v.2s0,.3,0,.3v.5c0,0,0,.2,0,.2l-.2.2-.2.2-.2-.4v-.2c-.1,0-.1-.4-.1-.4l.2-.4v-.2c0,0,.4,0,.4,0h0Z"/>
  <path class="st4" d="M75.4,170.1h0c0,0,0,.3,0,.3v.2c0,0,.2.3.2.3v.2c0,0-.2.3-.2.3v.3c0,0,0,.2,0,.2v.2h-.2c0,0-.3.2-.3.2l-.3.2h-.3s0,0,0,0l-.3.2h-.2c0,0-.3-.3-.3-.3h-.2l-.2-.3v-.4c-.1,0-.2,0-.2,0v-.7s0-.2,0-.2v-.3c.1,0,.8-.4.8-.4h.2c0,0,.4-.1.4-.1l.6.3.3.3h0Z"/>
  <path class="st4" d="M58.2,185.6v.2c.1,0,.3-.2.3-.2h0c0-.1,0,0,0,0h.2s0-.3,0-.3v-.3l.2-.2v-.2c-.1,0-.5-.3-.5-.3h-.2s-.2-.2-.2-.2h-.2c0-.1,0-.4,0-.4h.4c0-.1.3,0,.3,0l.5.2.2.2h.2s.2.4.2.4h.1c0,.1.1.2.1.2v.6s0,.2,0,.2h0c0,.1-.1.3-.1.3l-.3.3h-.2c0,.1-.3.5-.3.5h-.6c0,.1-.2.2-.2.2h-.2s-.1,0-.1,0h-.2c0,.1-.5,0-.5,0h-.2c0,0-.2-.2-.2-.2h-.1s-.3,0-.3,0l-.8.2v-.2c-.1,0-.3-.2-.3-.2v-.9s.1-.3.1-.3v-.2c0,0,0-.3,0-.3l.2-.2h.2s.1,0,.1,0l.2.3.3.2h.3c0,.1.2.2.2.2v.2s.1.1.1.1h.2c0,0,.2-.2.2-.2l.2.2v.3c0,0,.2-.2.2-.2h.2s0,0,0,0ZM56.6,182.7h-.1c0,0-.1.2-.1.2v.2c0,0-.1.3-.1.3h-.2c0,0,0,0,0,0l-.3-.4v-.2s0-.2,0-.2v-.2s.2-.2.2-.2l.3-.5h.2s.6-.2.6-.2h.2s.2.3.2.3l-.3.2-.4.4h0c0,.1.2.3.2.3h0ZM56.5,183.2l.3.2v.2s0,.2,0,.2h-.6c0-.1-.2-.3-.2-.3l-.2-.2v-.6c.1,0,.3,0,.3,0l.4.3v.2h0ZM57.5,184.1h-.2c0-.1-.2-.1-.2-.1h-.4c0,0-.3-.4-.3-.4l.3-.2h.7s.3,0,.3,0l.6.2h.4c0,.1,0,.3,0,.3v.3h-.2c0,0-.3,0-.3,0h-.2c0,0-.2,0-.2,0h-.2s0,0,0,0ZM57.5,181.9h-.5c0,0-.3.2-.3.2l-.2-.4.3-.2.3-.3h.3c0,.1.1,0,.1,0h.4c0,.1.2.1.2.1h.2s.2.2.2.2l.5.2v.2c0,0,0,.1,0,.1l-.6-.3h-.3s-.3,0-.3,0h-.3ZM58.5,182.1v-.2c.1,0,.5,0,.5,0l.2-.3h0c0-.1.4.1.4.1l.2.4-.2.5h-.2s-.5,0-.5,0h-.2c0-.1-.3-.4-.3-.4ZM59,182.7l-.3-.2v-.3s.3-.1.3-.1v.5c.1,0,0,.1,0,.1ZM59.5,182.4l.2.2v.5c0,0-.2.1-.2.1h0c0,0-.4-.5-.4-.5l.2-.3h.2Z"/>
  <path class="st4" d="M62.8,181.9v.2s0,.2,0,.2h-.1c0,.1,0,.2,0,.2l.3.4v.4c-.1,0-.2.1-.2.1l.2.3v.2c0,0-.4.2-.4.2v-.2l-.2-.5v-.4c0,0-.2-.2-.2-.2v-.3c-.1,0-.4-.1-.4-.1h0c0-.1,0-.4,0-.4v-.2c.1,0,.3,0,.3,0h.3c0,.1.1.1.1.1h.3s.4,0,.4,0h0ZM63.5,184.7l.2-.4.3-.3v.2s0,.2,0,.2v.8s-.2.2-.2.2v.2s.1.2.1.2v.4c-.1,0-.1.2-.1.2v.3c-.1,0-.4,0-.4,0l-.3.2-.4-.6h-.1v-.9s0-.2,0-.2v-.3h-.1c0-.1,0-.3,0-.3v-.5c0,0,0-.3,0-.3h.2v.3s0,.2,0,.2h.2c0,0,0,.2,0,.2l.2.2h.2c0,0,0,0,0,0ZM63.8,182.2h-.3c0,0,0-.4,0-.4h.4c0-.1,0,.1,0,.1v.2h0ZM64.2,182.6v.6c0,0-.3.1-.3.1h0c0-.1-.1-.3-.1-.3v-.2s.2-.2.2-.2h.3s0,0,0,0ZM63.7,182.2h.2c0-.1.2-.1.2-.1l-.3.2h-.1c0-.1,0-.1,0-.1ZM64,183.6v.2c.1,0,.1.3.1.3h-.4c0,0,0-.2,0-.2l.3-.2ZM64.7,183l-.2-.3h-.3s0-.3,0-.3v-.2c-.1,0-.4,0-.4,0v-.3s.5-.1.5-.1h.6c0,0,.1,0,.1,0h.5c0,0,0,.3,0,.3v.3c0,0-.4,0-.4,0h0v.4l-.2.2h0ZM64,183.4h-.2c0-.1,0-.4,0-.4h.2c0,0,0,.3,0,.3h0ZM64.2,182.2h0v.2s0,.4,0,.4v.4s-.2,0-.2,0v-.2c0,0,0-.2,0-.2v-.3s.3-.2.3-.2h0ZM64.7,183.4h0s0-.2,0-.2h.2c0-.1.2,0,.2,0v.2h-.3ZM65.8,185h.1l.2-.2.2.3v.4c0,0,0,.3,0,.3v.6c-.1,0-.3.2-.3.2h0c0,.1-.6,0-.6,0l-.2-.3v-.6s0-.4,0-.4h-.1c0-.1,0-.5,0-.5v-.5s0-.2,0-.2l-.2-.3v-.4c0,0,.1-.1.1-.1v.3c.1,0,.2.2.2.2h0c0,.1.2.5.2.5v.3c0,0,.4.4.4.4h0ZM67.3,181.9l-.2.5v.4l-.2.3v.4c0,0-.1.3-.1.3l-.2.3h-.2c0,0,0-.3,0-.3v-.5c0,0,0-.1,0-.1v-.2c0,0,.1-.3.1-.3v-.4c0,0-.6,0-.6,0v-.2c0,0,0-.2,0-.2l.2-.3h.5c0,.1.4.1.4.1l.4.2h0ZM66.4,184.1h.1c0,.1,0,.3,0,.3v.2c-.1,0,0,.4,0,.4h-.3c0,0,0-.5,0-.5v-.2s.3-.2.3-.2h0ZM67.6,181.8v.3c0,0,0,.2,0,.2h-.2c0,0-.3,0-.3,0l-.2-.2v-.3s.3-.2.3-.2h.2c0,.1.2.3.2.3h0Z"/>
  <path class="st4" d="M70,183.6h0c0,0,.2.4.2.4h.4s0,.1,0,.1l.2.2h0c0,.1-.1.2-.1.2h-.4c0,0-.3.1-.3.1h-.2c0-.1-.2,0-.2,0l.2.3v.2c0,0,0,.5,0,.5l-.5.2-.2-.2-.2-.4v-.6c0,0,0-.1,0-.1v-.4c.1,0,.2-.2.2-.2v-.4s.2-.6.2-.6l.3-.2.5-.4h.2s.1-.2.1-.2h.1c0,.1.2.1.2.1h.2c0,0,.3,0,.3,0v.2s0,.2,0,.2h-.2c0,0-.5.2-.5.2h-.2c0,.1,0,.4,0,.4h-.1c0,.1-.2.3-.2.3l-.2.3v.3c0,0,0,0,0,0ZM69.2,185.3h.3c0,0,.2-.2.2-.2l.4.4.2.2.5.2h.2c0,.1.3.2.3.2l.2-.2h.6c0-.1.1-.4.1-.4h.3c0-.1.1-.3.1-.3l.2-.2h.2s0,.1,0,.1h0c0,.1,0,.4,0,.4l-.2.3v.2c-.1,0-.4.2-.4.2l-.2.2h-.6c0,.1-.2.3-.2.3h-.3c0,.1-.2,0-.2,0h-.2c0-.1-.5-.2-.5-.2h-.2l-.2-.2-.3-.4-.3-.4-.2-.2v-.2s0,0,0,0ZM70.1,183h0v.2s0,.4,0,.4v.4s-.2,0-.2,0v-.2c0,0,0-.4,0-.4l.3-.2h0ZM72.1,183.9v.3s-.1,0-.1,0h-.3c0,0-.4.2-.4.2l-.3.2v-.2h-.1c0-.1-.4-.2-.4-.2h-.4s-.2,0-.2,0h0c0-.1.1-.2.1-.2v-.2c0,0,.4,0,.4,0h.3c0,0,.5-.1.5-.1v.2c.1,0,.5-.2.5-.2h.2c0,0,.4.1.4.1h0ZM70.6,183.9v.3c0,0,0,.2,0,.2h-.2c0,0-.3,0-.3,0l-.2-.2v-.3s.3-.2.3-.2h.2c0,.1.2.3.2.3h0ZM72.9,183.2h-.2c0,0-.5,0-.5,0l-.2-.4-.4-.3v-.2s-.2,0-.2,0h-.1s-.2,0-.2,0h-.3c0-.1-.5-.1-.5-.1v-.4s.2-.1.2-.1l.2-.2h.4s.3,0,.3,0l.8.2h.4c0,.1,0,.4,0,.4l.3.2v.2s0,.3,0,.3h0ZM71.3,184l.4-.3v-.2s.3-.4.3-.4v-.3h.8c0,0,.3.3.3.3v.2c0,0,.1.2.1.2h0v.7c0,0-.6,0-.6,0h-.2c0,0-.3.3-.3.3v-.2c-.1,0-.7,0-.7,0v-.3q0,0,0,0ZM72.1,184.2h-.4c0,0,0-.3,0-.3h.4c0-.1,0,.1,0,.1v.2h0Z"/>
  <path class="st4" d="M287.3,169.1h0c0,0,.2.4.2.4h.4s0,.1,0,.1l.2.2h0c0,.1-.1.2-.1.2h-.4c0,0-.3.1-.3.1h-.2c0-.1-.2,0-.2,0l.2.3v.2c0,0,0,.5,0,.5l-.5.2-.2-.2-.2-.4v-.6c0,0-.1-.1-.1-.1v-.4c.1,0,.2-.2.2-.2v-.4s.2-.6.2-.6l.3-.2.5-.4h.2s.1-.2.1-.2h.1c0,.1.2.1.2.1h.2c0,0,.3,0,.3,0v.2s.1.2.1.2h-.2c0,0-.5.2-.5.2h-.2c0,.1,0,.4,0,.4h-.1c0,.1-.2.3-.2.3l-.2.3v.3c0,0,0,0,0,0ZM286.4,170.9h.3c0,0,.2-.2.2-.2l.4.4.2.2.5.2h.2c0,.1.4.2.4.2l.2-.2h.6c0-.1.1-.4.1-.4h.3c0-.1.1-.3.1-.3l.2-.2h.2s.1.1.1.1h.1c0,.1,0,.4,0,.4l-.2.3v.2c-.1,0-.4.2-.4.2l-.2.2h-.6c0,.1-.2.3-.2.3h-.3c0,.1-.2,0-.2,0h-.2c0-.1-.5-.2-.5-.2h-.2l-.2-.2-.3-.4-.4-.4-.2-.2v-.2s0,0,0,0ZM287.4,168.6h0v.2s0,.4,0,.4v.4s-.2,0-.2,0v-.2c0,0,0-.4,0-.4l.3-.2h0ZM289.4,169.5v.3s-.1,0-.1,0h-.3c0,0-.4.2-.4.2l-.3.2v-.2h-.1c0-.1-.4-.2-.4-.2h-.4s-.2,0-.2,0h0c0-.1.1-.2.1-.2v-.2c.1,0,.4,0,.4,0h.3c0,0,.5-.1.5-.1v.2c.1,0,.5-.2.5-.2h.2c0,0,.4.1.4.1h0ZM287.9,169.6v.3c-.1,0,0,.2,0,.2h-.2c0,0-.3,0-.3,0l-.2-.2v-.3s.3-.2.3-.2h.2c0,.1.2.3.2.3h0ZM290.2,168.8h-.2c0,0-.5,0-.5,0l-.2-.4-.4-.3v-.2s-.2,0-.2,0h-.1s-.2,0-.2,0h-.3c0-.1-.5-.1-.5-.1v-.4s.2-.1.2-.1l.2-.2h.4s.4,0,.4,0l.8.2h.4c0,.1.1.4.1.4l.3.2v.2s0,.3,0,.3h0ZM288.6,169.6l.4-.3v-.2s.3-.4.3-.4v-.3h.8c0,0,.3.3.3.3v.2c0,0,.1.2.1.2h0v.7c-.1,0-.6,0-.6,0h-.2c0,0-.3.3-.3.3v-.2c-.1,0-.7,0-.7,0v-.3q0,0,0,0ZM289.3,169.8h-.4c0,0,0-.3,0-.3h.4c0-.1,0,.1,0,.1v.2h0Z"/>
  <path class="st4" d="M295.3,171.2v.2c.1,0,.3-.2.3-.2h0c0-.1.1,0,.1,0h.2s0-.3,0-.3v-.3l.2-.2v-.2c-.1,0-.5-.3-.5-.3h-.2s-.2-.2-.2-.2h-.2c0-.1,0-.4,0-.4h.4c0-.1.3,0,.3,0l.5.2.2.2h.2s.2.4.2.4h.1c0,.1.1.2.1.2v.6s0,.2,0,.2h0c0,.1-.1.3-.1.3l-.3.3h-.2c0,.1-.3.5-.3.5h-.6c0,.1-.2.2-.2.2h-.2s-.1,0-.1,0h-.2c0,.1-.5,0-.5,0h-.2c0,0-.2-.2-.2-.2h-.1s-.3,0-.3,0l-.8.2v-.2c-.1,0-.3-.2-.3-.2v-.9s.1-.3.1-.3v-.2c0,0,0-.3,0-.3l.2-.2h.2s.1,0,.1,0l.2.3.3.2h.3c0,.1.2.2.2.2v.2s.1.1.1.1h.2c0,0,.2-.2.2-.2l.2.2v.3c0,0,.2-.2.2-.2h.2s0,0,0,0ZM293.7,168.3h-.1c0,0-.1.2-.1.2v.2c0,0-.1.3-.1.3h-.2c0,0,0,0,0,0l-.3-.4v-.2s0-.2,0-.2v-.2s.1-.2.1-.2l.3-.5h.2s.6-.2.6-.2h.2s.2.3.2.3l-.3.2-.4.4h-.1c0,.1.2.3.2.3h0ZM293.6,168.8l.3.2v.2s0,.2,0,.2h-.6c0-.1-.2-.3-.2-.3l-.2-.2v-.6c.1,0,.3,0,.3,0l.4.3v.2h0ZM294.5,169.7h-.2c0-.1-.2-.1-.2-.1h-.4c0,0-.4-.4-.4-.4l.3-.2h.7s.3,0,.3,0l.6.2h.4c0,.1,0,.3,0,.3v.3h-.2c0,0-.3,0-.3,0h-.2c0,0-.2,0-.2,0h-.2s0,0,0,0ZM294.6,167.6h-.5c0,0-.3.2-.3.2l-.2-.4.3-.2.3-.3h.3c0,.1.1,0,.1,0h.4c0,.1.2.1.2.1h.2s.2.2.2.2l.5.2v.2c.1,0,0,.1,0,.1l-.6-.3h-.3s-.3,0-.3,0h-.3q0,0,0,0ZM295.6,167.8v-.2c.1,0,.5,0,.5,0l.2-.3h0c0-.1.4.1.4.1l.2.4-.2.5h-.2s-.5,0-.5,0h-.2c0-.1-.3-.4-.3-.4h0ZM296.1,168.3l-.3-.2v-.3s.3-.1.3-.1v.5c.1,0,0,.1,0,.1h0ZM296.6,168l.2.2v.5c0,0-.1.1-.1.1h0c0,0-.4-.5-.4-.5l.2-.3h.2c0,0,0,0,0,0Z"/>
  <path class="st4" d="M300.7,167.9h-.2c0,0-.2.1-.2.1h-.3s-.5,0-.5,0h-.1c0,.1-.3,0-.3,0l-.2-.2v-.2s0-.3,0-.3h.2c0-.1.2-.2.2-.2h.2c0,.1.2,0,.2,0h.5s.3.2.3.2h.2c0,0,0,.4,0,.4v.3h0ZM300.4,167.1l.2.2v.5c0,0-.2,0-.2,0l-.4-.4.2-.3h.2c0,0,0,0,0,0ZM301.7,167l.3.2.5-.2h.2c0,0,.2.1.2.1h.3c0,.1.3.1.3.1l.2.2-.2.6h-.4s-.8.2-.8.2l-.4-.3-.3.2v.3c-.1,0-.4.2-.4.2h-.5s0-.2,0-.2v-.3c0,0-.2,0-.2,0h-.3c0-.1,0-.5,0-.5v-.2l.3-.2v-.3c.1,0,.3-.3.3-.3h.5s.2.4.2.4h0ZM302,170.9h.2v-.4c0,0,.4-.1.4-.1l.2-.3.2-.2.2-.2h.2c0,.1.3.2.3.2v.3s0,.2,0,.2v.2s-.2.6-.2.6l-.2.4v.3c-.1,0-.3.1-.3.1h0c0,.1,0,.3,0,.3h-.6c0,.1-.2.4-.2.4v-.2h-.8c0,0-.2.1-.2.1v-.2c-.1,0-.1-.3-.1-.3l-.4-.2-.3-.5h0c0-.1.2-.3.2-.3v-.3s-.1-.3-.1-.3l.2-.5h.7c0-.1.4.1.4.1h.2c0,0,0,.2,0,.2h0c0,.1-.1.3-.1.3v.2c0,0,.2.1.2.1h0ZM301.6,167.1h-.4s-.3,0-.3,0v-.5s0-.4,0-.4v-.6c0,0,0-.2,0-.2h.3c0-.1.4,0,.4,0h.3c0,.1.2.4.2.4l-.2.4v.2c-.1,0,0,.4,0,.4l-.3.3h0ZM301.5,170.3h-.3s-.4,0-.4,0v-.3c-.1,0-.1-.2-.1-.2v-.2s0-.4,0-.4v-.2c0,0,.2-.2.2-.2h.5c0,0,.1,0,.1,0l.2.2v.5l.3.2h-.2c0,.1-.2.3-.2.3v.2q-.1,0-.1,0ZM301.5,168.6l-.2.5h-.2c0,0-.2,0-.2,0v-.3c-.1,0-.2-.2-.2-.2l.2-.7h.7c0,0,.1.3.1.3v.3c.1,0-.1.1-.1.1h-.1c0,.1,0,.1,0,.1ZM302.3,171.3v.2s-.3.2-.3.2h-.2s-.4,0-.4,0h-.1v-.4l.3-.2h.4s.3.1.3.1h0ZM301.4,167.5h-.1s0-.2,0-.2h.2c0-.1.2,0,.2,0v.2h-.3ZM302.3,171.4h-.3c0,.1,0-.3,0-.3v-.2c0,0,0-.2,0-.2v.4s.2.3.2.3h0Z"/>
  <path class="st4" d="M309.2,170.1h0c0,0,0,.3,0,.3v.2c0,0,.2.3.2.3v.2c0,0-.2.3-.2.3v.3s0,.2,0,.2v.2h-.2c0,0-.3.2-.3.2l-.3.2h-.3s-.1,0-.1,0l-.3.2h-.2c0,0-.3-.3-.3-.3h-.2l-.2-.3v-.4c-.1,0-.2,0-.2,0v-.7s0-.2,0-.2v-.3c.1,0,.8-.4.8-.4h.2c0,0,.4-.1.4-.1l.6.3.3.3h0Z"/>
  <path class="st4" d="M287,184.7h.2c0-.1,0-.3,0-.3h.5s.1,0,.1,0h.5c0-.1,0,0,0,0l.2.4-.6.4h-.3s-.2,0-.2,0v.2c-.1,0-.1.4-.1.4h.1c0,0,.2.1.2.1h.5c0,0,0,.4,0,.4l-.2.4h-.6c0,.1-.4.2-.4.2h-.2c0-.1-.3,0-.3,0h-.4c0,0-.3-.2-.3-.2v-.2c0,0,0-.4,0-.4v-.3s0-.1,0-.1l.2-.4.2-.2h.4v-.2c.1,0,.2-.1.2-.1h0ZM288.9,181.6v.5h-.8c0,.1-.4.2-.4.2h-.2c0,0-.1.2-.1.2h-.2c0,0,0,.2,0,.2v.2s-.3.3-.3.3h-.4c0,.1-.4-.2-.4-.2v-.2c0,0,.2-.3.2-.3v-.2c.1,0,.3-.2.3-.2h.2v-.4c.1,0,.3-.1.3-.1h.1c0,0,.2-.2.2-.2h.6s.3-.1.3-.1h.4c0,.1.3.2.3.2h0ZM287.5,186.6v-.5c0,0,0-.2,0-.2l.6-.2h.5c0,.1.1,0,.1,0h.3c0,0,.1,0,.1,0h.2s.2,0,.2,0h.1s.2,0,.2,0h.5c0,.1.4.3.4.3v.2l-.2.4h-.1c0,.1-.4.2-.4.2h-.3c0,0-.2-.1-.2-.1h-.5c0,0-.7,0-.7,0h-.2c0,0-.2-.1-.2-.1h-.4c0,0,0,0,0,0ZM288.4,185.1h-.3v-.2s-.3-.4-.3-.4v-.2c0,0,.5-.2.5-.2h.2s.6-.2.6-.2h.3c0,0,0-.1,0-.1l.3-.6v-.2s0-.2,0-.2h0c0-.1-.1-.3-.1-.3h-.2c0-.1-.5-.2-.5-.2h-.2c0,0-.3-.2-.3-.2v-.2s.1-.4.1-.4h.4s.5,0,.5,0l.4.2h.5s.2.1.2.1l.3.6v.3c0,0,.1.5.1.5v.2c0,0-.1.4-.1.4h-.2c0,.1-.1.3-.1.3l-.2.2-.4.4h-.3c0,0-.3.2-.3.2h-.3c0,0-.2,0-.2,0h-.2c0,.1,0,.1,0,.1Z"/>
  <path class="st4" d="M295.1,186v.4c0,0,.1.3.1.3l-.5.2h-.5s-.2-.2-.2-.2h-.4c0-.1-.3-.4-.3-.4l-.3-.3-.3-.2-.2-.3h-.1c0-.1,0-.4,0-.4v-.2s0-.5,0-.5v-.2s0-.1,0-.1v-.6l.2-.2h.1c0-.1.2-.2.2-.2l.3.2v.6s0,.2,0,.2v.5s-.2-.1-.2-.1l.3.7h.2v.2l.3.3.2.2h.2c0,0,.6.2.6.2h0ZM293,182.5h0c0,0,.4-.3.4-.3h.2c0-.1.5-.4.5-.4l.3.5-.4.4v.2c-.1,0-.3.3-.3.3v.3s-.6.3-.6.3l-.4-.3.2-.5.2-.4v-.2s0,0,0,0ZM294.9,181.7v.3c0,0,.1.4.1.4l-.3.2h-.2c0,.1-.2.1-.2.1h-.4s-.1,0-.1,0h-.4c0,.1-.3,0-.3,0v-.2c.1,0,.2-.1.2-.1v-.3l.2-.2.2-.2h.4c0-.1.3-.2.3-.2h.4c0,.1,0,.2,0,.2ZM293.4,183.1l-.2-.2v-.2c0,0,.3,0,.3,0v.3c0,0,0,0,0,0ZM295.4,182.7h-.2c0,0-.2-.2-.2-.2h-.3c0,0,0-.2,0-.2v-.2s0-.1,0-.1v-.2c0,0,.2,0,.2,0h.2c0,0,.3-.2.3-.2h.2s.4.3.4.3h.1c0,.1.2.2.2.2v.4s-.4.3-.4.3h0c0,.1-.4,0-.4,0h0ZM295.5,182.5l.4-.3.2-.2h.4c0,0,.1.2.1.2v.2c.1,0,.1.2.1.2l.2.3v.2c0,0,.3.5.3.5h-.1c0,0,.1.2.1.2v.4s0,.1,0,.1v.5s-.1.3-.1.3v.6c0,0-.3.3-.3.3v.2c-.1,0-.3.2-.3.2l-.2.2-.2.2-.2.2h-.1s-.3,0-.3,0h-.4c0,.1-.1,0-.1,0h-.1c0,0-.3-.1-.3-.1v-.2s-.1-.3-.1-.3v-.3c0,0,0,0,0,0h.1c0-.1.2-.2.2-.2h.1c0-.1.2,0,.2,0h.1c0,.1,0,0,0,0l.2-.2.2-.2v-.2l.2-.2v-.3l.2-.3-.2-.4h-.1c0-.1,0-.3,0-.3h-.2c0,0,0-.5,0-.5l-.4-.2v-.2h0Z"/>
  <path class="st4" d="M300.2,184.7h.2c0-.1,0-.3,0-.3h.5s.1,0,.1,0h.5c0-.1,0,0,0,0l.2.4-.6.4h-.3s-.2,0-.2,0v.2c-.1,0-.1.4-.1.4h.1c0,0,.2.1.2.1h.5c0,0,0,.4,0,.4l-.2.4h-.6c0,.1-.4.2-.4.2h-.2c0-.1-.3,0-.3,0h-.4c0,0-.3-.2-.3-.2v-.2c0,0,0-.4,0-.4v-.3s0-.1,0-.1l.2-.4.2-.2h.4v-.2c.1,0,.2-.1.2-.1h0ZM302.1,181.6v.5h-.8c0,.1-.4.2-.4.2h-.2c0,0-.1.2-.1.2h-.2c0,0,0,.2,0,.2v.2s-.3.3-.3.3h-.4c0,.1-.4-.2-.4-.2v-.2c0,0,.2-.3.2-.3v-.2c.1,0,.3-.2.3-.2h.2v-.4c.1,0,.3-.1.3-.1h.1c0,0,.2-.2.2-.2h.6s.3-.1.3-.1h.4c0,.1.3.2.3.2h0ZM300.7,186.6v-.5c0,0,0-.2,0-.2l.6-.2h.5c0,.1.1,0,.1,0h.3c0,0,.1,0,.1,0h.2s.2,0,.2,0h.1s.2,0,.2,0h.5c0,.1.4.3.4.3v.2l-.2.4h-.1c0,.1-.4.2-.4.2h-.3c0,0-.2-.1-.2-.1h-.5c0,0-.7,0-.7,0h-.2c0,0-.2-.1-.2-.1h-.4c0,0,0,0,0,0ZM301.6,185.1h-.3v-.2s-.3-.4-.3-.4v-.2c0,0,.5-.2.5-.2h.2s.6-.2.6-.2h.3c0,0,0-.1,0-.1l.3-.6v-.2s0-.2,0-.2h0c0-.1-.1-.3-.1-.3h-.2c0-.1-.5-.2-.5-.2h-.2c0,0-.3-.2-.3-.2v-.2s.1-.4.1-.4h.4s.5,0,.5,0l.4.2h.5s.2.1.2.1l.3.6v.3c0,0,.1.5.1.5v.2c0,0-.1.4-.1.4h-.2c0,.1-.1.3-.1.3l-.2.2-.4.4h-.3c0,0-.3.2-.3.2h-.3c0,0-.2,0-.2,0h-.2c0,.1,0,.1,0,.1Z"/>
  <path class="st4" d="M307,182.6v.5s.2.3.2.3l-.4.4.3.3h.3c0,0,.4.1.4.1v.5c.1,0-.7.4-.7.4h-.4c0,.1-.2,0-.2,0h-.3c0-.1,0-.3,0-.3l-.2-.9v-.2c-.1,0-.1-.3-.1-.3v-.3c0,0,0-.1,0-.1l.4-.7.3-.2h.3c0,.1.1.2.1.2v.4h0ZM305.9,181.8l.4-.3h1.4s.2,0,.2,0l.2-.2h.3c0,.1.2.2.2.2h.8s.4,0,.4,0h.2l.3.3v.4c-.1,0-.3.1-.3.1h-.3c0,.1-.4.2-.4.2l-.5-.2h0c0,.1-.5.2-.5.2h-.1s-.2,0-.2,0h-.4c0,0-.3.6-.3.6l-.2.3-.4-.2-.5-.2h-.2v-1.1s0-.2,0-.2h0ZM306.2,184.3l.7.3v.2s-.1.4-.1.4l-.6.3h0c0-.1-.2-.5-.2-.5v-.3s.3-.3.3-.3h0ZM305.9,188.9h0c0-.1.2-.4.2-.4h.1c0,0,.4-.1.4-.1h.1c0,0,.2-.2.2-.2h.2c0,0,.1,0,.1,0h.2l.4-.2h.3c0,0,.2-.3.2-.3h.2l.4-.3.3-.2.2.3.3.4h-.2c0,.1-.2.3-.2.3h-.2c0,.1-.2.4-.2.4h-.3c0,0-.2.3-.2.3h-.4c0,0-.2.2-.2.2h-.2c0,.1-.4.2-.4.2h-.2c0,0,0,.2,0,.2h-.5s-.1-.1-.1-.1h-.2l-.2-.4h0ZM308.2,183.7l.2.2h.4c0,0,.1-.1.1-.1h.2s.1,0,.1,0l.3.2h.1c0,.1.2.5.2.5v.2c.1,0-.2.5-.2.5l-.4-.3-.3-.3h-.6c0,0-.4.2-.4.2h-.3c0-.1-.3,0-.3,0h-.2c0-.1-.1-.6-.1-.6l.6-.4h.2l.2-.2h.3,0ZM310.3,186v.7c0,0-.1.2-.1.2v.2s0,.1,0,.1l-.2.3-.3.4-.4.2-.4.2v-.2c-.1,0-.3-.3-.3-.3l-.2-.2.3-.2h.2c0-.1,0-.3,0-.3v-.2c.1,0,.2-.3.2-.3l.2-.2h.2c0-.1.2-.2.2-.2h-.1v-.8c-.1,0-.2-.3-.2-.3l-.2-.3h-.1c0-.1-.4-.6-.4-.6l.3-.3.2-.2h.4c0,.1.2.2.2.2h.2c0,.1.2.6.2.6h.2c0,.1.2.3.2.3v.4c0,0,0,.1,0,.1v.3s0,.2,0,.2h0Z"/>
</svg>